<?xml version="1.0" encoding="utf-8"?>
<!-- Generator: Adobe Illustrator 27.7.0, SVG Export Plug-In . SVG Version: 6.00 Build 0)  -->
<svg version="1.1" xmlns="http://www.w3.org/2000/svg" xmlns:xlink="http://www.w3.org/1999/xlink" x="0px" y="0px"
	 viewBox="0 0 160 46" style="enable-background:new 0 0 160 46;" xml:space="preserve">
<style type="text/css">
	.st0{fill:#FFFFFF;}
</style>
<g id="Layer_1">
	<g>
		<path class="st0" d="M69.2,24c-1.7,0-3.3-0.1-5-0.2c-0.2,0.2-0.1,1.2,0,1.2c0.4,0,2,0.1,2.2,0.9c0.2,0.8,0.2,2,0.2,2.6v2.4
			c0,0.2,0,0.7-0.4,1c-0.5,0.4-1.5,0.5-2.1,0.5c-5.2,0-7.1-5.4-7.1-10c0-5.3,1.6-8.9,6-8.9c4.7,0,6.3,3.4,6.6,4.7
			c0.2,0.1,0.6,0.2,1,0.2c0.3,0,0.6,0.1,0.6-0.3s-0.5-5.4-0.8-5.5c-2.2-0.5-5.5-1-7.7-1c-6.2,0-11,5.3-11,11.6
			c0,5.9,4.7,11.1,10.7,11.1c4.7,0,6.6-1,8.3-1.9c0.6-0.3,0.7-0.7,0.7-0.9c0-0.3-0.2-0.3-0.2-1.3v-1.9c0-1.6,0.1-2.4,0.5-2.7
			c0.4-0.2,1.5-0.5,1.8-0.5c0.1,0,0.1-0.4,0.1-0.6v0c0-0.2-0.1-0.6-0.1-0.7C72.4,23.8,70.6,24,69.2,24z"/>
		<path class="st0" d="M91.7,11.7L91.7,11.7c-3,0-4.7,0.2-7.3,0.2c-2.7,0-4.4-0.2-7.3-0.2c-0.5,0-1.8-0.2-2.3-0.4l-0.6,5.5
			c0.1,0.1,0.7,0.2,1,0.2c0.2,0,0.3,0,0.3-0.2c0.6-2.5,1.8-3.3,3.6-3.3c2.6,0,2.6,0.3,2.8,0.6c0.3,0.5,0.3,1.7,0.3,3.1v12.1
			c0,0.6,0,1.8-0.2,2.6c-0.2,0.4-1.8,0.8-2.2,0.8c-0.1,0-0.1,0.5-0.1,0.7c0,0.2,0.1,0.5,0.1,0.5c1.5-0.1,3.3-0.3,4.9-0.3
			c1.5,0,3.3,0.2,4.7,0.3c0-0.1,0.1-0.4,0.1-0.6c0-0.2,0-0.6-0.1-0.6c-0.3,0-2-0.5-2.1-0.8c-0.2-0.9-0.3-1.5-0.3-2.7V17.2
			c0-1.3,0-2,0.3-3c0.1-0.3,0.2-0.6,2.8-0.6c1.7,0,2.9,0.8,3.6,3.3c0,0.1,0.2,0.2,0.3,0.2c0.3,0,0.9-0.1,1-0.2L94,11.3
			C93.5,11.5,92.2,11.7,91.7,11.7z"/>
		<path class="st0" d="M114.4,28c-0.2,0-0.4,0.1-0.5,0.2c-0.6,1.5-1.8,2.7-2.4,3c-1,0.5-2.5,0.9-3.8,0.9h-0.9
			c-1.4,0-2.1-0.1-2.3-0.5c-0.2-0.7-0.3-1.7-0.3-2.4V24c0-0.3,1.5-0.3,2.4-0.3c1.3,0,2.2,0,2.6,0.3c0.3,0.2,0.4,0,0.9,2
			c0.1,0.2,0.3,0.3,0.5,0.3s0.6-0.1,0.7-0.1v-6.3c-0.1-0.1-0.5-0.2-0.7-0.2s-0.5,0.1-0.5,0.2c-0.6,2.2,0.5,2.1-2.8,2.1h-1.8
			c-0.7,0-1.4,0-1.4-0.2v-5.2c0-0.8,0-2,0.2-2.6c0.1-0.4,0.8-0.4,2.2-0.4h1.3c1.8,0,3.9,1.4,4.7,3.1c0.1,0.2,0.2,0.2,0.5,0.2
			c0.2,0,0.7-0.1,0.8-0.2c-0.3-1.5-0.7-3.3-1-5c-3.6,0-7.7,0.2-10.8,0.2c-2.2,0-4.9-0.2-4.9-0.2c-0.1,0.1-0.1,0.4-0.1,0.6
			c0,0.2,0.1,0.6,0.1,0.6c0.4,0,2.1,0.5,2.2,0.9c0.2,0.8,0.2,2,0.2,2.6v12.7c0,1.2,0,2.2-0.2,2.9c-0.2,0.4-1.8,0.8-2.2,0.8
			c-0.1,0-0.1,0.5-0.1,0.7c0,0.3,0.1,0.5,0.1,0.6c0,0,2.9-0.2,4.9-0.2c4.5,0,7.8,0.1,11.5,0.1c0.2-1.5,1.2-4,1.8-5.8
			C115.3,28.2,114.7,28.1,114.4,28L114.4,28z"/>
		<path class="st0" d="M134.2,27.5L134.2,27.5c-0.2,0-0.6,2-1.6,3c-0.9,0.9-2.3,1.8-4.3,1.8c-4.7,0-7.1-4.7-7.1-9.9c0-4.7,1.3-9,6-9
			s6.4,3.2,6.7,4.4c0.2,0,0.4,0.1,0.5,0.1c0.4,0,0.9-0.2,0.9-0.5c0-0.3-0.4-4.9-0.7-5c-2.2-0.5-5.5-1-7.7-1
			c-6.4,0-11.1,5.3-11.1,11.5c0,5.9,4.8,11,10.7,11c3.1,0,5.4-0.6,7.6-1.4c0.5-0.2,1.4-4.5,1.4-4.9
			C135.5,27.4,134.3,27.5,134.2,27.5z"/>
		<path class="st0" d="M157.6,32c-0.2-0.9-0.3-1.6-0.3-2.8V16.6c0-1.2,0-2,0.3-2.8c0.1-0.4,1.8-0.8,2.1-0.8c0.1,0,0.2-0.4,0.2-0.6
			c0-0.2-0.1-0.5-0.1-0.6c-1.3,0.1-3.1,0.2-4.5,0.2l0,0c-1.6,0-3.5-0.1-5-0.2c-0.2,0.2-0.1,1.2,0,1.2c0.4,0,2,0.5,2.1,0.9
			c0.2,0.8,0.2,2,0.2,2.6v4.9l-0.1,0.1c-1.5,0-2.4,0.1-3.9,0.1c-1.9,0-2.4,0-4-0.1c0,0-0.1-0.1-0.1-0.1v-4.8c0-0.2,0.1-2.3,0.3-2.8
			c0.1-0.4,1.9-0.8,2.2-0.8c0.2,0,0.2-1,0-1.2c-1.3,0.1-3.4,0.2-4.9,0.2c-1.5,0-3.1-0.1-4.7-0.2c-0.1,0.1-0.1,0.4-0.1,0.6
			c0,0.2,0.1,0.7,0.1,0.7c0.4,0,1.9,0.4,2.1,0.9c0.2,0.4,0.2,2,0.2,2.6v12.8c0,0.6,0,2-0.2,2.7c-0.2,0.4-1.9,0.8-2.3,0.8
			c-0.1,0-0.1,0.5-0.1,0.7s0.1,0.5,0.1,0.6c1.6-0.1,3.2-0.3,4.7-0.3s3.5,0.2,4.8,0.3c0.1-0.3,0.1-1.2-0.1-1.2c-0.3,0-2-0.5-2.1-0.8
			c-0.2-0.9-0.3-1.6-0.3-2.8v-5.5c0-0.1-1.1-0.2,4.1-0.2c1.7,0,2.4,0,3.9,0.1c0,0,0.1,0.1,0.1,0.1v5.6c0,0.6,0,1.9-0.2,2.6
			c-0.2,0.4-1.8,0.9-2.2,0.9c-0.2,0-0.2,1.1,0,1.2c1.5-0.1,3.5-0.3,5-0.3s3.2,0.2,4.5,0.3c0-0.1,0.1-0.4,0.1-0.6
			c0-0.2,0-0.7-0.1-0.7C159.5,32.8,157.8,32.4,157.6,32z"/>
	</g>
</g>
<g id="Layer_2">
</g>
<g id="Layer_3">
	<path class="st0" d="M30.3,37.9c0,0-0.1,0.2-0.3,0.6c-0.3,0.7-0.8,1.5-1.5,2.5c0,0,3.1-1.9,4.8-5.7c0,0,0.3-0.6,0.3-0.8
		c0,0,0.1-0.4,0.2-0.5h0c-0.3-0.9-0.8-1.6-1.3-2C32.6,33,32.3,35,30.3,37.9z"/>
	<path class="st0" d="M37.9,27.5l-0.7-1v0c-0.1-0.2-0.2-0.5-0.3-0.8c-0.2,0.1-0.4,0.2-0.8,0.4l-1.5,0.8l-1.3,1.5l0.2,0.6
		c0,0,2.3-0.1,4,0.3C37.8,28.8,38,28,38,28l0,0C38.1,27.7,37.9,27.5,37.9,27.5z"/>
	<path class="st0" d="M37.6,24.9c0,0.2,0,0.4,0,0.4c0.4-0.7,0.9-1.2,0.9-1.2v0c0.4-1,0.3-1.8,0.3-2.1c-0.2,0.1-0.4,0.3-0.5,0.3
		C38.4,22.8,38.4,23.9,37.6,24.9z"/>
	<path class="st0" d="M14.2,22.7c-0.7-1.2-1.1-2.4-1.4-3.7c-0.2-0.8-0.2-1.5-0.2-2c0,0-0.1,0.1-0.2,0.2c0,0-2,5.2,1.4,10.3
		c0,0-0.1,0.1-0.5-0.1c0,0-2.3-1.3-2.9-5c0,0-0.3-3.9,1.1-8.9c-1.8,0.6-7.9,3.3-7.2,13c0,0,0,0,0.1,0.1c0.2-0.7,1-3.5,3.1-4.5
		c0,0,0.1,0.1,0.1,0.3c0,0-1.6,6.4,4.5,10.3c0,0,0.1,0,0.1-0.2c0,0,0.1-1.8,0.3-2.5c0,0,0.2,0,0.4,0.3c0,0,0.7,2.4,1.2,2.9
		c0,0,0.3,0.4,0.6,0.7c0,0,1.7,1.6,2.9,2.5c0,0,2,2,2.3,4.4c0,0,1.3-1.6,0.7-3.8c-0.4-1.5-1.4-2.6-2.4-3.7c-0.9-0.7-3.1-4-3.1-4
		c-0.4-0.5-0.4-0.5-0.2-0.4l0.1,0c0.1,0,0.2,0.1,0.3,0.2l4.5,3.8c0,0,2.5,1.8,2.8,4.7l0.2,2.6h0c3.3-4.8,0.7-8.1,0.7-8.1
		C20.6,28.9,16.5,26.7,14.2,22.7z"/>
	<path class="st0" d="M31.7,8.6C32.2,8.1,32.6,7,32.6,7c-0.6-1.1-1.5-1.3-1.9-1.4c-0.3,0.5-1.2,2.2-1.6,4C30.1,9,31,8.7,31.7,8.6z"
		/>
	<path class="st0" d="M20.6,4.5c0,0,0.5,0.3,0.8,0.5c0,0,1.2,1,2.5,2.2c1.1,1,2,2,2.7,2.6c0.4-0.1,1-0.2,1.3-0.3c0,0,0,0,0,0
		l2.3-4.7c0,0,0-0.1,0-0.1c0,0-1.2-1.3-3.1-0.9l0,5.3c-0.6-1.3-2.4-5.6-3.9-7.1c-0.4,0-0.8,0-1.3,0h0c-2.6,0-5,0.5-7.3,1.4
		C15.8,3.3,18.4,3.3,20.6,4.5z"/>
	<path class="st0" d="M12.3,10.1l0.3-0.1c-2.2-0.7-5,0.9-5,0.9c-0.4,0.1-0.3,0-0.3,0c3.9-3.1,8-2.4,9-2.1l0.5-0.3
		c-0.7-0.7-2.9-2.3-6.8-0.8c0,0-0.7,0.1,0-0.2c0,0,3.3-2.6,7.9-1.2c0,0,0,0.1,0.3,0.1L20.2,6c0,0-1.1-1.3-1.6-1.3
		c-0.1,0-3.2-1.2-6.4-0.2c-5.1,2.9-8.7,7.9-9.8,13.9c-0.2,1.7-0.1,3.1,0.1,4.2C3.3,19.4,5.8,12.4,12.3,10.1z"/>
	<path class="st0" d="M28.6,15.3l-0.3,0.1l0,0c0.5,0.6,1.1,0.3,1.1,0.3C29,15.7,28.7,15.4,28.6,15.3z"/>
	<path class="st0" d="M37.2,17.3c-0.1,0-0.2-0.1-0.2-0.1l-0.1-0.1c-0.6-0.4-1.3-0.9-1.8-1.2c0,0-0.9-0.6-1.6-0.9
		c-0.1-0.6,0-1.4,0-1.4s-0.5-1.4-3.1-2.8c0,0,0.2-0.2,0.6-0.2l2,0.9c0,0,0.4-1.2,0.4-1.7c0,0,0,0-0.1-0.1C32,9.4,30.8,9.8,30,10.2
		l-0.3,0.2l-0.2,0.2l0.3,0.6c0,0,1.5,0.6,2,1.4l0.2,1.1c0,0-0.5-1.7-4.2-2.6L27,11.2l-0.2,0l-0.4-0.1l-1.1,1.4c-0.4,0.2-1,0-1,0
		l0.8,1.2h0c-0.2,0.1-0.8,0.3-1.6,0.2c-0.6-0.3-1.2-0.7-1.2-0.7c1.2,3.5-1.4,6.7-1.4,6.7c-0.8,0.9-1,1.7-1,1.7c-0.9-2.5,1-6.6,1-6.6
		c0.1-0.4,0.1-0.7,0.1-0.7c-0.6-1.4-2.5-2.3-3-2.5l-0.4-0.1c0,0-0.5-1.1,3-2.4c1,0,2.3,1.1,2.3,1.1c0.4,0.2,1,0,1.4-0.1
		c0,0,0,0,0.1,0c0-0.1,0-0.3-0.1-0.5c-0.4-0.4-1.7-1.5-3.7-2c-0.2,0-2.9,0.6-4.5,2.6c-0.6,0.7-0.7,1.2-0.7,1.2
		c0.3,1.3,1.7,2,2.5,2.3c0,0,0.1,0,0.1,0l2.4,0.8l-0.3,0.4L17.2,15c0,0-1.8,1-2.5,4.7c0,0,1.7-1.3,3.1-1.4c0,0-2.6,2.2-0.4,6.3
		c0,0,0.7-1.5,1.5-2.1c0,0.2-0.2,2.1,0.4,3.3c0,0,0.8,2,3.4,3.9c0,0,3.3,2,3.6,5.6c0,0,0.3,3.6-0.9,6.2c0,0,0.1-0.1,0.1-0.1l2.1-1.6
		c0.9-0.9,1.6-1.8,2.1-2.7c1.1-2,0.5-3.2,0-3.9c-0.3-0.3-0.9-0.9-1.8-1.4l-3.4-2.2L23.5,29c-1.5-1-2.1-2.6-2.1-2.6
		c-1.2-3.6,1.5-8.6,1.5-8.6c0.4,0,0.2,0.8,0.2,0.8c-1.8,6.9,0.9,8.6,0.9,8.6l0.6,0.5l3.6,2.9c0.1-1.7-1-2.6-1-2.6l-2.4-2.2
		c-0.5-0.4-1-1.6-1-1.6c-0.8-2.2-0.1-3.3-0.1-3.3c0.2,0.2,0.5,0.5,0.7,0.9l0.2,0.7c0.6,1.3,2.1,1.5,2.1,1.5l-0.6-3.2
		c0.4-0.3,0.9-0.4,1.3-0.4c0.2,0.3,0.6,0.9,1.2,1.2l3.5,0.8l-0.9,1.2c0,0-0.1,0.4-0.1,0.9c-0.2,0.2-0.8,0.8-2,0.9l0.7,0.2l1.5-0.6
		l0.2,0.4l-0.4,0.8l0.2,0l0.5-0.3l0.7,0.1c0,0-0.6,0.6-0.6,0.9l0.1,0l0.7-0.7l0.5,0.1c0,0-0.6,0.8,0.4,0.1l0.3-0.1
		c0,0-0.4,0.6,0.2,0.1l0,0.1c0.9-0.3,1.9-0.7,2.7-1.3c0.4-0.3,0.8-0.8,0.9-1.2c0.1-0.2,0.1-0.4,0.1-0.6c0,0,0-0.3,0-0.5
		c-0.1,0-0.2-0.1-0.3-0.2c0,0-0.3-0.5-0.5-0.8c0,0,0-0.1-0.1-0.2c0,0-0.3-0.4-0.8-0.5c-0.1,0-0.3,0-0.3,0.2c0,0-0.7-0.3-0.7-1.1v0
		c0,0,0,0,0,0c0,0,0-0.1,0-0.1c0,0,0-0.1,0-0.1c0,0,0.1,0,0.2,0.1c0,0,0,0,0.1,0c0.2,0.1,0.3,0.1,0.5,0.2c0.3,0.1,0.7,0.2,1.2,0.2
		h0.1c0.3,0,0.5,0,0.7,0l0.3-0.1c0.9-0.2,1.4-0.1,1.7,0c0,0,0,0,0-0.1v0c0,0,0,0,0-0.1c0,0,0,0,0-0.1c0,0,0,0,0-0.1c0,0,0,0,0-0.1
		c0,0,0,0,0,0c0,0,0-0.1-0.1-0.1c0,0,0,0,0,0C39.4,19.2,38.6,18.2,37.2,17.3z M27.7,16.8l-0.5,0.3c0.1,0.2,0.2,0.4,0.4,0.6
		c-0.8-0.4-1.1-1-1.2-1.3c0.4-0.3,0.9-0.3,1.1-0.2l0.6,0.4l0,0c0.4,0.1,0.7-0.1,0.7-0.1C28.2,17.2,27.7,16.8,27.7,16.8z M34.5,18.8
		l-0.8,0L32.7,18c0,0-0.3-0.8-1.3-1l-0.6-0.2c0,0,1.1,0.1,0.5-0.2l-0.5-0.1L30,15.9c0,0-0.7,0.4-1.1,0.2c0,0-0.5-0.2-1-0.7
		c-0.1,0-0.5,0.1-0.8-0.3c0,0,0.4,0,0.6,0c0,0,0.4-0.2,0.8-0.4c0,0,0.3-0.2,0.7-0.3c0,0,0.3-0.1,0.2-0.4c0,0-0.1-0.8-1.4-1.5
		c0,0,0-0.1,0.2,0c0,0,1.4,0.5,1.6,0.6c0,0,0.8,1.4,1,1.6c0,0,0,0.1-0.1,0.1c0,0-0.4,0.2-0.2,0.5c0,0,0.1,0.1,0,0.1
		c0,0-0.5-0.1-0.4,0.1c0,0,0,0,0.1,0.1l0.9,0.5l0.6,0l0.2,0.2l0,0c0,0,2.2,1.5,2.7,1.8l0.4,0.2C34.8,18.3,34.8,18.7,34.5,18.8z"/>
</g>
</svg>
