<svg width="299" height="124" viewBox="0 0 299 124" fill="none" xmlns="http://www.w3.org/2000/svg">
<g clip-path="url(#clip0_2698_922)">
<path d="M97.2007 46.4141H74V54.4179H80.4701V78.5862H90.7306V54.4179H97.2007V46.4141Z" fill="white"/>
<path d="M110.778 46.4141H100.518V78.5862H110.778V46.4141Z" fill="white"/>
<path d="M127.667 46.4141H117.406V78.5862H127.667V46.4141Z" fill="white"/>
<path d="M152.488 44.9353H149.229V43.9082H156.851V44.9353H153.596V53.5606H152.488V44.9353Z" fill="white"/>
<path d="M159.857 52.79C160.284 52.7942 160.707 52.7066 161.097 52.5333C161.488 52.36 161.835 52.1051 162.117 51.786L162.782 52.3792C162.424 52.8089 161.972 53.1523 161.46 53.3831C160.948 53.614 160.39 53.7264 159.828 53.7119C157.858 53.7119 156.25 52.2123 156.25 49.9988C156.25 47.9446 157.705 46.2832 159.688 46.2832C161.811 46.2832 163.033 47.9626 163.033 50.0527C163.035 50.177 163.03 50.3013 163.018 50.4251H157.322C157.482 51.9247 158.593 52.79 159.857 52.79ZM161.951 49.5726C161.824 48.2887 161.076 47.1768 159.662 47.1768C158.427 47.1768 157.482 48.2039 157.332 49.5726H161.951Z" fill="white"/>
<path d="M164.185 50.024V49.9984C164.183 49.2436 164.413 48.5063 164.845 47.885C165.277 47.2637 165.89 46.788 166.602 46.5217C167.314 46.2553 168.091 46.2109 168.829 46.3944C169.567 46.578 170.231 46.9807 170.733 47.5487L170.026 48.2908C169.456 47.7002 168.819 47.22 167.848 47.22C166.391 47.22 165.28 48.4423 165.28 49.9701V49.9984C165.28 51.5391 166.419 52.7639 167.916 52.7639C168.832 52.7639 169.539 52.3094 170.109 51.7034L170.787 52.3376C170.067 53.1337 169.208 53.7114 167.861 53.7114C167.375 53.7108 166.894 53.6146 166.445 53.4286C165.997 53.2425 165.59 52.9703 165.248 52.6274C164.907 52.2846 164.637 51.8781 164.454 51.4312C164.271 50.9844 164.18 50.5061 164.185 50.024Z" fill="white"/>
<path d="M172.276 43.9082H173.343V47.6623C173.584 47.2297 173.941 46.8712 174.374 46.6262C174.807 46.3812 175.299 46.259 175.798 46.2732C177.532 46.2732 178.545 47.4287 178.545 49.1209V53.5375H177.478V49.393C177.478 48.0732 176.755 47.2464 175.495 47.2464C174.234 47.2464 173.343 48.14 173.343 49.4752V53.5478H172.276V43.9082Z" fill="white"/>
<path d="M180.546 46.4348H181.613V47.6725C181.854 47.2399 182.21 46.8814 182.643 46.6364C183.076 46.3913 183.569 46.2692 184.067 46.2833C185.802 46.2833 186.814 47.4388 186.814 49.131V53.5477H185.747V49.3929C185.747 48.0731 185.025 47.2463 183.764 47.2463C182.503 47.2463 181.613 48.1399 181.613 49.4751V53.5477H180.546V46.4348Z" fill="white"/>
<path d="M188.369 50.0241V49.9984C188.366 49.015 188.756 48.0704 189.454 47.3724C190.153 46.6744 191.102 46.2801 192.094 46.2764C193.085 46.2726 194.038 46.6597 194.742 47.3524C195.445 48.0452 195.843 48.9868 195.847 49.9702V49.9984C195.849 50.4881 195.754 50.9734 195.566 51.4262C195.378 51.8789 195.101 52.29 194.751 52.6356C194.401 52.9811 193.985 53.2542 193.528 53.4389C193.071 53.6236 192.581 53.7163 192.087 53.7115C191.597 53.7173 191.111 53.626 190.658 53.4427C190.204 53.2595 189.792 52.9881 189.445 52.6445C189.099 52.301 188.825 51.8921 188.64 51.4421C188.456 50.9921 188.364 50.51 188.369 50.0241ZM194.751 50.0241V49.9984C194.751 48.4578 193.599 47.2201 192.087 47.2201C190.534 47.2201 189.465 48.4706 189.465 49.9702V49.9984C189.465 51.5237 190.604 52.764 192.116 52.764C193.669 52.764 194.751 51.5237 194.751 50.0241Z" fill="white"/>
<path d="M197.597 43.9082H198.666V53.5375H197.597V43.9082Z" fill="white"/>
<path d="M200.427 50.0241V49.9984C200.423 49.015 200.814 48.0704 201.512 47.3724C202.21 46.6744 203.16 46.2801 204.151 46.2764C205.143 46.2726 206.095 46.6597 206.799 47.3524C207.503 48.0452 207.9 48.9868 207.904 49.9702V49.9984C207.907 50.4881 207.812 50.9734 207.623 51.4262C207.435 51.8789 207.158 52.29 206.808 52.6356C206.459 52.9811 206.043 53.2542 205.586 53.4389C205.128 53.6236 204.639 53.7163 204.145 53.7115C203.655 53.7173 203.169 53.626 202.715 53.4427C202.261 53.2595 201.849 52.9881 201.503 52.6445C201.156 52.301 200.883 51.8921 200.698 51.4421C200.513 50.9921 200.421 50.51 200.427 50.0241ZM206.809 50.0241V49.9984C206.809 48.4578 205.657 47.2201 204.145 47.2201C202.591 47.2201 201.525 48.4706 201.525 49.9702V49.9984C201.525 51.5237 202.661 52.764 204.173 52.764C205.727 52.764 206.819 51.5237 206.819 50.0241H206.809Z" fill="white"/>
<path d="M209.476 54.7851L209.96 53.9608C210.756 54.5517 211.725 54.8698 212.72 54.8673C214.302 54.8673 215.33 54.0019 215.33 52.338V51.4983C214.703 52.3226 213.83 52.9979 212.513 52.9979C212.069 53.0041 211.628 52.922 211.217 52.7565C210.806 52.5909 210.432 52.3453 210.119 52.034C209.805 51.7228 209.557 51.3523 209.39 50.9445C209.223 50.5367 209.141 50.0998 209.147 49.6597V49.6341C209.148 48.919 209.379 48.2228 209.806 47.6466C210.233 47.0703 210.834 46.6438 211.521 46.429C212.209 46.2141 212.948 46.222 213.631 46.4516C214.313 46.6811 214.905 47.1204 215.319 47.7056V46.4217H216.388V52.2969C216.388 53.3959 216.054 54.2356 215.472 54.8133C214.835 55.4476 213.877 55.7634 212.74 55.7634C211.576 55.7805 210.435 55.4387 209.476 54.7851ZM215.355 49.6495V49.6212C215.355 48.1627 214.079 47.2152 212.72 47.2152C211.36 47.2152 210.237 48.1499 210.237 49.6084V49.6366C210.235 49.9585 210.298 50.2774 210.423 50.5746C210.548 50.8717 210.731 51.1411 210.963 51.3666C211.194 51.5921 211.469 51.7693 211.771 51.8877C212.073 52.006 212.395 52.0631 212.72 52.0555C214.069 52.0606 215.363 51.0977 215.363 49.6546L215.355 49.6495Z" fill="white"/>
<path d="M218.077 55.4322L218.437 54.5925C218.782 54.7739 219.17 54.8624 219.561 54.8493C220.2 54.8493 220.596 54.518 221.031 53.514L217.771 46.4346H218.952L221.559 52.3636L223.861 46.4346H225L221.989 53.7811C221.378 55.2524 220.695 55.7891 219.605 55.7891C219.074 55.795 218.549 55.6725 218.077 55.4322Z" fill="white"/>
<path d="M152.346 56.4287H153.441V66.058H152.346V56.4287Z" fill="white"/>
<path d="M155.828 58.9446H156.897V60.1823C157.138 59.7495 157.495 59.3909 157.928 59.1458C158.361 58.9007 158.854 58.7787 159.352 58.7931C161.087 58.7931 162.099 59.9487 162.099 61.6408V66.0575H161.03V61.9028C161.03 60.5829 160.31 59.7561 159.046 59.7561C157.783 59.7561 156.897 60.6497 156.897 61.9849V66.0575H155.828V58.9446Z" fill="white"/>
<path d="M164.1 58.9448H165.169V60.1825C165.411 59.7515 165.767 59.3947 166.2 59.151C166.632 58.9074 167.124 58.7863 167.621 58.801C169.355 58.801 170.368 59.9565 170.368 61.6487V66.0653H169.298V61.9029C169.298 60.5831 168.579 59.7562 167.315 59.7562C166.052 59.7562 165.166 60.6498 165.166 61.9851V66.0576H164.1V58.9448Z" fill="white"/>
<path d="M171.924 62.5374V62.5092C171.92 61.5258 172.311 60.5812 173.009 59.8831C173.707 59.1851 174.657 58.7909 175.648 58.7871C176.64 58.7834 177.592 59.1705 178.296 59.8632C179 60.5559 179.398 61.4975 179.401 62.4809V62.5092C179.404 62.9988 179.309 63.4842 179.12 63.9369C178.932 64.3897 178.655 64.8008 178.305 65.1463C177.956 65.4918 177.54 65.7649 177.083 65.9496C176.625 66.1343 176.136 66.227 175.642 66.2222C175.152 66.2281 174.666 66.1368 174.213 65.9537C173.759 65.7706 173.347 65.4995 173.001 65.1562C172.654 64.8129 172.381 64.4043 172.196 63.9546C172.011 63.5049 171.919 63.0231 171.924 62.5374ZM178.306 62.5374V62.5092C178.306 60.9813 177.154 59.7308 175.642 59.7308C174.089 59.7308 173.019 60.9813 173.019 62.4809V62.5092C173.019 64.0345 174.158 65.2747 175.67 65.2747C177.224 65.2747 178.306 64.0345 178.306 62.5374Z" fill="white"/>
<path d="M179.93 58.9453H181.11L183.523 64.8513L185.952 58.9453H187.101L183.995 66.1146H183.05L179.93 58.9453Z" fill="white"/>
<path d="M187.619 63.9931V63.9674C187.619 62.4267 188.867 61.641 190.685 61.641C191.426 61.6335 192.164 61.7356 192.875 61.944V61.7231C192.875 60.4598 192.098 59.7973 190.755 59.7973C189.998 59.8027 189.253 59.9783 188.575 60.3108L188.256 59.4429C189.068 59.0449 189.961 58.8375 190.866 58.8369C191.878 58.8369 192.678 59.1117 193.18 59.6227C193.683 60.1337 193.931 60.8039 193.931 61.7129V66.0602H192.875V65.0022C192.571 65.3925 192.177 65.7056 191.727 65.9159C191.277 66.1261 190.783 66.2275 190.286 66.2117C188.955 66.2091 187.619 65.4516 187.619 63.9931ZM192.891 63.4436V62.7836C192.211 62.5833 191.505 62.4813 190.796 62.4806C189.463 62.4806 188.701 63.0584 188.701 63.9109V63.9366C188.701 64.8302 189.532 65.354 190.514 65.354C191.821 65.3566 192.891 64.5708 192.891 63.4436Z" fill="white"/>
<path d="M196.222 64.1726V59.8818H195.223V58.9445H196.222V56.7979H197.289V58.9445H199.57V59.8818H197.294V64.0339C197.294 64.9019 197.781 65.2177 198.503 65.2177C198.864 65.2155 199.219 65.1275 199.539 64.9609V65.8674C199.14 66.0747 198.694 66.1789 198.244 66.1704C197.097 66.1806 196.222 65.6183 196.222 64.1726Z" fill="white"/>
<path d="M201.203 56.8828H202.418V58.0537H201.198L201.203 56.8828ZM201.273 58.9371H202.34V66.0499H201.273V58.9371Z" fill="white"/>
<path d="M204.104 62.5374V62.5092C204.1 61.5258 204.49 60.5812 205.189 59.8831C205.887 59.1851 206.837 58.7909 207.828 58.7871C208.82 58.7834 209.772 59.1705 210.476 59.8632C211.18 60.5559 211.577 61.4975 211.581 62.4809V62.5092C211.584 62.9989 211.488 63.4842 211.3 63.9369C211.112 64.3897 210.835 64.8008 210.485 65.1463C210.135 65.4918 209.72 65.7649 209.262 65.9496C208.805 66.1343 208.315 66.227 207.822 66.2222C207.332 66.2284 206.846 66.1374 206.392 65.9544C205.938 65.7715 205.526 65.5003 205.18 65.157C204.833 64.8136 204.56 64.4049 204.375 63.955C204.19 63.5052 204.098 63.0232 204.104 62.5374ZM210.486 62.5374V62.5092C210.486 60.9813 209.334 59.7308 207.822 59.7308C206.268 59.7308 205.199 60.9813 205.199 62.4809V62.5092C205.199 64.0345 206.336 65.2747 207.85 65.2747C209.365 65.2747 210.486 64.0345 210.486 62.5374Z" fill="white"/>
<path d="M213.232 58.9446H214.302V60.1823C214.543 59.7495 214.899 59.3909 215.332 59.1458C215.765 58.9007 216.258 58.7787 216.756 58.7931C218.491 58.7931 219.503 59.9487 219.503 61.6408V66.0575H218.434V61.9028C218.434 60.5829 217.714 59.7561 216.451 59.7561C215.187 59.7561 214.302 60.6497 214.302 61.9849V66.0575H213.232V58.9446Z" fill="white"/>
<path d="M152.346 68.9385H153.441V78.5729H152.346V68.9385Z" fill="white"/>
<path d="M155.828 71.4554H156.897V72.6931C157.138 72.2602 157.495 71.9016 157.928 71.6565C158.361 71.4115 158.854 71.2895 159.352 71.3039C161.087 71.3039 162.099 72.4594 162.099 74.1516V78.5733H161.03V74.4135C161.03 73.0936 160.31 72.2668 159.046 72.2668C157.783 72.2668 156.897 73.1604 156.897 74.4957V78.5733H155.828V71.4554Z" fill="white"/>
<path d="M163.502 77.6591L164.043 76.9042C164.75 77.4644 165.621 77.7824 166.526 77.8106C167.386 77.8106 168.01 77.3715 168.01 76.6833V76.6551C168.01 75.9413 167.165 75.6665 166.22 75.4046C165.097 75.0887 163.849 74.7036 163.849 73.3965V73.3683C163.849 72.1435 164.885 71.332 166.29 71.332C167.209 71.344 168.106 71.6109 168.879 72.1024L168.385 72.9241C167.756 72.5022 167.021 72.2638 166.262 72.2359C165.418 72.2359 164.877 72.6776 164.877 73.263V73.2913C164.877 73.964 165.762 74.226 166.72 74.5161C167.831 74.8448 169.022 75.2711 169.022 76.5498V76.5781C169.022 77.9262 167.898 78.7119 166.472 78.7119C165.392 78.6928 164.349 78.3229 163.502 77.6591Z" fill="white"/>
<path d="M170.966 76.6833V72.3925H169.967V71.4553H170.966V69.3086H172.035V71.4553H174.309V72.3925H172.035V76.5447C172.035 77.4126 172.52 77.7284 173.242 77.7284C173.603 77.7257 173.958 77.6377 174.278 77.4717V78.3807C173.878 78.5851 173.433 78.6883 172.983 78.6811C171.841 78.6914 170.966 78.129 170.966 76.6833Z" fill="white"/>
<path d="M175.947 69.3086H177.169V70.4795H175.947V69.3086ZM176.017 71.4553H177.084V78.5733H176.009L176.017 71.4553Z" fill="white"/>
<path d="M179.665 76.6833V72.3925H178.668V71.4553H179.665V69.3086H180.734V71.4553H182.999V72.3925H180.724V76.5447C180.724 77.4126 181.208 77.7284 181.93 77.7284C182.291 77.7257 182.646 77.6377 182.966 77.4717V78.3807C182.566 78.5854 182.121 78.6887 181.671 78.6811C180.54 78.6914 179.665 78.129 179.665 76.6833Z" fill="white"/>
<path d="M184.51 75.8717V71.4551H185.589V75.6098C185.589 76.9322 186.312 77.7565 187.573 77.7565C188.795 77.7565 189.724 76.8629 189.724 75.5276V71.4551H190.768V78.573H189.714V77.3354C189.471 77.7669 189.113 78.1243 188.68 78.3692C188.247 78.614 187.755 78.7369 187.257 78.7245C185.522 78.7194 184.51 77.5639 184.51 75.8717Z" fill="white"/>
<path d="M193.263 76.6833V72.3925H192.267V71.4553H193.263V69.3086H194.333V71.4553H196.608V72.3925H194.333V76.5447C194.333 77.4126 194.817 77.7284 195.539 77.7284C195.9 77.7257 196.255 77.6377 196.575 77.4717V78.3807C196.175 78.5854 195.73 78.6887 195.28 78.6811C194.133 78.6914 193.263 78.129 193.263 76.6833Z" fill="white"/>
<path d="M201.173 77.8027C201.601 77.8071 202.025 77.7196 202.415 77.5463C202.806 77.373 203.154 77.118 203.436 76.7987L204.101 77.3919C203.743 77.8216 203.291 78.1649 202.779 78.3958C202.267 78.6267 201.709 78.7391 201.147 78.7246C199.177 78.7246 197.566 77.225 197.566 75.0115C197.566 72.9573 199.024 71.2959 201.007 71.2959C203.13 71.2959 204.35 72.9752 204.35 75.0654C204.35 75.163 204.35 75.2734 204.35 75.4378H198.654C198.794 76.9451 199.912 77.8027 201.173 77.8027ZM203.268 74.5853C203.143 73.3014 202.395 72.1921 200.979 72.1921C199.744 72.1921 198.801 73.2192 198.649 74.5853H203.268Z" fill="white"/>
<path d="M100.502 106V102.177C111.503 102.177 121.015 98.2658 128.777 90.5469C136.539 82.8281 140.506 73.4093 140.506 62.5013C140.506 51.5932 136.56 42.1745 128.78 34.4557C121 26.7368 111.482 22.8235 100.502 22.8235V19C112.541 19 122.973 23.2908 131.504 31.7517C140.035 40.2127 144.358 50.5584 144.358 62.5013C144.358 74.4442 140.035 84.8104 131.501 93.2508C122.967 101.691 112.562 106 100.502 106Z" fill="white"/>
</g>
<defs>
<clipPath id="clip0_2698_922">
<rect width="151" height="87" fill="white" transform="translate(74 19)"/>
</clipPath>
</defs>
</svg>
