<svg width="299" height="124" viewBox="0 0 299 124" fill="none" xmlns="http://www.w3.org/2000/svg">
<path d="M36 71.4186V66.4238H37.3436V71.4186C37.3436 72.7265 37.9935 73.3936 39.0209 73.3936C40.0484 73.3936 40.6894 72.7528 40.6894 71.4537V66.4238H42.033V71.3834C42.033 73.5604 40.83 74.6489 39.0034 74.6489C37.1768 74.6489 36.0088 73.5516 36.0088 71.4186H36Z" fill="white"/>
<path d="M45.8003 66.3711H47.1L50.077 74.5172H48.6807L48.0133 72.6123H44.8694L44.202 74.5172H42.8496L45.8266 66.3711H45.8003ZM47.5654 71.4185L46.415 68.1706L45.2558 71.4185H47.5566H47.5654Z" fill="white"/>
<path d="M51.2273 66.415H56.3295V67.6264H52.5709V69.8209H55.908V71.0323H52.5709V73.2795H56.3822V74.5084H51.2361V66.415H51.2273Z" fill="white"/>
<path d="M60.1582 70.523V70.4265C60.1582 68.0564 61.7126 66.3008 63.8729 66.3008C64.9882 66.3008 65.6995 66.6168 66.4459 67.2137L65.638 68.2671C65.1901 67.8633 64.6808 67.5473 63.8553 67.5473C62.5205 67.5473 61.5545 68.7499 61.5545 70.4177V70.4879C61.5545 72.3138 62.538 73.4023 63.9256 73.4023C64.4964 73.4023 65.0057 73.2443 65.357 72.9721V71.1902H63.6533V70.0139H66.6391V73.648C65.9454 74.1923 65.0233 74.6312 63.8641 74.6312C61.6774 74.6312 60.1582 73.0248 60.1582 70.523Z" fill="white"/>
<path d="M68.2114 66.415H73.3136V67.6264H69.555V69.8209H72.8921V71.0323H69.555V73.2795H73.3663V74.5084H68.2202V66.415H68.2114Z" fill="white"/>
<path d="M74.7803 66.415H76.0185L79.5927 71.8048V66.415H80.9099V74.5084H79.7683L76.0975 68.9431V74.5084H74.7803V66.415Z" fill="white"/>
<path d="M82.6572 66.415H85.1337C87.4345 66.415 88.9713 68.039 88.9713 70.4091V70.5144C88.9713 72.8845 87.4345 74.5172 85.1337 74.5172H82.6572V66.4238V66.415ZM84.0008 67.6352V73.2883H85.1249C86.5914 73.2883 87.5926 72.2437 87.5926 70.4969V70.4354C87.5926 68.7149 86.6002 67.6264 85.1249 67.6264H84.0008V67.6352Z" fill="white"/>
<path d="M90.4292 66.415H95.5314V67.6264H91.7728V69.8209H95.1099V71.0323H91.7728V73.2795H95.5841V74.5084H90.438V66.415H90.4292Z" fill="white"/>
<path d="M96.998 66.415H99.9224C100.844 66.415 101.591 66.6784 102.083 67.1787C102.513 67.6089 102.75 68.2233 102.75 68.9695V69.0046C102.75 70.2511 102.056 71.0148 101.073 71.3747L102.987 74.5084H101.424L99.7116 71.6468H98.3329V74.5084H96.9893V66.415H96.998ZM99.7906 70.453C100.844 70.453 101.406 69.9087 101.406 69.0397C101.406 68.1004 100.818 67.6264 99.7994 67.6264H98.3416V70.453H99.7906Z" fill="white"/>
<path d="M106.895 66.415H109.784C110.68 66.415 111.409 66.6608 111.857 67.1085C112.217 67.4684 112.401 67.9336 112.401 68.4779V68.513C112.401 69.5049 111.822 70.0141 111.207 70.3301C112.094 70.6461 112.744 71.1815 112.744 72.2612V72.3051C112.744 73.7272 111.584 74.5172 109.863 74.5172H106.886V66.4238L106.895 66.415ZM111.066 68.6973C111.066 68.0039 110.566 67.6089 109.688 67.6089H108.195V69.856H109.609C110.487 69.856 111.066 69.4786 111.066 68.7237V68.6973ZM111.418 72.1471C111.418 71.4449 110.873 71.0148 109.846 71.0148H108.203V73.3322H109.907C110.829 73.3322 111.426 72.9196 111.426 72.1735V72.1471H111.418Z" fill="white"/>
<path d="M116.414 66.3711H117.714L120.691 74.5172H119.294L118.627 72.6123H115.483L114.816 74.5172H113.463L116.44 66.3711H116.414ZM118.188 71.4185L117.038 68.1706L115.878 71.4185H118.179H118.188Z" fill="white"/>
<path d="M121.841 66.415H123.185V73.2795H126.654V74.5172H121.841V66.4238V66.415Z" fill="white"/>
<path d="M130.254 66.3711H131.554L134.531 74.5172H133.135L132.467 72.6123H129.324L128.656 74.5172H127.304L130.281 66.3711H130.254ZM132.02 71.4185L130.869 68.1706L129.71 71.4185H132.011H132.02Z" fill="white"/>
<path d="M135.681 66.415H136.919L140.494 71.8048V66.415H141.811V74.5084H140.669L136.998 68.9431V74.5084H135.681V66.415Z" fill="white"/>
<path d="M143.26 70.5133V70.4343C143.26 67.9852 144.788 66.3086 146.878 66.3086C148.046 66.3086 148.793 66.7212 149.425 67.362L148.617 68.389C148.108 67.8887 147.572 67.5551 146.834 67.5551C145.587 67.5551 144.648 68.7226 144.648 70.4431V70.4782C144.648 72.2338 145.596 73.3837 146.843 73.3837C147.572 73.3837 148.081 73.0589 148.652 72.5059L149.46 73.4627C148.758 74.165 147.994 74.6302 146.791 74.6302C144.718 74.6302 143.26 72.9887 143.26 70.5133Z" fill="white"/>
<path d="M150.698 66.415H155.8V67.6264H152.042V69.8209H155.379V71.0323H152.042V73.2795H155.853V74.5084H150.707V66.415H150.698Z" fill="white"/>
<path d="M159.629 70.5133V70.4343C159.629 67.9852 161.157 66.3086 163.247 66.3086C164.415 66.3086 165.153 66.7212 165.794 67.362L164.986 68.389C164.476 67.8887 163.941 67.5551 163.203 67.5551C161.956 67.5551 161.016 68.7226 161.016 70.4431V70.4782C161.016 72.2338 161.965 73.3837 163.212 73.3837C163.941 73.3837 164.45 73.0589 165.021 72.5059L165.829 73.4627C165.126 74.165 164.362 74.6302 163.159 74.6302C161.087 74.6302 159.629 72.9887 159.629 70.5133Z" fill="white"/>
<path d="M166.532 70.5406V70.4265C166.532 68.0125 168.025 66.2832 170.132 66.2832C172.24 66.2832 173.706 67.9949 173.706 70.4001V70.5142C173.706 72.9194 172.214 74.6575 170.115 74.6575C168.016 74.6575 166.532 72.9458 166.532 70.5406ZM172.31 70.5142V70.4352C172.31 68.6884 171.388 67.5297 170.115 67.5297C168.841 67.5297 167.919 68.6708 167.919 70.4177V70.4967C167.919 72.2435 168.868 73.4022 170.132 73.4022C171.397 73.4022 172.319 72.2611 172.319 70.5142H172.31Z" fill="white"/>
<path d="M175.059 71.4186V66.4238H176.402V71.4186C176.402 72.7265 177.052 73.3936 178.08 73.3936C179.107 73.3936 179.748 72.7528 179.748 71.4537V66.4238H181.092V71.3834C181.092 73.5604 179.889 74.6489 178.062 74.6489C176.235 74.6489 175.067 73.5516 175.067 71.4186H175.059Z" fill="white"/>
<path d="M182.725 66.415H183.963L187.537 71.8048V66.415H188.855V74.5084H187.713L184.042 68.9431V74.5084H182.725V66.415Z" fill="white"/>
<path d="M190.304 70.5133V70.4343C190.304 67.9852 191.832 66.3086 193.922 66.3086C195.09 66.3086 195.836 66.7212 196.468 67.362L195.661 68.389C195.151 67.8887 194.616 67.5551 193.878 67.5551C192.631 67.5551 191.691 68.7226 191.691 70.4431V70.4782C191.691 72.2338 192.64 73.3837 193.887 73.3837C194.616 73.3837 195.125 73.0589 195.696 72.5059L196.504 73.4627C195.801 74.165 195.037 74.6302 193.834 74.6302C191.761 74.6302 190.304 72.9887 190.304 70.5133Z" fill="white"/>
<path d="M197.803 66.415H199.156V74.5084H197.803V66.415Z" fill="white"/>
<path d="M200.973 66.415H202.317V73.2795H205.786V74.5172H200.973V66.4238V66.415Z" fill="white"/>
<path d="M39.1964 53.4327C39.4159 53.4327 39.6003 53.3537 39.7496 53.2044C39.8989 53.0552 39.9692 52.8796 39.9692 52.6602C39.9692 52.4407 39.8989 52.2652 39.7496 52.1159C39.6003 51.9755 39.4159 51.9053 39.1964 51.9053C38.9768 51.9053 38.8012 51.9755 38.6519 52.1247C38.5026 52.274 38.4236 52.4495 38.4236 52.6602C38.4236 52.8709 38.5026 53.064 38.6519 53.2132C38.8012 53.3624 38.9768 53.4327 39.1964 53.4327Z" fill="white"/>
<path d="M83.1488 53.4327C83.3683 53.4327 83.5527 53.3537 83.702 53.2044C83.8513 53.0552 83.9216 52.8796 83.9216 52.6602C83.9216 52.4407 83.8513 52.2652 83.702 52.1159C83.5527 51.9755 83.3683 51.9053 83.1488 51.9053C82.9292 51.9053 82.7536 51.9755 82.6043 52.1247C82.455 52.274 82.376 52.4495 82.376 52.6602C82.376 52.8709 82.455 53.064 82.6043 53.2132C82.7536 53.3624 82.9292 53.4327 83.1488 53.4327Z" fill="white"/>
<path d="M93.1601 52.3525H91.7726V56.8908H89.8933V52.3525H88.5058V56.8908H86.6265V52.3525H85.2302V57.3209C85.2302 58.98 84.5891 59.8139 83.2982 59.8139C82.0073 59.8139 81.3399 58.9449 81.3399 57.2244C81.3399 56.3905 81.4541 55.5653 81.7 54.749L80.2598 55.0211C80.0578 55.8111 79.9524 56.5924 79.9524 57.3561C79.9524 58.5762 80.2598 59.4891 80.8657 60.0948C81.4189 60.6391 82.183 60.9112 83.1753 60.9112C85.2214 60.9112 86.3631 59.9368 86.5914 57.9969H93.1689V52.3525H93.1601Z" fill="white"/>
<path d="M100.299 53.4327C100.519 53.4327 100.703 53.3537 100.853 53.2044C101.002 53.0552 101.072 52.8796 101.072 52.6602C101.072 52.4407 101.002 52.2652 100.853 52.1159C100.703 51.9755 100.519 51.9053 100.299 51.9053C100.08 51.9053 99.9042 51.9755 99.7549 52.1247C99.6057 52.274 99.5354 52.4495 99.5354 52.6602C99.5354 52.8709 99.6057 53.064 99.7549 53.2132C99.9042 53.3624 100.08 53.4327 100.299 53.4327Z" fill="white"/>
<path d="M102.311 57.3112C102.311 58.9702 101.67 59.8041 100.379 59.8041C99.0879 59.8041 98.4205 58.9351 98.4205 57.2146C98.4205 56.3807 98.5346 55.5555 98.7805 54.7392L97.3403 55.0025C97.1383 55.7926 97.033 56.5738 97.033 57.3375C97.033 58.5577 97.3403 59.4706 97.9463 60.0763C98.4995 60.6205 99.2635 60.8926 100.256 60.8926C102.557 60.8926 103.707 59.6637 103.707 57.2146V52.334H102.32V57.3024L102.311 57.3112Z" fill="white"/>
<path d="M71.434 56.8907H69.4318C69.4757 56.5132 69.4933 56.1006 69.4933 55.6617C69.4933 54.424 69.1947 53.5111 68.6063 52.9142C67.9828 52.2909 66.9817 51.9837 65.6118 51.9837C65.1024 51.9837 64.5843 52.0276 64.0574 52.0978V53.1863C64.4701 53.1161 64.9531 53.081 65.4888 53.081C66.4372 53.081 67.1222 53.3004 67.535 53.7481C67.9214 54.1607 68.1146 54.8278 68.1146 55.732C68.1146 56.127 68.0882 56.5044 68.0355 56.8907H61.8356V52.3524H60.4481V56.8907H57.8311C57.8838 56.2938 57.9102 55.7056 57.9102 55.135C57.9102 53.8798 57.7697 52.7035 57.4799 51.5887L56.1275 51.8169C56.3909 52.8791 56.5227 54.0202 56.5227 55.2404C56.5227 55.7232 56.4963 56.2762 56.4261 56.8907H56.0485C55.381 56.8907 54.942 56.8117 54.7224 56.6449C54.4765 56.4605 54.3536 56.0919 54.3536 55.5125V52.2997H53.0275V55.135C53.0275 56.3728 52.6324 56.9872 51.8508 56.9872C51.4293 56.9872 51.1482 56.8292 51.0165 56.522C50.9111 56.285 50.8672 55.8197 50.8672 55.1175V52.8089H49.4797V55.2404C49.4797 55.8724 49.3831 56.3025 49.1899 56.5483C49.0143 56.7766 48.6981 56.8907 48.2503 56.8907H46.5115V52.3524H45.124V56.8907H42.6739V52.3524H41.2776V57.3208C41.2776 58.9799 40.6365 59.8138 39.3456 59.8138C38.0547 59.8138 37.3873 58.9447 37.3873 57.2242C37.3873 56.3903 37.5102 55.5652 37.7473 54.7488L36.3071 55.0122C36.1051 55.8022 36.0085 56.5834 36.0085 57.3471C36.0085 58.5673 36.3159 59.4802 36.9218 60.0859C37.4751 60.6301 38.2391 60.9023 39.2314 60.9023C41.2776 60.9023 42.4192 59.9279 42.6475 57.9792H48.2503C49.146 57.9792 49.708 57.6631 49.9452 57.0311C50.1559 57.7246 50.7004 58.0669 51.5961 58.0669C52.5709 58.0669 53.212 57.7246 53.5017 57.0311C53.6862 57.3998 53.9584 57.6456 54.3272 57.7948C54.6785 57.9265 55.2405 57.9879 55.9958 57.9879H72.8391V49.8945H71.4428V56.8907H71.434Z" fill="white"/>
<path d="M76.0884 49.8945H74.7009V57.9879H76.0884V49.8945Z" fill="white"/>
<path d="M169.21 49.8945H167.822V57.9879H169.21V49.8945Z" fill="white"/>
<path d="M156.441 51.9047C155.431 51.9047 154.632 52.2119 154.044 52.8352C153.499 53.4058 153.236 54.1168 153.236 54.9858C153.236 55.9339 153.517 56.5922 154.07 56.9609C153.886 56.917 153.648 56.8907 153.35 56.8907H151.023V49.8945H149.635V57.9879H159.234V54.7576C159.234 52.8527 158.303 51.9047 156.45 51.9047H156.441ZM157.864 56.8907H156.74C155.326 56.8907 154.614 56.2323 154.614 54.9156C154.614 54.3362 154.764 53.8798 155.071 53.5374C155.387 53.1775 155.809 53.002 156.336 53.002C157.354 53.002 157.864 53.6603 157.864 54.977V56.8994V56.8907Z" fill="white"/>
<path d="M203.002 51.9047C201.992 51.9047 201.193 52.2119 200.604 52.8352C200.06 53.4058 199.797 54.1168 199.797 54.9858C199.797 55.9339 200.078 56.5922 200.631 56.9609C200.446 56.917 200.209 56.8907 199.911 56.8907H197.619C197.663 56.5132 197.68 56.1006 197.68 55.6617C197.68 54.424 197.382 53.5111 196.793 52.9142C196.17 52.2909 195.169 51.9837 193.799 51.9837C193.289 51.9837 192.771 52.0276 192.244 52.0978V53.1863C192.657 53.1161 193.14 53.081 193.676 53.081C194.624 53.081 195.309 53.3004 195.722 53.7481C196.108 54.1607 196.301 54.8278 196.301 55.732C196.301 56.127 196.275 56.5044 196.222 56.8907H190.022V49.8945H188.626V56.8907H186.466C186.519 56.2938 186.536 55.7056 186.536 55.135C186.536 53.9412 186.396 52.765 186.106 51.5887L184.745 51.8169C185.017 52.8527 185.149 53.9939 185.149 55.2404C185.149 55.7759 185.113 56.3289 185.043 56.8907H184.683C184.016 56.8907 183.577 56.8117 183.357 56.6449C183.111 56.4605 182.988 56.0831 182.988 55.5125V52.2997H181.653V55.135C181.653 55.7846 181.566 56.2586 181.39 56.5483C181.214 56.838 180.933 56.9872 180.547 56.9872C180.161 56.9872 179.897 56.838 179.739 56.5395C179.581 56.2499 179.502 55.7758 179.502 55.1175V52.8089H178.114V57.3384C178.114 58.9886 177.544 59.8138 176.384 59.8138C175.111 59.8138 174.47 58.9447 174.47 57.2242C174.47 56.3903 174.593 55.5652 174.83 54.7488L173.39 55.0122C173.188 55.8022 173.083 56.5834 173.083 57.3471C173.083 59.7172 174.145 60.911 176.253 60.911C177.201 60.911 177.948 60.6652 178.501 60.1737C179.142 59.6031 179.449 58.7428 179.44 57.5841C179.66 57.9001 180.02 58.0669 180.529 58.0669C180.802 58.0757 181.074 58.0143 181.346 57.8826C181.724 57.6983 181.987 57.4174 182.128 57.0399C182.286 57.391 182.54 57.6368 182.9 57.7773C183.269 57.9177 183.849 57.9879 184.622 57.9879H205.794V54.7576C205.794 52.8527 204.864 51.9047 203.011 51.9047H203.002ZM204.433 56.8907H203.309C201.895 56.8907 201.184 56.2323 201.184 54.9156C201.184 54.3362 201.333 53.8798 201.641 53.5374C201.957 53.1775 202.378 53.002 202.905 53.002C203.924 53.002 204.433 53.6603 204.433 54.977V56.8994V56.8907Z" fill="white"/>
<path d="M144.481 49.8945H143.093V57.9879H144.481V49.8945Z" fill="white"/>
<path d="M110.249 49.8945H108.862V57.9879H110.249V49.8945Z" fill="white"/>
<path d="M126.039 56.8907H124.168V49.8945H122.772V56.8907H120.902V52.3524H119.514V56.8907H117.635V52.3436C116.871 52.0452 116.001 51.8959 115.044 51.8959C113.99 51.8959 113.174 52.2119 112.585 52.844C112.058 53.4145 111.795 54.1519 111.795 55.0385C111.795 57.0048 112.91 57.9791 115.15 57.9791H116.247C116.107 59.1554 115.527 59.7611 114.5 59.7962V60.8584C116.361 60.7881 117.38 59.8225 117.582 57.9791H127.435V49.8857H126.039V56.8819V56.8907ZM116.282 56.8907H115.308C113.894 56.8907 113.182 56.2323 113.182 54.9068C113.182 54.3362 113.341 53.8798 113.639 53.5287C113.955 53.1775 114.377 52.9932 114.904 52.9932C115.431 52.9932 115.914 53.081 116.282 53.2565V56.8819V56.8907Z" fill="white"/>
<path d="M105.578 58.0495C105.578 59.2433 104.91 59.8315 103.883 59.8666V60.9287C105.745 60.9287 106.965 59.8929 106.965 58.0495V52.3525H105.578V58.0495Z" fill="white"/>
<path d="M146.36 58.0495C146.36 59.2433 145.693 59.8315 144.665 59.8666V60.9287C146.527 60.9287 147.747 59.8929 147.747 58.0495V52.3525H146.36V58.0495Z" fill="white"/>
<path d="M61.1419 51.4219C61.3527 51.4219 61.5371 51.3429 61.6864 51.1937C61.8357 51.0445 61.9059 50.8601 61.9059 50.6494C61.9059 50.4388 61.8357 50.2544 61.6864 50.1052C61.5371 49.956 61.3615 49.8857 61.1419 49.8857C60.9224 49.8857 60.738 49.956 60.5887 50.1052C60.4394 50.2544 60.3691 50.43 60.3691 50.6407C60.3691 50.8513 60.4394 51.0445 60.5887 51.1937C60.738 51.3429 60.9224 51.4131 61.1419 51.4131V51.4219Z" fill="white"/>
<path d="M135.628 51.4044C135.839 51.4044 136.015 51.3341 136.155 51.1849C136.296 51.0445 136.375 50.8601 136.375 50.6495C136.375 50.4388 136.304 50.2632 136.155 50.1228C136.015 49.9735 135.83 49.9033 135.628 49.9033C135.426 49.9033 135.251 49.9735 135.11 50.1228C134.97 50.272 134.891 50.4476 134.891 50.6495C134.891 50.8514 134.961 51.0445 135.11 51.1937C135.251 51.3429 135.426 51.4132 135.628 51.4132V51.4044Z" fill="white"/>
<path d="M137.596 51.4044C137.807 51.4044 137.982 51.3341 138.123 51.1849C138.272 51.0357 138.343 50.8601 138.343 50.6495C138.343 50.4388 138.272 50.2632 138.123 50.1228C137.982 49.9735 137.807 49.9033 137.596 49.9033C137.385 49.9033 137.21 49.9735 137.069 50.1228C136.92 50.272 136.85 50.4476 136.85 50.6495C136.85 50.8689 136.92 51.0445 137.069 51.1937C137.21 51.3429 137.394 51.4132 137.596 51.4132V51.4044Z" fill="white"/>
<path d="M106.254 49.8945C106.034 49.8945 105.858 49.9647 105.709 50.114C105.551 50.2632 105.481 50.4388 105.481 50.6494C105.481 50.8601 105.551 51.0532 105.709 51.2025C105.858 51.3517 106.034 51.4219 106.254 51.4219C106.473 51.4219 106.657 51.3517 106.807 51.1937C106.956 51.0445 107.026 50.8689 107.026 50.6494C107.026 50.43 106.956 50.2544 106.807 50.1052C106.657 49.956 106.473 49.8857 106.254 49.8857V49.8945Z" fill="white"/>
<path d="M120.594 51.4044C120.805 51.4044 120.981 51.3341 121.121 51.1849C121.27 51.0357 121.332 50.8601 121.332 50.6495C121.332 50.4388 121.262 50.2632 121.121 50.1228C120.981 49.9735 120.805 49.9033 120.594 49.9033C120.383 49.9033 120.216 49.9735 120.067 50.1228C119.927 50.272 119.848 50.4476 119.848 50.6495C119.848 50.8689 119.918 51.0445 120.067 51.1937C120.208 51.3429 120.383 51.4132 120.594 51.4132V51.4044Z" fill="white"/>
<path d="M118.619 51.4044C118.829 51.4044 119.005 51.3341 119.154 51.1849C119.295 51.0445 119.365 50.8601 119.365 50.6495C119.365 50.4388 119.295 50.2632 119.154 50.1228C119.014 49.9735 118.838 49.9033 118.619 49.9033C118.417 49.9033 118.25 49.9735 118.1 50.1228C117.96 50.272 117.89 50.4476 117.89 50.6495C117.89 50.8514 117.96 51.0445 118.1 51.1937C118.241 51.3429 118.417 51.4132 118.619 51.4132V51.4044Z" fill="white"/>
<path d="M46.9945 59.1113C46.7837 59.1113 46.6081 59.1903 46.4676 59.3396C46.3183 59.4888 46.2568 59.6643 46.2568 59.875C46.2568 60.0857 46.3271 60.27 46.4676 60.428C46.6081 60.5773 46.7837 60.6475 46.9945 60.6475C47.2053 60.6475 47.3721 60.5773 47.5214 60.428C47.6619 60.2788 47.7409 60.0945 47.7409 59.875C47.7409 59.6556 47.6707 59.4888 47.5214 59.3396C47.3809 59.1903 47.2053 59.1201 46.9945 59.1201V59.1113Z" fill="white"/>
<path d="M45.0187 59.1113C44.8167 59.1113 44.6498 59.1903 44.5005 59.3396C44.36 59.4976 44.281 59.6731 44.281 59.875C44.281 60.0857 44.3513 60.27 44.5005 60.428C44.6498 60.5773 44.8167 60.6475 45.0187 60.6475C45.2294 60.6475 45.4138 60.5773 45.5544 60.428C45.6949 60.2788 45.7651 60.0945 45.7651 59.875C45.7651 59.6556 45.6949 59.4888 45.5544 59.3396C45.4138 59.1903 45.2294 59.1201 45.0187 59.1201V59.1113Z" fill="white"/>
<path d="M65.963 59.1113C65.7522 59.1113 65.5678 59.1903 65.4185 59.3396C65.2604 59.4888 65.1902 59.6731 65.1902 59.8838C65.1902 60.0945 65.2604 60.2788 65.4185 60.4368C65.5678 60.586 65.7434 60.6563 65.963 60.6563C66.1825 60.6563 66.3669 60.586 66.5162 60.4368C66.6655 60.2876 66.7358 60.1032 66.7358 59.8838C66.7358 59.6643 66.6655 59.4888 66.5162 59.3396C66.3669 59.1903 66.1825 59.1113 65.963 59.1113Z" fill="white"/>
<path d="M194.15 59.1113C193.939 59.1113 193.755 59.1903 193.606 59.3396C193.447 59.4888 193.377 59.6731 193.377 59.8838C193.377 60.0945 193.447 60.2788 193.606 60.4368C193.755 60.586 193.93 60.6563 194.15 60.6563C194.37 60.6563 194.554 60.586 194.703 60.4368C194.853 60.2876 194.923 60.1032 194.923 59.8838C194.923 59.6643 194.853 59.4888 194.703 59.3396C194.554 59.1903 194.37 59.1113 194.15 59.1113Z" fill="white"/>
<path d="M88.0841 59.1113C87.8821 59.1113 87.7153 59.1903 87.566 59.3396C87.4255 59.4976 87.3464 59.6731 87.3464 59.875C87.3464 60.0857 87.4167 60.27 87.566 60.428C87.7153 60.5773 87.8821 60.6475 88.0841 60.6475C88.2949 60.6475 88.4793 60.5773 88.6198 60.428C88.7603 60.2788 88.8305 60.0945 88.8305 59.875C88.8305 59.6556 88.7603 59.4888 88.6198 59.3396C88.4793 59.1903 88.2949 59.1201 88.0841 59.1201V59.1113Z" fill="white"/>
<path d="M90.0514 59.1113C89.8406 59.1113 89.665 59.1903 89.5245 59.3396C89.3752 59.4888 89.3137 59.6643 89.3137 59.875C89.3137 60.0857 89.384 60.27 89.5245 60.428C89.665 60.5773 89.8494 60.6475 90.0514 60.6475C90.2534 60.6475 90.429 60.5773 90.5783 60.428C90.7188 60.2788 90.7978 60.0945 90.7978 59.875C90.7978 59.6556 90.7276 59.4888 90.5783 59.3396C90.4378 59.1903 90.2621 59.1201 90.0514 59.1201V59.1113Z" fill="white"/>
<path d="M93.002 59.1113C92.7913 59.1113 92.6069 59.1903 92.4576 59.3396C92.3083 59.4888 92.2292 59.6731 92.2292 59.8838C92.2292 60.0945 92.3083 60.2788 92.4576 60.4368C92.6069 60.586 92.7825 60.6563 93.002 60.6563C93.2216 60.6563 93.3972 60.586 93.5553 60.4368C93.7046 60.2876 93.7748 60.1032 93.7748 59.8838C93.7748 59.6643 93.7046 59.4888 93.5553 59.3396C93.406 59.1903 93.2216 59.1113 93.002 59.1113Z" fill="white"/>
<path d="M139.826 56.8898H135.971C134.75 56.8898 133.89 56.6616 133.389 56.1963C132.924 55.775 132.687 55.0815 132.687 54.1159C132.687 53.7209 132.73 53.3435 132.81 52.9748L131.352 53.4137C131.317 53.6946 131.29 53.9755 131.29 54.2739C131.29 55.4941 131.633 56.407 132.309 57.0039C133.047 57.6535 134.215 57.9695 135.813 57.9695H141.214V52.334H139.826V56.8723V56.8898Z" fill="white"/>
<path d="M162.895 60.0415C162.895 59.7694 163.088 59.6377 163.475 59.6377C163.721 59.6377 163.923 59.6641 164.09 59.7167L164.23 58.9442C163.993 58.9004 163.756 58.874 163.51 58.874C163.001 58.874 162.597 58.9881 162.307 59.2164C162.043 59.427 161.903 59.6904 161.903 60.0152C161.903 60.2434 161.982 60.4102 162.149 60.5067C162.017 60.4804 161.78 60.4629 161.429 60.4629V61.2178H164.485V60.4629H163.712C163.167 60.4629 162.895 60.3224 162.895 60.0327V60.0415Z" fill="white"/>
<path d="M164.564 56.8907H160.656V57.9879H165.952V49.8945H164.564V56.8907Z" fill="white"/>
<path d="M163.493 55.9426L161.754 49.8945H160.323L162.07 55.9426H163.493Z" fill="white"/>
<path d="M252.092 50.0967L248.36 53.8274L256.535 61.9998L251.829 66.7048C250.898 60.4548 245.506 55.662 238.99 55.662C232.474 55.662 227.082 60.4548 226.151 66.7048L221.444 61.9998L229.62 53.8274L225.887 50.0967L213.979 61.9998L238.99 86.9998L264 61.9998L252.092 50.0967ZM238.99 60.9376C243.249 60.9376 246.7 64.3874 246.7 68.6448C246.7 72.9022 243.249 76.3519 238.99 76.3519C234.73 76.3519 231.279 72.9022 231.279 68.6448C231.279 64.3874 234.73 60.9376 238.99 60.9376Z" fill="white"/>
<path d="M238.99 44.4263L244.663 50.0969L248.377 46.3838L238.99 37L229.611 46.3838L233.326 50.0969L238.99 44.4263Z" fill="white"/>
</svg>
