<svg width="299" height="124" viewBox="0 0 299 124" fill="none" xmlns="http://www.w3.org/2000/svg">
<path d="M56.4125 95.651C56.4125 95.901 56.4712 96.4492 57.5243 96.4492C58.5775 96.4492 59.0307 95.7226 59.0307 94.8177C59.0307 93.4947 58.111 92.828 57.0711 92.828H56.414V95.651H56.4125ZM57.165 92.5795C57.6915 92.5795 58.312 92.043 58.312 90.9597C58.312 90.0065 57.6915 89.6016 57.0329 89.5066C56.8173 89.47 56.6149 89.47 56.411 89.5066V92.5795H57.165ZM55.2288 96.5691C55.6116 96.3308 55.6351 96.0691 55.6351 95.6992V90.1001C55.6351 89.7068 55.528 89.5051 55.4327 89.3735C55.3725 89.3019 55.3124 89.2536 55.2405 89.2419H57.0931C58.3003 89.2419 58.9691 89.8852 58.9691 90.9465C58.9691 91.9231 58.133 92.5181 57.7502 92.6497C57.9057 92.673 58.0494 92.7081 58.1932 92.7681C58.444 92.8631 58.7667 93.0181 59.0542 93.2447C59.4356 93.5414 59.7715 94.018 59.7715 94.7212C59.7715 95.4244 59.484 95.8293 59.1143 96.1509C58.6362 96.5793 57.9556 96.6758 57.4774 96.6758C56.964 96.6758 56.4624 96.6392 56.0795 96.5807C55.8287 96.5442 55.6248 96.5442 55.4693 96.5442L55.2303 96.5676L55.2288 96.5691Z" fill="#F9F3EA"/>
<path d="M66.906 89.4218C66.8708 89.3384 66.8224 89.2785 66.7622 89.2419H68.1249C68.0413 89.2785 67.9459 89.3253 67.8506 89.3969C67.6716 89.5285 67.4326 89.7419 67.1451 90.1235C66.7989 90.5884 66.2973 91.2901 65.8777 91.8632L65.1253 92.8997V95.7109C65.1253 96.0925 65.2089 96.2942 65.2925 96.4258C65.3409 96.4974 65.3996 96.5442 65.4714 96.5691H63.9782C64.0369 96.5457 64.0971 96.4974 64.1572 96.4258C64.2525 96.2942 64.3479 96.1042 64.3479 95.7109V93.1029L63.3563 91.7681C62.8429 91.0664 62.2929 90.315 62.1257 90.1249C61.492 89.375 61.3248 89.28 61.206 89.2434H63.0586C62.9515 89.28 62.8796 89.3384 62.8429 89.4232C62.7593 89.5533 62.7476 89.7682 63.0219 90.1133C63.261 90.4349 63.7025 91.0664 64.1205 91.6263L64.8613 92.6745C65.1355 92.2813 65.3981 91.9246 65.6504 91.5795C66.0684 91.0079 66.5114 90.3647 66.6904 90.1264C66.9294 89.7814 66.9412 89.5548 66.906 89.4247" fill="#F9F3EA"/>
<path d="M74.2341 95.5443C74.2341 95.9624 74.5451 96.474 75.9913 96.474C78.5245 96.474 79.4339 94.7709 79.4339 93.1029C79.4339 91.1132 78.0346 89.4452 75.7522 89.4452C75.0232 89.4452 74.5216 89.4817 74.2341 89.5168V95.5443ZM73.4684 95.6992V90.1001C73.4684 89.6834 73.3614 89.4685 73.2645 89.3618C73.2059 89.3033 73.1457 89.2551 73.0739 89.2434H76.1336C78.369 89.2434 80.2333 90.7799 80.2333 93.0312C80.2333 93.7826 80.0177 94.4975 79.6481 95.0574C79.1347 95.784 78.1666 96.7006 75.8358 96.7006C74.9748 96.7006 73.6489 96.5457 73.5168 96.5457C73.3848 96.5457 73.2778 96.5574 73.1941 96.5574C73.1457 96.569 73.0988 96.5691 73.0621 96.5691C73.3966 96.4141 73.4684 96.1173 73.4684 95.6992Z" fill="#F9F3EA"/>
<path d="M88.7921 96.5691V95.7591C88.3139 96.1407 87.4896 96.6772 86.4012 96.6772C85.3128 96.6772 84.6572 96.4623 84.0353 95.9507C83.3532 95.4141 82.9234 94.5677 82.9234 93.3295V90.0182C82.9234 89.6849 82.8281 89.4817 82.743 89.375C82.6843 89.315 82.6242 89.2683 82.5641 89.2434H84.069C83.9971 89.2668 83.937 89.315 83.8783 89.375C83.7815 89.4817 83.6979 89.6849 83.6979 90.0182V93.3777C83.6979 94.1876 83.8182 95.0209 84.4386 95.6773C84.8684 96.1173 85.4434 96.3922 86.4349 96.3922C87.4265 96.3922 88.3711 95.7124 88.7892 95.3323V90.0197C88.7892 89.6747 88.6923 89.4715 88.5985 89.3647C88.5383 89.3063 88.4782 89.258 88.4195 89.2449H89.9259C89.854 89.2566 89.7939 89.3048 89.7338 89.3647C89.6384 89.4715 89.5548 89.6513 89.5548 90.0197V95.7021C89.5548 96.072 89.6384 96.2737 89.7338 96.4053C89.7939 96.4886 89.854 96.5354 89.9259 96.572H88.7906L88.7921 96.5691Z" fill="#F9F3EA"/>
<path d="M93.3949 95.651C93.3949 95.901 93.4536 96.4492 94.5067 96.4492C95.5599 96.4492 96.0131 95.7226 96.0131 94.8177C96.0131 93.4947 95.092 92.828 94.0535 92.828H93.3964V95.651H93.3949ZM94.1474 92.5795C94.674 92.5795 95.2944 92.043 95.2944 90.9597C95.2944 90.0065 94.674 89.6016 94.0154 89.5066C93.7997 89.47 93.5973 89.47 93.3934 89.5066V92.5795H94.1474ZM92.2112 96.5691C92.594 96.3308 92.6175 96.0691 92.6175 95.6992V90.1001C92.6175 89.7068 92.5104 89.5051 92.4151 89.3735C92.3549 89.3019 92.2948 89.2536 92.2229 89.2419H94.0755C95.2827 89.2419 95.9515 89.8852 95.9515 90.9465C95.9515 91.9231 95.1155 92.5181 94.7326 92.6497C94.8881 92.673 95.0318 92.7081 95.1741 92.7681C95.425 92.8631 95.7491 93.0181 96.0351 93.2447C96.4165 93.5414 96.7524 94.018 96.7524 94.7212C96.7524 95.4244 96.4649 95.8293 96.0953 96.1509C95.6171 96.5793 94.9365 96.6758 94.4583 96.6758C93.945 96.6758 93.4418 96.6392 93.0605 96.5807C92.8097 96.5442 92.6058 96.5442 92.4503 96.5442L92.2112 96.5676V96.5691Z" fill="#F9F3EA"/>
<path d="M101.643 90.5781L100.626 93.2461H102.658L101.643 90.5781ZM99.7417 95.6641C99.5628 96.0925 99.6229 96.4272 99.7784 96.5691H98.4524C98.6431 96.474 98.9057 96.3191 99.1932 95.6042L101.691 89.0651L104.403 95.6758C104.691 96.4024 104.988 96.474 105.169 96.5691H103.544C103.748 96.4258 103.771 96.224 103.616 95.8059L102.755 93.5312H100.521L99.7432 95.6627L99.7417 95.6641Z" fill="#F9F3EA"/>
<path d="M108.456 89.2434C108.384 89.2668 108.324 89.315 108.265 89.3867C108.17 89.5182 108.086 89.72 108.086 90.1016V95.6992C108.086 96.0691 108.17 96.2723 108.265 96.4024C108.325 96.4857 108.384 96.5325 108.456 96.5691H106.95C107.01 96.5457 107.07 96.4974 107.129 96.4258C107.212 96.2942 107.307 96.0808 107.307 95.6992V90.1016C107.307 89.7083 107.212 89.5066 107.129 89.375C107.07 89.3033 107.01 89.2566 106.95 89.2434H108.456Z" fill="#F9F3EA"/>
<path d="M123.862 89.2434C123.755 89.2551 123.646 89.315 123.539 89.3984C123.348 89.5416 123.121 89.8033 122.894 90.2916L120.145 96.724L118.615 92.9596L117.025 96.724L114.276 90.1249C114.072 89.6601 113.833 89.28 113.464 89.2434H115.137C115.079 89.2551 115.03 89.3033 114.995 89.3633C114.947 89.47 114.935 89.6966 115.127 90.1249L117.23 95.2343L118.377 92.4596L117.409 90.1249C117.205 89.6601 116.931 89.28 116.585 89.2434H118.27C118.21 89.2551 118.163 89.3033 118.127 89.3633C118.078 89.47 118.066 89.6966 118.245 90.1249L118.784 91.5664L119.346 90.1249C119.501 89.7317 119.501 89.5182 119.453 89.3867C119.416 89.315 119.381 89.2683 119.321 89.2434H120.742C120.635 89.2668 120.526 89.315 120.419 89.3984C120.229 89.5416 120.001 89.7785 119.774 90.2916L119.045 92.043L120.347 95.2343L122.462 90.1249C122.618 89.7317 122.63 89.5182 122.583 89.3867C122.548 89.315 122.511 89.2683 122.451 89.2434H123.862Z" fill="#F9F3EA"/>
<path d="M128.811 89.3267C127.102 89.3267 125.907 90.8515 125.907 92.7447C125.907 95.1144 127.365 96.474 128.894 96.474C130.52 96.474 131.75 95.151 131.75 93.1862C131.75 91.4597 130.831 89.3267 128.811 89.3267ZM128.811 89.0534C130.795 89.0534 132.553 90.6966 132.553 92.9362C132.553 94.996 130.987 96.7474 128.847 96.7474C126.828 96.7474 125.072 95.1159 125.072 92.8412C125.072 90.8164 126.709 89.0534 128.812 89.0534" fill="#F9F3EA"/>
<path d="M138.613 91.6132C138.613 89.72 136.976 89.4817 136.462 89.4817C136.306 89.4817 136.223 89.4934 136.139 89.5051L136.032 89.5285V93.2797C136.127 93.2914 136.319 93.3163 136.617 93.3163C138.207 93.3163 138.613 92.3865 138.613 91.6132ZM139.617 95.6992C140.023 96.3176 140.489 96.9141 141.265 96.9141L141.098 96.9623C140.991 96.9974 140.859 97.0105 140.68 97.0105C140.178 97.0105 139.496 96.8205 138.948 95.9507L137.441 93.4961C136.976 93.6028 136.366 93.5794 136.032 93.5794V95.6992C136.032 96.1159 136.115 96.3059 136.211 96.4375C136.271 96.5091 136.33 96.5559 136.401 96.5691H134.86C134.932 96.5574 135.004 96.5208 135.064 96.4506C135.159 96.3439 135.268 96.1173 135.268 95.7007V90.0182C135.268 89.6732 135.161 89.47 135.064 89.3633C135.005 89.3048 134.945 89.2566 134.873 89.2449H136.988C138.135 89.2449 139.307 89.9831 139.307 91.2579C139.307 91.9479 138.877 92.8777 138.112 93.2944L139.618 95.7007L139.617 95.6992Z" fill="#F9F3EA"/>
<path d="M141.877 96.5691C141.949 96.5325 142.009 96.4857 142.068 96.4024C142.163 96.2708 142.272 96.0691 142.272 95.6992V90.1001C142.272 89.7185 142.176 89.5168 142.081 89.3852C142.021 89.3136 141.961 89.2668 141.89 89.2419H143.432C143.36 89.2653 143.3 89.3136 143.241 89.3852C143.146 89.5168 143.05 89.7185 143.05 90.1001V95.5559C143.05 95.9624 143.122 96.4024 144.174 96.4024C144.903 96.4024 145.142 96.2708 145.345 96.1159C145.452 96.0325 145.548 95.9375 145.632 95.8308C145.68 95.7825 145.727 95.7358 145.764 95.6758C145.764 95.7825 145.657 96.3556 145.525 96.4857C145.321 96.6173 145.154 96.6524 144.162 96.6524C143.649 96.6524 143.099 96.6056 142.728 96.5574C142.525 96.5457 142.333 96.534 142.154 96.5457L141.88 96.5691H141.877Z" fill="#F9F3EA"/>
<path d="M148.918 95.5443C148.918 95.9624 149.229 96.474 150.675 96.474C153.208 96.474 154.117 94.7709 154.117 93.1029C154.117 91.1132 152.718 89.4452 150.436 89.4452C149.707 89.4452 149.205 89.4817 148.918 89.5168V95.5443ZM148.152 95.6992V90.1001C148.152 89.6834 148.045 89.4685 147.948 89.3618C147.889 89.3033 147.829 89.2551 147.757 89.2434H150.817C153.053 89.2434 154.917 90.7799 154.917 93.0312C154.917 93.7826 154.701 94.4975 154.332 95.0574C153.818 95.784 152.85 96.7006 150.519 96.7006C149.658 96.7006 148.332 96.5457 148.2 96.5457C148.068 96.5457 147.961 96.5574 147.878 96.5574C147.829 96.569 147.782 96.5691 147.746 96.5691C148.08 96.4141 148.152 96.1173 148.152 95.6992Z" fill="#F9F3EA"/>
<path d="M163.415 89.5299V95.7007C163.415 96.129 163.511 96.3556 163.606 96.4623C163.666 96.5223 163.726 96.5574 163.81 96.5691H162.304C162.352 96.5691 162.675 96.5208 162.675 95.7124V89.5299H161.013C160.177 89.5299 160.01 89.9466 160.01 89.9466L160.033 89.8033C160.045 89.72 160.045 89.6133 160.081 89.4817L160.153 89.03C160.165 89.0417 160.177 89.0665 160.213 89.0899C160.274 89.125 160.369 89.1615 160.513 89.1849C160.645 89.22 160.871 89.2434 161.051 89.2434H165.126C165.221 89.2434 165.484 89.2668 165.711 89.1849C165.831 89.1615 165.927 89.1133 166.01 89.03L165.89 89.9349C165.878 89.8633 165.843 89.7916 165.783 89.7317C165.688 89.6367 165.484 89.5299 165.114 89.5299H163.415Z" fill="#F9F3EA"/>
<path d="M171.401 91.6132C171.401 89.72 169.764 89.4817 169.249 89.4817C169.093 89.4817 169.01 89.4934 168.926 89.5051L168.819 89.5285V93.2797C168.915 93.2914 169.107 93.3163 169.404 93.3163C170.994 93.3163 171.401 92.3865 171.401 91.6132ZM172.404 95.6992C172.81 96.3176 173.277 96.9141 174.053 96.9141L173.886 96.9623C173.778 96.9974 173.646 97.0105 173.467 97.0105C172.966 97.0105 172.284 96.8205 171.735 95.9507L170.229 93.4961C169.764 93.6028 169.154 93.5794 168.819 93.5794V95.6992C168.819 96.1159 168.903 96.3059 168.998 96.4375C169.058 96.5091 169.117 96.5559 169.189 96.5691H167.647C167.719 96.5574 167.791 96.5208 167.851 96.4506C167.946 96.3439 168.055 96.1173 168.055 95.7007V90.0182C168.055 89.6732 167.948 89.47 167.851 89.3633C167.792 89.3048 167.732 89.2566 167.66 89.2449H169.776C170.923 89.2449 172.095 89.9831 172.095 91.2579C172.095 91.9479 171.665 92.8777 170.899 93.2944L172.406 95.7007L172.404 95.6992Z" fill="#F9F3EA"/>
<path d="M177.33 90.5781L176.313 93.2461H178.345L177.33 90.5781ZM175.429 95.6641C175.25 96.0925 175.31 96.4272 175.465 96.5691H174.139C174.33 96.474 174.593 96.3191 174.88 95.6042L177.378 89.0651L180.09 95.6758C180.378 96.4024 180.675 96.474 180.856 96.5691H179.231C179.433 96.4258 179.458 96.224 179.302 95.8059L178.441 93.5312H176.207L175.43 95.6627L175.429 95.6641Z" fill="#F9F3EA"/>
<path d="M183.772 95.5443C183.772 95.9624 184.083 96.474 185.529 96.474C188.062 96.474 188.972 94.7709 188.972 93.1029C188.972 91.1132 187.572 89.4452 185.29 89.4452C184.561 89.4452 184.059 89.4817 183.772 89.5168V95.5443ZM183.008 95.6992V90.1001C183.008 89.6834 182.9 89.4685 182.804 89.3618C182.745 89.3033 182.685 89.2551 182.613 89.2434H185.673C187.907 89.2434 189.772 90.7799 189.772 93.0312C189.772 93.7826 189.557 94.4975 189.187 95.0574C188.674 95.784 187.706 96.7006 185.375 96.7006C184.514 96.7006 183.188 96.5457 183.056 96.5457C182.924 96.5457 182.817 96.5574 182.733 96.5574C182.685 96.569 182.638 96.5691 182.601 96.5691C182.936 96.4141 183.008 96.1173 183.008 95.6992Z" fill="#F9F3EA"/>
<path d="M192.259 96.3907C192.354 96.2591 192.463 96.0457 192.463 95.6992V90.1001C192.463 89.7068 192.367 89.5051 192.272 89.3735C192.212 89.3019 192.152 89.2551 192.081 89.2419H195.678L195.618 90.0285C195.606 89.9802 195.594 89.9334 195.569 89.8852C195.534 89.8019 195.474 89.7185 195.39 89.6586C195.2 89.5285 194.136 89.5168 193.921 89.5168H193.24V92.5415H194.817C195.139 92.5415 195.295 92.4582 195.427 92.3748C195.486 92.3266 195.546 92.2666 195.582 92.195C195.582 92.29 195.522 93.135 195.522 93.2666C195.511 93.2198 195.499 93.1716 195.474 93.1248C195.439 93.0415 195.367 92.9581 195.271 92.9099C195.068 92.8266 194.494 92.8499 194.017 92.8499H193.24V95.6261C193.24 95.9594 193.312 96.4009 194.363 96.4009C195.092 96.4009 195.332 96.2694 195.534 96.1144C195.641 96.0311 195.738 95.936 195.821 95.8293C195.87 95.7811 195.917 95.7343 195.954 95.6744C195.954 95.7694 195.87 96.3644 195.714 96.4843C195.511 96.6158 195.343 96.6509 194.352 96.6509C193.837 96.6509 193.288 96.6027 192.917 96.5676C192.715 96.531 192.523 96.5559 192.344 96.5559C192.248 96.5676 192.153 96.5676 192.069 96.5676C192.141 96.531 192.201 96.4726 192.26 96.3892" fill="#F9F3EA"/>
<path d="M201.642 92.8046C201.642 92.0415 201.846 91.3032 202.262 90.6966C202.777 89.9583 203.745 89.1352 205.31 89.1352C206.422 89.1352 207.104 89.2902 208.059 89.5168L207.975 90.5284C207.868 90.3135 207.688 90.1235 207.462 89.9583C207.067 89.6718 206.422 89.3867 205.37 89.3867C203.506 89.3867 202.431 90.9699 202.431 92.7213C202.431 94.4727 203.638 96.3907 205.813 96.3907C206.638 96.3907 207.653 96.1992 208.192 95.5925C208.156 96.0091 207.989 96.6772 205.646 96.6772C203.447 96.6772 201.643 95.0457 201.643 92.8061" fill="#F9F3EA"/>
<path d="M210.548 96.3907C210.643 96.2591 210.751 96.0457 210.751 95.6992V90.1001C210.751 89.7068 210.655 89.5051 210.56 89.3735C210.5 89.3019 210.44 89.2551 210.369 89.2419H213.966L213.906 90.0285C213.894 89.9802 213.882 89.9334 213.857 89.8852C213.822 89.8019 213.762 89.7185 213.678 89.6586C213.486 89.5285 212.423 89.5168 212.207 89.5168H211.527V92.5415H213.103C213.426 92.5415 213.582 92.4582 213.714 92.3748C213.772 92.3266 213.832 92.2666 213.869 92.195C213.869 92.29 213.809 93.135 213.809 93.2666C213.797 93.2198 213.785 93.1716 213.76 93.1248C213.725 93.0415 213.653 92.9581 213.558 92.9099C213.354 92.8266 212.781 92.8499 212.304 92.8499H211.527V95.6261C211.527 95.9594 211.598 96.4009 212.65 96.4009C213.379 96.4009 213.618 96.2694 213.821 96.1144C213.928 96.0311 214.024 95.936 214.108 95.8293C214.156 95.7811 214.203 95.7343 214.24 95.6744C214.24 95.7694 214.156 96.3644 214.001 96.4843C213.797 96.6158 213.63 96.6509 212.638 96.6509C212.123 96.6509 211.575 96.6027 211.204 96.5676C211.001 96.531 210.809 96.5559 210.63 96.5559C210.535 96.5676 210.44 96.5676 210.356 96.5676C210.428 96.531 210.488 96.4726 210.547 96.3892" fill="#F9F3EA"/>
<path d="M217.325 90.6732V95.4975C217.325 95.9741 217.42 96.2474 217.552 96.3907C217.611 96.474 217.696 96.5325 217.779 96.5691H216.417C216.489 96.534 216.549 96.474 216.608 96.3907C216.703 96.2474 216.811 95.9726 216.811 95.4975V89.1133L222.68 95.1525L222.668 90.2331C222.668 89.7682 222.536 89.5314 222.406 89.3998C222.322 89.3165 222.239 89.2683 222.155 89.2449H223.636C223.553 89.2683 223.469 89.3165 223.397 89.3998C223.265 89.5314 223.158 89.7799 223.158 90.2214V96.7021L217.326 90.6746L217.325 90.6732Z" fill="#F9F3EA"/>
<path d="M228.668 89.5299V95.7007C228.668 96.129 228.763 96.3556 228.858 96.4623C228.918 96.5223 228.978 96.5574 229.062 96.5691H227.556C227.604 96.5691 227.927 96.5208 227.927 95.7124V89.5299H226.265C225.429 89.5299 225.262 89.9466 225.262 89.9466L225.285 89.8033C225.297 89.72 225.297 89.6133 225.333 89.4817L225.405 89.03C225.417 89.0417 225.429 89.0665 225.464 89.0899C225.524 89.125 225.62 89.1615 225.763 89.1849C225.895 89.22 226.121 89.2434 226.302 89.2434H230.376C230.472 89.2434 230.734 89.2668 230.962 89.1849C231.082 89.1615 231.177 89.1133 231.261 89.03L231.141 89.9349C231.129 89.8633 231.094 89.7916 231.033 89.7317C230.938 89.6367 230.734 89.5299 230.365 89.5299H228.668Z" fill="#F9F3EA"/>
<path d="M236.653 91.6132C236.653 89.72 235.016 89.4817 234.501 89.4817C234.346 89.4817 234.262 89.4934 234.178 89.5051L234.071 89.5285V93.2797C234.167 93.2914 234.359 93.3163 234.656 93.3163C236.246 93.3163 236.653 92.3865 236.653 91.6132ZM237.656 95.6992C238.062 96.3176 238.529 96.9141 239.305 96.9141L239.138 96.9623C239.03 96.9974 238.898 97.0105 238.72 97.0105C238.218 97.0105 237.536 96.8205 236.987 95.9507L235.481 93.4961C235.014 93.6028 234.406 93.5794 234.071 93.5794V95.6992C234.071 96.1159 234.155 96.3059 234.25 96.4375C234.31 96.5091 234.369 96.5559 234.441 96.5691H232.899C232.971 96.5574 233.043 96.5208 233.103 96.4506C233.198 96.3439 233.307 96.1173 233.307 95.7007V90.0182C233.307 89.6732 233.2 89.47 233.103 89.3633C233.044 89.3048 232.984 89.2566 232.912 89.2449H235.028C236.175 89.2449 237.347 89.9831 237.347 91.2579C237.347 91.9479 236.917 92.8777 236.151 93.2944L237.658 95.7007L237.656 95.6992Z" fill="#F9F3EA"/>
<path d="M240.109 96.3907C240.204 96.2591 240.311 96.0457 240.311 95.6992V90.1001C240.311 89.7068 240.216 89.5051 240.12 89.3735C240.06 89.3019 240 89.2551 239.93 89.2419H243.526L243.466 90.0285C243.454 89.9802 243.443 89.9334 243.418 89.8852C243.382 89.8019 243.322 89.7185 243.239 89.6586C243.047 89.5285 241.983 89.5168 241.768 89.5168H241.087V92.5415H242.664C242.986 92.5415 243.142 92.4582 243.274 92.3748C243.333 92.3266 243.393 92.2666 243.429 92.195C243.429 92.29 243.369 93.135 243.369 93.2666C243.358 93.2198 243.346 93.1716 243.321 93.1248C243.286 93.0415 243.214 92.9581 243.118 92.9099C242.915 92.8266 242.341 92.8499 241.864 92.8499H241.087V95.6261C241.087 95.9594 241.159 96.4009 242.21 96.4009C242.939 96.4009 243.179 96.2694 243.381 96.1144C243.488 96.0311 243.585 95.936 243.668 95.8293C243.717 95.7811 243.764 95.7343 243.801 95.6744C243.801 95.7694 243.717 96.3644 243.561 96.4843C243.358 96.6158 243.19 96.6509 242.2 96.6509C241.685 96.6509 241.137 96.6027 240.766 96.5676C240.563 96.531 240.371 96.5559 240.192 96.5559C240.097 96.5676 240.001 96.5676 239.918 96.5676C239.99 96.531 240.05 96.4726 240.109 96.3892" fill="#F9F3EA"/>
<path d="M34.9606 44.3466C35.182 44.0426 35.4314 43.547 35.4314 42.7458V29.7714C35.4314 28.8606 35.2099 28.3913 34.9884 28.0873C34.8505 27.9221 34.7112 27.811 34.5454 27.7832H42.8827L42.7449 29.6047C42.717 29.4951 42.6891 29.384 42.6334 29.2743C42.5498 29.0814 42.4119 28.8884 42.2168 28.7495C41.7738 28.4454 39.3096 28.4191 38.8109 28.4191H37.2312V35.4304H40.8879C41.636 35.4304 41.9953 35.2375 42.3004 35.0445C42.4383 34.9334 42.5776 34.796 42.6598 34.6293C42.6598 34.8515 42.5219 36.8105 42.5219 37.1146C42.494 37.0035 42.4662 36.8938 42.4104 36.7827C42.3283 36.5897 42.1611 36.3968 41.9396 36.2857C41.4687 36.0927 40.1398 36.1482 39.0324 36.1482H37.2312V42.5807C37.2312 43.354 37.3969 44.3759 39.8347 44.3759C41.5245 44.3759 42.0789 44.0718 42.5483 43.7122C42.7977 43.5192 43.0191 43.2985 43.2142 43.0499C43.3257 42.9388 43.4357 42.8292 43.5193 42.6903C43.5193 42.911 43.3257 44.2911 42.9649 44.5674C42.494 44.8715 42.1068 44.9533 39.8069 44.9533C38.6158 44.9533 37.3412 44.8422 36.4831 44.7604C36.0108 44.6785 35.5678 44.7326 35.1527 44.7326C34.9312 44.7604 34.7097 44.7604 34.5161 44.7604C34.6819 44.6785 34.8212 44.5396 34.9591 44.3466" fill="#F9F3EA"/>
<path d="M50.6626 42.1655C50.5512 43.3525 50.6626 43.9885 50.8563 44.3466C50.9399 44.5396 51.0777 44.6785 51.2171 44.7604H48.0869C48.2806 44.6785 48.4478 44.5396 48.6414 44.3466C48.9465 44.0162 49.2501 43.4081 49.3895 42.2751L50.9941 27.4791L58.0846 41.8351L65.0666 27.4791L66.5891 42.1947C66.7006 43.3262 67.0057 43.9622 67.3093 44.3203C67.4751 44.5133 67.6702 44.68 67.8638 44.7618H64.2628C64.4007 44.68 64.54 44.5411 64.6236 44.3481C64.8173 43.9885 64.9287 43.354 64.8173 42.1669L63.8756 32.3663L57.7825 45.0103L51.5222 32.3663L50.6641 42.1669L50.6626 42.1655Z" fill="#F9F3EA"/>
<path d="M76.1967 27.7832C76.0309 27.8387 75.8916 27.9484 75.7537 28.115C75.5322 28.4191 75.3371 28.8884 75.3371 29.7714V42.7473C75.3371 43.6025 75.5308 44.0718 75.7537 44.3759C75.8916 44.5689 76.0309 44.68 76.1967 44.7618H72.7072C72.845 44.7063 72.9844 44.5966 73.1223 44.43C73.3159 44.1259 73.5374 43.6303 73.5374 42.7473V29.7714C73.5374 28.8606 73.3159 28.3913 73.1223 28.0873C72.9844 27.9221 72.845 27.811 72.7072 27.7832H76.1967Z" fill="#F9F3EA"/>
<path d="M90.7371 33.277C90.7371 28.8869 86.9425 28.3343 85.7514 28.3343C85.3906 28.3343 85.197 28.3621 85.0033 28.3899L84.754 28.4454V37.1423C84.9755 37.1701 85.4184 37.2257 86.1108 37.2257C89.7954 37.2257 90.7371 35.0723 90.7371 33.277ZM93.0634 42.7458C94.0051 44.1814 95.0861 45.5615 96.8859 45.5615L96.4986 45.6726C96.2493 45.7559 95.9442 45.7837 95.5291 45.7837C94.3659 45.7837 92.7862 45.3422 91.5115 43.3277L88.022 37.6409C86.941 37.8894 85.5285 37.8338 84.754 37.8338V42.7473C84.754 43.7136 84.9476 44.1551 85.1691 44.4592C85.307 44.6244 85.4463 44.7355 85.6121 44.7633H82.0389C82.2047 44.7355 82.3719 44.6522 82.5098 44.487C82.7313 44.2385 82.9806 43.7136 82.9806 42.7473V29.5784C82.9806 28.7773 82.7313 28.308 82.5098 28.0595C82.3719 27.9221 82.2326 27.811 82.0668 27.7832H86.9703C89.6296 27.7832 92.3432 29.4951 92.3432 32.4481C92.3432 34.0489 91.3458 36.2023 89.5739 37.1687L93.0649 42.7458H93.0634Z" fill="#F9F3EA"/>
<path d="M105.027 30.8751L102.672 37.059H107.381L105.027 30.8751ZM100.622 42.6625C100.207 43.6566 100.345 44.43 100.705 44.7604H97.631C98.074 44.5396 98.6827 44.18 99.3486 42.5236L105.137 27.368L111.425 42.6903C112.089 44.3744 112.782 44.5396 113.198 44.7618H109.431C109.902 44.43 109.958 43.9607 109.597 42.9944L107.602 37.7213H102.423L100.623 42.6625H100.622Z" fill="#F9F3EA"/>
<path d="M122.307 28.4454V42.7458C122.307 43.7385 122.528 44.2633 122.75 44.5133C122.888 44.6507 123.027 44.734 123.221 44.7618H119.73C119.841 44.7618 120.589 44.6507 120.589 42.7736V28.4454H116.739C114.8 28.4454 114.413 29.4118 114.413 29.4118L114.468 29.0814C114.496 28.8884 114.496 28.6399 114.58 28.3358L114.746 27.2876C114.774 27.3154 114.801 27.3695 114.885 27.425C115.023 27.5083 115.244 27.5902 115.577 27.6458C115.882 27.7291 116.408 27.7832 116.824 27.7832H126.27C126.492 27.7832 127.102 27.8387 127.627 27.6458C127.904 27.5902 128.126 27.4806 128.319 27.2861L128.042 29.384C128.014 29.2173 127.931 29.0521 127.793 28.9147C127.571 28.694 127.1 28.4454 126.241 28.4454H122.307Z" fill="#F9F3EA"/>
<path d="M133.106 44.3466C133.327 44.0426 133.576 43.547 133.576 42.7458V29.7714C133.576 28.8606 133.355 28.3913 133.133 28.0873C132.996 27.9221 132.856 27.811 132.69 27.7832H141.028L140.89 29.6047C140.862 29.4951 140.834 29.384 140.778 29.2743C140.695 29.0814 140.557 28.8884 140.362 28.7495C139.919 28.4454 137.455 28.4191 136.956 28.4191H135.376V35.4304H139.033C139.781 35.4304 140.14 35.2375 140.445 35.0445C140.583 34.9334 140.723 34.796 140.805 34.6293C140.805 34.8515 140.667 36.8105 140.667 37.1146C140.639 37.0035 140.611 36.8938 140.555 36.7827C140.472 36.5897 140.306 36.3968 140.085 36.2857C139.614 36.0927 138.285 36.1482 137.177 36.1482H135.376V42.5807C135.376 43.354 135.542 44.3759 137.98 44.3759C139.669 44.3759 140.224 44.0718 140.693 43.7122C140.943 43.5192 141.164 43.2985 141.358 43.0499C141.469 42.9388 141.579 42.8292 141.663 42.6903C141.663 42.911 141.469 44.2911 141.108 44.5674C140.638 44.8715 140.25 44.9533 137.95 44.9533C136.759 44.9533 135.485 44.8422 134.627 44.7604C134.156 44.6785 133.713 44.7326 133.296 44.7326C133.075 44.7604 132.853 44.7604 132.66 44.7604C132.825 44.6785 132.965 44.5396 133.103 44.3466" fill="#F9F3EA"/>
<path d="M151.024 45.0381C149.362 45.0381 148.115 44.8729 147.479 44.2926C147.118 44.044 147.036 43.2707 147.036 42.7473C147.036 42.4988 147.036 42.3058 147.064 42.1128C147.064 42.0295 147.064 41.9199 147.091 41.8365C147.395 43.2444 148.67 44.3481 151.024 44.3481C153.378 44.3481 154.791 42.7751 154.791 41.2562C154.791 37.059 147.754 37.0049 147.754 32.09C147.754 28.0317 151.439 27.5902 152.325 27.5902C153.211 27.5902 154.292 27.811 155.317 27.811C155.677 27.811 155.872 27.7832 155.898 27.7832C155.815 28.3636 155.788 28.9425 155.705 29.4673L155.593 30.2947C155.232 28.6662 154.043 28.1969 152.381 28.1969C150.027 28.1969 149.085 30.0462 149.085 31.2611C149.085 32.6689 149.915 33.856 152.243 35.3179C154.679 36.8368 156.093 38.1613 156.093 40.3425C156.093 42.9929 153.711 45.0352 151.024 45.0352" fill="#F9F3EA"/>
<path d="M178.22 32.8355C178.22 28.5843 174.647 28.308 173.982 28.308C173.621 28.308 173.4 28.3343 173.206 28.3636L172.957 28.4191V42.7473C172.957 43.7136 173.151 44.1551 173.372 44.4592C173.51 44.6244 173.649 44.7355 173.815 44.7633H170.242C170.408 44.7355 170.547 44.6259 170.685 44.4592C170.906 44.1551 171.156 43.7136 171.156 42.7473V29.7714C171.156 28.8884 170.934 28.4191 170.713 28.115C170.575 27.9484 170.437 27.8387 170.298 27.7832H174.563C177.36 27.7832 179.826 29.4951 179.826 32.5037C179.826 34.9056 177.777 37.1964 175.201 37.1964C174.786 37.1964 174.48 37.1687 174.258 37.1146C174.12 37.0868 174.01 37.0312 173.899 37.0035C176.337 37.445 178.22 35.2082 178.22 32.8341" fill="#F9F3EA"/>
<path d="M189.739 30.8751L187.384 37.059H192.094L189.74 30.8751H189.739ZM185.335 42.6625C184.92 43.6566 185.058 44.43 185.417 44.7604H182.343C182.786 44.5396 183.396 44.18 184.061 42.5236L189.85 27.368L196.138 42.6903C196.804 44.3744 197.495 44.5396 197.912 44.7618H194.145C194.616 44.43 194.67 43.9607 194.311 42.9944L192.316 37.7213H187.137L185.335 42.6625Z" fill="#F9F3EA"/>
<path d="M202.504 44.7618C202.67 44.6785 202.809 44.5689 202.947 44.3759C203.167 44.0718 203.418 43.6025 203.418 42.7473V29.7714C203.418 28.8884 203.197 28.4191 202.975 28.115C202.837 27.9484 202.699 27.8387 202.534 27.7832H206.107C205.939 27.8387 205.802 27.9484 205.664 28.115C205.442 28.4191 205.221 28.8884 205.221 29.7714V42.4155C205.221 43.354 205.386 44.3759 207.824 44.3759C209.514 44.3759 210.067 44.0718 210.538 43.7136C210.787 43.5207 211.01 43.2985 211.204 43.0499C211.315 42.9403 211.425 42.8292 211.509 42.6903C211.509 42.9388 211.26 44.2648 210.954 44.5689C210.484 44.8729 210.095 44.9548 207.796 44.9548C206.605 44.9548 205.331 44.8437 204.473 44.734C204 44.7063 203.557 44.6785 203.144 44.7063L202.506 44.7618H202.504Z" fill="#F9F3EA"/>
<path d="M222.833 30.8751L220.478 37.059H225.188L222.833 30.8751ZM218.429 42.6625C218.014 43.6566 218.152 44.43 218.511 44.7604H215.437C215.88 44.5396 216.49 44.18 217.155 42.5236L222.944 27.368L229.232 42.6903C229.897 44.3744 230.589 44.5396 231.006 44.7618H227.239C227.71 44.43 227.764 43.9607 227.405 42.9944L225.41 37.7213H220.23L218.429 42.6625Z" fill="#F9F3EA"/>
<path d="M234.768 36.0371C234.768 34.2697 235.239 32.5578 236.208 31.15C237.399 29.4381 239.642 27.5332 243.271 27.5332C245.847 27.5332 247.426 27.8928 249.643 28.4162L249.449 30.7626C249.2 30.2655 248.785 29.824 248.258 29.4366C247.343 28.7744 245.848 28.1121 243.41 28.1121C239.089 28.1121 236.597 31.783 236.597 35.8412C236.597 39.8995 239.396 44.3437 244.436 44.3437C246.347 44.3437 248.703 43.9022 249.948 42.4944C249.866 43.4607 249.477 45.006 244.048 45.006C238.953 45.006 234.769 41.224 234.769 36.0342" fill="#F9F3EA"/>
<path d="M255.953 44.3466C256.173 44.0426 256.424 43.547 256.424 42.7458V29.7714C256.424 28.8606 256.202 28.3913 255.981 28.0873C255.843 27.9221 255.705 27.811 255.539 27.7832H263.877L263.739 29.6047C263.711 29.4951 263.683 29.384 263.629 29.2743C263.545 29.0814 263.407 28.8884 263.214 28.7495C262.771 28.4454 260.303 28.4191 259.806 28.4191H258.226V35.4304H261.883C262.631 35.4304 262.991 35.2375 263.296 35.0445C263.435 34.9334 263.573 34.796 263.657 34.6293C263.657 34.8515 263.519 36.8105 263.519 37.1146C263.491 37.0035 263.463 36.8938 263.409 36.7827C263.325 36.5897 263.159 36.3968 262.938 36.2857C262.467 36.0927 261.137 36.1482 260.029 36.1482H258.228V42.5807C258.228 43.354 258.394 44.3759 260.832 44.3759C262.521 44.3759 263.074 44.0718 263.547 43.7122C263.796 43.5192 264.017 43.2985 264.212 43.0499C264.322 42.9388 264.434 42.8292 264.516 42.6903C264.516 42.911 264.322 44.2911 263.962 44.5674C263.491 44.8715 263.104 44.9533 260.804 44.9533C259.613 44.9533 258.338 44.8422 257.48 44.7604C257.008 44.6785 256.565 44.7326 256.151 44.7326C255.929 44.7604 255.708 44.7604 255.513 44.7604C255.679 44.6785 255.818 44.5396 255.956 44.3466" fill="#F9F3EA"/>
<path d="M173.871 55.0844C173.705 55.1399 173.566 55.2496 173.428 55.4162C173.206 55.7203 173.011 56.1896 173.011 57.0726V70.0485C173.011 70.9037 173.205 71.373 173.428 71.6771C173.566 71.8701 173.705 71.9812 173.871 72.063H170.381C170.519 72.0075 170.659 71.8978 170.796 71.7312C170.99 71.4271 171.212 70.9315 171.212 70.0485V57.0726C171.212 56.1618 170.99 55.6925 170.796 55.3885C170.659 55.2233 170.519 55.1122 170.381 55.0844H173.871Z" fill="#F9F3EA"/>
<path d="M160.686 60.0666C160.686 55.6765 156.891 55.1239 155.7 55.1239C155.339 55.1239 155.146 55.1516 154.952 55.1794L154.703 55.235V63.9319C154.924 63.9596 155.367 64.0152 156.06 64.0152C159.744 64.0152 160.686 61.8618 160.686 60.0666ZM163.014 69.5368C163.955 70.9724 165.036 72.3525 166.836 72.3525L166.449 72.4636C166.199 72.5469 165.894 72.5747 165.479 72.5747C164.316 72.5747 162.736 72.1332 161.462 70.1187L157.972 64.4318C156.891 64.6804 155.479 64.6248 154.704 64.6248V69.5383C154.704 70.5046 154.898 70.9461 155.119 71.2502C155.257 71.4154 155.396 71.5265 155.562 71.5543H151.989C152.155 71.5265 152.322 71.4432 152.46 71.278C152.681 71.0295 152.931 70.5046 152.931 69.5383V56.3694C152.931 55.5683 152.681 55.099 152.46 54.8505C152.322 54.7131 152.183 54.602 152.017 54.5742H156.921C159.58 54.5742 162.293 56.2861 162.293 59.2391C162.293 60.8399 161.296 62.9933 159.524 63.9596L163.015 69.5368H163.014Z" fill="#F9F3EA"/>
<path d="M182.68 57.1515V70.1275C182.68 70.9827 182.874 71.4519 183.097 71.756C183.235 71.949 183.374 72.0601 183.54 72.142H180.05C180.188 72.0864 180.328 71.9768 180.466 71.8101C180.659 71.506 180.881 71.0104 180.881 70.1275V57.1515C180.881 56.2408 180.659 55.7715 180.466 55.4674C180.328 55.3022 180.188 55.1911 180.05 55.1633L182.626 55.1926" fill="#F9F3EA"/>
<path d="M191.144 72.1244L181.676 55.6136L182.625 55.194L192.024 71.623L191.144 72.1244Z" fill="#F9F3EA"/>
<path d="M191.05 70.1538V57.1778C191.05 56.3226 190.856 55.8533 190.633 55.5493C190.496 55.3563 190.356 55.2452 190.19 55.1633H193.68C193.542 55.2189 193.403 55.3285 193.265 55.4952C193.071 55.7993 192.85 56.2948 192.85 57.1778V70.1538C192.85 71.0645 193.071 71.5338 193.265 71.8379C193.403 72.0031 193.542 72.1142 193.68 72.142L191.104 72.1127" fill="#F9F3EA"/>
<path d="M208.863 71.9285C203.936 71.8218 201.203 67.3323 201.203 63.4304C201.203 59.5286 203.695 55.7013 208.016 55.7013C210.454 55.7013 211.95 56.3636 212.864 57.0258C213.391 57.4117 213.806 57.8547 214.055 58.3518L214.249 56.0054C212.033 55.4806 210.454 55.1224 207.879 55.1224C204.25 55.1224 202.007 57.0273 200.816 58.7392C199.846 60.147 199.376 61.8589 199.376 63.6249C199.376 68.8147 203.559 72.5966 208.655 72.5966C208.726 72.5966 208.794 72.5966 208.863 72.5952V71.9285Z" fill="#F9F3EA"/>
<path d="M212.228 70.6084V65.7198C212.228 64.8646 212.034 64.3953 211.811 64.0912C211.673 63.8982 211.534 63.7871 211.368 63.7053H214.858C214.72 63.7608 214.58 63.8705 214.443 64.0371C214.249 64.3412 214.027 64.8368 214.027 65.7198V70.6084C214.027 71.5192 214.249 71.9885 214.443 72.2925C214.58 72.4577 214.72 72.5688 214.858 72.5966L212.283 72.5674" fill="#F9F3EA"/>
<path d="M213.731 71.9241H208.841V72.5981H213.731V71.9241Z" fill="#F9F3EA"/>
<path d="M110.219 57.748L107.865 63.9319H112.573L110.219 57.748ZM105.814 69.5354C105.399 70.5295 105.537 71.3028 105.898 71.6332H102.823C103.266 71.4125 103.875 71.0528 104.541 69.3965L110.331 54.2394L116.619 69.5617C117.283 71.2458 117.976 71.411 118.392 71.6332H114.625C115.096 71.3014 115.152 70.8321 114.791 69.8658L112.796 64.5927H107.617L105.817 69.5339L105.814 69.5354Z" fill="#F9F3EA"/>
<path d="M84.1717 62.7828C84.1717 61.0154 84.6425 59.3035 85.6121 57.8956C86.8031 56.1837 89.0458 54.2789 92.6747 54.2789C95.2504 54.2789 96.8301 54.6385 99.0465 55.1619L98.8529 57.5082C98.6035 57.0112 98.1884 56.5697 97.6618 56.1823C96.7465 55.52 95.2519 54.8578 92.814 54.8578C88.4929 54.8578 86.0008 58.5286 86.0008 62.5869C86.0008 66.6452 88.7994 71.0894 93.8393 71.0894C95.7506 71.0894 98.1063 70.6479 99.3516 69.2401C99.2694 70.2064 98.8807 71.7516 93.4521 71.7516C88.3564 71.7516 84.1731 67.9697 84.1731 62.7799" fill="#F9F3EA"/>
<path d="M126.823 55.3183V69.6187C126.823 70.6113 127.045 71.1362 127.266 71.3862C127.404 71.5236 127.543 71.6069 127.737 71.6347H124.246C124.358 71.6347 125.106 71.5236 125.106 69.6465V55.3183H121.255C119.316 55.3183 118.929 56.2846 118.929 56.2846L118.985 55.9542C119.013 55.7612 119.013 55.5127 119.096 55.2086L119.262 54.1605C119.29 54.1882 119.318 54.2423 119.401 54.2979C119.539 54.3812 119.761 54.4631 120.094 54.5186C120.399 54.602 120.924 54.656 121.34 54.656H130.787C131.008 54.656 131.618 54.7116 132.143 54.5186C132.421 54.4631 132.642 54.3534 132.836 54.159L132.558 56.2568C132.531 56.0902 132.447 55.925 132.309 55.7876C132.088 55.5668 131.617 55.3183 130.757 55.3183H126.823Z" fill="#F9F3EA"/>
<path d="M137.622 71.2195C137.843 70.9154 138.093 70.4198 138.093 69.6187V56.6428C138.093 55.732 137.871 55.2627 137.65 54.9587C137.512 54.7935 137.372 54.6824 137.207 54.6546H145.544L145.406 56.4761C145.378 56.3665 145.35 56.2554 145.295 56.1457C145.211 55.9528 145.073 55.7598 144.878 55.6209C144.435 55.3168 141.971 55.2905 141.472 55.2905H139.892V62.3018H143.549C144.297 62.3018 144.657 62.1089 144.962 61.9159C145.1 61.8048 145.239 61.6674 145.321 61.5007C145.321 61.7229 145.183 63.6819 145.183 63.986C145.155 63.8749 145.127 63.7652 145.072 63.6541C144.988 63.4611 144.822 63.2682 144.601 63.1571C144.13 62.9641 142.801 63.0196 141.694 63.0196H139.892V69.452C139.892 70.2254 140.058 71.2473 142.496 71.2473C144.186 71.2473 144.74 70.9432 145.21 70.5836C145.459 70.3906 145.68 70.1698 145.874 69.9213C145.986 69.8102 146.096 69.7006 146.179 69.5617C146.179 69.7824 145.986 71.1625 145.625 71.4388C145.154 71.7429 144.767 71.8247 142.467 71.8247C141.276 71.8247 140.001 71.7136 139.143 71.6318C138.672 71.5499 138.229 71.604 137.813 71.604C137.591 71.6318 137.37 71.6318 137.176 71.6318C137.342 71.5499 137.481 71.411 137.619 71.218" fill="#F9F3EA"/>
</svg>
