<svg width="299" height="124" viewBox="0 0 299 124" fill="none" xmlns="http://www.w3.org/2000/svg">
<g clip-path="url(#clip0_2700_1070)">
<path d="M33 86.9997L36.3017 81.0947H37.6087L40.9543 86.9997H39.4308L38.7294 85.7106H35.0304L34.3508 86.9997H33ZM35.6112 84.6432H38.1677L36.91 82.2424L35.6112 84.6432Z" fill="white"/>
<path d="M48.2561 82.1316H44.4365V83.3985H48.0753C48.6452 83.3985 49.0315 83.4955 49.2316 83.6951C49.4316 83.892 49.533 84.2579 49.533 84.7957V85.6052C49.533 86.1403 49.4316 86.509 49.2316 86.7058C49.0315 86.9026 48.6452 87.0024 48.0753 87.0024H44.4694C43.8995 87.0024 43.5131 86.9054 43.3131 86.7058C43.1131 86.509 43.0117 86.1403 43.0117 85.6052V85.4444L44.2091 85.1922V85.8908H48.3328V84.5434H44.6941C44.1269 84.5434 43.7433 84.4464 43.546 84.2468C43.346 84.05 43.2474 83.684 43.2474 83.1462V82.492C43.2474 81.9569 43.346 81.5882 43.546 81.3914C43.746 81.1945 44.1269 81.0947 44.6941 81.0947H48.0068C48.5548 81.0947 48.9329 81.189 49.1411 81.3803C49.3494 81.5688 49.4535 81.907 49.4535 82.3922V82.5141L48.2561 82.7997V82.1288V82.1316Z" fill="white"/>
<path d="M52.9119 86.9997V81.0947H57.9015C58.3645 81.0947 58.7016 81.1862 58.9098 81.3664C59.1181 81.5466 59.2222 81.8377 59.2222 82.2397V83.5593C59.2222 83.9585 59.1181 84.2468 58.9098 84.427C58.7016 84.6072 58.3673 84.6987 57.9015 84.6987H54.2463V86.9997H52.9092H52.9119ZM57.3014 82.1205H54.249V83.684H57.3014C57.5371 83.684 57.6987 83.648 57.7837 83.5815C57.8713 83.5122 57.9124 83.3902 57.9124 83.2155V82.5834C57.9124 82.4116 57.8686 82.2924 57.7837 82.223C57.696 82.1537 57.5371 82.1205 57.3014 82.1205Z" fill="white"/>
<path d="M61.8799 86.9997V81.0947H63.2389V86.9997H61.8799Z" fill="white"/>
<path d="M66.7842 86.9997V81.0947H71.7737C72.2368 81.0947 72.5738 81.1862 72.7821 81.3664C72.9903 81.5466 73.0944 81.8377 73.0944 82.2397V83.6258C73.0944 84.025 72.9903 84.3161 72.7821 84.4963C72.5738 84.6793 72.2395 84.7708 71.7737 84.7708H71.012L73.7055 86.9997H71.7573L69.4064 84.7708H68.1213V86.9997H66.7842ZM71.1709 82.1205H68.1186V83.7617H71.1709C71.4066 83.7617 71.5682 83.7284 71.6532 83.6591C71.7409 83.5898 71.782 83.4678 71.782 83.2931V82.5834C71.782 82.4116 71.7381 82.2924 71.6532 82.223C71.5655 82.1537 71.4066 82.1205 71.1709 82.1205Z" fill="white"/>
<path d="M76.4131 86.9997V81.0947H82.3863V82.1011H77.7721V83.4207H80.4656V84.427H77.7721V85.8908H82.4411V87.0024H76.4131V86.9997Z" fill="white"/>
<path d="M90.4551 86.9997V81.0947H96.3571V82.1288H91.8141V83.6813H94.2719V84.7597H91.8141V86.9997H90.4551Z" fill="white"/>
<path d="M98.4863 82.492C98.4863 81.9569 98.585 81.5882 98.785 81.3914C98.985 81.1945 99.3659 81.0947 99.9331 81.0947H104.229C104.797 81.0947 105.18 81.1918 105.377 81.3914C105.577 81.5882 105.676 81.9541 105.676 82.492V85.6025C105.676 86.143 105.577 86.509 105.377 86.7058C105.18 86.8999 104.797 86.9997 104.229 86.9997H99.9331C99.3659 86.9997 98.9823 86.9026 98.785 86.7058C98.5877 86.509 98.4863 86.143 98.4863 85.6025V82.492ZM99.8426 85.888H104.32V82.151H99.8426V85.888Z" fill="white"/>
<path d="M109.099 86.9997V81.0947H114.088C114.551 81.0947 114.888 81.1862 115.097 81.3664C115.305 81.5466 115.409 81.8377 115.409 82.2397V83.6258C115.409 84.025 115.305 84.3161 115.097 84.4963C114.888 84.6765 114.554 84.7708 114.088 84.7708H113.326L116.02 86.9997H114.072L111.721 84.7708H110.436V86.9997H109.099ZM113.485 82.1205H110.433V83.7617H113.485C113.721 83.7617 113.883 83.7284 113.968 83.6591C114.053 83.5898 114.096 83.4678 114.096 83.2931V82.5834C114.096 82.4116 114.053 82.2924 113.968 82.223C113.88 82.1537 113.721 82.1205 113.485 82.1205Z" fill="white"/>
<path d="M118.716 86.9997V81.0947H119.814L122.563 84.6627L125.251 81.0947H126.338V86.9997H125.081V83.3514C125.081 83.2793 125.086 83.1906 125.094 83.0824C125.103 82.9743 125.116 82.8524 125.13 82.7193C125.056 82.8718 124.993 82.9965 124.935 83.0963C124.881 83.1961 124.831 83.2765 124.787 83.3403L122.595 86.29H122.324L120.127 83.3292C120.047 83.2183 119.976 83.1129 119.918 83.0131C119.861 82.9161 119.814 82.8191 119.779 82.7248C119.79 82.8468 119.798 82.9605 119.803 83.0603C119.809 83.1601 119.812 83.2571 119.812 83.3514V86.9997H118.713H118.716Z" fill="white"/>
<path d="M131.118 81.0977V85.8909H134.987V81.0977H136.337V85.6054C136.337 86.146 136.239 86.5119 136.039 86.7087C135.839 86.9028 135.458 87.0026 134.891 87.0026H131.203C130.638 87.0026 130.257 86.9056 130.057 86.7087C129.857 86.5119 129.756 86.146 129.756 85.6054V81.0977H131.115H131.118Z" fill="white"/>
<path d="M139.894 86.9997V81.0947H141.253V85.888H145.631V86.9997H139.896H139.894Z" fill="white"/>
<path d="M146.867 86.9997L150.169 81.0947H151.479L154.824 86.9997H153.301L152.599 85.7106H148.9L148.221 86.9997H146.867ZM149.478 84.6432H152.035L150.777 82.2424L149.481 84.6432H149.478Z" fill="white"/>
<path d="M162.194 86.9997V81.0947H163.293L166.041 84.6627L168.729 81.0947H169.817V86.9997H168.559V83.3514C168.559 83.2793 168.565 83.1906 168.573 83.0824C168.581 82.9743 168.595 82.8524 168.609 82.7193C168.535 82.8718 168.472 82.9965 168.414 83.0963C168.359 83.1961 168.31 83.2765 168.266 83.3403L166.074 86.29H165.803L163.605 83.3292C163.526 83.2183 163.455 83.1129 163.397 83.0131C163.339 82.9161 163.293 82.8191 163.257 82.7248C163.268 82.8468 163.276 82.9605 163.282 83.0603C163.287 83.1601 163.29 83.2571 163.29 83.3514V86.9997H162.191H162.194Z" fill="white"/>
<path d="M173.116 82.492C173.116 81.9569 173.215 81.5882 173.415 81.3914C173.615 81.1945 173.996 81.0947 174.563 81.0947H178.859C179.426 81.0947 179.81 81.1918 180.007 81.3914C180.207 81.5882 180.306 81.9541 180.306 82.492V85.6025C180.306 86.143 180.207 86.509 180.007 86.7058C179.81 86.8999 179.426 86.9997 178.859 86.9997H174.563C173.996 86.9997 173.612 86.9026 173.415 86.7058C173.218 86.509 173.116 86.143 173.116 85.6025V82.492ZM174.475 85.888H178.952V82.151H174.475V85.888Z" fill="white"/>
<path d="M186.446 82.1539V87.0026H185.09V82.1539H182.413V81.0977H189.137V82.1539H186.449H186.446Z" fill="white"/>
<path d="M191.241 82.492C191.241 81.9569 191.34 81.5882 191.54 81.3914C191.74 81.1945 192.121 81.0947 192.688 81.0947H196.984C197.551 81.0947 197.935 81.1918 198.132 81.3914C198.332 81.5882 198.431 81.9541 198.431 82.492V85.6025C198.431 86.143 198.332 86.509 198.132 86.7058C197.935 86.8999 197.551 86.9997 196.984 86.9997H192.688C192.121 86.9997 191.737 86.9026 191.54 86.7058C191.343 86.509 191.241 86.143 191.241 85.6025V82.492ZM192.598 85.888H197.075V82.151H192.598V85.888Z" fill="white"/>
<path d="M201.854 86.9997V81.0947H206.843C207.306 81.0947 207.643 81.1862 207.851 81.3664C208.06 81.5466 208.164 81.8377 208.164 82.2397V83.6258C208.164 84.025 208.06 84.3161 207.851 84.4963C207.643 84.6765 207.309 84.7708 206.843 84.7708H206.081L208.775 86.9997H206.827L204.476 84.7708H203.191V86.9997H201.854ZM206.24 82.1205H203.188V83.7617H206.24C206.476 83.7617 206.638 83.7284 206.723 83.6591C206.807 83.5898 206.851 83.4678 206.851 83.2931V82.5834C206.851 82.4116 206.807 82.2924 206.723 82.223C206.635 82.1537 206.476 82.1205 206.24 82.1205Z" fill="white"/>
<path d="M216.54 82.1316H212.721V83.3985H216.359C216.929 83.3985 217.316 83.4955 217.516 83.6951C217.716 83.892 217.817 84.2579 217.817 84.7957V85.6052C217.817 86.1403 217.716 86.509 217.516 86.7058C217.316 86.9026 216.929 87.0024 216.359 87.0024H212.754C212.184 87.0024 211.797 86.9054 211.597 86.7058C211.397 86.509 211.296 86.1403 211.296 85.6052V85.4444L212.493 85.1922V85.8908H216.617V84.5434H212.978C212.411 84.5434 212.027 84.4464 211.83 84.2468C211.633 84.05 211.532 83.684 211.532 83.1462V82.492C211.532 81.9569 211.63 81.5882 211.83 81.3914C212.03 81.1945 212.411 81.0947 212.978 81.0947H216.291C216.839 81.0947 217.217 81.189 217.425 81.3803C217.634 81.5688 217.738 81.907 217.738 82.3922V82.5141L216.54 82.7997V82.1288V82.1316Z" fill="white"/>
<path d="M221.195 86.9997V81.0947H226.185C226.648 81.0947 226.985 81.1862 227.193 81.3664C227.401 81.5466 227.505 81.8377 227.505 82.2397V83.5593C227.505 83.9585 227.401 84.2468 227.193 84.427C226.985 84.6072 226.65 84.6987 226.185 84.6987H222.53V86.9997H221.192H221.195ZM225.585 82.1205H222.532V83.684H225.585C225.82 83.684 225.982 83.648 226.067 83.5815C226.152 83.5122 226.196 83.3902 226.196 83.2155V82.5834C226.196 82.4116 226.152 82.2924 226.067 82.223C225.979 82.1537 225.82 82.1205 225.585 82.1205Z" fill="white"/>
<path d="M230.04 82.492C230.04 81.9569 230.139 81.5882 230.339 81.3914C230.539 81.1945 230.92 81.0947 231.487 81.0947H235.783C236.35 81.0947 236.734 81.1918 236.931 81.3914C237.131 81.5882 237.23 81.9541 237.23 82.492V85.6025C237.23 86.143 237.131 86.509 236.931 86.7058C236.734 86.8999 236.35 86.9997 235.783 86.9997H231.487C230.92 86.9997 230.536 86.9026 230.339 86.7058C230.141 86.509 230.04 86.143 230.04 85.6025V82.492ZM231.399 85.888H235.876V82.151H231.399V85.888Z" fill="white"/>
<path d="M240.654 86.9997V81.0947H245.644C246.107 81.0947 246.444 81.1862 246.652 81.3664C246.86 81.5466 246.965 81.8377 246.965 82.2397V83.6258C246.965 84.025 246.86 84.3161 246.652 84.4963C246.444 84.6765 246.11 84.7708 245.644 84.7708H244.882L247.576 86.9997H245.627L243.276 84.7708H241.991V86.9997H240.654ZM245.041 82.1205H241.989V83.7617H245.041C245.277 83.7617 245.438 83.7284 245.523 83.6591C245.608 83.5898 245.652 83.4678 245.652 83.2931V82.5834C245.652 82.4116 245.608 82.2924 245.523 82.223C245.436 82.1537 245.277 82.1205 245.041 82.1205Z" fill="white"/>
<path d="M252.801 82.1539V87.0026H251.445V82.1539H248.768V81.0977H255.492V82.1539H252.804H252.801Z" fill="white"/>
<path d="M44.6504 75.9802H75.8509L106.032 63.3469L97.0641 75.9802H117L142.403 38L44.6504 75.9802Z" fill="white"/>
<path d="M198.042 49.6075L205.813 38H155.465C151.506 38 147.81 39.996 145.604 43.32L141.437 49.6048H198.045L198.042 49.6075Z" fill="white"/>
<path d="M194.581 55.4678H144.157C140.282 55.4678 136.649 57.3806 134.427 60.5937L123.779 75.9799H143.686L150.108 67.0753H186.811L194.581 55.4678Z" fill="white"/>
<path d="M218.052 53.9436C216.627 51.3182 212.964 45.5852 210.607 41.9424L188.443 75.4592H206.78L217.992 58.5012C218.589 56.9903 218.816 55.3547 218.049 53.9408L218.052 53.9436Z" fill="white"/>
<path d="M241.884 53.0368C239.898 49.9152 234.366 41.2879 232.258 38H214.418L223.159 52.1026C224.83 54.7418 224.671 58.0408 222.734 60.9683L213.152 75.459H231.489L242.038 59.5046C242.701 58.3347 243.657 55.8285 241.881 53.0368H241.884Z" fill="white"/>
<path d="M265.986 53.0368C263.999 49.9152 258.467 41.2879 256.36 38H238.52L247.26 52.1026C248.932 54.7418 248.773 58.0408 246.836 60.9683L237.254 75.459H255.59L266.139 59.5046C266.802 58.3347 267.758 55.8285 265.983 53.0368H265.986Z" fill="white"/>
<path d="M130.306 38H55.2818L52.7171 42.3497L50.358 46.3612H50.3525L47.7879 50.7109H47.7988L45.4397 54.7196H45.4232L42.8586 59.0693H42.8805L40.5213 63.0808H40.4939L37.9293 67.4305H37.9594L35.6003 71.4392H35.5647L33 75.7889H33.0411L44.2395 71.4392L54.5584 67.4305L62.0661 64.5141L79.4405 57.7636L87.2715 54.7196L97.5904 50.7109L108.789 46.3612L130.306 38Z" fill="white"/>
</g>
<defs>
<clipPath id="clip0_2700_1070">
<rect width="234" height="49" fill="white" transform="translate(33 38)"/>
</clipPath>
</defs>
</svg>
