<svg width="299" height="124" viewBox="0 0 299 124" fill="none" xmlns="http://www.w3.org/2000/svg">
<path d="M164.579 33.8281V41.3052H188.808C191.568 41.3052 192.522 43.4465 192.75 44.1013C192.982 44.77 193.563 47.088 191.346 48.8343C176.55 60.4831 168.176 74.4221 167.066 89.1684H174.555C175.679 76.6153 182.861 65.0255 195.959 54.7107C199.949 51.5681 201.457 46.4436 199.804 41.6552C198.162 36.8979 193.85 33.8281 188.812 33.8281H164.579Z" fill="white"/>
<path d="M215.24 33.8281H207.778V89.1684H215.24V33.8281Z" fill="white"/>
<path d="M152 42.1333C154.517 42.1333 156.557 40.0887 156.557 37.5667C156.557 35.0446 154.517 33 152 33C149.483 33 147.443 35.0446 147.443 37.5667C147.443 40.0887 149.483 42.1333 152 42.1333Z" fill="white"/>
<path d="M151.132 52.4031C148.286 50.7157 144.867 50.6533 141.979 52.2368C139.22 53.7509 136.654 55.8575 134.206 58.2309V55.9961C134.206 43.5331 124.075 33 112.08 33C97.9338 33 86.4747 43.8519 83.5632 60.0049C81.9553 68.9165 83.8468 77.9112 88.494 83.4861C92.0486 87.7479 97.0555 90.0035 102.975 90.0035C112.906 90.0035 120.347 84.1652 126.748 77.4712V89.1719H134.21V69.1417C138.013 64.828 141.685 60.9335 145.572 58.7992C146.336 58.3799 147.003 58.6467 147.335 58.8407C147.619 59.0071 148.272 59.5025 148.272 60.4796V89.1754H155.734V60.4796C155.734 57.1326 154.016 54.1182 151.135 52.41L151.132 52.4031ZM102.972 82.5229C99.2858 82.5229 96.3398 81.234 94.2167 78.6873C90.9975 74.8275 89.6973 68.0156 90.9041 61.3285C92.6365 51.7066 99.2236 40.4736 112.08 40.4736C119.891 40.4736 126.744 47.729 126.744 55.9996V66.3179C119.455 74.6612 112.557 82.5194 102.972 82.5194V82.5229Z" fill="white"/>
</svg>
