<svg width="299" height="124" viewBox="0 0 299 124" fill="none" xmlns="http://www.w3.org/2000/svg">
<path d="M130.508 59.1354C130.508 61.2329 130.87 63.2377 131.535 65.1078L127.075 62.1258C126.94 61.1486 126.864 60.1462 126.864 59.1269C126.864 57.6528 127.016 56.2207 127.293 54.8308L131.922 52.1605C131.013 54.3001 130.508 56.6503 130.508 59.1185M123.288 57.1558L121.318 58.293L123.212 59.5565C123.212 59.4133 123.212 59.2786 123.212 59.1354C123.212 58.4699 123.245 57.8044 123.296 57.1558M164.936 52.1773C165.836 54.317 166.341 56.6672 166.341 59.1354C166.341 61.216 165.979 63.2209 165.323 65.0825L169.783 62.1089C169.917 61.1402 169.993 60.1462 169.993 59.1354C169.993 57.6696 169.842 56.2376 169.564 54.8477L164.936 52.1773ZM175.505 58.2761L173.561 57.1558C173.612 57.8128 173.646 58.4699 173.646 59.1354C173.646 59.2701 173.646 59.3965 173.646 59.5313L175.514 58.2846L175.505 58.2761ZM162.689 59.1354C162.689 67.02 156.301 73.4221 148.416 73.4221C140.531 73.4221 134.143 67.0284 134.143 59.1354C134.143 51.2423 140.531 44.8486 148.416 44.8486C156.301 44.8486 162.689 51.2423 162.689 59.1354ZM159.045 59.1354C159.045 53.2724 154.282 48.5046 148.424 48.5046C142.567 48.5046 137.804 53.2724 137.804 59.1354C137.804 64.9983 142.567 69.7662 148.424 69.7662C154.282 69.7662 159.045 64.9983 159.045 59.1354ZM155.392 59.1354C155.392 62.985 152.27 66.1102 148.416 66.1102C144.562 66.1102 141.448 62.985 141.448 59.1354C141.448 55.2857 144.57 52.1605 148.416 52.1605C152.262 52.1605 155.392 55.2857 155.392 59.1354ZM151.749 59.1354C151.749 57.299 150.259 55.808 148.424 55.808C146.59 55.808 145.1 57.299 145.1 59.1354C145.1 60.9717 146.59 62.4627 148.424 62.4627C150.259 62.4627 151.749 60.9717 151.749 59.1354Z" fill="white"/>
<path d="M177.274 32.8955L169.843 28.5994V14.2537L165.93 11.9961V30.8654L177.274 37.4191V32.8955Z" fill="white"/>
<path d="M177.273 18.5505L173.73 16.4951V26.57L177.273 28.6169V18.5505Z" fill="white"/>
<path d="M150.351 3.00879V39.3658L151.647 40.1155L177.272 54.8993V50.3925L154.255 37.0914V5.26636L150.351 3.00879Z" fill="white"/>
<path d="M177.271 41.6397L162.048 32.8453V9.75574L158.135 7.52344V35.1113L177.271 46.1717V41.6397Z" fill="white"/>
<path d="M139.807 21.6339H146.489V17.7168H138.772L131.156 22.114H119.518V26.0311H132.158L139.807 21.6339Z" fill="white"/>
<path d="M139.823 13.7917H146.488V9.86621H138.78L131.164 14.2634H126.973L120.182 18.1889H132.157L139.823 13.7917Z" fill="white"/>
<path d="M146.49 3L141.34 5.97359H146.49V3Z" fill="white"/>
<path d="M139.992 37.1924H146.489V33.2754H138.974L131.131 37.799H119.518V41.7244H132.158L139.992 37.1924Z" fill="white"/>
<path d="M139.992 29.3585H146.489V25.4414H138.966L131.131 29.9566H119.518V33.8736H132.174L139.992 29.3585Z" fill="white"/>
<path d="M143.35 41.1172H138.966L131.131 45.6408H119.518V49.5662H128.707L143.35 41.1172Z" fill="white"/>
<path d="M121.908 53.4922H119.518V54.8737L121.908 53.4922Z" fill="white"/>
<path d="M104.427 88.855C102.954 88.855 101.851 88.5433 101.111 87.9199C100.37 87.2966 100 86.3447 100 85.0811C100 84.2556 100.185 83.5564 100.564 82.992C100.943 82.4276 101.481 82.0064 102.196 81.72C102.912 81.4336 103.762 81.2988 104.746 81.2988C105.394 81.2988 105.975 81.3578 106.505 81.4673C107.035 81.5768 107.498 81.7453 107.877 81.9643C108.264 82.1833 108.558 82.4697 108.769 82.8067C108.979 83.1436 109.08 83.548 109.08 84.0113H107.507C107.507 83.7586 107.431 83.5396 107.279 83.3627C107.128 83.1858 106.926 83.0426 106.673 82.9415C106.421 82.8404 106.126 82.7646 105.807 82.7224C105.487 82.6803 105.15 82.6551 104.788 82.6551C104.334 82.6551 103.913 82.6972 103.526 82.7898C103.139 82.8741 102.802 83.0173 102.525 83.2026C102.239 83.3879 102.02 83.6322 101.868 83.9186C101.717 84.205 101.633 84.5504 101.633 84.9463V85.199C101.633 85.755 101.75 86.193 101.994 86.53C102.239 86.867 102.575 87.1112 103.021 87.2713C103.467 87.4229 103.989 87.5072 104.586 87.5072C105.251 87.5072 105.798 87.4482 106.227 87.3303C106.657 87.2123 106.976 87.0354 107.187 86.808C107.397 86.5805 107.498 86.3194 107.498 86.0077V85.9235H104.544V84.6515H109.08V88.737H108.079L107.911 87.7767C107.65 88.0294 107.338 88.24 106.968 88.4001C106.606 88.5601 106.202 88.6781 105.765 88.7539C105.327 88.8297 104.873 88.8634 104.393 88.8634L104.427 88.855Z" fill="#B2B2B2"/>
<path d="M115.762 88.855C114.794 88.855 113.953 88.7118 113.254 88.4169C112.556 88.1221 112.017 87.6925 111.639 87.1281C111.26 86.5637 111.066 85.8814 111.066 85.0727C111.066 84.264 111.26 83.5817 111.639 83.0173C112.017 82.4613 112.556 82.0317 113.254 81.7369C113.953 81.442 114.794 81.2988 115.762 81.2988C116.73 81.2988 117.572 81.442 118.27 81.7369C118.968 82.0317 119.507 82.4613 119.886 83.0173C120.264 83.5817 120.45 84.264 120.45 85.0727C120.45 85.8814 120.256 86.5637 119.886 87.1281C119.507 87.6925 118.968 88.1221 118.27 88.4169C117.572 88.7118 116.73 88.855 115.762 88.855ZM115.762 87.5072C116.2 87.5072 116.604 87.4566 116.974 87.3555C117.344 87.2544 117.664 87.1112 117.933 86.9175C118.203 86.7237 118.421 86.4879 118.573 86.193C118.724 85.9066 118.8 85.5613 118.8 85.1822V84.9379C118.8 84.5588 118.724 84.2219 118.573 83.9355C118.421 83.6491 118.211 83.4132 117.933 83.2194C117.664 83.0257 117.336 82.8825 116.974 82.7898C116.604 82.6972 116.2 82.6466 115.762 82.6466C115.325 82.6466 114.921 82.6972 114.55 82.7898C114.18 82.8825 113.86 83.0257 113.591 83.2194C113.322 83.4132 113.111 83.6491 112.96 83.9355C112.808 84.2219 112.741 84.5588 112.741 84.9379V85.1822C112.741 85.5613 112.817 85.8982 112.96 86.193C113.111 86.4794 113.322 86.7237 113.591 86.9175C113.86 87.1112 114.18 87.2544 114.55 87.3555C114.921 87.4566 115.325 87.5072 115.762 87.5072Z" fill="#B2B2B2"/>
<path d="M124.742 88.7292L121.258 81.4258H123.067L124.969 85.5534C125.053 85.7303 125.137 85.9156 125.221 86.1178C125.306 86.32 125.39 86.5137 125.466 86.6991C125.541 86.8844 125.609 87.036 125.659 87.1708H125.743C125.794 87.0529 125.853 86.9012 125.928 86.7159C126.004 86.539 126.088 86.3453 126.172 86.1431C126.265 85.9409 126.349 85.7472 126.433 85.5618L128.344 81.4258H130.052L126.568 88.7292H124.742Z" fill="#B2B2B2"/>
<path d="M131.565 88.7292V81.4258H138.946V82.7736H133.181V84.3404H138.306V85.6882H133.181V87.3814H139.03V88.7292H131.565Z" fill="#B2B2B2"/>
<path d="M141.069 88.7292V81.4258H146.842C147.355 81.4258 147.784 81.5269 148.113 81.7375C148.441 81.9481 148.685 82.226 148.853 82.563C149.022 82.8999 149.097 83.2874 149.097 83.7086C149.097 84.1298 148.988 84.551 148.761 84.9301C148.533 85.3091 148.188 85.604 147.726 85.8146L149.274 88.7292H147.456L146.118 86.1263H142.676V88.7292H141.061H141.069ZM142.685 84.7869H146.404C146.741 84.7869 146.993 84.6858 147.17 84.492C147.347 84.2983 147.439 84.0456 147.439 83.7423C147.439 83.5401 147.397 83.3632 147.322 83.22C147.246 83.0768 147.128 82.9673 146.968 82.8915C146.808 82.8157 146.623 82.782 146.396 82.782H142.676V84.7869H142.685Z" fill="#B2B2B2"/>
<path d="M151.15 88.7292V81.4258H152.664L156.653 85.267C156.746 85.3428 156.855 85.4523 156.982 85.5871C157.108 85.7219 157.242 85.8567 157.377 85.9999C157.512 86.1431 157.63 86.2694 157.731 86.379H157.815C157.815 86.2273 157.798 86.0336 157.789 85.8146C157.781 85.5955 157.773 85.4102 157.773 85.267V81.4258H159.321V88.7292H157.832L153.826 84.8458C153.632 84.6605 153.439 84.4583 153.228 84.2309C153.018 84.0035 152.85 83.8266 152.723 83.6918H152.648C152.648 83.7844 152.664 83.9445 152.673 84.1719C152.681 84.3994 152.681 84.6689 152.681 84.9638V88.7123H151.133L151.15 88.7292Z" fill="#B2B2B2"/>
<path d="M160.919 88.7292L164.571 81.4258H166.397L170.049 88.7292H168.274L167.584 87.314H163.258L162.568 88.7292H160.91H160.919ZM163.898 86.0083H166.944L166.094 84.2225C166.06 84.1467 166.01 84.0287 165.943 83.8771C165.875 83.7255 165.808 83.5654 165.741 83.4138C165.673 83.2537 165.614 83.119 165.564 83.001C165.513 82.8831 165.48 82.8241 165.471 82.8157H165.387C165.32 82.9589 165.253 83.119 165.168 83.3043C165.084 83.4896 165.008 83.6665 164.933 83.835C164.857 84.0035 164.798 84.1382 164.748 84.2393L163.898 86.0167V86.0083Z" fill="#B2B2B2"/>
<path d="M171.64 88.7292V81.4258H173.155L177.144 85.267C177.236 85.3428 177.346 85.4523 177.472 85.5871C177.598 85.7219 177.733 85.8567 177.867 85.9999C178.002 86.1431 178.12 86.2694 178.221 86.379H178.305C178.305 86.2273 178.288 86.0336 178.28 85.8146C178.271 85.5955 178.263 85.4102 178.263 85.267V81.4258H179.811V88.7292H178.322L174.316 84.8458C174.122 84.6605 173.929 84.4583 173.718 84.2309C173.508 84.0035 173.34 83.8266 173.214 83.6918H173.138C173.138 83.7844 173.155 83.9445 173.163 84.1719C173.171 84.3994 173.171 84.6689 173.171 84.9638V88.7123H171.623L171.64 88.7292Z" fill="#B2B2B2"/>
<path d="M186.35 88.855C185.366 88.855 184.541 88.7118 183.876 88.4253C183.211 88.1389 182.715 87.7093 182.378 87.1534C182.042 86.5974 181.882 85.8982 181.882 85.0727C181.882 83.8681 182.261 82.9415 183.026 82.2844C183.792 81.6274 184.895 81.2988 186.342 81.2988C187.167 81.2988 187.89 81.4168 188.513 81.6526C189.136 81.8885 189.632 82.2255 189.977 82.6635C190.331 83.1015 190.499 83.6322 190.499 84.2556H188.917C188.917 83.9018 188.808 83.6069 188.589 83.3711C188.37 83.1352 188.067 82.9583 187.672 82.832C187.285 82.714 186.83 82.6551 186.3 82.6551C185.736 82.6551 185.24 82.7477 184.827 82.9246C184.415 83.1015 184.095 83.3627 183.868 83.708C183.641 84.045 183.531 84.4578 183.531 84.9379V85.2075C183.531 85.696 183.641 86.1172 183.868 86.4542C184.095 86.7996 184.415 87.0607 184.836 87.2376C185.256 87.4145 185.745 87.5072 186.308 87.5072C186.872 87.5072 187.327 87.4482 187.714 87.3303C188.101 87.2123 188.412 87.0354 188.623 86.7996C188.833 86.5637 188.942 86.2689 188.942 85.9235H190.491C190.491 86.53 190.314 87.0607 189.969 87.4987C189.624 87.9368 189.136 88.2737 188.513 88.5096C187.89 88.7454 187.158 88.8634 186.325 88.8634L186.35 88.855Z" fill="#B2B2B2"/>
<path d="M192.535 88.7292V81.4258H199.915V82.7736H194.151V84.3404H199.276V85.6882H194.151V87.3814H200V88.7292H192.535Z" fill="#B2B2B2"/>
<path d="M104.099 121.708C103.543 121.708 103.03 121.675 102.55 121.607C102.071 121.54 101.65 121.422 101.288 121.245C100.926 121.068 100.648 120.832 100.447 120.52C100.245 120.209 100.144 119.804 100.144 119.316V119.265C100.144 119.265 100.144 119.223 100.152 119.215H101.742C101.742 119.215 101.734 119.274 101.726 119.316C101.726 119.358 101.726 119.4 101.726 119.451C101.726 119.67 101.818 119.847 102.012 119.99C102.205 120.133 102.475 120.226 102.828 120.293C103.182 120.36 103.594 120.386 104.074 120.386C104.276 120.386 104.486 120.377 104.696 120.36C104.907 120.344 105.109 120.318 105.294 120.285C105.479 120.251 105.656 120.2 105.807 120.133C105.959 120.066 106.076 119.99 106.169 119.897C106.262 119.804 106.304 119.687 106.304 119.56C106.304 119.375 106.219 119.232 106.051 119.122C105.883 119.013 105.664 118.92 105.378 118.853C105.092 118.785 104.78 118.718 104.419 118.676C104.065 118.625 103.695 118.575 103.316 118.507C102.937 118.448 102.567 118.364 102.214 118.263C101.86 118.162 101.541 118.027 101.254 117.867C100.968 117.707 100.749 117.496 100.581 117.235C100.413 116.974 100.329 116.662 100.329 116.283C100.329 115.946 100.413 115.643 100.573 115.382C100.733 115.121 100.977 114.902 101.296 114.716C101.616 114.54 102.003 114.396 102.466 114.304C102.929 114.211 103.459 114.169 104.065 114.169C104.671 114.169 105.201 114.219 105.656 114.321C106.11 114.422 106.48 114.565 106.783 114.742C107.086 114.919 107.305 115.146 107.448 115.407C107.591 115.668 107.667 115.955 107.667 116.275V116.443H106.093V116.309C106.093 116.157 106.009 116.014 105.841 115.896C105.672 115.778 105.437 115.677 105.151 115.609C104.865 115.542 104.528 115.5 104.166 115.5C103.653 115.5 103.24 115.534 102.921 115.593C102.601 115.66 102.365 115.744 102.222 115.854C102.071 115.963 101.995 116.09 101.995 116.224C101.995 116.384 102.079 116.519 102.247 116.62C102.416 116.721 102.635 116.797 102.921 116.856C103.207 116.915 103.518 116.974 103.88 117.025C104.233 117.075 104.604 117.134 104.982 117.193C105.361 117.26 105.731 117.336 106.085 117.437C106.438 117.538 106.758 117.673 107.044 117.833C107.33 118.002 107.549 118.212 107.717 118.465C107.886 118.718 107.97 119.029 107.97 119.392C107.97 119.956 107.81 120.411 107.482 120.756C107.154 121.102 106.699 121.346 106.119 121.498C105.538 121.649 104.865 121.725 104.099 121.725V121.708Z" fill="#B2B2B2"/>
<path d="M113.55 121.707C112.633 121.707 111.884 121.564 111.286 121.286C110.689 121 110.243 120.604 109.948 120.082C109.654 119.559 109.511 118.944 109.511 118.237V114.286H111.127V118.169C111.127 118.869 111.337 119.416 111.758 119.795C112.178 120.174 112.776 120.368 113.559 120.368C114.341 120.368 114.939 120.174 115.359 119.795C115.78 119.416 115.991 118.869 115.991 118.169V114.286H117.606V118.237C117.606 118.944 117.463 119.559 117.169 120.082C116.874 120.604 116.428 121.008 115.839 121.286C115.242 121.573 114.484 121.707 113.567 121.707H113.55Z" fill="#B2B2B2"/>
<path d="M119.592 121.581V114.278H122.099L123.766 118.027C123.816 118.136 123.884 118.296 123.959 118.498C124.043 118.7 124.128 118.911 124.212 119.138C124.296 119.357 124.38 119.568 124.447 119.753H124.523C124.59 119.593 124.658 119.4 124.75 119.189C124.834 118.978 124.919 118.768 125.003 118.557C125.087 118.355 125.163 118.178 125.213 118.043L126.879 114.27H129.328V121.573H127.713V117.108C127.713 116.99 127.713 116.856 127.713 116.704C127.713 116.552 127.721 116.409 127.729 116.266C127.729 116.123 127.746 115.996 127.746 115.887H127.662C127.628 115.996 127.578 116.123 127.527 116.266L127.359 116.712C127.3 116.864 127.25 116.99 127.199 117.108L125.213 121.573H123.639L121.645 117.108C121.578 116.965 121.519 116.822 121.46 116.67C121.401 116.519 121.35 116.375 121.3 116.232C121.249 116.089 121.216 115.98 121.174 115.887H121.09C121.09 115.971 121.098 116.081 121.106 116.224C121.106 116.359 121.106 116.51 121.115 116.662C121.115 116.814 121.115 116.965 121.115 117.117V121.581H119.566H119.592Z" fill="#B2B2B2"/>
<path d="M131.398 121.581V114.278H133.906L135.572 118.027C135.623 118.136 135.69 118.296 135.766 118.498C135.85 118.7 135.934 118.911 136.018 119.138C136.103 119.357 136.187 119.568 136.254 119.753H136.33C136.397 119.593 136.464 119.4 136.557 119.189C136.641 118.978 136.725 118.768 136.809 118.557C136.894 118.355 136.969 118.178 137.02 118.043L138.686 114.27H141.135V121.573H139.519V117.108C139.519 116.99 139.519 116.856 139.519 116.704C139.519 116.552 139.528 116.409 139.536 116.266C139.536 116.123 139.553 115.996 139.553 115.887H139.469C139.435 115.996 139.385 116.123 139.334 116.266L139.166 116.712C139.107 116.864 139.056 116.99 139.006 117.108L137.02 121.573H135.446L133.452 117.108C133.384 116.965 133.325 116.822 133.267 116.67C133.208 116.519 133.157 116.375 133.107 116.232C133.056 116.089 133.022 115.98 132.98 115.887H132.896C132.896 115.971 132.905 116.081 132.913 116.224C132.913 116.359 132.913 116.51 132.921 116.662C132.921 116.814 132.921 116.965 132.921 117.117V121.581H131.373H131.398Z" fill="#B2B2B2"/>
<path d="M143.205 121.582V114.278H144.821V121.582H143.205Z" fill="#B2B2B2"/>
<path d="M149.366 121.582V115.702H146.126V114.278H154.222V115.702H150.982V121.582H149.366Z" fill="#B2B2B2"/>
<path d="M105.051 99.8149C104.084 99.8149 103.242 99.6717 102.543 99.3769C101.845 99.082 101.306 98.6524 100.928 98.088C100.549 97.5236 100.355 96.8413 100.355 96.0326C100.355 95.224 100.549 94.5416 100.928 93.9772C101.306 93.4213 101.845 92.9916 102.543 92.6968C103.242 92.402 104.084 92.2588 105.051 92.2588C106.019 92.2588 106.861 92.402 107.559 92.6968C108.258 92.9916 108.796 93.4213 109.175 93.9772C109.554 94.5416 109.739 95.224 109.739 96.0326C109.739 96.8413 109.545 97.5236 109.175 98.088C108.796 98.6524 108.258 99.082 107.559 99.3769C106.861 99.6717 106.019 99.8149 105.051 99.8149ZM105.051 98.4671C105.489 98.4671 105.893 98.4166 106.263 98.3155C106.633 98.2144 106.953 98.0712 107.222 97.8774C107.492 97.6837 107.711 97.4478 107.862 97.153C108.014 96.8666 108.089 96.5212 108.089 96.1422V95.8979C108.089 95.5188 108.014 95.1818 107.862 94.8954C107.711 94.609 107.5 94.3732 107.222 94.1794C106.953 93.9857 106.625 93.8424 106.263 93.7498C105.893 93.6571 105.489 93.6066 105.051 93.6066C104.614 93.6066 104.21 93.6571 103.839 93.7498C103.469 93.8424 103.149 93.9857 102.88 94.1794C102.611 94.3732 102.4 94.609 102.249 94.8954C102.097 95.1818 102.03 95.5188 102.03 95.8979V96.1422C102.03 96.5212 102.106 96.8582 102.249 97.153C102.4 97.4394 102.611 97.6837 102.88 97.8774C103.149 98.0712 103.469 98.2144 103.839 98.3155C104.21 98.4166 104.614 98.4671 105.051 98.4671Z" fill="white"/>
<path d="M111.697 99.6882V92.3848H118.64V93.7326H113.313V95.4931H118.135V96.841H113.313V99.6798H111.697V99.6882Z" fill="white"/>
<path d="M123.582 99.6882V92.3848H130.962V93.7326H125.198V95.2994H130.323V96.6472H125.198V98.3404H131.047V99.6882H123.582Z" fill="white"/>
<path d="M133.193 99.6878V92.3844H135.701L137.367 96.133C137.418 96.2425 137.485 96.4025 137.561 96.6047C137.645 96.8069 137.729 97.0175 137.813 97.2449C137.897 97.4639 137.982 97.6745 138.049 97.8599H138.125C138.192 97.6998 138.259 97.5061 138.352 97.2955C138.436 97.0849 138.52 96.8743 138.604 96.6637C138.688 96.4615 138.764 96.2846 138.815 96.1498L140.481 92.376H142.93V99.6794H141.314V95.2148C141.314 95.0969 141.314 94.9621 141.314 94.8104C141.314 94.6588 141.323 94.5156 141.331 94.3724C141.331 94.2292 141.348 94.1028 141.348 93.9933H141.264C141.23 94.1028 141.179 94.2292 141.129 94.3724L140.961 94.8189C140.902 94.9705 140.851 95.0969 140.801 95.2148L138.815 99.6794H137.241L135.247 95.2148C135.179 95.0716 135.12 94.9284 135.061 94.7767C135.003 94.6251 134.952 94.4819 134.902 94.3387C134.851 94.1955 134.817 94.086 134.775 93.9933H134.691C134.691 94.0776 134.7 94.1871 134.708 94.3303C134.708 94.4651 134.708 94.6167 134.716 94.7683C134.716 94.92 134.716 95.0716 134.716 95.2232V99.6878H133.168H133.193Z" fill="white"/>
<path d="M145.43 99.6882V92.3848H152.81V93.7326H147.045V95.2994H152.17V96.6472H147.045V98.3404H152.894V99.6882H145.43Z" fill="white"/>
<path d="M155.039 99.6882V92.3848H160.812C161.325 92.3848 161.754 92.4858 162.082 92.6964C162.411 92.907 162.655 93.185 162.823 93.522C162.991 93.8589 163.067 94.2464 163.067 94.6676C163.067 95.0888 162.958 95.51 162.73 95.8891C162.503 96.2681 162.158 96.563 161.695 96.7736L163.244 99.6882H161.426L160.088 97.0852H156.646V99.6882H155.03H155.039ZM156.646 95.7459H160.366C160.702 95.7459 160.955 95.6448 161.131 95.451C161.308 95.2573 161.401 95.0046 161.401 94.7013C161.401 94.4991 161.359 94.3222 161.283 94.179C161.207 94.0358 161.089 93.9263 160.929 93.8505C160.77 93.7747 160.584 93.741 160.357 93.741H156.638V95.7459H156.646Z" fill="white"/>
<path d="M169.319 99.8149C167.847 99.8149 166.744 99.5032 166.004 98.8799C165.263 98.2565 164.901 97.313 164.901 96.0411C164.901 95.2155 165.087 94.5164 165.465 93.952C165.844 93.3876 166.382 92.9664 167.098 92.68C167.813 92.3936 168.663 92.2588 169.648 92.2588C170.296 92.2588 170.876 92.3178 171.406 92.4273C171.937 92.5368 172.4 92.7052 172.778 92.9243C173.165 93.1433 173.46 93.4297 173.67 93.7666C173.881 94.1036 173.982 94.5079 173.982 94.9712H172.408C172.408 94.7185 172.332 94.4995 172.181 94.3226C172.029 94.1457 171.827 94.0025 171.575 93.9014C171.322 93.8003 171.028 93.7245 170.708 93.6824C170.388 93.6403 170.052 93.615 169.69 93.615C169.235 93.615 168.815 93.6571 168.427 93.7498C168.04 93.834 167.704 93.9772 167.426 94.1626C167.14 94.3479 166.921 94.5922 166.77 94.8786C166.618 95.165 166.534 95.5104 166.534 95.9063V96.159C166.534 96.715 166.652 97.153 166.896 97.4899C167.14 97.8269 167.476 98.0712 167.923 98.2312C168.369 98.3829 168.89 98.4671 169.488 98.4671C170.153 98.4671 170.7 98.4081 171.129 98.2902C171.558 98.1723 171.878 97.9954 172.088 97.7679C172.299 97.5405 172.4 97.2794 172.4 96.9677V96.8834H169.446V95.6114H173.982V99.697H172.98L172.812 98.7367C172.551 98.9894 172.24 99.2 171.869 99.36C171.507 99.5201 171.104 99.638 170.666 99.7138C170.228 99.7896 169.774 99.8233 169.294 99.8233L169.319 99.8149Z" fill="white"/>
<path d="M176.397 99.6882V92.3848H178.013V99.6882H176.397Z" fill="white"/>
<path d="M180.486 99.6882V92.3848H182L185.989 96.226C186.082 96.3018 186.191 96.4113 186.317 96.5461C186.444 96.6809 186.578 96.8157 186.713 96.9589C186.848 97.1021 186.965 97.2284 187.066 97.338H187.151C187.151 97.1863 187.134 96.9926 187.125 96.7736C187.117 96.5545 187.109 96.3692 187.109 96.226V92.3848H188.657V99.6882H187.167L183.162 95.8048C182.968 95.6195 182.775 95.4173 182.564 95.1899C182.354 94.9624 182.185 94.7855 182.059 94.6508H181.984C181.984 94.7434 182 94.9035 182.009 95.1309C182.017 95.3584 182.017 95.6279 182.017 95.9227V99.6713H180.469L180.486 99.6882Z" fill="white"/>
<path d="M195.257 99.8149C193.784 99.8149 192.682 99.5032 191.941 98.8799C191.201 98.2565 190.839 97.313 190.839 96.0411C190.839 95.2155 191.024 94.5164 191.403 93.952C191.781 93.3876 192.32 92.9664 193.035 92.68C193.751 92.3936 194.601 92.2588 195.585 92.2588C196.233 92.2588 196.814 92.3178 197.344 92.4273C197.874 92.5368 198.337 92.7052 198.716 92.9243C199.103 93.1433 199.397 93.4297 199.608 93.7666C199.818 94.1036 199.919 94.5079 199.919 94.9712H198.345C198.345 94.7185 198.27 94.4995 198.118 94.3226C197.967 94.1457 197.765 94.0025 197.512 93.9014C197.26 93.8003 196.965 93.7245 196.646 93.6824C196.326 93.6403 195.989 93.615 195.627 93.615C195.173 93.615 194.752 93.6571 194.365 93.7498C193.978 93.834 193.641 93.9772 193.363 94.1626C193.077 94.3479 192.859 94.5922 192.707 94.8786C192.556 95.165 192.471 95.5104 192.471 95.9063V96.159C192.471 96.715 192.589 97.153 192.833 97.4899C193.077 97.8269 193.414 98.0712 193.86 98.2312C194.306 98.3829 194.828 98.4671 195.425 98.4671C196.09 98.4671 196.637 98.4081 197.066 98.2902C197.495 98.1723 197.815 97.9954 198.026 97.7679C198.236 97.5405 198.337 97.2794 198.337 96.9677V96.8834H195.383V95.6114H199.919V99.697H198.918L198.749 98.7367C198.488 98.9894 198.177 99.2 197.807 99.36C197.445 99.5201 197.041 99.638 196.603 99.7138C196.166 99.7896 195.711 99.8233 195.232 99.8233L195.257 99.8149Z" fill="white"/>
<path d="M103.173 110.639V104.76H100V103.336H107.927V104.76H104.755V110.639H103.173Z" fill="white"/>
<path d="M108.584 110.639V103.336H115.813V104.684H110.166V106.251H115.19V107.598H110.166V109.292H115.897V110.639H108.584Z" fill="white"/>
<path d="M121.056 110.765C120.088 110.765 119.28 110.622 118.632 110.335C117.984 110.049 117.488 109.619 117.168 109.064C116.848 108.508 116.68 107.808 116.68 106.983C116.68 105.778 117.058 104.852 117.807 104.195C118.556 103.538 119.642 103.209 121.056 103.209C121.864 103.209 122.57 103.327 123.185 103.563C123.799 103.799 124.279 104.136 124.624 104.574C124.969 105.012 125.137 105.542 125.137 106.166H123.589C123.589 105.812 123.479 105.517 123.269 105.281C123.05 105.045 122.756 104.868 122.377 104.742C121.998 104.624 121.544 104.565 121.03 104.565C120.475 104.565 119.995 104.658 119.591 104.835C119.187 105.012 118.868 105.273 118.649 105.618C118.43 105.955 118.312 106.368 118.312 106.848V107.118C118.312 107.606 118.422 108.027 118.649 108.364C118.868 108.71 119.187 108.971 119.6 109.148C120.012 109.325 120.492 109.417 121.047 109.417C121.603 109.417 122.04 109.358 122.427 109.24C122.815 109.122 123.109 108.946 123.319 108.71C123.53 108.474 123.639 108.179 123.639 107.834H125.162C125.162 108.44 124.994 108.971 124.649 109.409C124.312 109.847 123.833 110.184 123.227 110.42C122.613 110.656 121.906 110.774 121.081 110.774L121.056 110.765Z" fill="white"/>
<path d="M126.215 110.639V103.336H127.797V106.208H132.653V103.336H134.235V110.639H132.653V107.632H127.797V110.639H126.215Z" fill="white"/>
<path d="M135.631 110.639V103.336H137.121L141.034 107.177C141.126 107.253 141.227 107.363 141.354 107.497C141.48 107.632 141.606 107.767 141.741 107.91C141.875 108.053 141.993 108.18 142.086 108.289H142.17C142.17 108.137 142.153 107.944 142.145 107.725C142.136 107.506 142.128 107.32 142.128 107.177V103.336H143.651V110.639H142.195L138.274 106.756C138.088 106.571 137.886 106.368 137.684 106.141C137.482 105.914 137.314 105.737 137.188 105.602H137.112C137.112 105.695 137.129 105.855 137.129 106.082C137.129 106.31 137.137 106.579 137.137 106.874V110.622H135.614L135.631 110.639Z" fill="white"/>
<path d="M149.349 110.765C148.398 110.765 147.582 110.622 146.892 110.327C146.202 110.032 145.68 109.603 145.302 109.038C144.931 108.474 144.746 107.792 144.746 106.983C144.746 106.174 144.931 105.492 145.302 104.927C145.672 104.371 146.202 103.942 146.892 103.647C147.582 103.352 148.398 103.209 149.349 103.209C150.3 103.209 151.117 103.352 151.807 103.647C152.497 103.942 153.018 104.371 153.397 104.927C153.767 105.492 153.953 106.174 153.953 106.983C153.953 107.792 153.767 108.474 153.397 109.038C153.027 109.603 152.497 110.032 151.807 110.327C151.117 110.622 150.3 110.765 149.349 110.765ZM149.349 109.417C149.779 109.417 150.174 109.367 150.536 109.266C150.898 109.165 151.209 109.021 151.478 108.828C151.748 108.634 151.95 108.398 152.101 108.103C152.253 107.808 152.328 107.471 152.328 107.092V106.848C152.328 106.469 152.253 106.132 152.101 105.846C151.95 105.559 151.748 105.323 151.478 105.13C151.209 104.936 150.898 104.793 150.536 104.7C150.174 104.607 149.779 104.557 149.349 104.557C148.92 104.557 148.525 104.607 148.163 104.7C147.801 104.793 147.49 104.936 147.22 105.13C146.951 105.323 146.749 105.559 146.597 105.846C146.454 106.132 146.379 106.469 146.379 106.848V107.092C146.379 107.471 146.454 107.808 146.597 108.103C146.741 108.39 146.951 108.634 147.22 108.828C147.49 109.021 147.801 109.165 148.163 109.266C148.525 109.367 148.92 109.417 149.349 109.417Z" fill="white"/>
<path d="M155.036 110.639V103.336H156.618V109.216H161.154V110.639H155.036Z" fill="white"/>
<path d="M165.625 110.765C164.674 110.765 163.857 110.622 163.167 110.327C162.477 110.032 161.956 109.603 161.577 109.038C161.207 108.474 161.021 107.792 161.021 106.983C161.021 106.174 161.207 105.492 161.577 104.927C161.947 104.371 162.477 103.942 163.167 103.647C163.857 103.352 164.674 103.209 165.625 103.209C166.576 103.209 167.392 103.352 168.082 103.647C168.772 103.942 169.294 104.371 169.673 104.927C170.043 105.492 170.228 106.174 170.228 106.983C170.228 107.792 170.043 108.474 169.673 109.038C169.302 109.603 168.772 110.032 168.082 110.327C167.392 110.622 166.576 110.765 165.625 110.765ZM165.625 109.417C166.054 109.417 166.449 109.367 166.811 109.266C167.173 109.165 167.485 109.021 167.754 108.828C168.023 108.634 168.225 108.398 168.377 108.103C168.528 107.808 168.604 107.471 168.604 107.092V106.848C168.604 106.469 168.528 106.132 168.377 105.846C168.225 105.559 168.023 105.323 167.754 105.13C167.485 104.936 167.173 104.793 166.811 104.7C166.449 104.607 166.054 104.557 165.625 104.557C165.196 104.557 164.8 104.607 164.438 104.7C164.076 104.793 163.765 104.936 163.496 105.13C163.226 105.323 163.024 105.559 162.873 105.846C162.73 106.132 162.654 106.469 162.654 106.848V107.092C162.654 107.471 162.73 107.808 162.873 108.103C163.016 108.39 163.226 108.634 163.496 108.828C163.765 109.021 164.076 109.165 164.438 109.266C164.8 109.367 165.196 109.417 165.625 109.417Z" fill="white"/>
<path d="M175.334 110.765C173.895 110.765 172.809 110.453 172.086 109.83C171.362 109.207 171 108.263 171 106.991C171 106.166 171.185 105.467 171.555 104.902C171.926 104.338 172.456 103.917 173.154 103.63C173.853 103.344 174.686 103.209 175.654 103.209C176.285 103.209 176.857 103.268 177.379 103.377C177.901 103.487 178.347 103.655 178.725 103.874C179.104 104.093 179.399 104.38 179.601 104.717C179.803 105.054 179.912 105.458 179.912 105.921H178.372C178.372 105.669 178.296 105.45 178.153 105.273C178.01 105.096 177.808 104.953 177.564 104.852C177.312 104.751 177.034 104.675 176.714 104.633C176.394 104.59 176.066 104.565 175.721 104.565C175.275 104.565 174.863 104.607 174.484 104.7C174.105 104.784 173.777 104.927 173.499 105.113C173.222 105.298 173.003 105.542 172.851 105.829C172.7 106.115 172.624 106.461 172.624 106.856V107.109C172.624 107.665 172.742 108.103 172.978 108.44C173.213 108.777 173.55 109.021 173.979 109.181C174.417 109.333 174.922 109.417 175.511 109.417C176.159 109.417 176.697 109.358 177.118 109.24C177.539 109.122 177.85 108.946 178.052 108.718C178.254 108.491 178.355 108.23 178.355 107.918V107.834H175.46V106.562H179.904V110.647H178.927L178.759 109.687C178.498 109.94 178.195 110.15 177.842 110.31C177.488 110.47 177.093 110.588 176.664 110.664C176.234 110.74 175.788 110.774 175.317 110.774L175.334 110.765Z" fill="white"/>
<path d="M181.244 110.639V103.336H182.826V110.639H181.244Z" fill="white"/>
<path d="M184.223 110.639V103.336H191.452V104.684H185.805V106.251H190.829V107.598H185.805V109.292H191.536V110.639H184.223Z" fill="white"/>
<path d="M196.104 110.765C195.566 110.765 195.052 110.731 194.581 110.664C194.11 110.596 193.697 110.478 193.344 110.302C192.99 110.125 192.713 109.889 192.519 109.577C192.326 109.265 192.225 108.861 192.225 108.373V108.322C192.225 108.322 192.225 108.28 192.233 108.271H193.79C193.79 108.271 193.781 108.33 193.773 108.373C193.773 108.415 193.773 108.457 193.773 108.507C193.773 108.726 193.866 108.903 194.051 109.046C194.236 109.181 194.505 109.282 194.85 109.35C195.195 109.417 195.599 109.442 196.07 109.442C196.272 109.442 196.474 109.434 196.676 109.417C196.878 109.4 197.08 109.375 197.265 109.341C197.451 109.308 197.619 109.257 197.77 109.19C197.922 109.122 198.04 109.046 198.124 108.954C198.208 108.861 198.25 108.743 198.25 108.617C198.25 108.431 198.166 108.288 198.006 108.179C197.846 108.069 197.619 107.977 197.341 107.909C197.063 107.842 196.752 107.774 196.407 107.732C196.062 107.682 195.7 107.631 195.33 107.564C194.96 107.505 194.598 107.421 194.253 107.32C193.908 107.218 193.596 107.084 193.319 106.924C193.041 106.764 192.822 106.553 192.654 106.292C192.494 106.031 192.41 105.719 192.41 105.34C192.41 105.003 192.485 104.7 192.645 104.439C192.805 104.177 193.041 103.958 193.352 103.773C193.664 103.596 194.051 103.453 194.505 103.36C194.96 103.268 195.481 103.226 196.07 103.226C196.66 103.226 197.19 103.276 197.627 103.377C198.073 103.478 198.435 103.622 198.73 103.798C199.024 103.975 199.235 104.203 199.378 104.464C199.521 104.725 199.588 105.011 199.588 105.332V105.5H198.048V105.365C198.048 105.214 197.964 105.07 197.796 104.952C197.627 104.835 197.4 104.733 197.122 104.666C196.836 104.599 196.516 104.557 196.155 104.557C195.658 104.557 195.246 104.59 194.934 104.649C194.623 104.717 194.396 104.801 194.244 104.91C194.101 105.02 194.026 105.146 194.026 105.281C194.026 105.441 194.11 105.576 194.27 105.677C194.429 105.778 194.657 105.854 194.934 105.913C195.212 105.972 195.523 106.031 195.868 106.081C196.214 106.132 196.575 106.191 196.946 106.25C197.316 106.317 197.678 106.393 198.023 106.494C198.368 106.595 198.679 106.73 198.957 106.89C199.235 107.058 199.453 107.269 199.622 107.522C199.79 107.774 199.866 108.086 199.866 108.448C199.866 109.013 199.706 109.468 199.386 109.813C199.066 110.158 198.62 110.403 198.057 110.554C197.484 110.706 196.828 110.782 196.079 110.782L196.104 110.765Z" fill="white"/>
<path d="M196.07 71.1568C198.881 71.022 200.833 73.9535 199.571 76.4975C198.334 78.9825 194.883 79.2689 193.259 77.0029C191.559 74.6358 193.175 71.3 196.07 71.1568ZM193.966 77.1461C195.649 78.8309 198.51 78.1738 199.31 75.95C200.21 73.4397 197.854 70.9631 195.304 71.7465C192.981 72.4625 192.233 75.4193 193.966 77.1461Z" fill="white"/>
<path d="M196.97 73.583L197.424 75.3015L197.879 73.583H198.653V76.1101H198.173V74.1474L197.677 76.1101H197.18L196.675 74.139V76.1101H196.204L196.213 73.583H196.97Z" fill="white"/>
<path d="M195.884 73.583V74.0126H195.135V76.1101H194.621V74.0126H193.881V73.583H195.884Z" fill="white"/>
</svg>
