<svg width="299" height="124" viewBox="0 0 299 124" fill="none" xmlns="http://www.w3.org/2000/svg">
<path d="M84.2929 68.0494C80.8929 67.1555 78.1265 65.9696 76 64.4857L80.1434 55.1933C82.142 56.5069 84.4574 57.5712 87.0958 58.3739C89.7342 59.1827 92.3238 59.5841 94.8769 59.5841C99.721 59.5841 102.146 58.3739 102.146 55.9535C102.146 54.6825 101.452 53.7338 100.074 53.1196C98.6913 52.5054 96.4733 51.8547 93.4084 51.1796C90.051 50.4559 87.242 49.6836 84.9875 48.8565C82.733 48.0295 80.8015 46.7037 79.1868 44.8793C77.5721 43.0549 76.7617 40.5919 76.7617 37.4965C76.7617 34.7842 77.505 32.3334 78.9918 30.1441C80.4785 27.9609 82.7026 26.2277 85.6578 24.9567C88.613 23.6856 92.2385 23.0471 96.5343 23.0471C99.4651 23.0471 102.359 23.3755 105.211 24.0323C108.057 24.6891 110.567 25.656 112.736 26.927L108.843 36.2863C104.59 33.9936 100.464 32.8503 96.4672 32.8503C93.9568 32.8503 92.1288 33.2213 90.9833 33.9632C89.8378 34.7051 89.2589 35.6721 89.2589 36.8579C89.2589 38.0438 89.9414 38.9378 91.3002 39.5338C92.6589 40.1297 94.8525 40.744 97.8687 41.3825C101.269 42.1062 104.09 42.8785 106.32 43.7056C108.55 44.5327 110.488 45.8462 112.121 47.6524C113.76 49.4586 114.576 51.9094 114.576 55.0048C114.576 57.6806 113.833 60.095 112.346 62.2599C110.859 64.4249 108.623 66.152 105.65 67.4474C102.67 68.7427 99.0569 69.3873 94.8099 69.3873C91.1966 69.3873 87.6869 68.9434 84.2868 68.0494H84.2929Z" fill="white"/>
<path d="M183.716 33.6772V43.4805H203.422V53.2168H183.716V68.4932H171.091V23.9409H206.103V33.6772H183.716Z" fill="white"/>
<path d="M223 4H188.89V13.9066H223V4Z" fill="white"/>
<path d="M134.806 57.5589H140.168C147.443 57.5589 152.165 53.3566 152.165 46.29C152.165 39.2235 147.443 34.8935 140.168 34.8935H122.424V23.947H139.778C155.535 23.947 164.852 33.1785 164.852 46.1684C164.852 59.1583 155.535 68.5236 139.778 68.5236H122.424V57.571H134.806V57.5589Z" fill="white"/>
<path d="M169.317 96.8991V93.5301H176.788C176.733 92.7091 176.617 91.9732 176.446 91.3347C176.276 90.6961 176.026 90.1974 175.709 89.8326C175.502 89.5954 175.234 89.3947 174.911 89.2183C174.588 89.0481 174.204 88.9082 173.759 88.7987C173.314 88.6893 172.803 88.6102 172.212 88.5616C171.627 88.5129 170.962 88.4947 170.219 88.5007L170.195 85.1438C171.2 85.1377 172.114 85.1742 172.931 85.2594C173.747 85.3445 174.484 85.4904 175.142 85.6911C175.8 85.8979 176.385 86.1533 176.897 86.4696C177.409 86.7858 177.854 87.1689 178.238 87.6129C178.853 88.3183 179.31 89.1575 179.597 90.1245C179.889 91.0914 180.072 92.2286 180.157 93.5361H181.821V96.9052L169.311 96.8931L169.317 96.8991Z" fill="white"/>
<path d="M184.252 93.5422V85.5269H187.616V93.4875H190.041V96.8688L181.589 96.9113V93.5422H184.258H184.252Z" fill="white"/>
<path d="M205.932 117.181H203.964V107.578H205.932V117.181Z" fill="white"/>
<path d="M145.813 85.5819C145.125 85.9164 144.552 86.3603 144.089 86.9137C143.626 87.4672 143.279 88.0996 143.041 88.8111C142.803 89.5227 142.688 90.2524 142.688 91.0065C142.688 91.4505 142.724 91.8822 142.797 92.3019C142.87 92.7215 142.992 93.135 143.163 93.5303H141.664C141.664 93.5303 141.609 93.5303 141.585 93.5425C141.128 93.5364 140.762 93.4695 140.482 93.36C140.202 93.2445 139.982 93.0985 139.83 92.91C139.678 92.7276 139.568 92.5086 139.507 92.2593C139.446 92.01 139.416 91.7485 139.416 91.4748C139.416 90.9883 139.489 90.4957 139.635 89.997C139.781 89.5044 139.946 89.0726 140.141 88.7017L137.155 87.1509C137.009 87.4307 136.869 87.7408 136.734 88.0814C136.6 88.4219 136.479 88.7747 136.381 89.1517C136.284 89.5227 136.198 89.8997 136.137 90.2828C136.076 90.666 136.04 91.0491 136.04 91.4322C136.04 92.1133 136.143 92.7823 136.338 93.4391C136.54 94.0959 136.862 94.6797 137.313 95.1905C137.764 95.7014 138.349 96.1149 139.074 96.425C139.799 96.7352 140.689 96.8933 141.743 96.8933H153.741C153.759 96.2304 153.771 95.5797 153.771 94.9351V85.065H148.184C147.282 85.065 146.49 85.2353 145.807 85.5698L145.813 85.5819ZM150.383 93.5364H148.19C147.684 93.5364 147.27 93.4026 146.953 93.1411C146.636 92.8796 146.404 92.5512 146.258 92.162C146.124 91.7789 146.051 91.3957 146.051 91.0065C146.051 90.6964 146.094 90.3923 146.179 90.0882C146.264 89.7842 146.392 89.5105 146.569 89.2673C146.74 89.024 146.959 88.8233 147.227 88.6774C147.495 88.5253 147.812 88.4523 148.19 88.4523H150.383V93.5364Z" fill="white"/>
<path d="M82.2924 80.4916H79.5261V83.2526H82.2924V80.4916Z" fill="white"/>
<path d="M86.2716 80.4916H83.5052V83.2526H86.2716V80.4916Z" fill="white"/>
<path d="M124.776 80.4916H122.01V83.2526H124.776V80.4916Z" fill="white"/>
<path d="M128.551 80.4916H125.785V83.2526H128.551V80.4916Z" fill="white"/>
<path d="M149.932 80.4916H147.166V83.2526H149.932V80.4916Z" fill="white"/>
<path d="M153.711 80.4916H150.945V83.2526H153.711V80.4916Z" fill="white"/>
<path d="M93.3328 98.9669H90.5664V101.728H93.3328V98.9669Z" fill="white"/>
<path d="M97.3125 98.9669H94.5462V101.728H97.3125V98.9669Z" fill="white"/>
<path d="M118.9 80.4916H116.134V83.2526H118.9V80.4916Z" fill="white"/>
<path d="M187.334 80.4916H184.568V83.2526H187.334V80.4916Z" fill="white"/>
<path d="M171.723 115.229C171.504 115.229 171.309 115.186 171.126 115.101C170.943 115.016 170.785 114.906 170.657 114.766C170.529 114.627 170.425 114.475 170.352 114.292C170.279 114.116 170.243 113.933 170.243 113.751C170.243 113.568 170.279 113.392 170.352 113.21C170.425 113.027 170.529 112.869 170.663 112.729C170.797 112.589 170.949 112.474 171.132 112.389C171.315 112.303 171.51 112.261 171.729 112.261H174.709V110.297H171.729C171.205 110.297 170.73 110.394 170.31 110.589C169.883 110.783 169.523 111.045 169.219 111.367C168.914 111.689 168.683 112.06 168.524 112.474C168.366 112.887 168.28 113.313 168.28 113.751C168.28 113.879 168.293 114.012 168.323 114.146C168.348 114.286 168.384 114.42 168.433 114.548C168.482 114.675 168.536 114.803 168.597 114.918C168.658 115.034 168.725 115.137 168.792 115.229H163.631V107.572H161.669V117.187H174.934V115.223H171.729L171.723 115.229Z" fill="white"/>
<path d="M158.337 110.552V115.229C157.673 115.229 155.138 115.235 154.468 115.235C154.206 115.235 153.986 115.192 153.822 115.131C153.657 115.07 153.523 114.979 153.432 114.876C153.334 114.766 153.273 114.639 153.237 114.493C153.2 114.347 153.188 114.195 153.188 114.031C153.188 113.745 153.231 113.459 153.31 113.173C153.389 112.887 153.493 112.632 153.608 112.419L151.872 111.513C151.787 111.677 151.707 111.859 151.628 112.054C151.549 112.255 151.482 112.462 151.421 112.674C151.36 112.893 151.311 113.112 151.281 113.337C151.244 113.562 151.232 113.787 151.232 114.006C151.232 114.395 151.287 114.785 151.397 115.162C151.506 115.539 151.695 115.885 151.951 116.183C152.213 116.487 152.554 116.725 152.975 116.913C153.395 117.102 153.925 117.193 154.547 117.193H160.305V110.552H158.337Z" fill="white"/>
<path d="M155.99 107.615H154.43V109.171H155.99V107.615Z" fill="white"/>
<path d="M158.117 107.615H156.557V109.172H158.117V107.615Z" fill="white"/>
<path d="M194.365 107.615H192.805V109.171H194.365V107.615Z" fill="white"/>
<path d="M196.491 107.615H194.931V109.172H196.491V107.615Z" fill="white"/>
<path d="M109.267 110.552H107.305V115.229H103.924V110.552H101.961V115.229H99.4267C99.3962 114.505 99.2865 113.885 99.1037 113.368C98.9209 112.851 98.6833 112.413 98.3969 112.06C98.1105 111.708 97.7876 111.422 97.422 111.215C97.0564 111.002 96.6786 110.838 96.2765 110.723C95.8804 110.601 95.4783 110.522 95.0761 110.479C94.674 110.437 94.2901 110.406 93.9245 110.388C93.8453 110.388 93.76 110.376 93.6686 110.37C93.5772 110.364 93.4858 110.358 93.3944 110.352C93.303 110.352 93.2116 110.339 93.1263 110.333C93.041 110.327 92.9618 110.321 92.8947 110.315L92.7302 112.273C92.913 112.291 93.0714 112.298 93.1933 112.304C93.3152 112.304 93.4309 112.304 93.5406 112.304C93.7843 112.304 94.0463 112.316 94.3266 112.328C94.6069 112.34 94.8872 112.371 95.1614 112.425C95.4417 112.48 95.7098 112.565 95.9657 112.681C96.2277 112.796 96.4593 112.967 96.6664 113.179C96.8736 113.398 97.0503 113.672 97.1905 114C97.3306 114.335 97.422 114.742 97.4586 115.223H90.4148V110.546H88.4527V115.223H83.3222L83.2979 111.848V110.291H80.0319C79.581 110.291 79.1605 110.376 78.7645 110.546C78.3684 110.716 78.0211 110.954 77.7286 111.245C77.4361 111.543 77.2046 111.89 77.034 112.285C76.8634 112.681 76.7781 113.106 76.7781 113.55V115.989C76.7781 116.226 76.8512 116.433 76.9974 116.615C77.1437 116.798 77.3326 116.907 77.5519 116.956H77.5336C77.7164 116.999 77.9297 117.047 78.1795 117.096C78.4293 117.138 78.6914 117.181 78.9595 117.217C79.2276 117.254 79.4957 117.278 79.7638 117.303C80.0258 117.327 80.2634 117.333 80.4645 117.333V115.369C80.367 115.369 80.2451 115.369 80.0867 115.35C79.9283 115.338 79.7699 115.326 79.6053 115.314C79.4408 115.296 79.2763 115.277 79.1179 115.259C78.9595 115.241 78.8376 115.217 78.7401 115.204V113.556C78.734 113.38 78.7645 113.216 78.8376 113.058C78.9046 112.9 79.0021 112.76 79.1179 112.644C79.2398 112.523 79.3738 112.431 79.5322 112.358C79.6907 112.285 79.8552 112.249 80.0258 112.249C80.2451 112.249 80.4645 112.249 80.6839 112.249C80.8971 112.249 81.1165 112.249 81.3358 112.249L81.348 115.247V117.181H109.261V110.54L109.267 110.552Z" fill="white"/>
<path d="M112.886 107.572H110.918V117.175H112.886V107.572Z" fill="white"/>
<path d="M140.806 113.708C140.782 113.994 140.733 114.243 140.66 114.462C140.581 114.681 140.483 114.87 140.362 115.022C140.362 114.937 140.349 114.87 140.343 114.809C140.343 114.754 140.331 114.7 140.325 114.651C140.319 114.602 140.307 114.548 140.301 114.499C140.295 114.444 140.282 114.377 140.27 114.298C140.179 113.733 140.045 113.149 139.874 112.553C139.703 111.957 139.478 111.367 139.21 110.783C138.942 110.199 138.619 109.64 138.253 109.093C137.888 108.551 137.467 108.04 137.004 107.572L135.621 108.959C135.999 109.336 136.334 109.749 136.639 110.205C136.943 110.662 137.205 111.136 137.431 111.628C137.656 112.121 137.845 112.614 137.991 113.118C138.138 113.623 138.253 114.104 138.333 114.578C138.363 114.815 138.387 115.046 138.406 115.277C138.424 115.508 138.436 115.721 138.442 115.922C138.186 115.983 137.912 116.037 137.614 116.086C137.315 116.141 136.98 116.183 136.602 116.226L136.937 118.178C137.522 118.081 138.064 117.99 138.57 117.898C139.076 117.807 139.539 117.698 139.953 117.576C140.374 117.448 140.745 117.296 141.074 117.108C141.404 116.925 141.69 116.682 141.928 116.396C142.165 116.104 142.354 115.752 142.494 115.338C142.634 114.925 142.726 114.42 142.768 113.83V107.572H140.806V113.708Z" fill="white"/>
<path d="M146.277 107.572H144.309V117.175H146.277V107.572Z" fill="white"/>
<path d="M132.775 115.229H131.343V110.552H129.381V115.229H127.962V110.552H125.987V115.229H123.111V110.552H121.149V115.229H118.578C118.578 115.065 118.59 114.931 118.59 114.821C118.59 114.712 118.59 114.578 118.59 114.414C118.59 113.921 118.578 113.435 118.56 112.942C118.535 112.456 118.523 111.975 118.517 111.513L118.535 111.361H116.561C116.561 111.841 116.573 112.334 116.592 112.845C116.61 113.35 116.622 113.854 116.622 114.353C116.622 114.724 116.61 115.095 116.592 115.472C116.573 115.849 116.531 116.208 116.464 116.554C116.397 116.901 116.299 117.223 116.171 117.528C116.043 117.832 115.873 118.093 115.659 118.312C115.446 118.537 115.178 118.707 114.867 118.841C114.55 118.969 114.173 119.036 113.728 119.036V121C114.441 121 115.062 120.903 115.586 120.702C116.11 120.501 116.555 120.234 116.921 119.887C117.286 119.547 117.585 119.145 117.81 118.683C118.036 118.221 118.212 117.728 118.334 117.199H134.737V110.558H132.775V115.235V115.229Z" fill="white"/>
<path d="M80.0995 107.615H78.5396V109.171H80.0995V107.615Z" fill="white"/>
<path d="M82.2258 107.615H80.6659V109.171H82.2258V107.615Z" fill="white"/>
<path d="M107.092 107.615H105.532V109.171H107.092V107.615Z" fill="white"/>
<path d="M109.218 107.615H107.658V109.172H109.218V107.615Z" fill="white"/>
<path d="M121.936 107.615H120.376V109.171H121.936V107.615Z" fill="white"/>
<path d="M124.063 107.615H122.503V109.172H124.063V107.615Z" fill="white"/>
<path d="M102.553 118.476H100.993V120.033H102.553V118.476Z" fill="white"/>
<path d="M104.679 118.476H103.119V120.033H104.679V118.476Z" fill="white"/>
<path d="M95.9293 118.476H94.3694V120.033H95.9293V118.476Z" fill="white"/>
<path d="M89.0387 118.476H87.4788V120.033H89.0387V118.476Z" fill="white"/>
<path d="M91.1705 118.476H89.6107V120.033H91.1705V118.476Z" fill="white"/>
<path d="M205.945 86.7799C205.945 86.7799 205.945 86.7799 205.945 86.7738V85.0528H198.938C198.188 85.0771 197.506 85.2231 196.902 85.5089C196.263 85.813 195.751 86.2022 195.373 86.6826V85.0406H192.01V93.5059H189.749V96.875H204.269C204.269 96.875 204.281 96.875 204.287 96.875H205.945V95.081C205.945 95.081 205.945 95.0749 205.945 95.0688V86.7799ZM195.373 91.2254C195.397 90.7571 195.519 90.3436 195.726 89.997C195.934 89.6503 196.208 89.3584 196.537 89.1212C196.866 88.8841 197.25 88.7077 197.676 88.5922C198.103 88.4766 198.542 88.4158 198.999 88.4158H202.575V93.512H195.373V91.2254Z" fill="white"/>
<path d="M161.22 85.0894C161.22 85.0894 161.214 85.0894 161.208 85.0894H161.129C160.392 85.1015 159.691 85.2475 159.039 85.5333C158.356 85.8252 157.765 86.2266 157.26 86.7374C156.754 87.2483 156.358 87.8382 156.071 88.5193C155.779 89.2004 155.639 89.9241 155.639 90.6903C155.584 91.8701 155.669 92.8492 155.895 93.6398C156.12 94.4304 156.437 95.0629 156.845 95.5433C157.254 96.0237 157.723 96.3764 158.259 96.6014C158.795 96.8265 159.49 96.9238 160.063 96.9177C161.97 96.8933 163.085 96.9177 163.091 96.8994C162.92 97.9698 162.463 98.7603 161.726 99.2773C160.989 99.7942 159.941 100.05 158.588 100.05V103.419C159.813 103.419 160.916 103.267 161.897 102.963C162.878 102.659 163.718 102.136 164.413 101.394C165.114 100.652 165.656 99.6543 166.052 98.4015C166.448 97.1488 166.747 95.823 166.808 93.9256C166.814 93.7797 166.826 93.4026 166.826 93.1168V85.0955H161.214L161.22 85.0894ZM159.039 92.2837C158.978 91.864 158.966 91.3289 159.002 90.6903C159.002 90.3923 159.063 90.1065 159.179 89.8328C159.295 89.5592 159.459 89.322 159.66 89.1213C159.868 88.9206 160.099 88.7564 160.367 88.6348C160.599 88.5314 160.842 88.4767 161.092 88.4645H163.499V93.877H161.092C160.794 93.8891 160.459 93.8405 160.41 93.8344C159.965 93.7918 159.581 93.5486 159.398 93.2992C159.216 93.0499 159.094 92.7154 159.039 92.2958V92.2837Z" fill="white"/>
<path d="M128.444 94.1079V85.4784H125.08V93.4937H119.146V85.5331H115.782V93.5484H111.334V86.8224C111.334 86.8224 111.334 86.8163 111.334 86.8102V85.0953H105.527C104.79 85.0953 104.101 85.2412 103.462 85.5453C102.785 85.8737 102.194 86.2994 101.694 86.8285C101.189 87.3575 100.799 87.9535 100.512 88.6225C100.226 89.2853 100.086 89.9421 100.086 90.5868V93.5484H95.8693V85.5331H92.5059V93.5484H87.9847L87.942 87.096C87.942 87.096 87.942 87.09 87.942 87.0839V85.0953H82.3484C81.5746 85.0953 80.8495 85.2412 80.1731 85.5392C79.4907 85.8311 78.8996 86.2325 78.3939 86.7433C77.8882 87.2481 77.4921 87.8441 77.2057 88.5252C76.9132 89.2063 76.767 89.93 76.767 90.6962V94.8802C76.767 95.2877 76.895 95.6465 77.1509 95.9506C77.4068 96.2607 77.7236 96.4553 78.1014 96.5344L78.0771 96.5222C78.3878 96.6134 78.7534 96.6986 79.186 96.7715C79.6186 96.8506 80.0635 96.9175 80.5265 96.9783C80.9896 97.0391 81.4466 97.0817 81.9036 97.1182C82.3545 97.1547 82.7567 97.1729 83.104 97.1729V93.8038C82.9395 93.8038 82.7262 93.7977 82.4581 93.7795C82.19 93.7613 81.9158 93.7369 81.6294 93.7126C81.343 93.6883 81.0688 93.6518 80.8007 93.6153C80.5326 93.5788 80.3194 93.5484 80.1549 93.518L80.1427 90.6902C80.1427 90.3922 80.2036 90.1063 80.3194 89.8327C80.4351 89.559 80.5997 89.3218 80.8007 89.1211C81.0079 88.9205 81.2394 88.7563 81.5076 88.6346C81.7757 88.513 82.0559 88.4522 82.3606 88.4522C82.7445 88.4522 83.1162 88.4522 83.4818 88.4583C83.8474 88.4583 84.2251 88.4644 84.6029 88.4644L84.6273 94.114V96.8749H128.462V95.0688C128.462 95.0688 128.462 95.0627 128.462 95.0566V94.1079H128.444ZM107.964 93.5423H103.462V90.5685C103.462 90.2949 103.522 90.0394 103.638 89.7901C103.754 89.5408 103.912 89.3158 104.114 89.1151C104.315 88.9144 104.54 88.7563 104.802 88.6346C105.058 88.513 105.277 88.44 105.539 88.44C105.545 88.44 105.6 88.44 105.637 88.44H107.964V93.5423Z" fill="white"/>
<path d="M200.266 107.572V115.229H197.731V110.303H194.489C193.965 110.303 193.502 110.4 193.106 110.595C192.704 110.79 192.369 111.051 192.101 111.373C191.826 111.696 191.625 112.067 191.485 112.48C191.345 112.894 191.278 113.319 191.278 113.757C191.278 114.019 191.302 114.268 191.345 114.511C191.388 114.755 191.461 114.998 191.558 115.229H189.219V110.321H185.087C184.667 110.333 184.283 110.406 183.942 110.565C183.57 110.741 183.272 110.972 183.046 111.252V107.572H181.084V115.229H178.354V107.572H176.392V117.193H202.228V107.572H200.266ZM183.052 115.229V113.897C183.07 113.623 183.137 113.386 183.259 113.18C183.381 112.979 183.54 112.809 183.735 112.669C183.93 112.529 184.149 112.432 184.399 112.359C184.649 112.292 184.868 112.286 185.142 112.279H187.257V115.229H183.052ZM195.775 115.229H194.495C194.197 115.229 193.959 115.15 193.77 114.998C193.587 114.846 193.447 114.657 193.368 114.426C193.325 114.317 193.295 114.201 193.277 114.092C193.258 113.982 193.246 113.867 193.246 113.757C193.246 113.575 193.271 113.398 193.319 113.222C193.368 113.046 193.447 112.888 193.545 112.742C193.648 112.602 193.776 112.486 193.929 112.395C194.087 112.31 194.27 112.267 194.489 112.267H195.769V115.229H195.775Z" fill="white"/>
</svg>
