<svg width="299" height="124" viewBox="0 0 299 124" fill="none" xmlns="http://www.w3.org/2000/svg">
<path d="M217.644 47.7536C217.225 46.7589 216.557 45.9394 215.695 45.3664C214.834 44.7935 213.803 44.4593 212.716 44.4514H197.016C196.693 44.4514 196.516 44.3877 196.379 44.3002C196.251 44.2127 196.13 43.9978 196.073 43.8625L192.024 33.3591L189.375 26.492L188.577 24.4152C188.11 23.3012 187.265 22.3941 186.21 21.7893C185.156 21.1846 183.891 20.8902 182.579 20.9936C181.275 21.097 180.083 21.5904 179.157 22.3543C178.231 23.1182 177.579 24.1447 177.329 25.3144L177.176 26.1101L175.695 33.7012C175.695 33.7012 173.835 44.0376 173.795 44.2206C173.73 44.4911 173.658 44.5787 173.537 44.6662C173.416 44.7537 173.199 44.7935 173.046 44.7935H170.639C168.795 44.7935 166.661 44.7935 164.688 44.7935C164.519 44.7935 164.399 44.7458 164.294 44.6423C164.189 44.5389 164.109 44.3877 164.101 44.2445L163.69 39.1201L163.239 32.8339C163.151 31.5687 163.014 30.4547 162.724 29.5078C162.434 28.5609 162.015 27.6458 161.347 26.8024C161.017 26.3886 160.566 25.9271 160.139 25.5849C159.713 25.2428 159.262 24.9643 158.771 24.7176C158.279 24.4709 157.764 24.272 157.257 24.1287C156.742 23.9855 156.395 23.9059 155.711 23.8343L139.753 22.0758C139.052 22.0042 138.706 22.0519 138.223 22.1554C137.998 22.2031 137.764 22.2668 137.547 22.3543C137.337 22.4418 137.176 22.5134 137.031 22.585C136.911 22.6487 136.709 22.6328 136.589 22.5612C136.468 22.4896 136.371 22.4339 136.146 22.3145C135.92 22.1951 135.687 22.0758 135.453 21.9723C134.986 21.7575 134.511 21.5824 134.028 21.4313C133.078 21.1368 132.088 20.9459 131.089 20.8345C130.832 20.8026 130.566 20.7867 130.308 20.7708C130.051 20.7549 129.785 20.7469 129.527 20.739C128.899 20.739 128.263 20.7629 127.635 20.8504C127.007 20.93 126.371 21.0652 125.743 21.2721C125.292 21.4153 124.841 21.5983 124.406 21.8132C124.189 21.9246 123.972 22.044 123.762 22.1713C123.553 22.2986 123.456 22.3622 123.352 22.4418C123.239 22.5214 123.11 22.5294 123.022 22.4577C122.965 22.41 122.949 22.3941 122.909 22.3543C121.782 21.3756 120.518 20.6276 119.149 20.0945C117.78 19.5613 115.88 19.1873 114.366 19.0202C114.068 18.9884 113.762 18.9645 113.464 18.9407C113.166 18.9247 112.869 18.9088 112.571 18.9088C111.355 18.8929 109.688 18.9566 108.505 19.2351C107.909 19.3783 107.329 19.5613 106.765 19.8C106.202 20.0308 105.542 20.4127 105.542 20.4127C105.316 20.548 105.123 20.4764 105.091 20.182C105.091 20.182 105.034 19.4579 104.833 18.9168C104.632 18.3757 104.326 17.8744 103.939 17.4447C103.166 16.5853 102.16 15.9965 100.84 15.8374L94.0762 15.0337C93.3999 14.9541 92.7236 15.0178 92.0875 15.2008C91.4514 15.3838 90.8476 15.7021 90.3323 16.1318C89.817 16.5615 89.4063 17.0866 89.1165 17.6675C88.8266 18.2484 88.6575 18.8929 88.6414 19.5534V19.8239C88.6414 19.8239 88.6334 19.8876 88.6253 19.9592C88.6172 20.0785 88.5609 20.1342 88.4804 20.174C88.4079 20.2218 88.3435 20.2536 88.2066 20.3491C88.0778 20.4366 87.949 20.54 87.8201 20.6435C87.3129 21.0732 86.9103 21.5904 86.6285 22.1633C86.3467 22.7362 86.1776 23.3728 86.1535 24.0253L86.0568 26.4363L85.9602 28.8474C85.928 29.7067 86.1293 30.5263 86.5158 31.2345C86.709 31.5926 86.9425 31.9188 87.2243 32.2212C87.3612 32.3724 87.5142 32.5077 87.6672 32.6429C87.8282 32.7702 87.8926 32.8339 87.9973 32.8896C88.1583 32.9851 88.1583 33.1283 88.1583 33.2875C88.1583 33.4386 88.1503 33.566 88.1503 33.566C88.1503 33.566 87.8926 37.2581 87.9007 37.9981C87.9087 38.7381 87.9329 39.4781 88.0295 40.2102C88.1261 40.9423 88.2872 41.6664 88.5207 42.3825C88.569 42.5337 88.6253 42.6849 88.6817 42.8361C88.738 42.9872 88.8024 43.1384 88.8669 43.2817C88.9313 43.4328 88.9796 43.5363 89.0279 43.6238C89.0681 43.7113 89.1084 43.783 89.1487 43.8625C89.1889 43.9421 89.205 44.0694 89.1487 44.1649C89.0923 44.2604 88.9715 44.3241 88.8507 44.3877C88.8507 44.3877 88.5287 44.5548 88.1261 44.8254C87.7316 45.0879 87.2566 45.454 86.9586 45.828C86.6607 46.2099 86.4272 46.6316 86.2501 47.0852C86.081 47.5387 85.9764 48.0321 85.9522 48.5414L82.0069 103.661C81.9667 104.417 82.1035 105.165 82.3853 105.849C82.6671 106.533 83.11 107.154 83.6736 107.663C84.1647 108.101 84.7283 108.435 85.3322 108.666C85.9039 108.881 86.5158 108.992 87.1438 109C87.2163 109 87.2888 109 87.3532 108.984L111.862 105.921C112.885 105.785 113.601 105.372 114.165 104.862C114.447 104.608 114.688 104.321 114.914 104.027C115.139 103.74 115.228 103.613 115.332 103.454C115.445 103.295 115.485 103.247 115.598 103.247C115.687 103.247 115.791 103.327 115.928 103.406C116.065 103.486 116.202 103.557 116.347 103.621C117.039 103.963 117.788 104.218 118.569 104.385C119.35 104.552 120.163 104.632 120.985 104.624H121.017C121.621 104.624 122.208 104.584 122.796 104.536C123.384 104.488 123.972 104.417 124.576 104.345C125.179 104.265 157.482 100.239 157.482 100.239C158.489 100.112 159.479 99.9925 160.429 99.7935C160.429 99.7935 164.149 99.3161 165.381 97.7803C165.502 97.6212 165.727 97.5974 165.896 97.7088C166.524 98.1146 167.128 98.3692 167.627 98.5283C168.312 98.7511 169.028 98.7591 169.745 98.7034C169.922 98.6875 170.099 98.6716 170.268 98.6557C171.444 98.5284 172.555 98.0907 173.416 97.287C173.416 97.287 173.432 97.2711 173.441 97.2632C175.582 95.258 187.418 82.8606 187.603 82.6856C187.845 82.4548 187.974 82.4628 188.094 82.4628C188.263 82.4628 188.36 82.5265 188.521 82.6219C188.529 82.6219 188.602 82.6776 188.73 82.7731C189.962 83.6882 196.371 88.5262 200.397 91.5658L201.983 92.7673C203.062 93.579 204.375 94.0643 205.735 94.0962C205.888 94.0962 206.017 94.1041 206.162 94.1041C206.251 94.1041 206.339 94.1041 206.436 94.1041C207.571 94.0882 208.723 93.8257 209.689 93.1334C210.655 92.4411 211.275 91.6533 211.613 90.5791C211.951 89.5129 212.048 88.0885 211.653 86.9745L211.025 85.1444L204.632 66.4052C204.584 66.2699 204.552 66.0869 204.592 65.9278C204.624 65.7686 204.729 65.6254 204.834 65.522L216.436 53.6021C217.193 52.8382 217.692 51.8834 217.885 50.8728C218.086 49.8623 218.038 48.7482 217.619 47.7536H217.644ZM124.873 37.3058C125.783 35.5871 127.506 34.9425 128.44 34.5526C129.084 34.2821 129.906 34.107 130.936 33.741C131.967 33.375 132.788 32.5395 132.877 31.3539C132.973 30.1682 132.563 29.4601 131.822 29.2611C131.242 29.102 130.695 29.3805 130.534 29.6271C130.284 29.9932 130.236 30.2319 130.002 30.7969C129.712 31.505 129.189 31.5448 128.497 31.5607C128.175 31.5607 127.836 31.5528 127.055 31.4573C125.799 31.3061 125.461 30.8923 125.268 30.5979C125.075 30.3035 124.753 28.1153 126.162 26.4045C127.563 24.6937 130.139 24.7653 130.139 24.7653C132.619 24.7892 134.076 25.2427 135.445 26.1419C136.814 27.0411 137.563 28.6643 137.708 30.2558C137.853 31.8472 137.853 34.0354 137.998 38.0936C138.142 42.1597 138.295 44.0137 138.295 44.0137C138.4 45.7564 136.967 45.7404 135.719 45.7325C135.606 45.7325 135.421 45.7165 135.308 45.7086C133.899 45.5335 133.746 44.8174 132.973 44.8174C132.2 44.8174 131.274 45.8598 129.616 45.8836C128.231 45.8996 126.693 45.6927 125.316 43.9182C123.939 42.1438 123.964 39.0246 124.873 37.3058ZM91.0166 25.0756C91.073 24.7176 91.1374 23.9855 92.0472 23.89C92.2727 23.8662 92.4901 23.8343 92.6591 23.7945C92.8041 23.7627 93.3113 23.7229 93.3516 22.601C93.3838 21.5427 93.4885 20.4207 93.4885 20.4207C93.4885 20.4207 93.4885 20.4048 93.4885 20.3729C93.5287 20.1661 93.7703 19.3385 94.9619 19.434C96.3226 19.5374 99.0602 19.8717 99.0602 19.8717H99.0923L99.1326 19.8796C99.4064 19.9114 100.356 20.1661 100.365 21.4472C100.365 22.9352 100.389 23.3251 100.389 23.3251C100.389 23.3251 100.389 23.4206 100.397 23.516C100.397 23.5956 100.421 23.707 100.445 23.8264C100.534 24.1685 100.751 24.5823 101.298 24.6778C102.265 24.8449 102.86 24.9483 102.86 24.9483C102.86 24.9483 104.108 25.0916 104.149 26.2851C104.189 27.5662 104.149 28.2585 104.092 28.5529C104.044 28.8473 103.939 29.6829 102.691 29.6908H101.637H101.596C101.596 29.6908 101.524 29.6908 101.419 29.6908C101.089 29.7226 100.405 29.8818 100.292 30.7173C100.195 31.4493 100.203 32.3883 100.203 32.3883C100.203 32.3883 100.099 36.8284 100.203 37.8151C100.212 37.9026 100.268 39.2474 101.637 39.8123C102.168 40.0272 102.45 40.1067 103.207 40.2659C103.915 40.4171 104.261 40.9343 104.286 41.7221C104.302 42.3348 104.245 43.5283 104.157 44.0376C104.092 44.4116 103.867 44.9925 102.651 45.1357C101.435 45.2789 99.3258 45.1357 97.5706 44.6185C95.8154 44.0933 94.3339 43.0748 93.6978 41.6266C93.1664 40.4171 93.0054 39.4543 92.9893 38.4517L93.1261 30.2637C93.1261 30.2637 93.1583 29.3407 92.3773 29.1099C92.1519 29.0383 92.0633 29.0383 91.7654 28.9349C91.2582 28.7598 90.8878 28.4495 90.8878 27.3673C90.8878 26.7785 90.9442 25.6565 91.0327 25.0518L91.0166 25.0756ZM111.774 91.7011L111.757 97.9554C111.757 99.6742 110.509 99.7935 110.509 99.7935C110.509 99.7856 92.6752 101.934 90.7187 102.141C89.2292 102.3 89.1406 101.091 89.1326 100.828C89.1326 100.796 89.1326 100.78 89.1326 100.78C89.1326 100.78 89.1326 100.78 89.1326 100.756C89.1326 100.756 89.1326 100.74 89.1326 100.732C89.1326 100.732 89.1326 100.732 89.1326 100.725C89.1326 100.677 89.1326 100.589 89.1406 100.478C89.3339 96.2844 91.0408 50.5545 91.0488 49.8861C91.0488 49.1938 91.3065 48.1992 92.7397 48.1992L102.595 48.2867C103.98 48.2867 103.915 49.4644 103.939 49.6235C103.964 49.7906 102.756 85.2876 102.716 85.2876C102.716 86.8472 103.754 86.8551 104.141 86.8154C106.524 86.6005 110.171 86.2265 110.171 86.2265C111.532 86.1072 111.757 87.2689 111.774 87.8737C111.774 87.9851 111.79 88.2158 111.782 88.2795V88.4625L111.757 91.709L111.774 91.7011ZM114.881 45.7166C110.92 45.7166 108.907 44.2445 107.933 43.035C106.741 41.5629 106.661 40.067 106.621 39.3269C106.532 37.3536 106.588 30.8764 106.693 28.8394C106.717 28.3938 106.741 25.7998 108.819 24.3436C110.381 23.2455 112.184 23.1023 112.981 23.1023C113.247 23.1023 113.328 23.1023 113.328 23.1023C113.328 23.1023 113.424 23.1023 113.481 23.1023C113.98 23.1023 116.524 23.1739 118.319 24.0492C120.316 25.0279 122.152 26.7307 122.2 29.8102C122.249 32.8896 122.257 33.6614 122.257 34.0195C122.257 34.9426 122.136 35.8337 120.735 35.8178C120.735 35.8178 118.964 35.7462 117.844 35.6985C116.774 35.6507 114.672 35.5711 114.503 35.5632H114.495C114.495 35.5632 114.463 35.5632 114.414 35.5632C114.133 35.5632 113.183 35.6746 113.11 36.9159C113.022 38.4119 113.062 39.7487 113.65 40.3296C114.221 40.8945 115.236 40.7831 115.63 40.4807C115.985 40.2102 116.146 39.7964 116.403 38.9132C116.653 38.0618 117.369 38.1175 118.094 38.1334C118.762 38.1493 120.824 38.2607 120.952 38.2687C120.952 38.2687 121.154 38.2686 121.387 38.3482C121.717 38.4516 122.12 38.6983 122.192 39.2712C122.313 40.242 122.176 41.0218 121.878 41.9449C121.58 42.8759 120.815 43.6636 120.542 43.9023C120.542 43.9023 120.51 43.9341 120.485 43.9501C120.469 43.966 120.437 43.9978 120.397 44.0296C119.954 44.4116 118.231 45.7006 114.865 45.7006L114.881 45.7166ZM137.241 96.6107C135.614 96.8096 131.105 97.3427 131.105 97.3427C131.105 97.3427 130.139 97.4541 129.672 96.7539C129.559 96.5868 129.535 96.4834 129.39 96.2685C129.245 96.0457 128.811 95.8468 128.392 96.2128C128.094 96.4754 127.136 97.3427 127.136 97.3427C127.136 97.3427 125.767 98.9023 123.199 99.2286C120.63 99.5548 118.432 98.9023 117.345 97.4541C116.258 95.998 115.936 94.1678 115.936 93.0299V84.9216C115.936 84.9216 115.96 82.3673 116.838 80.9748C117.716 79.5823 118.642 79.1367 119.415 78.6593C120.187 78.1818 127.683 73.9486 127.683 73.9486C128.835 73.3439 128.787 71.6649 128.787 70.9886C128.787 68.6014 128.787 66.7872 128.787 66.7872C128.787 66.7872 128.827 65.2912 128.529 64.6069C128.279 64.026 127.844 63.5168 126.951 63.5168C126.186 63.5168 125.711 63.9385 125.461 64.4398C125.204 64.957 125.22 66.0312 125.22 66.0312L125.179 70.3679C125.179 70.3679 125.34 71.84 123.69 71.9593C121.444 72.1185 117.756 72.3413 117.756 72.3413C117.756 72.3413 115.952 72.5561 115.936 70.5827C115.936 69.1425 116.025 67.9409 116.025 67.9409C116.025 67.9409 116.379 64.3364 117.788 62.4823C119.173 60.6681 121.146 59.4666 123.287 59.021C125.437 58.5754 129.382 58.2014 132.853 59.4268C136.315 60.6522 137.692 63.4929 137.837 66.4928C137.981 69.4926 138.738 94.9078 138.738 94.9078C138.738 94.9078 138.867 96.4276 137.241 96.6265V96.6107ZM140.461 28.0278C140.461 27.5344 140.357 26.2374 141.645 26.0623C142.152 25.9907 143.102 26.0305 143.891 26.2613C144.447 26.4284 144.737 26.6352 145.027 26.7944C145.308 26.9456 145.477 26.9933 145.743 26.9615C146.403 26.8899 147.015 26.3408 148.159 26.4363C148.972 26.5079 149.761 26.5955 150.703 27.4469C151.436 28.1073 151.935 27.9641 152.257 27.8447C152.579 27.7254 153.432 27.1525 154.391 27.0968C155.413 27.0411 156.444 27.3275 157.289 27.8447C158.207 28.4017 159.23 29.9534 159.35 31.887C159.471 33.741 159.68 36.3589 159.825 38.9211C159.962 41.2764 160.091 42.7485 160.123 44.2763C160.131 44.7458 160.172 45.9235 158.948 45.9235C157.506 45.9235 156.742 45.9712 156.42 45.7404C155.977 45.4221 155.832 44.9129 155.735 43.3294C155.598 41.1173 155.188 33.0567 155.188 33.0567C155.188 33.0567 155.147 31.322 153.899 31.2027C152.506 31.0754 152.692 32.5236 152.692 33.001C152.692 33.2795 153.239 44.5469 153.239 44.5469C153.239 44.5469 153.279 45.8836 151.862 45.8836C150.445 45.8836 149.785 45.9394 149.294 45.5892C148.795 45.2391 148.666 44.7776 148.577 43.4647C148.489 42.1518 148.143 33.9002 148.11 32.7225C148.086 31.895 147.901 30.6775 146.653 30.6377C145.397 30.59 145.494 31.8313 145.494 32.6429C145.494 33.192 145.969 43.6954 145.961 43.8864C145.952 44.1092 146.178 45.7802 144.431 45.7961C142.611 45.812 142.241 45.7404 142.241 45.7404C142.241 45.7404 141.009 45.7643 140.985 43.9103C140.985 43.9103 140.453 28.7439 140.461 28.0039V28.0278ZM163.489 90.4359C163.135 92.1308 161.709 95.059 157.643 95.059C155.453 95.059 154.624 94.3747 154.052 94.0484C153.529 93.754 153.167 93.3641 152.78 93.3721C152.313 93.388 152.144 93.7142 151.919 94.2633C151.814 94.5179 151.597 94.8919 150.808 94.9874C149.769 95.1227 144.455 95.7433 144.455 95.7433C144.455 95.7433 142.748 96.0059 142.684 94.1598C142.611 92.1467 141.17 50.101 141.17 50.101C141.17 50.101 141.113 49.2814 141.669 48.9631C142.007 48.7721 142.37 48.7085 143.078 48.7005C145.864 48.6846 148.577 48.7005 148.577 48.7005C148.577 48.7005 149.721 48.6528 150.228 49.0108C150.606 49.2814 150.816 49.727 150.848 50.3635C150.936 52.4881 151.194 58.1695 151.21 58.448C151.275 59.4109 151.275 60.6442 152.104 60.6442C152.563 60.6442 152.949 60.4294 153.384 60.1907C153.859 59.9281 154.986 59.3154 156.621 59.3949C158.239 59.4745 160.172 59.8485 161.589 61.9333C161.589 61.9333 162.37 63.1428 162.547 64.8934C162.724 66.636 163.191 72.4924 163.44 78.5081C163.69 84.5237 163.851 88.733 163.497 90.4279L163.489 90.4359ZM212.563 50.642C212.515 50.8489 212.434 51.0638 212.33 51.2547C212.225 51.4457 212.096 51.6287 211.967 51.7958C211.847 51.955 211.549 52.2653 211.146 52.6632C210.776 53.0292 203.457 60.3816 202.313 61.432L201.943 61.7901C201.782 61.9492 201.645 62.0845 201.532 62.1879C201.404 62.3152 201.315 62.4028 201.267 62.4585C200.961 62.7927 200.607 63.1905 200.381 63.5088C200.293 63.6361 200.196 63.8032 200.115 63.9544C200.027 64.1136 199.898 64.3602 199.817 64.7819C199.793 64.9968 199.761 65.1957 199.769 65.3867C199.769 65.5777 199.793 65.7607 199.826 65.9516C199.858 66.1426 199.906 66.3336 199.97 66.5405C200.027 66.7474 205.977 83.2904 206.283 84.2213C206.299 84.2691 206.307 84.3009 206.315 84.3487L206.935 86.1708C206.967 86.2902 206.999 86.4016 207.024 86.513C207.072 86.7199 207.104 86.9109 207.12 87.0859C207.136 87.261 207.16 87.4997 207.16 87.6588C207.16 87.818 207.128 88.0487 207.104 88.184C207.096 88.2317 207.072 88.3113 207.04 88.4068C207.008 88.5023 206.959 88.6057 206.895 88.7171C206.83 88.8285 206.75 88.932 206.653 89.0354C206.557 89.1309 206.436 89.2184 206.291 89.2741C206.146 89.3378 205.993 89.3696 205.816 89.3855C205.776 89.3855 205.735 89.3855 205.687 89.3855C205.542 89.3855 205.397 89.3776 205.236 89.3458C205.027 89.306 204.801 89.2503 204.568 89.1468C204.27 89.0116 204.004 88.8604 203.618 88.6057L201.13 86.688C198.513 84.6749 189.914 78.0227 189.656 77.8476C189.238 77.5612 189.069 77.3941 188.594 77.1872C188.384 77.0997 188.07 77.028 187.837 77.028C187.579 77.028 187.249 77.0599 186.919 77.1872C186.701 77.2747 186.5 77.41 186.331 77.5453C186.162 77.6805 186.001 77.8317 185.832 77.9988C185.695 78.1421 176.943 86.9904 173.779 90.1654L173.738 90.2051C173.457 90.4916 173.223 90.7223 173.046 90.8974L171.613 92.3377C171.46 92.4889 171.371 92.5764 171.355 92.5923C171.122 92.7992 170.864 93.0299 170.711 93.1493C170.228 93.5073 169.624 93.762 169.012 93.7461C168.891 93.7461 168.545 93.7142 168.231 93.5471C167.643 93.2288 167.313 92.4888 167.547 91.2953C167.563 91.2316 167.635 90.8656 167.764 90.2847L168.336 87.7543L168.746 85.9242L169.052 84.5555L170.856 76.5426L172.651 68.5616C172.756 68.124 172.788 67.7261 172.829 67.3203C172.869 66.8986 172.829 66.5644 172.796 66.2222C172.772 65.8801 172.684 65.5458 172.515 65.2196C172.394 64.9809 172.225 64.7422 171.999 64.5035L171.734 64.2568L171.428 64.0101C169.495 62.538 158.416 54.1432 157.869 53.7056C157.273 53.2202 156.83 52.8382 156.653 52.6393C156.46 52.4324 156.267 52.2096 156.114 51.9788C155.961 51.7481 155.84 51.4775 155.767 51.2309C155.695 50.9762 155.679 50.5864 155.735 50.3317C155.791 50.0771 155.896 49.8782 156.114 49.6315C156.444 49.2814 156.919 49.0267 157.506 48.9233C158.078 48.8278 158.618 48.8039 159.447 48.8039H171.403H173.167C174.383 48.8039 175.22 48.796 175.389 48.7801C175.888 48.7403 176.452 48.613 176.774 48.4061C177.04 48.239 177.563 47.8889 177.788 46.9817C177.925 46.4247 179.431 38.1572 180.325 33.2636L180.969 29.7386L181.17 28.7041V28.6723C181.234 28.354 181.331 27.8368 181.452 27.4708C181.548 27.1763 181.581 26.9774 181.798 26.6671C182.104 26.2374 182.378 26.0782 182.764 25.9509C182.982 25.8793 183.304 25.8634 183.481 25.8634C184.246 25.8634 184.697 26.317 184.866 26.5079C185.172 26.866 185.389 27.4469 185.574 27.9482V27.9721L185.929 28.9508C189.383 38.7381 190.88 42.8361 192.33 46.4804C192.644 47.2682 192.933 47.7854 193.167 48.0241C193.36 48.2231 193.529 48.3902 193.867 48.5095C194.206 48.6289 194.431 48.6528 194.938 48.6607C195.26 48.6607 196.75 48.6687 198.594 48.6687H198.996H202.016H207.313H210.067C210.623 48.6687 210.985 48.6846 211.371 48.7642C211.774 48.8437 212.088 49.0586 212.314 49.3371C212.458 49.536 212.539 49.7031 212.571 49.91C212.603 50.1169 212.595 50.4352 212.547 50.642H212.563Z" fill="white"/>
</svg>
