<svg width="299" height="124" viewBox="0 0 299 124" fill="none" xmlns="http://www.w3.org/2000/svg">
<path d="M139.27 32.335H141.803L145.843 41.9265H143.009L142.346 40.1884H138.668L138.005 41.9265H135.229L139.27 32.335ZM141.561 38.1496L140.476 35.4518L139.39 38.1496H141.561Z" fill="white"/>
<path d="M147.893 32.3955H151.571C154.947 32.3955 156.938 34.3735 156.938 37.131C156.938 39.8886 154.948 41.9273 151.511 41.9273H147.893V32.3955ZM150.546 34.7339V39.593H151.632C151.969 39.6317 152.311 39.5983 152.634 39.4948C152.958 39.3914 153.255 39.2203 153.507 38.9931C153.758 38.766 153.957 38.488 154.092 38.1778C154.226 37.8676 154.292 37.5325 154.285 37.1948C154.297 36.8558 154.235 36.5183 154.102 36.2057C153.969 35.8932 153.77 35.6131 153.517 35.3849C153.265 35.1567 152.965 34.9859 152.64 34.8843C152.314 34.7828 151.97 34.7528 151.632 34.7967L150.546 34.737V34.7339Z" fill="white"/>
<path d="M158.325 32.335H161.278L163.449 38.3895L165.622 32.335H168.517L164.658 41.9265H162.185L158.325 32.335Z" fill="white"/>
<path d="M172.738 32.335H175.27L179.311 41.9265H176.477L175.814 40.1884H172.136L171.473 41.9265H168.697L172.738 32.335ZM175.029 38.1496L173.944 35.4518L172.858 38.1496H175.029Z" fill="white"/>
<path d="M181.599 32.3955H184.071L187.99 37.4307V32.3955H190.583V41.9273H188.292L184.191 36.712V41.9273H181.599V32.3955Z" fill="white"/>
<path d="M193.119 37.1896C193.103 36.5319 193.221 35.8777 193.467 35.2669C193.713 34.656 194.081 34.1012 194.549 33.6359C195.017 33.1707 195.575 32.8048 196.189 32.5604C196.804 32.316 197.462 32.1982 198.124 32.2142C198.909 32.1852 199.69 32.3509 200.395 32.6961C201.1 33.0414 201.708 33.5555 202.164 34.1922L200.174 35.7511C199.941 35.4064 199.627 35.1229 199.259 34.9246C198.892 34.7264 198.482 34.6192 198.063 34.6123C197.746 34.6247 197.433 34.7 197.145 34.8339C196.857 34.9678 196.599 35.1576 196.385 35.3921C196.172 35.6266 196.008 35.9011 195.902 36.1995C195.797 36.4979 195.753 36.8142 195.772 37.1299C195.748 37.4466 195.789 37.765 195.892 38.0656C195.995 38.3661 196.159 38.6426 196.374 38.8782C196.588 39.1138 196.848 39.3035 197.139 39.4357C197.429 39.568 197.744 39.64 198.063 39.6475C198.489 39.634 198.905 39.5245 199.281 39.3271C199.657 39.1298 199.983 38.8499 200.234 38.5086L202.224 39.9471C201.772 40.642 201.144 41.2069 200.403 41.5855C199.663 41.9642 198.835 42.1434 198.003 42.1053C197.355 42.1113 196.712 41.9878 196.113 41.7421C195.514 41.4965 194.97 41.1336 194.515 40.6752C194.059 40.2167 193.701 39.6719 193.461 39.0732C193.221 38.4744 193.105 37.8339 193.119 37.1896Z" fill="white"/>
<path d="M204.698 32.3955H212.357V34.6135H207.292V36.0519H211.874V38.1504H207.292V39.6486H212.418V41.9263H204.698V32.3955Z" fill="white"/>
<path d="M215.189 32.3955H218.868C222.244 32.3955 224.235 34.3735 224.235 37.131C224.235 39.8886 222.245 41.9273 218.807 41.9273H215.189V32.3955ZM217.843 34.7339V39.593H218.929C219.266 39.6317 219.608 39.5983 219.931 39.4948C220.255 39.3914 220.552 39.2203 220.803 38.9931C221.055 38.766 221.254 38.488 221.389 38.1778C221.523 37.8676 221.589 37.5325 221.582 37.1948C221.594 36.8558 221.531 36.5183 221.399 36.2057C221.266 35.8932 221.067 35.6131 220.814 35.3849C220.562 35.1567 220.262 34.9859 219.936 34.8843C219.611 34.7828 219.267 34.7528 218.929 34.7967L217.843 34.737V34.7339Z" fill="white"/>
<path d="M138.305 51.1597H135.471V48.8213H143.792V51.1597H140.958V58.3531H138.305V51.1597Z" fill="white"/>
<path d="M146.323 48.8213H153.982V51.0392H148.917V52.4777H153.499V54.5762H148.917V56.0744H154.043V58.2924H146.323V48.8213Z" fill="white"/>
<path d="M156.394 53.6154C156.378 52.9577 156.496 52.3035 156.742 51.6927C156.988 51.0818 157.356 50.5269 157.824 50.0617C158.292 49.5965 158.85 49.2306 159.465 48.9862C160.079 48.7418 160.737 48.624 161.399 48.6399C162.185 48.611 162.965 48.7766 163.67 49.1219C164.376 49.4672 164.984 49.9813 165.439 50.618L163.45 52.1769C163.216 51.8322 162.902 51.5487 162.535 51.3504C162.167 51.1521 161.757 51.045 161.339 51.0381C161.021 51.0504 160.709 51.1258 160.421 51.2597C160.132 51.3936 159.874 51.5834 159.661 51.8179C159.447 52.0524 159.283 52.3269 159.178 52.6253C159.073 52.9237 159.028 53.24 159.048 53.5557C159.023 53.8724 159.064 54.1908 159.167 54.4913C159.271 54.7919 159.435 55.0684 159.649 55.304C159.863 55.5395 160.124 55.7292 160.414 55.8615C160.705 55.9938 161.019 56.0658 161.339 56.0733C161.764 56.0598 162.18 55.9503 162.557 55.7529C162.933 55.5556 163.259 55.2757 163.51 54.9344L165.5 56.3729C165.047 57.0678 164.419 57.6326 163.679 58.0113C162.938 58.3899 162.111 58.5692 161.279 58.5311C160.631 58.5371 159.988 58.4136 159.388 58.1679C158.789 57.9222 158.246 57.5594 157.79 57.1009C157.334 56.6425 156.976 56.0977 156.736 55.499C156.496 54.9002 156.38 54.2597 156.394 53.6154Z" fill="white"/>
<path d="M167.791 48.8213H170.445V52.3583H173.821V48.8213H176.475V58.3531H173.821V54.7564H170.445V58.3531H167.791V48.8213Z" fill="white"/>
<path d="M179.491 48.8213H181.964L185.883 53.8565V48.8213H188.476V58.3531H186.184L182.084 53.1377V58.3531H179.491V48.8213Z" fill="white"/>
<path d="M191.008 53.6165C191.041 52.2922 191.592 51.0328 192.543 50.1051C193.495 49.1775 194.772 48.6543 196.104 48.6466C197.437 48.6388 198.72 49.147 199.682 50.0635C200.644 50.9801 201.21 52.2329 201.259 53.5568C201.257 54.2198 201.122 54.8758 200.863 55.4865C200.603 56.0972 200.223 56.6503 199.746 57.1135C199.269 57.5768 198.703 57.9408 198.083 58.1844C197.463 58.4279 196.8 58.5462 196.133 58.5322C195.468 58.5577 194.805 58.4494 194.184 58.2137C193.562 57.9779 192.995 57.6197 192.516 57.1606C192.037 56.7014 191.657 56.1507 191.398 55.5417C191.139 54.9326 191.006 54.2778 191.008 53.6165ZM198.543 53.6165C198.566 53.2903 198.521 52.963 198.412 52.6545C198.304 52.3461 198.132 52.063 197.91 51.8226C197.687 51.5821 197.417 51.3895 197.116 51.2564C196.816 51.1233 196.491 51.0525 196.163 51.0484C195.834 51.0444 195.508 51.1071 195.204 51.2327C194.9 51.3583 194.626 51.5443 194.397 51.7791C194.168 52.0139 193.99 52.2927 193.873 52.5983C193.757 52.904 193.704 53.2301 193.719 53.5568C193.702 53.8894 193.754 54.2218 193.871 54.5339C193.988 54.846 194.168 55.1311 194.399 55.3722C194.63 55.6132 194.908 55.805 195.216 55.9359C195.524 56.0669 195.856 56.1343 196.191 56.1341C196.514 56.1283 196.832 56.0579 197.126 55.927C197.421 55.7962 197.686 55.6076 197.906 55.3726C198.125 55.1375 198.295 54.8609 198.404 54.5591C198.514 54.2574 198.561 53.9368 198.543 53.6165Z" fill="white"/>
<path d="M203.732 48.8213H206.386V56.0147H210.968V58.3531H203.732V48.8213Z" fill="white"/>
<path d="M212.656 53.6165C212.69 52.2922 213.24 51.0328 214.192 50.1051C215.143 49.1775 216.42 48.6543 217.753 48.6466C219.085 48.6388 220.369 49.147 221.331 50.0635C222.293 50.9801 222.858 52.2329 222.907 53.5568C222.906 54.2198 222.771 54.8758 222.511 55.4865C222.251 56.0972 221.872 56.6503 221.394 57.1135C220.917 57.5768 220.352 57.9408 219.731 58.1844C219.111 58.4279 218.448 58.5462 217.781 58.5322C217.117 58.5577 216.454 58.4494 215.832 58.2137C215.21 57.9779 214.643 57.6197 214.165 57.1606C213.686 56.7014 213.305 56.1507 213.046 55.5417C212.787 54.9326 212.654 54.2778 212.656 53.6165ZM220.192 53.6165C220.214 53.2903 220.17 52.963 220.061 52.6545C219.952 52.3461 219.781 52.063 219.558 51.8226C219.335 51.5821 219.065 51.3895 218.765 51.2564C218.464 51.1233 218.14 51.0525 217.811 51.0484C217.482 51.0444 217.156 51.1071 216.852 51.2327C216.549 51.3583 216.274 51.5443 216.045 51.7791C215.817 52.0139 215.638 52.2927 215.522 52.5983C215.405 52.904 215.352 53.2301 215.367 53.5568C215.351 53.8894 215.403 54.2218 215.52 54.5339C215.637 54.846 215.816 55.1311 216.048 55.3722C216.279 55.6132 216.557 55.805 216.865 55.9359C217.173 56.0669 217.504 56.1343 217.839 56.1341C218.162 56.1283 218.48 56.0579 218.775 55.927C219.069 55.7962 219.334 55.6076 219.554 55.3726C219.774 55.1375 219.943 54.8609 220.053 54.5591C220.162 54.2574 220.21 53.9368 220.192 53.6165Z" fill="white"/>
<path d="M224.838 53.6166C224.83 52.9507 224.958 52.2901 225.214 51.6748C225.47 51.0596 225.85 50.5025 226.329 50.0372C226.808 49.572 227.378 49.2084 228.002 48.9684C228.627 48.7284 229.295 48.6171 229.964 48.6411C231.383 48.578 232.77 49.0734 233.823 50.0199L232.255 51.8784C231.954 51.5827 231.596 51.3506 231.202 51.1961C230.808 51.0416 230.387 50.968 229.964 50.9795C229.634 50.9859 229.308 51.0582 229.006 51.1922C228.705 51.3263 228.433 51.5193 228.208 51.7597C227.983 52.0002 227.809 52.2832 227.696 52.592C227.583 52.9007 227.534 53.2288 227.552 53.5568C227.533 53.9031 227.586 54.2495 227.709 54.5741C227.832 54.8987 228.021 55.1944 228.265 55.4425C228.508 55.6905 228.801 55.8855 229.125 56.015C229.449 56.1445 229.796 56.2058 230.144 56.1949C230.681 56.2389 231.216 56.0898 231.651 55.7748V54.636H229.782V52.7126H234.124V56.9642C232.958 57.9362 231.484 58.4669 229.963 58.4624C229.299 58.5095 228.633 58.4183 228.006 58.1948C227.38 57.9712 226.807 57.6202 226.325 57.1641C225.842 56.7081 225.461 56.157 225.205 55.5462C224.949 54.9354 224.824 54.2781 224.838 53.6166Z" fill="white"/>
<path d="M239.311 54.815L235.693 48.8799H238.709L240.698 52.3571L242.688 48.8799H245.641L242.023 54.815V58.4117H239.369L239.309 54.815H239.311Z" fill="white"/>
<path d="M156.816 73.3396L158.263 71.6055C159.135 72.3105 160.216 72.7107 161.339 72.7443C162.063 72.7443 162.424 72.5044 162.424 72.0853C162.424 71.6652 162.119 71.486 160.795 71.1864C158.745 70.7066 157.177 70.167 157.177 68.189C157.177 66.3901 158.564 65.1318 160.855 65.1318C162.271 65.0688 163.663 65.5159 164.774 66.3911L163.451 68.2497C162.683 67.6718 161.758 67.3373 160.797 67.2901C160.134 67.2901 159.832 67.53 159.832 67.8893C159.832 68.3095 160.137 68.4886 161.52 68.7883C163.691 69.2681 165.078 69.9868 165.078 71.7239C165.078 73.6473 163.51 74.8408 161.218 74.8408C159.614 74.9058 158.043 74.3701 156.816 73.3396Z" fill="white"/>
<path d="M200.779 69.9816C200.763 69.3239 200.881 68.6697 201.127 68.0589C201.373 67.448 201.741 66.8931 202.209 66.4279C202.677 65.9627 203.235 65.5968 203.85 65.3524C204.464 65.108 205.122 64.9902 205.784 65.0062C206.569 64.9772 207.35 65.1429 208.055 65.4881C208.76 65.8334 209.368 66.3475 209.824 66.9842L207.835 68.5431C207.601 68.1984 207.287 67.9149 206.919 67.7166C206.552 67.5184 206.142 67.4112 205.724 67.4043C205.406 67.4166 205.094 67.492 204.805 67.6259C204.517 67.7598 204.259 67.9496 204.045 68.1841C203.832 68.4186 203.668 68.6931 203.563 68.9915C203.457 69.2899 203.413 69.6062 203.432 69.9219C203.408 70.2386 203.449 70.557 203.552 70.8576C203.656 71.1581 203.819 71.4346 204.034 71.6702C204.248 71.9058 204.509 72.0954 204.799 72.2277C205.09 72.36 205.404 72.432 205.724 72.4395C206.149 72.426 206.565 72.3165 206.941 72.1191C207.317 71.9218 207.643 71.6419 207.895 71.3006L209.884 72.7391C209.284 73.6097 208.421 74.2673 207.419 74.6164C206.417 74.9655 205.33 74.988 204.314 74.6805C203.299 74.373 202.408 73.7515 201.773 72.9065C201.137 72.0614 200.789 71.0368 200.779 69.9816Z" fill="white"/>
<path d="M135.953 65.2472H140.475C141.031 65.195 141.592 65.2587 142.121 65.4342C142.651 65.6097 143.138 65.8932 143.551 66.2666C143.837 66.5594 144.06 66.9075 144.205 67.2894C144.35 67.6712 144.415 68.0787 144.396 68.4865C144.425 69.116 144.254 69.7387 143.907 70.2658C143.559 70.793 143.053 71.1976 142.461 71.4222L144.752 74.7193H141.737L139.802 71.8413H138.657V74.7193H136.003V65.2472H135.953ZM140.355 69.8025C141.259 69.8025 141.742 69.3824 141.742 68.6637C141.742 67.8842 141.199 67.5249 140.295 67.5249H138.547V69.8025H140.355Z" fill="white"/>
<path d="M147.107 65.2461H154.766V67.464H149.701V68.9025H154.283V71.001H149.701V72.4992H154.827V74.7172H147.107V65.2461Z" fill="white"/>
<path d="M167.791 65.2461H175.45V67.464H170.385V68.9025H174.967V71.001H170.385V72.4992H175.511V74.7172H167.791V65.2461Z" fill="white"/>
<path d="M181.541 65.1875H184.073L188.114 74.779H185.28L184.617 73.0409H180.939L180.276 74.779H177.5L181.541 65.1875ZM183.832 71.0021L182.746 68.3044L181.661 71.0021H183.832Z" fill="white"/>
<path d="M190.163 65.2472H194.685C195.241 65.195 195.802 65.2587 196.331 65.4342C196.861 65.6097 197.348 65.8932 197.761 66.2666C198.047 66.5594 198.27 66.9075 198.415 67.2894C198.56 67.6712 198.625 68.0787 198.606 68.4865C198.635 69.116 198.464 69.7387 198.117 70.2658C197.769 70.793 197.263 71.1976 196.671 71.4222L198.962 74.7193H195.947L193.957 71.902H192.812V74.78H190.163V65.2472ZM194.565 69.8025C195.469 69.8025 195.952 69.3824 195.952 68.6637C195.952 67.8842 195.409 67.5249 194.505 67.5249H192.757V69.8025H194.565Z" fill="white"/>
<path d="M212.356 65.2461H215.01V68.7831H218.387V65.2461H221.04V74.7779H218.387V71.1812H215.01V74.7779H212.356V65.2461Z" fill="white"/>
<path d="M135.651 86.4679C135.635 85.8102 135.753 85.1561 135.999 84.5452C136.245 83.9343 136.613 83.3795 137.081 82.9142C137.549 82.449 138.107 82.0831 138.722 81.8387C139.336 81.5943 139.994 81.4765 140.656 81.4925C141.441 81.4636 142.222 81.6292 142.927 81.9744C143.633 82.3197 144.24 82.8338 144.696 83.4705L142.707 85.0295C142.473 84.6848 142.159 84.4012 141.791 84.203C141.424 84.0047 141.014 83.8975 140.596 83.8906C140.278 83.903 139.966 83.9783 139.677 84.1122C139.389 84.2461 139.131 84.4359 138.917 84.6704C138.704 84.9049 138.54 85.1794 138.435 85.4778C138.329 85.7763 138.285 86.0926 138.305 86.4082C138.28 86.7249 138.321 87.0433 138.424 87.3439C138.528 87.6445 138.691 87.921 138.906 88.1565C139.12 88.3921 139.381 88.5818 139.671 88.714C139.962 88.8463 140.276 88.9183 140.596 88.9258C141.021 88.9123 141.437 88.8028 141.813 88.6055C142.19 88.4081 142.516 88.1282 142.767 87.787L144.756 89.2254C144.304 89.9203 143.676 90.4852 142.935 90.8638C142.195 91.2425 141.367 91.4217 140.536 91.3837C139.887 91.3896 139.245 91.2661 138.645 91.0205C138.046 90.7748 137.502 90.4119 137.047 89.9535C136.591 89.495 136.233 88.9502 135.993 88.3515C135.753 87.7528 135.637 87.1122 135.651 86.4679Z" fill="white"/>
<path d="M146.445 86.468C146.479 85.1437 147.029 83.8844 147.981 82.9567C148.932 82.029 150.209 81.5059 151.542 81.4981C152.874 81.4904 154.158 81.9986 155.12 82.9151C156.082 83.8316 156.647 85.0845 156.696 86.4083C156.695 87.0714 156.56 87.7274 156.3 88.3381C156.04 88.9488 155.661 89.5019 155.183 89.9651C154.706 90.4283 154.141 90.7923 153.521 91.0359C152.9 91.2795 152.237 91.3978 151.57 91.3838C150.906 91.4093 150.243 91.3009 149.621 91.0652C149 90.8295 148.432 90.4713 147.954 90.0121C147.475 89.553 147.095 89.0023 146.835 88.3933C146.576 87.7842 146.443 87.1294 146.445 86.468ZM154.044 86.468C154.067 86.1419 154.022 85.8146 153.913 85.5061C153.804 85.1976 153.633 84.9145 153.41 84.6741C153.187 84.4337 152.917 84.241 152.617 84.1079C152.317 83.9748 151.992 83.9041 151.663 83.9C151.334 83.8959 151.008 83.9586 150.705 84.0843C150.401 84.2099 150.126 84.3958 149.898 84.6306C149.669 84.8655 149.491 85.1442 149.374 85.4499C149.257 85.7556 149.205 86.0817 149.219 86.4083C149.203 86.741 149.255 87.0734 149.372 87.3855C149.489 87.6975 149.669 87.9827 149.9 88.2237C150.131 88.4647 150.409 88.6565 150.717 88.7875C151.025 88.9185 151.357 88.9859 151.692 88.9856C152.013 88.9748 152.328 88.901 152.621 88.7684C152.913 88.6359 153.176 88.4472 153.394 88.2132C153.613 87.9792 153.783 87.7046 153.894 87.4051C154.006 87.1056 154.057 86.7871 154.044 86.468Z" fill="white"/>
<path d="M158.867 87.0077V81.6719H161.521V86.947C161.521 88.3257 162.245 88.9847 163.269 88.9847C164.355 88.9847 165.018 88.3855 165.018 87.0067V81.6719H167.671V86.947C167.671 90.0041 165.923 91.3829 163.209 91.3829C160.556 91.3839 158.867 90.0051 158.867 87.0077Z" fill="white"/>
<path d="M182.144 86.4679C182.128 85.8102 182.246 85.1561 182.492 84.5452C182.738 83.9343 183.106 83.3795 183.574 82.9142C184.042 82.449 184.6 82.0831 185.215 81.8387C185.829 81.5943 186.487 81.4765 187.149 81.4925C187.935 81.4636 188.715 81.6292 189.42 81.9744C190.126 82.3197 190.734 82.8338 191.189 83.4705L189.2 85.0295C188.966 84.6848 188.652 84.4012 188.285 84.203C187.917 84.0047 187.507 83.8975 187.089 83.8906C186.771 83.903 186.459 83.9783 186.171 84.1122C185.882 84.2461 185.624 84.4359 185.411 84.6704C185.197 84.9049 185.033 85.1794 184.928 85.4778C184.823 85.7763 184.778 86.0926 184.798 86.4082C184.773 86.7249 184.814 87.0433 184.917 87.3439C185.021 87.6445 185.185 87.921 185.399 88.1565C185.613 88.3921 185.874 88.5818 186.164 88.714C186.455 88.8463 186.769 88.9183 187.089 88.9258C187.514 88.9123 187.93 88.8028 188.307 88.6055C188.683 88.4081 189.009 88.1282 189.26 87.787L191.25 89.2254C190.797 89.9203 190.169 90.4852 189.429 90.8638C188.688 91.2425 187.861 91.4217 187.029 91.3837C186.381 91.3896 185.738 91.2661 185.138 91.0205C184.539 90.7748 183.996 90.4119 183.54 89.9535C183.084 89.495 182.726 88.9502 182.486 88.3515C182.246 87.7528 182.13 87.1122 182.144 86.4679Z" fill="white"/>
<path d="M170.628 81.6729H173.1L177.02 86.708V81.6729H179.612V91.2047H177.321L173.221 85.9893V91.2047H170.628V81.6729Z" fill="white"/>
<path d="M193.844 81.6729H196.497V91.2047H193.844V81.6729Z" fill="white"/>
<path d="M199.572 81.6729H202.226V88.8663H206.869V91.2047H199.633V81.6729H199.572Z" fill="white"/>
<path d="M112.193 49.901C111.832 50.499 111.603 51.1659 111.52 51.8581C111.436 52.5503 111.501 53.2522 111.71 53.9178C111.892 54.5829 112.203 55.2059 112.628 55.7509C113.052 56.296 113.58 56.7526 114.182 57.0944C114.968 57.5492 115.866 57.7774 116.775 57.7534C117.263 57.7526 117.749 57.692 118.222 57.5732C118.895 57.4011 119.525 57.0944 120.075 56.6718C120.625 56.2492 121.082 55.7196 121.418 55.1153C121.765 54.5119 121.986 53.8455 122.069 53.1556C122.152 52.4656 122.095 51.7661 121.901 51.0985C121.727 50.4218 121.412 49.7891 120.975 49.2416C120.539 48.6941 119.991 48.2441 119.368 47.9209C118.761 47.5764 118.091 47.3564 117.397 47.274C116.703 47.1916 115.999 47.2484 115.328 47.4411C114.662 47.6122 114.039 47.9193 113.5 48.3428C112.96 48.7663 112.515 49.297 112.193 49.901Z" fill="white"/>
<path d="M124.317 66.8052C123.833 65.1069 122.692 63.6682 121.144 62.8032C119.596 61.9383 117.767 61.7175 116.056 62.1891C115.204 62.4189 114.408 62.8147 113.712 63.3537C113.016 63.8926 112.435 64.5639 112.003 65.3283C111.571 66.0927 111.296 66.935 111.194 67.8061C111.093 68.6772 111.167 69.5596 111.412 70.4019C111.811 71.8108 112.666 73.0499 113.843 73.9281C115.021 74.8062 116.457 75.2746 117.929 75.261C118.54 75.2694 119.148 75.1886 119.735 75.021C120.59 74.7916 121.389 74.3916 122.084 73.8453C122.778 73.299 123.354 72.6179 123.775 71.8434C124.618 70.3011 124.813 68.4898 124.317 66.8052Z" fill="white"/>
<path d="M113.337 78.136C113.075 78.0617 112.8 78.0399 112.529 78.0719C112.258 78.1038 111.996 78.1889 111.759 78.3222C111.521 78.4554 111.312 78.6343 111.144 78.8483C110.977 79.0623 110.853 79.3072 110.782 79.5689C110.71 79.8307 110.691 80.1039 110.726 80.3729C110.761 80.6419 110.85 80.9013 110.987 81.1361C111.123 81.3708 111.306 81.5763 111.523 81.7406C111.74 81.9049 111.988 82.0247 112.252 82.0931C112.428 82.1425 112.611 82.1627 112.794 82.1529C113.157 82.1443 113.511 82.0394 113.82 81.8492C114.285 81.5597 114.628 81.1122 114.785 80.5899C114.915 80.0734 114.836 79.527 114.566 79.0675C114.295 78.6081 113.855 78.2723 113.338 78.132L113.337 78.136Z" fill="white"/>
<path d="M77.6405 77.4759C77.685 77.9825 77.9221 78.4531 78.3034 78.7919C78.6542 79.0976 79.1037 79.2679 79.5702 79.2718H79.7514C80.261 79.2275 80.7343 78.9919 81.0752 78.6128C81.4113 78.2101 81.5835 77.6969 81.5579 77.1743C81.5134 76.6677 81.2763 76.1971 80.895 75.8583C80.4899 75.5242 79.9737 75.353 79.448 75.3785C78.9384 75.4227 78.465 75.6584 78.1242 76.0375C77.9454 76.2293 77.8098 76.4568 77.7264 76.7049C77.6429 76.9529 77.6137 77.2158 77.6405 77.4759Z" fill="white"/>
<path d="M89.5777 79.2151C89.5097 78.4764 89.1652 77.79 88.6124 77.2918C88.3335 77.0495 88.008 76.8661 87.6556 76.7528C87.3032 76.6395 86.9313 76.5987 86.5625 76.6328C85.8194 76.7003 85.129 77.0428 84.6278 77.5924C84.384 77.8696 84.1995 78.1932 84.0856 78.5436C83.9716 78.8939 83.9306 79.2636 83.9649 79.6302C84.0328 80.3689 84.3774 81.0553 84.9302 81.5536C85.4352 81.9804 86.0769 82.2141 86.7397 82.2126H86.9811C87.7242 82.145 88.4146 81.8025 88.9158 81.2529C89.3915 80.6834 89.6285 79.9537 89.5777 79.2151Z" fill="white"/>
<path d="M97.5412 75.1376C97.2081 74.841 96.8155 74.6181 96.3892 74.4837C95.963 74.3494 95.5129 74.3065 95.0688 74.3581C94.6152 74.388 94.1726 74.5098 93.7682 74.7159C93.3637 74.922 93.0058 75.2081 92.7165 75.5567C92.4182 75.8878 92.194 76.2781 92.0588 76.7018C91.9237 77.1256 91.8806 77.573 91.9324 78.0145C92.0073 78.8736 92.4005 79.6743 93.0357 80.2615C93.671 80.8486 94.5029 81.1803 95.3702 81.1921H95.6757C96.1292 81.1622 96.5718 81.0404 96.9763 80.8343C97.3808 80.6282 97.7387 80.3421 98.0279 79.9936C98.6231 79.3163 98.9264 78.4334 98.8721 77.5357C98.6771 76.6229 98.2139 75.7883 97.5412 75.1376Z" fill="white"/>
<path d="M106.524 72.9194C106.791 72.3935 106.945 71.818 106.977 71.2296C107.008 70.6412 106.915 70.0528 106.705 69.5019C106.515 68.9496 106.214 68.4416 105.82 68.0088C105.426 67.576 104.948 67.2274 104.414 66.9843C103.885 66.7185 103.306 66.5652 102.714 66.5342C102.122 66.5032 101.53 66.5951 100.976 66.8041C100.421 66.993 99.9096 67.2924 99.4742 67.684C99.0388 68.0755 98.6882 68.5511 98.4436 69.0818C98.1773 69.597 98.0235 70.1624 97.9923 70.7409C97.961 71.3194 98.0531 71.8979 98.2624 72.4385C98.4524 72.9908 98.7536 73.4988 99.1474 73.9316C99.5413 74.3645 100.02 74.713 100.554 74.9561C101.157 75.2443 101.819 75.3882 102.488 75.3762C103.001 75.3846 103.511 75.3034 103.995 75.1363C104.552 74.9688 105.066 74.6841 105.502 74.3015C105.939 73.919 106.287 73.4476 106.524 72.9194Z" fill="white"/>
<path d="M80.4757 46.6631C80.0702 46.3285 79.5531 46.1573 79.0267 46.1832C78.5172 46.2275 78.0438 46.4631 77.7029 46.8422C77.3669 47.2449 77.1947 47.7581 77.2203 48.2807C77.2648 48.7872 77.5018 49.2579 77.8832 49.5967C78.2339 49.9024 78.6835 50.0727 79.1499 50.0765H79.3312C79.8407 50.0323 80.3141 49.7966 80.655 49.4175C80.991 49.0149 81.1632 48.5017 81.1376 47.9791C81.1289 47.7253 81.0652 47.4764 80.951 47.2493C80.8368 47.0223 80.6747 46.8223 80.4757 46.6631Z" fill="white"/>
<path d="M71.9099 55.535C72.4149 55.9618 73.0566 56.1955 73.7194 56.194H73.9608C74.7039 56.1264 75.3943 55.784 75.8955 55.2344C76.3775 54.6685 76.6137 53.9355 76.5523 53.1966C76.4843 52.4579 76.1398 51.7714 75.587 51.2732C75.3081 51.0309 74.9826 50.8475 74.6302 50.7342C74.2778 50.6209 73.9059 50.5801 73.5371 50.6142C72.794 50.6818 72.1036 51.0243 71.6024 51.5739C71.3586 51.8511 71.1742 52.1747 71.0602 52.525C70.9462 52.8753 70.9052 53.245 70.9395 53.6116C70.9537 53.9825 71.0477 54.3461 71.2151 54.6778C71.3825 55.0096 71.6194 55.3019 71.9099 55.535Z" fill="white"/>
<path d="M68.3523 59.4296C68.0539 59.7607 67.8297 60.151 67.6946 60.5747C67.5594 60.9985 67.5163 61.4459 67.5682 61.8874C67.6431 62.7465 68.0363 63.5472 68.6715 64.1344C69.3067 64.7215 70.1387 65.0532 71.0059 65.065H71.3114C71.765 65.0351 72.2076 64.9133 72.6121 64.7072C73.0166 64.5011 73.3744 64.215 73.6637 63.8665C74.2589 63.1892 74.5621 62.3063 74.5078 61.4086C74.4777 60.9577 74.3553 60.5177 74.1479 60.1156C73.9406 59.7135 73.6528 59.3577 73.3022 59.0702C72.9691 58.7736 72.5765 58.5507 72.1502 58.4164C71.724 58.282 71.2739 58.2392 70.8298 58.2907C70.3616 58.3085 69.9017 58.4183 69.4764 58.6138C69.0512 58.8093 68.6691 59.0865 68.3523 59.4296Z" fill="white"/>
<path d="M77.5156 69.8036C77.3255 69.2514 77.0244 68.7434 76.6305 68.3105C76.2366 67.8777 75.7582 67.5291 75.2244 67.286C74.6954 67.0203 74.1165 66.867 73.5246 66.836C72.9327 66.8049 72.3408 66.8968 71.7867 67.1058C71.2311 67.2948 70.7201 67.5941 70.2847 67.9857C69.8494 68.3773 69.4987 68.8529 69.2542 69.3835C68.9879 69.8988 68.8341 70.4642 68.8028 71.0427C68.7716 71.6211 68.8636 72.1996 69.0729 72.7403C69.263 73.2925 69.5641 73.8006 69.958 74.2334C70.3519 74.6662 70.8303 75.0148 71.3641 75.2579C71.9672 75.5461 72.6298 75.6899 73.2988 75.678C73.8114 75.6863 74.3215 75.6051 74.8059 75.4381C75.9139 75.0442 76.8204 74.231 77.3279 73.1756C77.8355 72.1202 77.9029 70.9082 77.5156 69.8036Z" fill="white"/>
<path d="M103.692 61.1108C103.26 61.4094 102.959 61.8593 102.848 62.3701C102.793 62.6273 102.792 62.893 102.844 63.1507C102.897 63.4083 103.002 63.6526 103.153 63.8683C103.453 64.2971 103.906 64.597 104.42 64.7075C104.54 64.7075 104.661 64.7672 104.781 64.7672C105.173 64.7675 105.554 64.6414 105.867 64.4078C106.298 64.1092 106.6 63.6593 106.711 63.1485C106.769 62.9012 106.772 62.6441 106.719 62.3956C106.666 62.147 106.559 61.913 106.406 61.7101C106.105 61.2812 105.653 60.9814 105.139 60.8709C104.896 60.7906 104.638 60.7704 104.385 60.8123C104.133 60.8541 103.895 60.9566 103.692 61.1108Z" fill="white"/>
<path d="M101.579 53.0769C100.962 53.5022 100.531 54.1455 100.373 54.8757C100.236 55.6032 100.388 56.3552 100.796 56.9742C101.236 57.5755 101.878 58.0006 102.606 58.1728C102.782 58.2222 102.965 58.2424 103.148 58.2325C103.706 58.2211 104.249 58.0549 104.716 57.7527C105.321 57.3152 105.749 56.6772 105.922 55.9538C106.059 55.2263 105.908 54.4743 105.5 53.8553C105.072 53.2416 104.425 52.813 103.69 52.6568C102.958 52.5144 102.199 52.6654 101.579 53.0769Z" fill="white"/>
<path d="M96.7553 52.1183C96.9726 52.1678 97.1956 52.1879 97.4182 52.178C98.1103 52.184 98.7869 51.9745 99.353 51.5788C99.7322 51.3392 100.057 51.0234 100.306 50.6518C100.555 50.2801 100.724 49.8607 100.8 49.4205C100.892 48.9769 100.891 48.5192 100.798 48.0759C100.704 47.6326 100.52 47.213 100.257 46.8432C100.016 46.4662 99.6987 46.1435 99.3248 45.8957C98.9509 45.648 98.529 45.4808 98.0862 45.4047C97.64 45.3135 97.1796 45.3143 96.7337 45.4071C96.2877 45.4999 95.8657 45.6828 95.4937 45.9443C95.1144 46.1838 94.7898 46.4996 94.5406 46.8713C94.2914 47.243 94.1232 47.6624 94.0467 48.1025C93.8791 48.992 94.0695 49.9114 94.5771 50.6627C95.0847 51.414 95.8687 51.9371 96.7604 52.1193L96.7553 52.1183Z" fill="white"/>
<path d="M92.1714 45.4641C92.1249 44.8856 91.9622 44.3223 91.6928 43.8074C91.4235 43.2926 91.053 42.8367 90.6032 42.4667C89.7007 41.6998 88.5324 41.314 87.3477 41.3916C86.7658 41.4378 86.1991 41.5996 85.6812 41.8674C85.1633 42.1351 84.7047 42.5035 84.3326 42.9506C83.5589 43.8479 83.1693 45.0106 83.2471 46.1899C83.3537 47.3719 83.9156 48.4672 84.8152 49.2471C85.6134 49.9494 86.6444 50.3337 87.7102 50.3262H88.0717C88.6566 50.2929 89.2277 50.1368 89.7474 49.8681C90.2672 49.5994 90.7237 49.2242 91.0869 48.7673C91.8543 47.8415 92.2417 46.6617 92.1714 45.4641Z" fill="white"/>
<path d="M91.2633 34.2546C91.4463 34.2644 91.6297 34.2443 91.8061 34.1949C92.3313 34.0479 92.7774 33.7016 93.0481 33.2306C93.3188 32.7596 93.3924 32.2018 93.2531 31.6773C93.1866 31.4148 93.0674 31.1683 92.9027 30.9526C92.7381 30.7369 92.5313 30.5565 92.2948 30.4222C92.0584 30.2879 91.797 30.2024 91.5265 30.1709C91.256 30.1394 90.9819 30.1625 90.7206 30.2388C90.2399 30.369 89.8231 30.6683 89.5477 31.0811C89.2723 31.4939 89.157 31.992 89.2234 32.4829C89.2897 32.9738 89.5332 33.4241 89.9084 33.75C90.2836 34.0758 90.7651 34.2552 91.2633 34.2546Z" fill="white"/>
<path d="M98.2015 37.0709C98.6632 37.3278 99.1798 37.4718 99.7086 37.491C99.9934 37.4806 100.276 37.4406 100.553 37.3715C100.941 37.2716 101.304 37.0949 101.622 36.8521C101.94 36.6094 102.205 36.3055 102.402 35.9585C102.599 35.6116 102.724 35.2288 102.769 34.8329C102.814 34.437 102.778 34.0362 102.664 33.6544C102.437 32.8741 101.92 32.2092 101.217 31.7958C100.522 31.4001 99.6998 31.2911 98.9256 31.4921C98.5283 31.5842 98.1556 31.7604 97.833 32.0087C97.5103 32.2569 97.2453 32.5713 97.056 32.9306C96.6535 33.6413 96.544 34.4796 96.7505 35.269C96.9962 36.0258 97.5125 36.6669 98.2015 37.0709Z" fill="white"/>
<path d="M113.16 42.9443C113.715 41.9589 113.867 40.7986 113.583 39.705C113.434 39.1598 113.176 38.6503 112.824 38.2073C112.471 37.7643 112.032 37.397 111.533 37.1277C111.043 36.8493 110.502 36.6737 109.941 36.6119C109.381 36.5501 108.813 36.6033 108.274 36.7683C107.183 37.0645 106.252 37.7748 105.682 38.7463C105.127 39.7317 104.975 40.8921 105.259 41.9857C105.408 42.5308 105.666 43.0403 106.018 43.4834C106.371 43.9264 106.81 44.2937 107.309 44.563C107.956 44.916 108.682 45.1015 109.42 45.1026C109.809 45.1013 110.195 45.0406 110.566 44.9224C111.649 44.61 112.576 43.904 113.16 42.9443Z" fill="white"/>
<path d="M61.5388 73.6374C61.1514 73.2625 60.632 73.0527 60.0913 73.0527C59.5506 73.0527 59.0313 73.2625 58.6438 73.6374C58.2733 74.0291 58.059 74.5416 58.041 75.0789C58.0434 75.6187 58.2602 76.1356 58.6441 76.5172C59.028 76.8989 59.5479 77.1143 60.0908 77.1167C60.6328 77.1095 61.151 76.8949 61.5378 76.5174C61.9157 76.1323 62.1273 75.6156 62.1275 75.0776C62.1277 74.5396 61.9165 74.0228 61.5388 73.6374Z" fill="white"/>
<path d="M60.6944 66.2655C60.6778 65.4584 60.3548 64.6874 59.7902 64.1072C59.5022 63.8258 59.1609 63.604 58.7861 63.4546C58.4113 63.3051 58.0104 63.2311 57.6067 63.2366C57.2029 63.2422 56.8042 63.3273 56.4337 63.4869C56.0632 63.6466 55.7283 63.8778 55.4482 64.167C55.1616 64.4498 54.9342 64.7861 54.779 65.1567C54.6238 65.5273 54.5439 65.9248 54.5439 66.3262C54.5605 67.1333 54.8836 67.9043 55.4482 68.4844C56.0318 69.0457 56.8073 69.3668 57.6192 69.3833C58.0236 69.3888 58.4249 69.3119 58.7983 69.1573C59.1717 69.0027 59.5093 68.7737 59.7902 68.4844C60.3614 67.884 60.6842 67.0918 60.6944 66.2655Z" fill="white"/>
<path d="M58.4022 59.0717C58.9787 59.077 59.55 58.9627 60.0795 58.7361C60.609 58.5095 61.0851 58.1756 61.4775 57.7557C61.8829 57.3557 62.2038 56.8793 62.4214 56.3543C62.6389 55.8292 62.7487 55.2663 62.7442 54.6985C62.7378 54.1273 62.6175 53.5629 62.3903 53.0382C62.163 52.5134 61.8334 52.0387 61.4204 51.6414C61.018 51.2374 60.5384 50.9176 60.0097 50.7008C59.481 50.484 58.914 50.3746 58.3422 50.379C57.7675 50.3854 57.1998 50.505 56.672 50.7309C56.1441 50.9568 55.6666 51.2845 55.2669 51.695C54.8611 52.0953 54.54 52.5723 54.3224 53.0978C54.1048 53.6234 53.9953 54.1869 54.0002 54.7552C54.0066 55.3265 54.1269 55.8908 54.3541 56.4156C54.5813 56.9403 54.911 57.4151 55.3239 57.8124C55.7266 58.2158 56.2064 58.535 56.735 58.7513C57.2637 58.9676 57.8306 59.0765 58.4022 59.0717Z" fill="white"/>
<path d="M64.8547 47.8023C66.2752 47.7857 67.6352 47.2277 68.6539 46.2433C69.6156 45.2412 70.1548 43.9111 70.161 42.5262C70.1603 41.8365 70.0222 41.1537 69.7546 40.5174C69.4869 39.8811 69.0951 39.3038 68.6016 38.8189C68.1082 38.3341 67.523 37.9512 66.8799 37.6926C66.2368 37.4339 65.5484 37.3045 64.8547 37.3118H64.7946C64.0989 37.3147 63.4105 37.4539 62.769 37.7214C62.1274 37.9889 61.5451 38.3795 61.0554 38.8708C60.5621 39.3675 60.1744 39.9579 59.9155 40.6068C59.6565 41.2557 59.5317 41.9498 59.5483 42.6477C59.5772 44.0397 60.1379 45.3687 61.1165 46.3648C62.1456 47.2795 63.4743 47.7904 64.8547 47.8023Z" fill="white"/>
<path d="M78.304 40.3088C79.1918 40.3198 80.0724 40.1499 80.8916 39.8097C81.7109 39.4696 82.4514 38.9662 83.0676 38.3307C83.69 37.7085 84.1816 36.9694 84.5138 36.1563C84.846 35.3433 85.012 34.4727 85.0023 33.5952C85.0062 32.7228 84.8315 31.8586 84.4887 31.0555C84.1459 30.2523 83.6423 29.5269 83.0085 28.9234C82.3907 28.3103 81.6569 27.8246 80.8495 27.4945C80.0421 27.1644 79.177 26.9964 78.304 27.0001H78.2439C77.3668 26.9958 76.4979 27.1689 75.6902 27.509C74.8825 27.849 74.1528 28.3489 73.5455 28.9781C72.9231 29.6003 72.4314 30.3395 72.0993 31.1525C71.7671 31.9656 71.601 32.8362 71.6108 33.7136C71.6058 34.5865 71.7796 35.4512 72.1217 36.2551C72.4638 37.059 72.9669 37.7852 73.6005 38.3895C74.8577 39.6128 76.5448 40.3013 78.304 40.3088Z" fill="white"/>
<path d="M107.188 83.7107C106.412 83.5357 105.599 83.6435 104.897 84.0144C104.549 84.2119 104.246 84.479 104.007 84.799C103.768 85.1189 103.599 85.4846 103.51 85.873C103.334 86.6441 103.442 87.4524 103.816 88.1507C104.014 88.4966 104.283 88.7978 104.605 89.0351C104.927 89.2725 105.294 89.4408 105.685 89.5294C105.941 89.5984 106.204 89.6385 106.469 89.6489C107.147 89.6551 107.808 89.4336 108.344 89.0202C108.88 88.6069 109.26 88.0259 109.422 87.3712C109.524 86.9902 109.55 86.5929 109.498 86.2021C109.445 85.8113 109.316 85.4346 109.117 85.0935C108.679 84.401 107.987 83.9051 107.188 83.7107Z" fill="white"/>
<path d="M96.9948 87.5451C96.438 87.399 95.8572 87.3662 95.2873 87.4486C94.7174 87.5311 94.1701 87.7271 93.6783 88.0249C93.1829 88.3062 92.7508 88.6854 92.4086 89.1391C92.0664 89.5928 91.8213 90.1115 91.6885 90.663C91.5415 91.2166 91.5085 91.7939 91.5915 92.3605C91.6744 92.927 91.8716 93.4711 92.1712 93.9601C92.4563 94.4507 92.8384 94.879 93.2945 95.2189C93.7506 95.5589 94.2712 95.8035 94.8249 95.9381C95.1777 96.0369 95.5444 96.0772 95.9104 96.0575C96.6952 96.0647 97.467 95.8574 98.1414 95.4583C98.635 95.1748 99.0658 94.7949 99.4078 94.3416C99.7497 93.8882 99.9958 93.3707 100.131 92.8202C100.416 91.7075 100.246 90.528 99.6585 89.5395C99.071 88.551 98.1137 87.834 96.9959 87.5451H96.9948Z" fill="white"/>
<path d="M83.4279 87.1873C82.752 87.0064 82.0468 86.9609 81.3531 87.0535C80.6594 87.1462 79.9912 87.375 79.3873 87.7268C78.1675 88.4423 77.2796 89.6057 76.9149 90.9662C76.7329 91.638 76.6872 92.3392 76.7804 93.0288C76.8736 93.7184 77.1038 94.3827 77.4576 94.983C78.1773 96.1956 79.3477 97.0783 80.7162 97.4408C81.1474 97.5592 81.5926 97.6198 82.04 97.621C82.9927 97.6242 83.9292 97.3758 84.7537 96.9013C85.3575 96.5544 85.8832 96.0878 86.2982 95.5306C86.7132 94.9734 87.0086 94.3373 87.166 93.6619C87.348 92.9901 87.3937 92.2889 87.3006 91.5993C87.2074 90.9097 86.9772 90.2454 86.6233 89.6451C85.9147 88.4487 84.7707 87.5687 83.4279 87.1873Z" fill="white"/>
<path d="M69.2582 78.6753C67.5404 78.243 65.7204 78.5016 64.1933 79.3951C63.4265 79.8282 62.7578 80.4137 62.2287 81.115C61.6996 81.8164 61.3215 82.6186 61.118 83.4716C60.683 85.1793 60.9432 86.9886 61.842 88.5068C62.277 89.2695 62.8655 89.935 63.5707 90.4617C64.2758 90.9884 65.0826 91.365 65.9407 91.568C66.4934 91.7065 67.0593 91.7869 67.629 91.8079C68.8248 91.8234 69.9988 91.4897 71.0056 90.8482C71.7724 90.4151 72.4411 89.8296 72.9702 89.1283C73.4993 88.4269 73.8774 87.6247 74.0809 86.7717C74.5158 85.064 74.2556 83.2547 73.3569 81.7365C72.4407 80.2272 70.9715 79.1299 69.2582 78.6753Z" fill="white"/>
</svg>
