<svg width="299" height="124" viewBox="0 0 299 124" fill="none" xmlns="http://www.w3.org/2000/svg">
<g clip-path="url(#clip0_2688_1065)">
<path fill-rule="evenodd" clip-rule="evenodd" d="M198.358 86.6548V49.7748C198.358 48.6881 199.247 47.8008 200.335 47.8008H224.551C231.398 47.8008 237 53.3942 237 60.2299V76.1974C237 83.0332 231.398 88.6266 224.551 88.6266H200.335C199.249 88.6266 198.358 87.7371 198.358 86.6526V86.6548ZM101.037 88.6288H91.4491C84.6024 88.6288 79 83.0353 79 76.1996V49.7748C79 48.6881 79.8888 47.8008 80.9772 47.8008H85.6931C86.7793 47.8008 87.6681 48.6881 87.6681 49.7748V70.4747V76.1996C87.6681 78.2745 89.3709 79.9746 91.4513 79.9746H96.2461H109.07C110.157 79.9746 111.048 80.8619 111.048 81.9486V86.6548C111.048 87.7393 110.159 88.6288 109.07 88.6288H101.039H101.037ZM154.539 86.6548V49.7748C154.539 48.6881 155.428 47.8008 156.517 47.8008H180.732C187.579 47.8008 193.181 53.3942 193.181 60.2299V76.1974C193.181 83.0332 187.579 88.6266 180.732 88.6266H156.517C155.428 88.6266 154.539 87.7371 154.539 86.6526V86.6548ZM163.207 56.455V79.9746H180.732C182.813 79.9746 184.513 78.2766 184.513 76.1996V60.2321C184.513 58.1551 182.81 56.4572 180.732 56.4572H163.207V56.455ZM207.026 56.455V79.9746H224.551C226.631 79.9746 228.334 78.2766 228.334 76.1996V60.2321C228.334 58.1551 226.631 56.4572 224.551 56.4572H207.026V56.455Z" fill="white"/>
<path fill-rule="evenodd" clip-rule="evenodd" d="M126.754 21C128.202 21 129.42 21.9684 129.8 23.2939C128.931 23.7299 127.882 23.9862 126.754 23.9862C125.626 23.9862 124.577 23.7299 123.708 23.2939C124.083 21.9684 125.303 21 126.754 21ZM102.968 25.257C106.137 26.1575 110.537 26.3897 113.728 26.3897H124.085C124.219 27.3165 124.353 29.7418 124.487 30.6664H129.029C129.163 29.7418 129.297 27.3143 129.431 26.3897H139.921C143.002 26.3897 147.415 26.1312 150.535 25.2548C142.784 22.9105 137.379 24.6128 130.015 24.6326C128.999 24.924 127.902 25.0839 126.76 25.0839C125.619 25.0839 124.562 24.9305 123.561 24.6501C116.152 24.6698 110.829 22.882 102.97 25.2592L102.968 25.257Z" fill="white"/>
<path fill-rule="evenodd" clip-rule="evenodd" d="M106.574 45.9155L117.92 34.5884C119.68 32.8313 121.843 31.7117 124.121 31.2275L124.88 40.1096C124.588 40.2739 124.316 40.4798 124.068 40.7252L112.723 52.0523C111.248 53.5246 111.248 55.9369 112.723 57.4092L124.068 68.7363C125.543 70.2086 127.959 70.2086 129.436 68.7363L140.781 57.4092C142.256 55.9369 142.256 53.5246 140.781 52.0523L129.436 40.7252C129.188 40.4777 128.914 40.2739 128.624 40.1096L129.383 31.2275C131.661 31.7117 133.825 32.8313 135.585 34.5884L146.93 45.9155C151.789 50.7641 151.789 58.6996 146.93 63.5504L135.585 74.8775C130.729 79.7282 122.78 79.7282 117.922 74.8775L106.576 63.5504C101.718 58.7018 101.718 50.7663 106.576 45.9155H106.574Z" fill="white"/>
<path fill-rule="evenodd" clip-rule="evenodd" d="M84.9228 100.832H81.1681L80.4176 102.889H79L82.149 94.3816H83.9375L87.1019 102.889H85.6887L84.9184 100.832H84.9228ZM88.3813 94.3816H89.7418V99.8939C89.7418 100.185 89.7418 100.639 89.8164 100.919C89.8559 101.066 89.9261 101.2 90.0403 101.305C90.1588 101.414 90.3036 101.485 90.4616 101.526C90.7337 101.598 91.1572 101.596 91.4381 101.596H92.2852C92.5704 101.596 92.9962 101.596 93.2705 101.526C93.4285 101.485 93.5711 101.414 93.694 101.305C93.8059 101.204 93.8696 101.07 93.9069 100.928C93.9815 100.639 93.9793 100.192 93.9793 99.8939V94.3816H95.3398V100.001C95.3398 100.766 95.2323 101.741 94.6639 102.311C94.0912 102.88 93.1147 102.988 92.3488 102.988H91.3745C90.6086 102.988 89.6321 102.88 89.0593 102.311C88.4888 101.741 88.3834 100.764 88.3834 100.001V94.3816H88.3813ZM100.409 95.6961V102.889H99.0484V95.6961H96.4875V94.3816H102.981V95.6961H100.409ZM103.951 97.2714C103.951 96.4936 104.065 95.523 104.662 94.9534C105.263 94.3816 106.299 94.2808 107.089 94.2808H108.105C108.888 94.2808 109.942 94.3728 110.541 94.9446C111.133 95.5099 111.243 96.5002 111.243 97.2714V99.9969C111.243 100.775 111.129 101.752 110.53 102.317C109.929 102.887 108.893 102.988 108.105 102.988H107.089C106.301 102.988 105.265 102.889 104.662 102.317C104.065 101.75 103.951 100.775 103.951 99.9969V97.2714ZM119.042 100.965V94.3794H120.392V102.887H118.656L114.651 96.292V102.887H113.301V94.3794H115.037L119.042 100.965ZM122.468 97.2714C122.468 96.4936 122.582 95.523 123.179 94.9534C123.78 94.3816 124.816 94.2808 125.606 94.2808H126.622C127.405 94.2808 128.458 94.3728 129.057 94.9446C129.65 95.5099 129.76 96.5002 129.76 97.2714V99.9969C129.76 100.775 129.646 101.752 129.047 102.317C128.445 102.887 127.409 102.988 126.622 102.988H125.606C124.818 102.988 123.78 102.889 123.179 102.317C122.582 101.75 122.468 100.775 122.468 99.9969V97.2714ZM136.273 101.134L138.849 94.3794H140.717V102.887H139.367V96.6163L136.977 102.887H135.56L133.168 96.6163V102.887H131.818V94.3794H133.672L136.273 101.134ZM142.782 97.2714C142.782 96.4936 142.896 95.523 143.493 94.9534C144.094 94.3816 145.13 94.2808 145.917 94.2808H146.933C147.719 94.2808 148.772 94.3728 149.369 94.9446C149.962 95.5099 150.071 96.5002 150.071 97.2714V99.9969C150.071 100.775 149.957 101.752 149.358 102.317C148.757 102.887 147.721 102.988 146.933 102.988H145.917C145.13 102.988 144.094 102.889 143.493 102.317C142.896 101.75 142.782 100.775 142.782 99.9969V97.2714ZM152.053 94.3816H153.414V99.8939C153.414 100.185 153.414 100.639 153.488 100.919C153.528 101.066 153.598 101.2 153.712 101.305C153.831 101.414 153.975 101.485 154.131 101.526C154.403 101.598 154.827 101.596 155.108 101.596H155.955C156.24 101.596 156.666 101.596 156.94 101.526C157.098 101.485 157.241 101.414 157.364 101.305C157.476 101.204 157.539 101.07 157.576 100.928C157.653 100.639 157.651 100.192 157.651 99.8939V94.3816H159.012V100.001C159.012 100.766 158.906 101.741 158.336 102.311C157.763 102.88 156.786 102.988 156.021 102.988H155.044C154.278 102.988 153.302 102.88 152.731 102.311C152.161 101.741 152.055 100.764 152.055 100.001V94.3816H152.053ZM161.035 99.8063H162.395V100.19C162.395 100.485 162.404 100.895 162.494 101.178C162.538 101.318 162.613 101.454 162.744 101.528C162.876 101.603 163.109 101.636 163.258 101.653C163.776 101.712 164.384 101.697 164.904 101.697C165.224 101.697 165.604 101.688 165.918 101.616C166.076 101.579 166.251 101.513 166.365 101.393C166.413 101.34 166.444 101.211 166.457 101.141C166.497 100.93 166.501 100.694 166.501 100.479C166.501 100.291 166.49 99.6507 166.37 99.4974C166.264 99.3637 165.972 99.3243 165.819 99.3112L163.332 99.1162C162.753 99.0702 162.047 98.9343 161.638 98.483C161.23 98.0338 161.149 97.3218 161.149 96.7434C161.149 96.3512 161.178 95.9152 161.3 95.5406C161.406 95.2273 161.577 94.9534 161.823 94.7321C162.04 94.5371 162.327 94.4298 162.613 94.3728C163.089 94.2742 163.721 94.2786 164.208 94.2786H164.496C165.042 94.2786 165.762 94.2786 166.295 94.4057C166.642 94.4867 166.966 94.6313 167.239 94.8636C167.445 95.0366 167.574 95.2711 167.653 95.5274C167.748 95.8341 167.774 96.1737 167.774 96.4914C167.774 96.5747 167.774 96.6557 167.77 96.739C167.77 96.7916 167.767 96.8464 167.761 96.8989L167.743 97.1115H166.403V96.6798C166.403 96.4827 166.398 96.246 166.356 96.051C166.341 95.9787 166.308 95.8736 166.253 95.8166C166.152 95.7158 165.915 95.6676 165.782 95.6457C165.297 95.569 164.675 95.58 164.184 95.58C163.888 95.58 163.008 95.5953 162.773 95.8013C162.558 95.9919 162.532 96.4892 162.532 96.7521C162.532 96.9669 162.549 97.3853 162.69 97.5628C162.819 97.7249 163.142 97.7731 163.33 97.7885L165.867 97.9988C166.416 98.0448 167.041 98.1916 167.416 98.6254C167.798 99.0658 167.873 99.7603 167.873 100.321C167.873 100.716 167.86 101.184 167.761 101.568C167.688 101.848 167.563 102.109 167.368 102.326C167.127 102.595 166.815 102.764 166.468 102.856C165.939 102.998 165.152 102.998 164.603 102.998H164.201C163.706 102.998 163.054 102.996 162.571 102.878C162.244 102.797 161.946 102.657 161.702 102.433C161.452 102.219 161.289 101.938 161.189 101.627C161.068 101.248 161.033 100.825 161.033 100.431V99.8041L161.035 99.8063ZM175.077 101.585H179.644V102.889H173.739V94.3816H175.077V101.585ZM180.936 97.2714C180.936 96.4936 181.05 95.523 181.647 94.9534C182.249 94.3816 183.284 94.2808 184.074 94.2808H185.09C185.874 94.2808 186.927 94.3728 187.526 94.9446C188.119 95.5099 188.228 96.5002 188.228 97.2714V99.9969C188.228 100.775 188.114 101.752 187.515 102.317C186.914 102.887 185.878 102.988 185.09 102.988H184.074C183.287 102.988 182.251 102.889 181.647 102.317C181.05 101.75 180.936 100.775 180.936 99.9969V97.2714ZM195.883 99.7011H193.644V98.4194H197.265V99.9991C197.265 100.777 197.151 101.752 196.554 102.317C195.953 102.887 194.919 102.988 194.132 102.988H193.107C192.321 102.988 191.285 102.887 190.684 102.317C190.087 101.75 189.973 100.775 189.973 99.9991V97.2692C189.973 96.4914 190.089 95.523 190.684 94.9534C191.283 94.3816 192.319 94.2808 193.107 94.2808H194.132C194.891 94.2808 195.826 94.3728 196.462 94.8307C197.05 95.2514 197.265 95.8911 197.265 96.5944V97.1662H195.883V96.8376C195.883 96.509 195.83 96.0795 195.549 95.8626C195.222 95.6107 194.469 95.5844 194.079 95.5844H193.37C193.028 95.5844 192.567 95.5866 192.236 95.6698C192.042 95.718 191.865 95.8013 191.713 95.9284C191.582 96.0401 191.503 96.1847 191.456 96.349C191.369 96.6579 191.371 97.1684 191.371 97.4905V99.7822C191.371 100.104 191.371 100.61 191.456 100.919C191.503 101.084 191.582 101.228 191.713 101.338C191.862 101.465 192.036 101.548 192.227 101.596C192.552 101.682 193.034 101.682 193.37 101.682H194.079C194.382 101.682 194.814 101.682 195.11 101.607C195.281 101.563 195.437 101.489 195.569 101.379C195.69 101.276 195.762 101.141 195.804 100.992C195.885 100.707 195.885 100.258 195.885 99.9619V99.6968L195.883 99.7011ZM199.253 102.889V94.3816H200.614V102.889H199.253ZM202.712 99.8063H204.072V100.19C204.072 100.485 204.081 100.895 204.171 101.178C204.215 101.318 204.29 101.454 204.421 101.528C204.553 101.603 204.786 101.636 204.935 101.653C205.45 101.712 206.061 101.697 206.581 101.697C206.901 101.697 207.281 101.688 207.594 101.616C207.752 101.579 207.928 101.513 208.042 101.393C208.09 101.34 208.123 101.211 208.134 101.141C208.174 100.93 208.178 100.694 208.178 100.479C208.178 100.291 208.167 99.6507 208.047 99.4974C207.941 99.3637 207.649 99.3243 207.496 99.3112L205.009 99.1162C204.43 99.0702 203.723 98.9343 203.313 98.483C202.905 98.0338 202.824 97.3218 202.824 96.7434C202.824 96.3512 202.852 95.9152 202.975 95.5406C203.078 95.2273 203.249 94.9534 203.497 94.7321C203.715 94.5371 204.002 94.4298 204.285 94.3728C204.764 94.2742 205.393 94.2786 205.881 94.2786H206.168C206.714 94.2786 207.434 94.2786 207.967 94.4057C208.314 94.4867 208.637 94.6313 208.911 94.8636C209.117 95.0366 209.247 95.2711 209.326 95.5274C209.42 95.8341 209.447 96.1737 209.447 96.4914C209.447 96.5747 209.447 96.6557 209.442 96.739C209.442 96.7916 209.438 96.8464 209.433 96.8989L209.416 97.1115H208.075V96.6798C208.075 96.4827 208.071 96.246 208.029 96.051C208.014 95.9787 207.981 95.8736 207.926 95.8166C207.825 95.7158 207.588 95.6676 207.454 95.6457C206.969 95.569 206.348 95.58 205.856 95.58C205.56 95.58 204.68 95.5953 204.443 95.8013C204.228 95.9919 204.202 96.4892 204.202 96.7521C204.202 96.9669 204.219 97.3853 204.36 97.5628C204.489 97.7249 204.812 97.7731 205.001 97.7885L207.537 97.9988C208.088 98.0448 208.711 98.1916 209.089 98.6254C209.471 99.0658 209.543 99.7603 209.543 100.321C209.543 100.716 209.53 101.184 209.433 101.568C209.361 101.848 209.236 102.109 209.041 102.326C208.799 102.595 208.488 102.764 208.141 102.856C207.612 102.998 206.822 102.998 206.276 102.998H205.874C205.378 102.998 204.726 102.996 204.244 102.878C203.917 102.797 203.618 102.657 203.375 102.433C203.124 102.219 202.962 101.938 202.861 101.627C202.74 101.248 202.705 100.825 202.705 100.431V99.8041L202.712 99.8063ZM214.494 95.6961V102.889H213.133V95.6961H210.572V94.3816H217.066V95.6961H214.494ZM218.29 102.889V94.3816H219.651V102.889H218.29ZM221.716 97.2692C221.716 96.5111 221.817 95.5274 222.374 94.9556C222.931 94.3859 223.879 94.2808 224.634 94.2808H225.576C226.296 94.2808 227.25 94.3662 227.818 94.8592C228.367 95.3368 228.499 96.1146 228.499 96.8047V97.3875H227.116V96.9362C227.116 96.6141 227.081 96.0949 226.82 95.8604C226.541 95.6107 225.861 95.5844 225.512 95.5844H224.889C224.588 95.5844 224.176 95.5866 223.886 95.6654C223.715 95.7115 223.559 95.7903 223.43 95.9108C223.304 96.0291 223.225 96.1759 223.182 96.3403C223.096 96.6514 223.1 97.1706 223.1 97.4927V99.7822C223.1 100.106 223.096 100.619 223.182 100.93C223.225 101.095 223.304 101.241 223.43 101.36C223.557 101.478 223.706 101.559 223.873 101.607C224.154 101.686 224.597 101.688 224.889 101.688H225.512C225.861 101.688 226.565 101.662 226.838 101.401C227.101 101.149 227.134 100.558 227.134 100.22C227.134 100.146 227.134 100.069 227.129 99.9969C227.129 99.9487 227.127 99.9027 227.123 99.8567L227.103 99.6069H228.499V100.367C228.499 101.064 228.387 101.912 227.84 102.407C227.281 102.911 226.296 102.992 225.578 102.992H224.636C223.882 102.992 222.934 102.885 222.376 102.315C221.817 101.743 221.718 100.759 221.718 100.001V97.2736L221.716 97.2692ZM230.156 99.8041H231.516V100.188C231.516 100.483 231.525 100.893 231.615 101.176C231.659 101.316 231.733 101.452 231.865 101.526C231.997 101.601 232.229 101.634 232.379 101.651C232.896 101.71 233.504 101.695 234.024 101.695C234.345 101.695 234.724 101.686 235.038 101.614C235.196 101.577 235.372 101.511 235.486 101.39C235.534 101.338 235.565 101.208 235.578 101.138C235.618 100.928 235.622 100.691 235.622 100.477C235.622 100.288 235.611 99.6486 235.49 99.4952C235.385 99.3615 235.093 99.3221 234.939 99.309L232.453 99.114C231.874 99.068 231.167 98.9321 230.759 98.4808C230.351 98.0317 230.27 97.3196 230.27 96.7412C230.27 96.349 230.298 95.913 230.421 95.5384C230.526 95.2251 230.698 94.9512 230.943 94.7299C231.161 94.5349 231.448 94.4276 231.731 94.3706C232.21 94.272 232.839 94.2764 233.327 94.2764H233.614C234.16 94.2764 234.88 94.2764 235.413 94.4035C235.76 94.4845 236.085 94.6291 236.357 94.8614C236.563 95.0345 236.693 95.2689 236.774 95.5252C236.868 95.832 236.895 96.1715 236.895 96.4892C236.895 96.5725 236.895 96.6536 236.89 96.7368C236.89 96.7894 236.886 96.8442 236.882 96.8967L236.864 97.1093H235.523V96.6777C235.523 96.4805 235.519 96.2439 235.477 96.0489C235.462 95.9766 235.429 95.8714 235.374 95.8144C235.273 95.7136 235.038 95.6654 234.902 95.6435C234.417 95.5669 233.796 95.5778 233.305 95.5778C233.008 95.5778 232.128 95.5931 231.894 95.7991C231.676 95.9897 231.652 96.487 231.652 96.75C231.652 96.9647 231.67 97.3831 231.81 97.5606C231.94 97.7227 232.262 97.7709 232.451 97.7863L234.988 97.9966C235.539 98.0426 236.162 98.1894 236.539 98.6232C236.921 99.0636 236.996 99.7581 236.996 100.319C236.996 100.713 236.982 101.182 236.884 101.566C236.811 101.846 236.686 102.107 236.491 102.324C236.25 102.593 235.938 102.762 235.591 102.854C235.062 102.996 234.272 102.996 233.726 102.996H233.324C232.828 102.996 232.177 102.994 231.694 102.876C231.367 102.795 231.068 102.655 230.825 102.431C230.575 102.216 230.412 101.936 230.311 101.625C230.191 101.246 230.156 100.823 230.156 100.429V99.8019V99.8041ZM81.6311 99.5697H84.4598L83.04 95.7443L81.6333 99.5697H81.6311ZM107.835 95.5822H107.337C107.001 95.5822 106.521 95.5822 106.194 95.6676C106.003 95.7158 105.829 95.7991 105.68 95.9262C105.544 96.0423 105.465 96.1978 105.419 96.3665C105.331 96.682 105.329 97.1728 105.329 97.4993V99.7778C105.329 100.1 105.329 100.591 105.417 100.902C105.465 101.07 105.544 101.224 105.678 101.338C105.827 101.465 106.003 101.548 106.191 101.596C106.516 101.682 106.999 101.682 107.335 101.682H107.833C108.173 101.682 108.654 101.682 108.983 101.596C109.174 101.548 109.351 101.465 109.501 101.338C109.63 101.228 109.709 101.079 109.755 100.917C109.843 100.608 109.841 100.102 109.841 99.78V97.4905C109.841 97.1618 109.841 96.6711 109.751 96.3556C109.705 96.1869 109.623 96.0313 109.49 95.9174C109.343 95.7925 109.169 95.7115 108.983 95.6633C108.658 95.58 108.169 95.5822 107.833 95.5822H107.835ZM126.352 95.5822H125.854C125.518 95.5822 125.037 95.5822 124.712 95.6676C124.522 95.7158 124.348 95.7991 124.197 95.9262C124.061 96.0423 123.982 96.1978 123.936 96.3665C123.848 96.682 123.846 97.1728 123.846 97.4993V99.7778C123.846 100.1 123.846 100.591 123.933 100.902C123.982 101.07 124.061 101.224 124.197 101.338C124.346 101.465 124.522 101.548 124.712 101.596C125.037 101.682 125.52 101.682 125.854 101.682H126.352C126.692 101.682 127.172 101.682 127.502 101.596C127.693 101.548 127.87 101.465 128.02 101.338C128.149 101.228 128.228 101.079 128.274 100.917C128.362 100.608 128.36 100.102 128.36 99.78V97.4905C128.36 97.1618 128.36 96.6711 128.27 96.3556C128.224 96.1869 128.142 96.0313 128.009 95.9174C127.862 95.7925 127.688 95.7115 127.502 95.6633C127.177 95.58 126.687 95.5822 126.352 95.5822ZM146.666 95.5822H146.168C145.832 95.5822 145.351 95.5822 145.024 95.6676C144.833 95.7158 144.66 95.7991 144.511 95.9262C144.375 96.0423 144.296 96.1978 144.25 96.3665C144.162 96.682 144.16 97.1728 144.16 97.4993V99.7778C144.16 100.1 144.16 100.591 144.247 100.902C144.296 101.07 144.375 101.224 144.511 101.338C144.66 101.465 144.836 101.548 145.024 101.596C145.349 101.682 145.832 101.682 146.168 101.682H146.666C147.006 101.682 147.486 101.682 147.816 101.596C148.007 101.548 148.184 101.465 148.333 101.338C148.463 101.228 148.542 101.079 148.588 100.917C148.676 100.608 148.674 100.102 148.674 99.78V97.4905C148.674 97.1618 148.674 96.6711 148.584 96.3556C148.538 96.1869 148.456 96.0313 148.323 95.9174C148.175 95.7925 148.002 95.7115 147.816 95.6633C147.491 95.58 147.001 95.5822 146.666 95.5822ZM184.821 95.5822H184.322C183.987 95.5822 183.506 95.5822 183.181 95.6676C182.99 95.7158 182.817 95.7991 182.666 95.9262C182.529 96.0423 182.451 96.1978 182.404 96.3665C182.317 96.682 182.314 97.1728 182.314 97.4993V99.7778C182.314 100.1 182.314 100.591 182.402 100.902C182.451 101.07 182.529 101.224 182.666 101.338C182.815 101.465 182.99 101.548 183.181 101.596C183.506 101.682 183.989 101.682 184.322 101.682H184.821C185.161 101.682 185.641 101.682 185.97 101.596C186.161 101.548 186.339 101.465 186.488 101.338C186.618 101.228 186.697 101.079 186.743 100.917C186.831 100.608 186.828 100.102 186.828 99.78V97.4905C186.828 97.1618 186.828 96.6711 186.738 96.3556C186.692 96.1869 186.611 96.0313 186.477 95.9174C186.33 95.7925 186.157 95.7115 185.97 95.6633C185.646 95.58 185.156 95.5822 184.821 95.5822Z" fill="white"/>
</g>
<defs>
<clipPath id="clip0_2688_1065">
<rect width="158" height="82" fill="white" transform="translate(79 21)"/>
</clipPath>
</defs>
</svg>
