<svg width="299" height="124" viewBox="0 0 299 124" fill="none" xmlns="http://www.w3.org/2000/svg">
<path d="M128.608 60.8488H123.384C122.935 53.4125 117.947 47.131 111.116 44.6368L112.842 42.951L111.258 41.4037L109.532 43.0895C106.979 36.3923 100.574 31.5425 92.9385 31.1038V26H90.693V31.1038C83.0816 31.5425 76.6522 36.4154 74.0993 43.0895L72.3737 41.4037L70.79 42.951L72.5156 44.6368C65.6606 47.131 60.6967 53.3894 60.2476 60.8488H55V63.0427H60.2239C60.6731 70.479 65.6606 76.7605 72.4919 79.2547L70.7664 80.9405L72.3501 82.4878L74.0756 80.802C76.6285 87.4992 83.0343 92.3489 90.6693 92.7877V97.8915H92.9149V92.7877C100.526 92.3489 106.956 87.4761 109.509 80.802L111.234 82.4878L112.818 80.9405L111.092 79.2547C117.947 76.7605 122.911 70.5021 123.36 63.0427H128.584V60.8488H128.608ZM120.547 60.8488H119.744L110.549 51.8652C110.643 51.1031 110.714 50.3179 110.714 49.5327C110.714 48.7937 110.667 48.0778 110.572 47.385C116.127 49.602 120.122 54.752 120.571 60.8488H120.547ZM106.719 43.6207C105.987 43.5283 105.254 43.4821 104.521 43.4821C103.717 43.4821 102.914 43.5283 102.134 43.6438L92.9385 34.6602V33.875C99.1789 34.2907 104.45 38.2167 106.719 43.6438V43.6207ZM90.6693 33.8519V34.6371L81.4742 43.6207C80.6942 43.5283 79.8905 43.459 79.0868 43.459C78.3304 43.459 77.5977 43.5052 76.8885 43.5976C79.1578 38.1705 84.429 34.2676 90.6693 33.8289V33.8519ZM73.0356 47.385C72.941 48.1009 72.8938 48.8168 72.8938 49.5327C72.8938 50.3179 72.941 51.1031 73.0592 51.8652L63.8641 60.8488H63.0605C63.4859 54.752 67.5044 49.602 73.0592 47.385H73.0356ZM63.0368 63.0427H63.8405L73.0356 72.0263C72.941 72.7884 72.8701 73.5736 72.8701 74.3587C72.8701 75.0978 72.9174 75.8137 73.0119 76.5065C67.4571 74.2895 63.4623 69.1395 63.0132 63.0427H63.0368ZM76.8885 80.2939C77.6213 80.3863 78.3541 80.4325 79.0868 80.4325C79.8905 80.4325 80.6942 80.3863 81.4742 80.2708L90.6693 89.2543V90.0395C84.429 89.6239 79.1578 85.6979 76.8885 80.2708V80.2939ZM92.9149 90.0395V89.2543L102.11 80.2708C102.89 80.3632 103.694 80.4325 104.497 80.4325C105.254 80.4325 105.987 80.3863 106.696 80.2939C104.426 85.721 99.1553 89.6238 92.9149 90.0626V90.0395ZM105.23 73.5274C104.734 74.0816 104.214 74.5897 103.646 75.0747L106.223 77.5919C105.656 77.6612 105.088 77.6843 104.521 77.6843C103.174 77.6843 101.85 77.5226 100.597 77.1993C99.3916 77.869 98.0916 78.4002 96.7442 78.7697C97.6188 79.1623 98.5407 79.4856 99.4862 79.7396L92.9385 86.1367V79.3932C92.5603 79.3932 92.2058 79.4394 91.8276 79.4394C91.4494 79.4394 91.0712 79.4394 90.7166 79.3932V86.1367L84.1689 79.7396C85.1145 79.4856 86.0363 79.1623 86.9109 78.7697C85.5636 78.4002 84.2635 77.869 83.058 77.1993C81.8052 77.4995 80.4815 77.6843 79.1341 77.6843C78.5668 77.6843 77.9759 77.6612 77.4322 77.5919L80.0087 75.0747C79.4414 74.5897 78.9214 74.0816 78.425 73.5274L75.8485 76.0446C75.7776 75.4904 75.7539 74.9361 75.7539 74.3818C75.7539 73.0655 75.9194 71.7722 76.2503 70.5482C75.5648 69.3704 75.0212 68.1003 74.6429 66.7839C74.2411 67.6384 73.9102 68.5391 73.6502 69.4628L67.1025 63.0658H74.0047C74.0047 62.6963 73.9575 62.3499 73.9575 61.9804C73.9575 61.6109 73.9575 61.2414 74.0047 60.895H67.1025L73.6502 54.4979C73.9102 55.4217 74.2411 56.3224 74.6429 57.1768C75.0212 55.8605 75.5648 54.5903 76.2503 53.4125C75.943 52.1885 75.7539 50.8953 75.7539 49.5789C75.7539 49.0247 75.7776 48.4473 75.8485 47.9162L78.425 50.4334C78.9214 49.8792 79.4414 49.3711 80.0087 48.8861L77.4322 46.3689C77.9995 46.2996 78.5668 46.2765 79.1341 46.2765C80.4815 46.2765 81.8052 46.4382 83.058 46.7615C84.2635 46.0917 85.5636 45.5606 86.9109 45.1911C86.0363 44.7985 85.1145 44.4752 84.1689 44.2211L90.7166 37.8241V44.5675C91.0948 44.5675 91.4494 44.5214 91.8276 44.5214C92.2058 44.5214 92.584 44.5214 92.9385 44.5675V37.8241L99.4862 44.2211C98.5407 44.4752 97.6188 44.7985 96.7442 45.1911C98.1152 45.5606 99.3916 46.0917 100.597 46.7615C101.85 46.4612 103.174 46.2765 104.521 46.2765C105.088 46.2765 105.679 46.2996 106.223 46.3689L103.646 48.8861C104.214 49.3711 104.734 49.8792 105.23 50.4334L107.807 47.9162C107.878 48.4704 107.901 49.0247 107.901 49.5789C107.901 50.8953 107.736 52.1885 107.405 53.4125C108.09 54.5903 108.634 55.8605 109.012 57.1768C109.414 56.3224 109.745 55.4217 110.005 54.4979L116.553 60.895H109.65C109.65 61.2645 109.698 61.6109 109.698 61.9804C109.698 62.3499 109.698 62.7194 109.65 63.0658H116.553L110.005 69.4628C109.745 68.5391 109.414 67.6384 109.012 66.7839C108.634 68.1003 108.09 69.3704 107.405 70.5482C107.712 71.7722 107.901 73.0655 107.901 74.3818C107.901 74.9361 107.878 75.5134 107.807 76.0446L105.23 73.5274ZM110.572 76.5065C110.667 75.7906 110.714 75.0747 110.714 74.3587C110.714 73.5736 110.667 72.7884 110.549 72.0263L119.744 63.0427H120.547C120.122 69.1395 116.104 74.2895 110.549 76.5065H110.572ZM81.6397 64.7978C82.8216 61.7033 84.7363 58.8858 87.2182 56.6226C88.211 56.9921 89.1565 57.454 90.0547 57.9851C90.0311 57.9851 90.0075 58.0313 89.9838 58.0544C86.84 60.664 84.6181 64.2205 83.6726 68.1234C83.5544 68.1234 83.4362 68.1465 83.3416 68.1696C82.5852 67.1996 82.0179 66.0218 81.6633 64.8209L81.6397 64.7978ZM85.4927 54.013C85.4927 54.013 85.469 53.782 85.4454 53.6666C86.4618 52.9276 87.6201 52.3733 88.8492 52.0269C92.0167 53.1816 94.9241 55.0522 97.2642 57.4771C96.886 58.447 96.4133 59.3708 95.8696 60.2483C95.8223 60.2022 95.7751 60.156 95.7514 60.1098C93.0804 57.0614 89.4638 54.9136 85.4927 54.0361V54.013ZM101.968 59.0705C100.786 62.1651 98.8716 65.0057 96.3897 67.292C95.3969 66.9225 94.4514 66.4606 93.5531 65.9295C93.6004 65.8833 93.6477 65.8602 93.695 65.814C96.8151 63.2044 99.0134 59.671 99.9353 55.7681C100.053 55.7681 100.172 55.745 100.266 55.7219C101.023 56.715 101.614 57.8466 101.968 59.0475V59.0705ZM98.1152 69.9016C98.1152 69.9016 98.1388 70.1326 98.1625 70.2249C97.1461 70.9639 96.0114 71.5182 94.7586 71.8877C91.5912 70.733 88.6838 68.8624 86.3436 66.4375C86.7218 65.4907 87.1946 64.5438 87.7382 63.6662C87.7855 63.7124 87.8328 63.7586 87.8801 63.8279C90.5511 66.8532 94.1677 69.0009 98.1152 69.9016ZM78.425 54.0823C78.425 54.0823 78.425 54.1977 78.425 54.2439C78.6141 55.8836 78.9686 57.5002 79.4887 59.0475C79.2523 59.9943 79.1341 60.9643 79.1341 61.9342C79.1341 62.9041 79.2523 63.8741 79.4887 64.844C79.9614 66.7377 80.8833 68.516 82.1597 69.9709L82.3961 70.248H82.7743C83.5307 70.1556 84.3108 70.0402 85.0908 69.9016C85.5872 69.8092 86.1072 69.6707 86.6273 69.5321C87.5019 70.2711 88.471 70.9639 89.4874 71.5875C86.8164 72.6498 84.0035 73.1579 81.1433 73.1579C77.9759 70.2711 76.1321 66.2066 76.1321 61.9573C76.1321 59.186 76.9122 56.4609 78.3777 54.0823H78.425ZM105.183 69.8323C105.183 69.6245 105.136 69.3935 105.112 69.1857C104.923 67.7077 104.568 66.2528 104.096 64.844C104.332 63.8972 104.45 62.9272 104.45 61.9573C104.45 59.0244 103.363 56.1838 101.424 53.9437L101.188 53.6666H100.81C99.5098 53.782 98.2098 54.0361 96.957 54.4056C96.0824 53.6666 95.1368 52.9737 94.1204 52.3502C96.7442 51.3341 99.5807 50.7798 102.346 50.7798H102.465C105.632 53.6666 107.452 57.7311 107.452 61.9804C107.452 64.7517 106.672 67.4767 105.207 69.8554L105.183 69.8323ZM91.8039 46.6691C94.6405 46.6691 97.4297 47.4312 99.8644 48.863C98.1388 49.0478 96.4369 49.3942 94.7823 49.9253C94.6641 49.9022 94.5459 49.8792 94.4277 49.8561C90.5984 49.0709 86.58 50.0639 83.6016 52.5581L83.318 52.789V53.1585C83.4598 54.4056 83.6962 55.6757 84.0744 56.9228C83.318 57.8004 82.6089 58.7241 81.9706 59.7172C80.9069 57.1537 80.3633 54.4518 80.3633 51.6805V51.565C83.318 48.4704 87.4782 46.6922 91.8276 46.6691H91.8039ZM91.8039 77.2224C88.9674 77.2224 86.1782 76.4603 83.7671 75.0285C83.8853 75.0285 84.0035 75.0285 84.098 74.9823C85.729 74.7975 87.3128 74.4511 88.8492 73.9431C89.7947 74.174 90.7875 74.2895 91.7803 74.2895C94.7823 74.2895 97.7134 73.2271 99.9826 71.3334L100.266 71.1025V70.733C100.148 69.4628 99.9117 68.1927 99.5335 66.9687C100.29 66.1142 100.999 65.1674 101.637 64.1743C102.701 66.7377 103.245 69.4397 103.245 72.211V72.3496C100.29 75.4442 96.1296 77.2224 91.7803 77.2224H91.8039ZM245 79.5549V44.3597H237.649L226.728 59.0475L215.807 44.3597H208.456V79.5549H214.531V52.4426L224.364 65.583H229.092L238.925 52.4426V79.5549H245ZM201.199 60.156H182.691V50.0177H202.263V44.3366H176.616V79.4856H182.691V65.5599H201.199V60.1329V60.156ZM166.688 49.6713C165.27 48.0316 163.403 46.7153 161.086 45.7453C158.77 44.7754 156.075 44.2904 153.097 44.2904H139.032V79.4856H153.097C156.122 79.4856 158.841 78.9775 161.228 77.9614C163.592 76.9453 165.506 75.5827 166.925 73.8738C168.343 72.1648 169.407 70.248 170.116 68.1696C170.825 66.068 171.156 63.8741 171.132 61.5878C171.108 59.3477 170.707 57.1999 169.974 55.1908C169.241 53.1816 168.154 51.3341 166.736 49.6713H166.688ZM162.173 70.1787C160.164 72.6036 157.091 73.8276 153.073 73.8276H145.036V49.8792H153.073C156.926 49.8792 159.904 51.0338 161.913 53.2971C163.923 55.5372 164.986 58.3084 165.057 61.5416C165.128 64.8902 164.159 67.8001 162.173 70.2018V70.1787ZM142.743 99H143.878V97.6605H142.743V99ZM144.871 99H146.005V97.6605H144.871V99ZM154.964 90.64C154.964 91.3559 154.893 91.864 154.728 92.1642C154.491 92.603 154.042 92.8339 153.357 92.8339H152.293C151.087 92.8339 150.544 92.3028 149.953 90.8017C149.456 89.5315 148.085 88.5384 147.116 88.5384H146.265V89.5546C147.589 89.5546 148.369 90.2705 148.369 91.7023C148.369 93.596 146.478 95.3512 144.327 95.3512C141.75 95.3512 140.19 93.4805 140.19 90.64V89.2774H139.056V90.8478C139.056 94.0117 141.325 96.4597 144.28 96.4597C147.022 96.4597 149.409 94.3581 149.409 91.7254C149.764 93.0648 150.898 93.8731 152.34 93.8962H153.735C155.318 93.8962 156.099 92.9725 156.099 91.125V83.6887H154.964V90.64ZM174.158 90.64C174.158 91.3559 174.087 91.864 173.921 92.1642C173.685 92.603 173.236 92.8108 172.55 92.8108H169.879C169.974 92.4644 170.021 92.0949 170.021 91.7023C170.021 90.6631 169.737 89.8086 169.17 89.162C168.579 88.4922 167.728 88.1458 166.688 88.1458C165.648 88.1458 164.797 88.4692 164.183 89.162C163.592 89.8317 163.284 90.6862 163.284 91.7254C163.284 92.118 163.332 92.4875 163.403 92.8108C163.403 92.8108 160.873 92.8108 160.779 92.8108C160.353 92.7415 160.046 92.5799 159.857 92.3259C159.644 92.0025 159.526 91.4945 159.526 90.7555V83.7118H158.368V91.4021C158.368 92.2335 158.604 92.8801 159.053 93.3189C159.455 93.7115 159.951 93.9193 160.519 93.9193H163.875C164.466 94.8431 165.412 95.2819 166.641 95.2819C167.87 95.2819 168.745 94.82 169.359 93.9193H172.905C174.489 93.9193 175.269 92.9956 175.269 91.1481V83.7118H174.134V90.6631L174.158 90.64ZM166.665 94.2657C165.979 94.2657 165.435 94.0117 165.057 93.5036C164.75 93.0648 164.608 92.4875 164.608 91.7716C164.608 91.0095 164.75 90.409 165.057 89.9472C165.435 89.3929 166.003 89.1158 166.712 89.1158C167.421 89.1158 167.917 89.3698 168.248 89.8779C168.532 90.2936 168.674 90.8709 168.674 91.5868C168.674 93.3882 167.988 94.2888 166.641 94.2888L166.665 94.2657ZM177.443 93.8962H178.578V83.6887H177.443V93.8962ZM188.695 99H189.83V97.6605H188.695V99ZM186.568 99H187.702V97.6605H186.568V99ZM198.883 96.298H200.017V94.9586H198.883V96.298ZM198.883 90.64C198.883 91.3559 198.812 91.864 198.646 92.1642C198.41 92.603 197.961 92.8339 197.275 92.8339H196.117C194.912 92.8339 194.368 92.3028 193.777 90.8017C193.281 89.5315 191.91 88.5384 190.941 88.5384H190.09V89.5546C191.413 89.5546 192.193 90.2705 192.193 91.7023C192.193 93.596 190.302 95.3512 188.151 95.3512C185.575 95.3512 184.015 93.4805 184.015 90.64V89.2774H182.88V90.8478C182.88 94.0117 185.149 96.4597 188.104 96.4597C190.846 96.4597 193.233 94.3581 193.233 91.7254C193.612 93.0879 194.746 93.8962 196.235 93.8962H197.677C199.261 93.8962 200.041 92.9725 200.041 91.125V86.7371H198.906V90.64H198.883ZM202.688 86.714V87.7532H203.114C204.461 87.8225 205.454 88.3768 206.092 89.3929C206.636 90.2474 206.872 91.379 206.872 92.7877H200.892V93.8962H208.054C208.054 91.9332 207.818 90.4321 207.321 89.3698C206.494 87.6147 204.934 86.714 202.665 86.714H202.688ZM218.738 84.2661H217.58V85.6055H218.738V84.2661ZM219.259 86.4831C217.368 86.4831 216.233 87.7302 216.233 89.7624C216.233 90.7555 216.517 91.5637 217.084 92.1411C217.675 92.7184 218.408 93.0187 219.306 93.0187C220.133 93.0187 220.795 92.7415 221.268 92.1873C221.126 93.3189 220.63 94.1734 219.826 94.7276C219.14 95.1895 218.289 95.4435 217.273 95.4435C216.138 95.4435 215.169 95.0509 214.436 94.2426C213.704 93.4344 213.325 92.4182 213.325 91.125V88.5153H212.167V91.3328C212.167 92.857 212.664 94.1041 213.656 95.0509C214.649 96.0209 215.878 96.5059 217.344 96.5059C218.904 96.5059 220.157 96.0671 221.031 95.1664C221.93 94.2657 222.379 93.0418 222.379 91.4483V89.7162C222.379 87.6609 221.126 86.4831 219.259 86.4831ZM220.819 91.4021C220.464 91.9333 219.968 92.1642 219.306 92.1642C218.644 92.1642 218.148 91.8871 217.793 91.3328C217.509 90.894 217.368 90.3629 217.368 89.7162C217.368 89.1389 217.486 88.6077 217.746 88.1458C218.077 87.5685 218.549 87.2914 219.188 87.2914H219.353C220.039 87.2914 220.535 87.5685 220.866 88.1689C221.102 88.6077 221.244 89.162 221.244 89.8086C221.244 90.4552 221.102 90.9633 220.819 91.379V91.4021ZM220.842 84.2661H219.684V85.6055H220.842V84.2661ZM243.842 86.7371V90.64C243.842 92.3027 243.44 92.8108 242.234 92.8108H240.296C240.509 92.3951 240.603 91.8178 240.603 91.1481V86.7602H239.469V90.6631C239.469 92.3258 239.138 92.8339 238.098 92.8339H235.947C236.16 92.4182 236.254 91.8409 236.254 91.1712V86.7833H235.119V90.6862C235.119 92.3489 234.789 92.857 233.748 92.857H230.226V89.9241C230.226 87.8456 229.115 86.7602 227.319 86.7602C226.397 86.7602 225.617 87.1066 225.002 87.7994C224.388 88.4922 224.081 89.3467 224.081 90.3629C224.081 91.379 224.364 92.2335 224.955 92.9263C225.546 93.596 226.279 93.9424 227.177 93.9424H228.926C228.643 94.9586 227.981 95.4666 226.964 95.4666H226.823V96.5289C228.69 96.4135 229.777 95.559 230.108 93.9424H242.613C244.22 93.9424 245 93.0187 245 91.1712V86.7833H243.865L243.842 86.7371ZM229.068 92.7877H227.201C226.563 92.7877 226.066 92.5106 225.688 91.9102C225.381 91.4252 225.239 90.8478 225.239 90.2243C225.239 89.6008 225.428 89.0696 225.759 88.5846C226.137 88.0304 226.657 87.7532 227.272 87.7532C227.886 87.7532 228.312 87.938 228.643 88.3075C228.926 88.6308 229.068 89.0234 229.068 89.4853V92.8108V92.7877Z" fill="white"/>
</svg>
