<svg width="299" height="124" viewBox="0 0 299 124" fill="none" xmlns="http://www.w3.org/2000/svg">
<path d="M37.0023 79.929C37.0023 79.929 54.0945 43.6777 116.998 44.2797L91.1797 79.9621H74.9509L90.7331 57.1685C90.7331 57.1685 68.8728 59.1902 53.1805 79.9313H37L37.0023 79.929Z" fill="white"/>
<path d="M121.031 44.083L113.116 55.0827H127.91L129.14 53.291L152.064 53.2317C152.064 53.2317 155.858 53.3194 151.355 55.0827C147.823 55.6896 144.289 56.2963 140.757 56.903C136.677 57.6046 132.517 58.3275 128.405 59.0314C124.356 59.7259 120.214 60.1739 116.203 61.0437C115.453 61.2072 114.709 61.411 113.988 61.6813C112.319 62.3093 110.735 63.1673 109.246 64.1604C104.225 67.5141 100.23 72.3516 96.9355 77.4379C96.4082 78.2532 95.8971 79.078 95.3999 79.9123H153.597L160.12 70.721H119.056C119.056 70.721 120.152 69.0642 122.341 68.794L129.444 67.462L140.124 65.8527L149.959 64.433C155.609 63.7598 161.942 62.5558 165.82 57.8961C167.544 55.8247 168.93 52.7956 167.823 50.1197C165.82 45.2799 160.105 44.4385 155.641 44.128C151.934 43.8697 148.253 44.0853 144.547 44.0853H121.034L121.031 44.083Z" fill="white"/>
<path d="M166.973 44.109L175.358 53.2198L204.659 53.2269C204.659 53.2269 209.761 52.568 209.457 55.6989C209.457 55.6989 209.787 58.5004 204.659 58.1876L171.534 57.9554L201.689 80L219.263 79.9668L202.315 67.6776C204.967 67.7843 207.655 67.7203 210.29 67.4121C216.536 66.6798 223.943 60.7615 222.723 53.6251C222.033 49.5769 219.125 46.5668 215.393 45.3723C210.883 43.9288 206.379 44.3152 201.738 44.2915L192.167 44.2417C185.318 44.2062 178.468 44.1706 171.617 44.1327C170.479 44.1256 169.342 44.1208 168.207 44.1137C168.041 44.1137 167.093 44.2393 166.97 44.1066" fill="white"/>
<path d="M237.799 44.109L254.497 44L237.776 66.0186C237.776 66.0186 234.348 70.5005 241.151 70.5005L274 70.6545L266.915 80C262.21 79.9928 257.502 79.9881 252.796 79.981C245.59 79.9716 238.384 79.9644 231.175 79.9549C226.778 79.9479 218.612 79.8507 218.123 73.5272C217.76 68.8106 222.002 64.9662 224.596 61.5413L232.186 51.5181C233.521 49.7571 234.854 47.9937 236.189 46.2327C236.373 45.9885 237.483 44.1114 237.799 44.109Z" fill="white"/>
</svg>
