<svg width="299" height="124" viewBox="0 0 299 124" fill="none" xmlns="http://www.w3.org/2000/svg">
<path d="M93.0648 77.9127C93.0648 82.0419 95.0577 84.545 98.2941 84.545C101.531 84.545 103.603 81.9941 103.603 78.0402C103.603 74.0864 101.738 71.8863 98.4217 71.8863C95.1055 71.8863 93.0648 74.1183 93.0648 77.9127ZM87.0543 66.8802H93.1605V70.8021C93.7344 69.6861 94.5156 68.6977 95.4563 67.8846C97.0346 66.7048 98.9797 66.1149 100.941 66.1946C106.696 66.1946 109.98 70.1963 109.98 77.2271C109.98 84.8319 106.297 89.6786 100.542 89.6786C98.8999 89.7264 97.2897 89.2641 95.9346 88.3394C95.0418 87.6379 94.2765 86.7929 93.6707 85.8363V94.2542H87.0225V66.8802H87.0543Z" fill="white"/>
<path d="M122.782 80.0966C119.944 80.83 118.892 81.6749 118.892 83.2055C118.892 84.736 120.183 85.7563 121.985 85.7563C123.994 85.8201 125.827 84.6403 126.64 82.8069C127.15 81.388 127.373 79.9053 127.31 78.4066C126.417 79.0922 125.763 79.3313 122.798 80.0966M127.469 88.9928V85.7245C125.955 88.3232 123.117 89.8537 120.119 89.6942C115.783 89.6942 112.818 87.1912 112.818 83.5881C112.802 81.4358 113.981 79.4589 115.879 78.4545C117.553 77.5617 118.972 77.1631 123.579 76.2384C126.098 75.7601 127.166 74.9789 127.166 73.6556C127.166 72.173 125.397 71.0729 122.957 71.0729C119.514 71.0729 116.213 72.5396 113.886 75.0746V69.7018C116.708 67.3901 120.279 66.1625 123.93 66.2581C127.214 66.2581 129.956 67.2306 131.455 68.9206C132.603 70.212 133.001 71.7584 133.001 74.947V89.0246H127.469V88.9928Z" fill="white"/>
<path d="M147.749 94.2861H141.244L143.906 87.5741L134.787 66.8643H141.643L144.975 75.3937C145.883 77.9287 146.569 80.5433 147.063 83.1898C147.51 80.5592 148.115 77.9446 148.881 75.3937L151.75 66.8643H158.303L147.765 94.2861H147.749Z" fill="white"/>
<path d="M175.554 70.7546V73.3055H166.435V88.9933H163.597V73.3055H160.105V70.7546H163.597C163.645 67.279 163.645 66.9123 164.091 65.5412C164.984 62.7831 167.375 61.2207 170.644 61.2207C172.382 61.2207 174.087 61.7309 175.554 62.6715V65.6688C174.374 64.4252 172.716 63.7397 170.994 63.7716C169.049 63.7716 167.535 64.5049 166.961 65.7485C166.467 66.7529 166.435 67.0877 166.435 69.798V70.7705H175.554V70.7546Z" fill="white"/>
<path d="M196.806 88.9936H194.111L194.287 86.4427L194.335 85.7094L194.43 84.9441C194.43 84.7369 194.43 84.5455 194.478 84.3383C194.032 85.6615 193.203 86.8254 192.087 87.6544C190.54 88.7864 188.675 89.3762 186.778 89.3444C184.578 89.4241 182.441 88.5791 180.895 87.0008C179.476 85.3427 179.173 83.9716 179.173 79.1568V68.0765H182.011V79.1568C182.011 83.0788 182.234 84.4977 183.031 85.4543C184.115 86.5703 185.646 87.1442 187.192 87.0326C189.504 87.224 191.704 86.0442 192.852 84.0354C193.872 82.2179 194 81.2772 194 76.3509V68.0605H196.838V88.9617L196.806 88.9936Z" fill="white"/>
<path d="M215.316 68.3314V70.8823H206.818C206.818 75.0115 206.818 76.9087 206.723 80.0176C206.675 80.9104 206.675 81.8032 206.675 82.0424C206.675 85.5976 207.695 87.0644 210.087 87.0644C211.856 87.0644 213.179 86.3788 214.822 84.5613V87.2716C213.578 88.6587 211.777 89.4239 209.911 89.3761C207.934 89.4558 206.037 88.5471 204.873 86.9528C204.124 85.6933 203.949 84.5295 203.949 81.2452C203.949 80.7988 203.949 79.3002 203.996 78.0088C204.044 75.9043 204.044 74.7724 204.044 73.5607C204.044 73.1621 204.044 72.0302 203.996 70.8983H200.457V69.1605C203.693 68.7938 204.969 67.2154 206.069 62.2891H207.615L207.169 68.3474H215.316V68.3314Z" fill="white"/>
<path d="M236.79 88.9936H234.096L234.271 86.4427L234.319 85.7094L234.415 84.9441C234.415 84.7369 234.415 84.5455 234.462 84.3383C234.016 85.6615 233.187 86.8254 232.071 87.6544C230.54 88.7864 228.659 89.3762 226.762 89.3444C224.562 89.4241 222.426 88.5791 220.879 87.0008C219.46 85.3427 219.157 83.9716 219.157 79.1568V68.0765H221.995V79.1568C221.995 83.0788 222.218 84.4977 223.015 85.4543C224.1 86.5703 225.63 87.1442 227.177 87.0326C229.488 87.224 231.688 86.0442 232.836 84.0354C233.857 82.2179 233.984 81.2772 233.984 76.3509V68.0605H236.822V88.9617L236.79 88.9936Z" fill="white"/>
<path d="M242.115 68.0921H245.128L244.778 73.146C245.065 71.6793 245.766 70.3241 246.818 69.2719C247.934 68.2196 249.417 67.6776 250.932 67.7413C252.446 67.6297 253.929 68.2515 254.917 69.3994V71.9503C253.865 70.7864 252.367 70.1487 250.804 70.1647C248.317 70.1009 246.117 71.7749 245.527 74.2142C245.001 75.7925 245.001 75.8244 245.001 86.0279L244.953 89.0252H242.115V68.124V68.0921Z" fill="white"/>
<path d="M273.156 77.0682C273.109 75.9681 272.885 74.8999 272.487 73.8796C271.371 71.5679 268.979 70.1649 266.429 70.3243C262.443 70.3243 260.099 72.7157 259.828 77.0841H273.156V77.0682ZM259.828 79.2045C259.956 84.7048 262.172 87.0484 267.178 87.0484C270.366 87.0484 272.216 86.044 274.528 83.0468V86.2832C272.567 88.4355 269.729 89.5834 266.827 89.3602C260.546 89.3602 257.134 85.6455 257.134 78.7262C257.134 71.807 260.593 67.7734 266.604 67.7734C272.184 67.7734 275.5 71.4563 275.5 77.674C275.5 78.2479 275.5 78.4871 275.452 79.2045H259.828Z" fill="white"/>
<path d="M71.2708 43.6516L42.0474 61.4917V95.0197H34.9528V57.5219L58.4049 43.1892L51.4697 37.4179L24 54.2217V46.0271L51.8683 29L71.2708 43.6516Z" fill="white"/>
<path d="M71.2705 50.9854V59.18L48.5996 72.9866V64.8079L71.2705 50.9854Z" fill="white"/>
<path d="M64.9571 71.6953V79.874L48.5996 89.8703V81.6756L64.9571 71.6953Z" fill="white"/>
</svg>
