<svg width="299" height="124" viewBox="0 0 299 124" fill="none" xmlns="http://www.w3.org/2000/svg">
<path d="M241.922 67.064V71.7719C238.959 82.0445 226.075 85.5503 219.158 76.8031C208.389 63.1847 230.56 47.3191 240.098 62.4534L241.922 67.064ZM227.409 60.5545C218.376 61.901 218.348 76.2883 227.723 77.6536C240.914 79.5713 241.545 58.4517 227.409 60.5545Z" fill="white"/>
<path d="M108.217 115.712C108.381 114.937 107.853 115.05 107.367 114.852C105.167 113.967 102.872 113.255 100.666 112.395C100.669 111.51 101.036 110.716 101.309 109.903C101.94 108.019 104.74 100.229 105.697 99.222C105.942 98.9646 107.427 97.8504 107.69 97.8724L115.753 100.964L110.418 115.709H108.221L108.217 115.712Z" fill="white"/>
<path d="M76.8319 9L85.8993 12.4838C86.4956 13.1681 82.5159 21.2531 82.4751 22.8067C79.4777 21.7584 78.42 22.1852 76.0441 24.0621C75.5859 24.4231 75.2908 25.2109 75.2029 25.2642C74.4905 25.6879 71.7317 24.2222 70.8591 23.8958L76.518 9H76.8319Z" fill="white"/>
<path d="M58 57.9618V57.3341L62.3972 46.0352C63.7938 46.0571 63.7311 47.4569 64.1422 48.2071C65.2219 50.1844 66.0223 52.0205 67.6041 53.8471C68.2852 54.6318 69.594 54.8797 69.6316 56.2199C69.6505 56.8539 67.9368 61.273 67.5351 61.3954L58 57.9618Z" fill="white"/>
<path d="M146.351 56.7067C154.126 57.7518 156.477 68.6459 148.705 71.615L155.607 81.5016C154.386 81.081 151.897 81.5173 150.896 81.0371C149.829 80.5223 145.683 73.2282 144.559 71.841L141.483 71.7751V81.1909C140.859 81.0779 137.918 81.3541 137.733 81.1752C137.67 81.1124 137.469 79.722 137.441 79.427C136.964 74.4429 136.816 62.6575 137.388 57.7926C137.425 57.4756 137.532 56.7098 137.874 56.7098C140.385 56.7098 144.01 56.3959 146.348 56.7098L146.351 56.7067ZM141.487 68.6333H146.351C146.672 68.6333 148.244 67.4469 148.558 67.0735C149.782 65.5983 149.71 63.2506 148.36 61.9167C148.175 61.7347 146.769 60.7868 146.665 60.7868H141.487V68.6333Z" fill="white"/>
<path d="M172.872 56.707V60.7872H162.201V66.7505H171.146C171.849 66.7505 171.849 70.8307 171.146 70.8307H162.201V77.4218H172.872V81.1881H158.121V56.707H172.872Z" fill="white"/>
<path d="M106.014 56.393L117.32 81.1848C116.212 81.0153 114.175 81.5049 113.233 81.0373C112.357 80.601 112.191 77.8296 111.212 77.7135C107.766 77.3023 103.494 78.0776 99.9505 77.7229C99.577 77.8108 98.8646 80.9368 98.1772 81.37C97.879 81.5551 95.1359 80.9055 94.4109 81.1879C97.3015 73.3195 101.479 65.8527 104.712 58.0659C105.195 57.5574 105.085 56.1733 106.017 56.3961L106.014 56.393ZM101.627 74.283H109.787C109.42 73.1374 106.338 65.3066 105.86 65.1779C105.233 65.0085 105.415 65.4667 105.252 65.8088C103.946 68.577 102.703 71.4175 101.627 74.2799V74.283Z" fill="white"/>
<path d="M191.704 61.0975C190.734 60.9657 189.463 62.83 188.754 62.6511C188.427 62.5695 188.23 61.8664 187.91 61.6028C183.663 58.119 178.773 62.3467 181.265 64.8826C182.47 66.1067 187.1 67.5191 188.977 68.696C191.205 70.0958 192.614 71.6651 192.671 74.4365C192.84 83.0991 178.547 84.2572 175.368 76.9725C176.206 76.6587 178.07 74.5275 178.801 74.9544C178.914 75.0203 179.529 76.2946 180.506 76.8564C184.887 79.3892 191.679 76.0435 187.291 72.2678C184.027 69.4587 177.088 69.3206 176.629 63.7841C175.945 55.5045 189.325 53.4205 191.71 61.0944L191.704 61.0975Z" fill="white"/>
<path d="M215.868 59.852C216.012 60.0498 214.054 63.0063 213.52 63.0032C209.644 59.4346 203.514 59.5445 200.354 63.9448C194.105 72.6418 206.01 82.7795 213.517 74.9236C215.717 77.2964 216.502 77.9868 213.527 79.9422C206.531 84.534 196.933 79.9861 194.99 72.0988C192.696 62.7678 201.707 53.8667 211.019 57.0116C212.943 57.6613 214.173 58.9167 215.871 59.8552L215.868 59.852Z" fill="white"/>
<path d="M134.582 56.707V60.7872H123.91V67.0644H133.012V70.8307H123.91V81.1881H120.144V56.707H134.582Z" fill="white"/>
<path d="M88.7301 71.4867L83.4071 86.5174L73.6931 83.0649L79.3708 68.3418L88.7301 71.4867Z" fill="white"/>
<path d="M92.1544 91.9123C92.3208 92.0535 92.7508 94.5675 92.6974 95.0132L88.1245 107.552L78.3979 104.093L84.0349 89.166L92.1513 91.9092L92.1544 91.9123Z" fill="white"/>
<path d="M135.818 48.2134C135.401 48.5743 127.256 45.3541 126.177 44.6385L131.443 30.0283L141.166 33.6503L135.815 48.2165L135.818 48.2134Z" fill="white"/>
<path d="M124.522 44.4601C123.458 43.9296 120.386 43.5436 119.815 42.7589C119.444 42.2505 119.541 41.5631 119.275 41.1018C118.308 39.4383 117.225 37.8878 116.538 36.0235C117.661 32.6087 119.45 29.2504 120.464 25.6348C121.704 26.3347 129.98 28.8644 130.15 29.5925C130.36 30.5027 124.88 42.4074 124.526 44.4632L124.522 44.4601Z" fill="white"/>
<path d="M108.217 20.9302C107.354 22.2892 106.328 27.267 105.556 28.1521C105.173 28.5915 104.288 28.3593 103.641 28.7484C103.067 29.0937 102.38 30.8388 101.739 30.9455C101.237 31.0302 100.817 30.1671 100.346 29.8909C98.9398 29.0686 99.0936 29.0341 97.9731 28.1835C97.3077 27.6782 95.2237 27.3455 95.073 26.6958C94.891 25.9112 98.2556 18.9184 98.5004 17.4746L108.214 20.9271L108.217 20.9302Z" fill="white"/>
<path d="M103.193 100.647L99.0876 111.607L89.3831 108.17L93.1557 97.8193C93.8336 98.2713 93.5825 99.42 94.0815 100.183C95.45 102.273 101.008 100.942 103.193 100.641V100.647Z" fill="white"/>
<path d="M122.015 84.0318L116.689 99.0783C115.722 98.6954 109.417 96.8593 109.187 96.536C108.914 96.1531 109.828 93.5135 110.176 93.1934C110.594 92.8074 111.761 92.8325 112.417 92.4496C114.718 91.1157 112.624 88.2595 113.293 87.2018C113.456 86.9413 118.035 84.782 118.795 84.3928C120.238 83.6521 119.877 83.0306 122.015 84.0318Z" fill="white"/>
<path d="M82.4812 55.1407L79.0288 65.4981C77.7545 65.36 69.4529 62.4348 69.3274 61.8636C69.7825 60.8655 70.8308 56.7131 71.5087 56.2518C73.0372 55.2129 75.1118 56.7163 76.6466 56.6817C78.5486 56.6378 80.4004 54.6856 82.4812 55.1438V55.1407Z" fill="white"/>
<path d="M119.203 25.0103C118.625 26.2029 116.635 32.8285 115.904 33.1675C114.915 30.5342 107.549 30.8355 107.003 28.8645C106.698 27.7691 109.266 23.0518 109.476 21.5547L119.203 25.0103Z" fill="white"/>
<path d="M95.0163 22.8033C91.4132 22.1034 87.6312 21.7707 84.0532 22.8096C84.7155 21.5573 86.8905 13.9556 87.4931 13.5256C87.8352 13.2808 88.1177 13.4566 88.4567 13.5193C90.9801 13.9933 94.4671 16.1683 97.1035 16.8337C97.5021 17.3955 95.1544 21.7958 95.0132 22.8033H95.0163Z" fill="white"/>
<path d="M89.6936 69.8915C89.2981 70.1991 81.7278 66.37 80.2966 66.4202L83.7397 56.3955C84.3956 56.7502 84.336 57.5568 85.2996 57.8361C86.2631 58.1155 86.6931 57.5945 87.3522 57.6353C88.6359 57.7137 88.5762 61.2415 88.4538 62.2113C88.3503 63.0368 87.7728 63.6927 87.8167 64.3738C87.9014 65.7234 89.9478 67.0479 90.2052 67.9989C90.2962 68.3347 89.7721 69.8318 89.6936 69.8915Z" fill="white"/>
<path d="M91.58 89.6615L84.675 87.1475L90.3308 72.4023C91.8875 72.5153 91.7306 75.2302 91.5611 76.3068C91.3132 77.8572 89.4143 79.3951 89.3767 81.0241C89.339 82.653 92.1857 88.9804 91.58 89.6646V89.6615Z" fill="white"/>
<path d="M134.895 50.1192C135.005 50.2385 134.02 53.0978 133.888 53.1919C133.756 53.2861 131.208 54.0676 130.897 54.1209C130.062 54.2685 126.343 54.1931 125.925 53.5905C125.627 53.1605 125.9 52.1907 125.728 51.5912C125.53 50.9039 124.246 50.4519 124.299 49.3879C124.34 48.5531 125.178 47.533 125.316 46.6699L134.895 50.1224V50.1192Z" fill="white"/>
<path d="M74.0069 27.2074C74.4494 27.6625 73.1344 28.2526 72.8487 28.3907C71.9542 28.8332 70.9373 28.8991 70.2594 29.2601C69.6882 29.5676 69.0542 31.2813 68.3574 30.6505C68.1722 30.4841 69.9644 26.6958 69.9455 25.9583C70.1182 25.8327 73.8594 27.0536 74.0069 27.2043V27.2074Z" fill="white"/>
<path d="M123.556 46.0772C123.866 46.5762 123.314 47.8725 122.812 48.2271C121.839 47.2573 120.794 46.504 120.458 45.0979C120.681 44.9222 123.455 45.914 123.556 46.0772Z" fill="white"/>
</svg>
