<svg width="299" height="124" viewBox="0 0 299 124" fill="none" xmlns="http://www.w3.org/2000/svg">
<g clip-path="url(#clip0_2685_902)">
<path d="M121.321 56.1963C119.468 54.3255 117.197 53.3732 114.57 53.3732C112.205 53.3732 110.124 54.1564 108.382 55.6892L108.37 44.543H105.02L105.042 63.043C105.042 65.6971 105.988 67.9962 107.847 69.8727C109.701 71.7435 111.971 72.6959 114.598 72.6959C117.219 72.6959 119.49 71.7379 121.343 69.8558C123.197 67.9737 124.132 65.6746 124.126 63.0204C124.126 60.3663 123.18 58.0672 121.321 56.1907V56.1963ZM120.776 63.0261C120.776 64.7786 120.186 66.2268 118.967 67.4609C117.748 68.7006 116.312 69.3036 114.581 69.3036C112.862 69.3036 111.431 68.7062 110.213 67.4721C108.994 66.2381 108.398 64.7898 108.393 63.043C108.393 61.2905 108.983 59.8422 110.201 58.6082C111.415 57.3684 112.851 56.7711 114.587 56.7655C116.307 56.7655 117.737 57.3628 118.956 58.5969C120.18 59.831 120.776 61.2792 120.776 63.0261Z" fill="white"/>
<path d="M34.2112 44.4187L34.2223 55.5537C32.4748 54.0322 30.3933 53.2658 28.028 53.2658C25.4067 53.2658 23.136 54.2238 21.2827 56.1059C19.435 57.9824 18.5 60.2815 18.5 62.9356C18.5 65.5898 19.4461 67.8889 21.305 69.7654C23.1583 71.6362 25.429 72.5885 28.0558 72.5885C30.6827 72.5885 32.9479 71.6306 34.8011 69.7484C36.6544 67.8663 37.5894 65.5672 37.5894 62.9131L37.5672 44.4131H34.2168L34.2112 44.4187ZM34.2335 62.9187C34.2335 64.6656 33.6435 66.1195 32.4247 67.3535C31.2059 68.5933 29.77 69.1962 28.0391 69.1962C26.3194 69.1962 24.8891 68.5989 23.6703 67.3648C22.4459 66.1307 21.856 64.6825 21.8504 62.9356C21.8504 61.1887 22.4403 59.7349 23.6592 58.5008C24.878 57.2611 26.3139 56.6581 28.0447 56.6581C29.7644 56.6581 31.1947 57.2555 32.4136 58.4895C33.638 59.7236 34.2279 61.1718 34.2335 62.9187Z" fill="white"/>
<path d="M55.4042 53.7613L55.4153 62.8957C55.4153 64.7835 54.8922 66.1923 53.7735 67.3306C52.5213 68.6041 51.219 69.1732 49.5549 69.1732C47.902 69.1732 46.6052 68.6097 45.3475 67.3418C44.2232 66.2092 43.7001 64.8004 43.6945 62.9127L43.6834 53.7782H40.333L40.3441 62.9127C40.3441 65.7189 41.2123 67.9504 42.9822 69.7424C44.8855 71.6639 46.9781 72.5599 49.5661 72.5599C52.1484 72.5599 54.241 71.6583 56.1444 69.7198C57.9086 67.9279 58.7657 65.6908 58.7657 62.8845L58.7546 53.75H55.4042V53.7613Z" fill="white"/>
<path d="M76.9313 64.8004C76.5362 66.0401 75.8627 67.0262 74.8665 67.8151C73.7367 68.7055 72.4901 69.1394 71.0542 69.1394C69.3345 69.1394 67.9042 68.5421 66.6798 67.308C65.461 66.0739 64.8655 64.6257 64.8599 62.8788C64.8599 61.1319 65.4498 59.6781 66.6687 58.444C67.8875 57.2043 69.3234 56.6069 71.0542 56.6013C72.479 56.6013 73.7201 57.0296 74.8443 57.9143C75.8182 58.6863 76.5139 59.6893 76.909 60.9009L76.9703 61.0981L80.1871 60.1232L80.1259 59.9204C79.5359 58.0326 78.4507 56.4604 76.8979 55.2433C75.1893 53.8965 73.2136 53.209 71.0319 53.209C68.4106 53.209 66.1399 54.167 64.2811 56.0434C62.4334 57.9256 61.4984 60.2303 61.5039 62.8844C61.5039 65.5386 62.4501 67.8377 64.3033 69.7198C66.1622 71.585 68.4329 72.5317 71.0598 72.5317C73.2414 72.5317 75.2116 71.8386 76.9146 70.4862C78.4729 69.2577 79.5582 67.6743 80.137 65.7752L80.1982 65.5724L76.9814 64.5975L76.9202 64.7947L76.9313 64.8004Z" fill="white"/>
<path d="M99.4549 56.0097C97.6016 54.1389 95.3309 53.1865 92.704 53.1865C90.0827 53.1865 87.812 54.1445 85.9587 56.0266C84.1054 57.9087 83.1704 60.2078 83.1704 62.862C83.1704 65.5161 84.1165 67.8152 85.9754 69.6917C87.8287 71.5626 90.0994 72.5149 92.7263 72.5149C95.086 72.5149 97.1675 71.7316 98.915 70.1989V71.9739H102.271L102.26 62.8451C102.26 60.1853 101.314 57.8918 99.4549 56.0153V56.0097ZM98.9094 62.8394C98.9094 64.5863 98.3195 66.0345 97.1007 67.2742C95.8819 68.514 94.4515 69.1169 92.7151 69.1169C90.9954 69.1169 89.5651 68.5196 88.3463 67.2855C87.1274 66.0514 86.5319 64.6032 86.5264 62.8563C86.5208 61.1095 87.1163 59.6556 88.3351 58.4215C89.554 57.1818 90.9898 56.5845 92.7207 56.5788C94.4404 56.5788 95.8707 57.1762 97.0896 58.4103C98.3084 59.6443 98.9039 61.0926 98.9094 62.8394Z" fill="white"/>
<path d="M232.864 54.6968H228.645L236.348 46.8978L236.57 46.6724H232.296L224.616 54.4488L224.527 54.5446V58.0722H232.869C234.522 58.0722 235.752 58.5399 236.748 59.5429C237.862 60.6643 238.357 61.8308 238.357 63.3185C238.357 64.8061 237.862 65.9669 236.748 67.094C235.758 68.097 234.528 68.5704 232.875 68.5704H214.019V46.6611H210.686V71.9401H232.875C235.435 71.9401 237.472 71.1343 239.108 69.4776C240.867 67.6913 241.691 65.7359 241.691 63.3185C241.691 60.901 240.872 58.94 239.108 57.1537C237.472 55.497 235.429 54.6911 232.875 54.6911L232.864 54.6968Z" fill="white"/>
<path d="M281.495 63.3246C281.428 60.9917 280.565 58.9687 278.935 57.3063C277.215 55.5707 275.117 54.6973 272.696 54.6973C270.681 54.6973 268.861 55.334 267.281 56.585C266.24 57.4021 265.416 58.4108 264.837 59.5773L264.476 60.2985L267.626 61.2058L267.72 61.234L267.976 60.7944C268.327 60.1971 268.778 59.6787 269.323 59.2504C270.325 58.4615 271.427 58.0783 272.69 58.0783C274.237 58.0783 275.473 58.5967 276.569 59.7069C277.616 60.7663 278.139 62.0003 278.172 63.4711C278.133 64.9024 277.643 66.0238 276.569 67.1057C275.579 68.1088 274.349 68.5821 272.696 68.5821H265.611V71.9575H272.696C275.256 71.9575 277.293 71.1517 278.929 69.495C280.615 67.7876 281.433 65.928 281.495 63.6345V63.4767V63.3415V63.3246Z" fill="white"/>
<path d="M204.842 68.565H184.428C182.775 68.565 181.539 68.0973 180.549 67.0886C179.435 65.9672 178.94 64.8008 178.94 63.3187C178.94 61.8367 179.435 60.6646 180.549 59.5432C181.428 58.6529 182.474 58.1908 183.838 58.095L184.205 58.0668V54.6914L183.782 54.7139C181.517 54.8436 179.686 55.6381 178.189 57.1596C176.43 58.9459 175.606 60.9013 175.606 63.3244C175.606 65.7475 176.425 67.6972 178.189 69.4835C179.825 71.1402 181.868 71.9461 184.422 71.9461H208.17V54.7027H204.836V68.5763L204.842 68.565Z" fill="white"/>
<path d="M193.138 74.5547C192.136 74.5547 191.318 75.383 191.318 76.3974C191.318 77.4117 192.136 78.24 193.138 78.24C194.14 78.24 194.958 77.4117 194.958 76.3974C194.958 75.383 194.14 74.5547 193.138 74.5547Z" fill="white"/>
<path d="M253.411 54.697C250.985 54.697 248.887 55.5761 247.178 57.3117C245.464 59.0473 244.596 61.1718 244.596 63.623C244.596 66.0743 245.464 68.2043 247.178 69.94C248.892 71.6756 250.99 72.5546 253.411 72.5546C255.337 72.5546 257.062 71.9968 258.548 70.8979L258.899 70.6387V71.0782C258.899 71.901 258.899 73.2703 258.092 74.1212C257.402 74.8425 256.467 75.3722 255.382 75.6483C252.76 76.3189 249.582 75.7159 247.089 74.0761L246.471 73.6648V76.5217L246.521 76.719L246.633 76.8035C247.851 77.7164 250.345 78.7814 253.361 78.7814C255.732 78.7814 258.949 78.2404 260.83 75.6596C261.353 74.9439 261.748 74.0705 261.971 73.1351C262.199 72.1827 262.221 71.1966 262.221 70.2724V63.6174C262.221 61.1661 261.353 59.0417 259.645 57.3061C257.93 55.5705 255.832 54.6914 253.411 54.6914V54.697ZM258.893 63.623C258.893 65.1727 258.392 66.4124 257.324 67.5112L257.285 67.5507C256.188 68.6608 254.959 69.1792 253.406 69.1792C251.853 69.1792 250.623 68.6608 249.527 67.5507C248.43 66.4406 247.918 65.1952 247.918 63.623C247.918 62.0508 248.43 60.8055 249.527 59.6954C250.623 58.5853 251.859 58.0668 253.406 58.0668C254.953 58.0668 256.188 58.5853 257.285 59.6954C258.381 60.8055 258.893 62.0508 258.893 63.623Z" fill="white"/>
<path d="M145.676 43.8889C149.844 42.9084 154.425 43.7931 157.975 46.312C159.729 47.5855 161.27 49.1915 162.4 51.0793C163.535 52.9558 164.287 55.0858 164.582 57.2835C165.166 61.6902 163.808 66.3278 160.931 69.7314C158.092 73.1745 153.751 75.3102 149.288 75.468C147.056 75.5694 144.802 75.1637 142.715 74.324C141.674 73.8958 140.667 73.383 139.732 72.7462C138.808 72.1207 137.879 71.4163 137.111 70.5204C136.354 69.63 135.714 68.6326 135.235 67.5507C134.784 66.4631 134.473 65.3135 134.356 64.1358C134.15 61.786 134.64 59.3629 135.831 57.3286C136.415 56.3087 137.161 55.3901 138.029 54.6181C138.886 53.8292 139.86 53.1756 140.923 52.7135C143.027 51.7611 145.409 51.5188 147.629 51.9753C148.737 52.2232 149.805 52.6289 150.779 53.1925C151.258 53.4855 151.731 53.7898 152.16 54.1561C152.61 54.4885 153.006 54.8886 153.378 55.3C154.859 56.968 155.81 59.0868 156.011 61.2563L155.81 61.2901C155.31 59.222 154.252 57.3286 152.727 55.9593C152.349 55.6212 151.965 55.2831 151.531 55.0182C151.119 54.7196 150.674 54.4885 150.228 54.2575C149.316 53.8349 148.364 53.5362 147.384 53.3897C145.425 53.1417 143.405 53.4348 141.674 54.342C140.806 54.7703 140.005 55.3451 139.315 56.0269C138.619 56.6975 138.023 57.4808 137.573 58.3373C135.664 61.7127 136.087 66.2546 138.613 69.2017C139.209 69.9568 139.977 70.5767 140.795 71.174C141.602 71.7601 142.481 72.2503 143.394 72.6561C145.225 73.4562 147.234 73.8789 149.243 73.8394C153.267 73.7943 157.258 71.9686 159.94 68.8693C162.656 65.8038 164.031 61.5493 163.585 57.4075C163.374 55.3394 162.734 53.3108 161.71 51.4963C160.697 49.6705 159.272 48.0927 157.625 46.8079C154.291 44.2777 149.867 43.2522 145.72 44.0862L145.681 43.8889H145.676Z" fill="white"/>
<path d="M140.773 48.0697C144.418 45.8044 149.037 45.1676 153.195 46.4186C155.26 47.061 157.224 48.0923 158.888 49.5179C160.558 50.938 161.932 52.713 162.901 54.7022C164.838 58.6919 164.999 63.5324 163.335 67.6798C161.721 71.8554 158.276 75.2759 154.091 76.8594C152.009 77.6765 149.739 78.0146 147.501 77.885C146.383 77.8174 145.264 77.6483 144.179 77.3496C143.105 77.051 142.008 76.6847 140.995 76.0761C139.999 75.4732 139.075 74.735 138.291 73.8615C137.522 72.9768 136.866 71.985 136.387 70.9087C135.458 68.7449 135.163 66.288 135.652 63.9776C135.886 62.8224 136.309 61.7123 136.888 60.698C137.456 59.678 138.174 58.7369 139.036 57.9649C140.734 56.3815 142.915 55.3897 145.169 55.1136C146.299 54.9952 147.435 55.0347 148.536 55.2545C149.087 55.3784 149.627 55.5193 150.145 55.7278C150.674 55.9025 151.174 56.1561 151.659 56.4209C153.59 57.5254 155.148 59.2328 156.022 61.222L155.844 61.3178C154.72 59.5146 153.122 58.0607 151.247 57.2549C150.779 57.0521 150.312 56.8548 149.817 56.7421C149.332 56.59 148.837 56.5111 148.342 56.4435C147.345 56.3364 146.344 56.3589 145.37 56.5336C143.433 56.9281 141.608 57.8579 140.255 59.2723C139.565 59.9598 138.986 60.7599 138.547 61.6277C138.096 62.4899 137.778 63.4197 137.623 64.3777C136.871 68.1926 138.691 72.3626 142.014 74.3461C142.815 74.8702 143.739 75.2083 144.696 75.5126C145.648 75.8113 146.633 75.9916 147.629 76.0874C149.616 76.2564 151.653 76.0141 153.551 75.3266C157.358 73.9911 160.563 70.9764 162.138 67.1783C163.758 63.4028 163.725 58.9229 161.999 55.1361C161.148 53.2427 159.912 51.524 158.371 50.1322C156.835 48.729 154.992 47.6865 153.028 46.9991C149.071 45.6692 144.552 46.12 140.884 48.2444L140.784 48.0697H140.773Z" fill="#CCCCCC"/>
<path d="M137.183 54.0992C139.838 50.7068 143.967 48.5035 148.292 48.2387C150.451 48.1316 152.644 48.4134 154.686 49.1797C156.734 49.9348 158.627 51.1238 160.207 52.6566C163.374 55.7333 165.166 60.2189 165.01 64.6988C164.91 69.1843 162.829 73.5853 159.428 76.5268C157.747 78.0145 155.733 79.119 153.584 79.7783C152.51 80.0995 151.403 80.3305 150.278 80.4263C149.171 80.5165 148.013 80.5559 146.856 80.3361C145.715 80.1164 144.596 79.7388 143.561 79.1978C142.537 78.6343 141.585 77.93 140.773 77.0847C139.164 75.3773 138.057 73.1683 137.74 70.8297C137.567 69.6633 137.589 68.4743 137.79 67.3247C137.973 66.1695 138.335 65.0369 138.88 64.0113C139.938 61.9376 141.652 60.247 143.672 59.2046C144.691 58.703 145.776 58.348 146.884 58.1677C147.44 58.0944 147.997 58.0381 148.559 58.0494C149.115 58.0268 149.672 58.0888 150.217 58.179C152.404 58.5509 154.447 59.6046 155.939 61.1768L155.805 61.329C154.141 60.0273 152.143 59.2158 150.112 59.1031C149.605 59.0749 149.099 59.0524 148.598 59.12C148.091 59.1482 147.601 59.244 147.112 59.3511C146.143 59.599 145.208 59.9653 144.351 60.4668C142.665 61.5093 141.268 63.0139 140.472 64.8115C140.055 65.6962 139.782 66.6485 139.665 67.6177C139.532 68.5813 139.548 69.5731 139.726 70.5254C140.311 74.3686 143.433 77.6538 147.223 78.3695C148.152 78.5836 149.138 78.5836 150.139 78.5329C151.136 78.4822 152.121 78.3131 153.089 78.0539C155.015 77.5242 156.846 76.5888 158.393 75.2871C161.515 72.7119 163.507 68.7673 163.702 64.648C163.942 60.5401 162.4 56.3419 159.495 53.3835C158.059 51.9015 156.311 50.7181 154.391 49.9405C152.477 49.1515 150.39 48.8134 148.314 48.8529C144.151 48.9712 140.055 50.966 137.328 54.2344L137.172 54.1048L137.183 54.0992Z" fill="white"/>
<path fill-rule="evenodd" clip-rule="evenodd" d="M154.074 62.8794C152.944 61.7355 152.944 59.8759 154.074 58.732C155.204 57.588 157.04 57.588 158.17 58.732C159.3 59.8759 159.3 61.7355 158.17 62.8794C157.04 64.0233 155.204 64.0233 154.074 62.8794Z" fill="white"/>
</g>
<defs>
<clipPath id="clip0_2685_902">
<rect width="263" height="37" fill="white" transform="translate(18.5 43.5)"/>
</clipPath>
</defs>
</svg>
