<svg width="299" height="124" viewBox="0 0 299 124" fill="none" xmlns="http://www.w3.org/2000/svg">
<path d="M54.1891 56.5937C53.9791 56.8877 53.6012 56.9717 53.3072 56.7757C53.0412 56.5937 52.9572 56.1877 53.1532 55.9217C53.6571 55.1798 54.1891 54.4799 54.735 53.7799C55.295 53.108 55.9109 52.4501 56.5269 51.8061C59.4666 48.8664 62.8823 46.7106 66.536 45.3387C70.3296 43.9248 74.3893 43.3369 78.3929 43.5749C78.7149 43.6029 78.9809 43.8968 78.9529 44.2188C78.9529 44.5688 78.6589 44.8347 78.3089 44.8067C74.4873 44.5688 70.5956 45.1287 66.9839 46.5146C63.5123 47.8445 60.2506 49.9023 57.4228 52.688C56.8069 53.304 56.2469 53.9199 55.715 54.5639C55.169 55.2358 54.637 55.9077 54.1891 56.5937ZM80.2128 44.9747C79.8628 44.9747 79.5968 44.7088 79.5968 44.3588C79.5968 44.0088 79.8628 43.7428 80.2128 43.7428C80.5627 43.7428 80.8287 44.0088 80.8287 44.3588C80.8287 44.7088 80.5627 44.9747 80.2128 44.9747ZM103.311 66.9528C103.255 66.6308 103.465 66.3088 103.815 66.2528C104.137 66.1968 104.459 66.3928 104.529 66.7568C104.935 68.9406 105.061 71.1384 104.935 73.3502C104.823 75.59 104.459 77.7598 103.843 79.9156C103.759 80.2376 103.395 80.4196 103.073 80.3216C102.723 80.2376 102.541 79.8736 102.625 79.5516C103.213 77.5218 103.563 75.408 103.689 73.2802C103.801 71.1524 103.689 69.0386 103.311 66.9528ZM101.953 81.6375C102.065 81.3155 102.457 81.1615 102.779 81.3155C103.073 81.4695 103.227 81.8474 103.073 82.1414C102.933 82.4634 102.541 82.6174 102.247 82.4634C101.925 82.3234 101.799 81.9314 101.925 81.6375H101.953ZM101.071 83.5973C101.225 83.3033 101.603 83.1493 101.925 83.3033C102.219 83.4573 102.373 83.8352 102.219 84.1572C101.519 85.5711 100.721 86.957 99.783 88.2449C98.8731 89.5467 97.8372 90.7786 96.6893 91.9265C93.6936 94.9223 90.1799 97.106 86.4142 98.4919C82.5366 99.9058 78.3789 100.466 74.2913 100.116C73.9413 100.088 73.7033 99.7938 73.7033 99.4718C73.7313 99.1219 74.0533 98.8559 74.3753 98.8839C78.2949 99.2058 82.2566 98.6739 85.9942 97.33C89.5779 96.0002 92.9376 93.9143 95.7933 91.0586C96.9132 89.9387 97.8792 88.7908 98.7611 87.5589C99.657 86.285 100.427 84.9551 101.071 83.5973ZM72.4435 98.6459C72.7934 98.7019 73.0314 99.0239 72.9754 99.3459C72.9194 99.6958 72.5974 99.9338 72.2755 99.8778C69.3637 99.4439 66.48 98.5199 63.7782 97.148C61.1885 95.8462 58.7527 94.0823 56.5969 91.9405C56.0929 91.4366 55.6309 90.9466 55.155 90.3867C54.679 89.8547 54.2451 89.3228 53.8251 88.7628C53.6152 88.4688 53.6711 88.0909 53.9791 87.8809C54.2451 87.6709 54.6231 87.7269 54.833 87.9929C55.239 88.5528 55.659 89.0568 56.0929 89.5747C56.4989 90.0507 56.9748 90.5407 57.4508 91.0446C59.5366 93.1024 61.8604 94.7822 64.3382 96.0421C66.8999 97.344 69.6437 98.226 72.4435 98.6459Z" fill="white"/>
<path d="M48.6045 75.9543C49.1924 76.5143 49.1924 77.4242 48.6045 78.0122C48.0445 78.5721 47.1346 78.5721 46.5747 78.0122C45.9867 77.4242 45.9867 76.5143 46.5747 75.9543C47.1346 75.3944 48.0445 75.3944 48.6045 75.9543ZM52.0762 79.314C52.6921 79.902 52.6921 80.8679 52.0762 81.4978C51.4882 82.0858 50.5223 82.0858 49.9344 81.4978C49.3184 80.8819 49.3184 79.916 49.9344 79.314C50.5223 78.7261 51.4882 78.7261 52.0762 79.314ZM55.5198 82.7157C56.1078 83.3037 56.1078 84.2976 55.5198 84.8995C54.9039 85.4875 53.938 85.4875 53.3501 84.8995C52.7341 84.3116 52.7341 83.3037 53.3501 82.7157C53.924 82.1278 54.9039 82.1278 55.5198 82.7157ZM101.576 53.7383C102.136 54.3263 102.136 55.2362 101.576 55.7961C101.016 56.3561 100.078 56.3561 99.5179 55.7961C98.9579 55.2362 98.9579 54.3263 99.5179 53.7383C100.064 53.1784 101.016 53.1784 101.576 53.7383ZM104.921 57.21C105.453 57.742 105.453 58.6239 104.921 59.1558C104.389 59.6878 103.508 59.6878 102.976 59.1558C102.444 58.6239 102.444 57.77 102.976 57.21C103.508 56.6781 104.389 56.6781 104.921 57.21ZM84.5393 50.2666C85.1552 50.8826 85.1552 51.8485 84.5393 52.4504C83.9513 53.0384 82.9854 53.0384 82.3555 52.4504C81.7675 51.8625 81.7675 50.8966 82.3555 50.2666C82.9714 49.6787 83.9513 49.6787 84.5393 50.2666ZM88.0109 53.6263C88.6549 54.2703 88.6549 55.3062 88.0109 55.9221C87.395 56.5661 86.3591 56.5661 85.7431 55.9221C85.0992 55.3062 85.0992 54.2703 85.7431 53.6263C86.3591 52.9964 87.381 52.9964 88.0109 53.6263ZM91.4546 57.028C92.0706 57.672 92.0706 58.7079 91.4546 59.3238C90.8107 59.9678 89.7748 59.9678 89.1588 59.3238C88.5149 58.7079 88.5149 57.672 89.1588 57.028C89.7748 56.4121 90.7967 56.4121 91.4546 57.028ZM94.8563 60.4437C95.4723 61.0877 95.4723 62.1236 94.8563 62.7395C94.2124 63.3835 93.1765 63.3835 92.5605 62.7395C91.9166 62.1236 91.9166 61.0877 92.5605 60.4437C93.1905 59.8278 94.2124 59.8278 94.8563 60.4437ZM98.216 63.9434C98.804 64.5313 98.804 65.4973 98.216 66.0992C97.6001 66.7152 96.6342 66.7152 96.0322 66.0992C95.4163 65.5113 95.4163 64.5453 96.0322 63.9434C96.6342 63.3275 97.6001 63.3275 98.216 63.9434ZM86.1211 45.2691C86.6811 45.801 86.6811 46.683 86.1211 47.2149C85.5892 47.7469 84.7352 47.7469 84.2033 47.2149C83.6433 46.683 83.6433 45.801 84.2033 45.2691C84.7352 44.7371 85.5892 44.7371 86.1211 45.2691ZM89.6488 48.5588C90.2647 49.1467 90.2647 50.1406 89.6488 50.7426C89.0608 51.3305 88.0949 51.3305 87.507 50.7426C86.891 50.1546 86.891 49.1887 87.507 48.5588C88.0949 47.9708 89.0608 47.9708 89.6488 48.5588ZM93.0925 51.9745C93.6804 52.5904 93.6804 53.5563 93.0925 54.1583C92.4765 54.7462 91.5106 54.7462 90.9087 54.1583C90.2927 53.5703 90.2927 52.6044 90.9087 51.9745C91.5106 51.3865 92.4765 51.3865 93.0925 51.9745ZM96.5082 55.3902C97.0961 56.0061 97.0961 56.986 96.5082 57.574C95.8922 58.1899 94.9123 58.1899 94.3244 57.574C93.7084 56.986 93.7084 56.0201 94.3244 55.3902C94.9263 54.8022 95.8922 54.8022 96.5082 55.3902ZM99.9239 58.8059C100.512 59.4218 100.512 60.3877 99.9239 60.9897C99.3079 61.6056 98.342 61.6056 97.7401 60.9897C97.1521 60.4017 97.1521 59.4358 97.7401 58.8059C98.328 58.2039 99.3079 58.2039 99.9239 58.8059ZM103.284 62.3056C103.844 62.8655 103.844 63.7754 103.284 64.3354C102.724 64.9233 101.786 64.9233 101.226 64.3354C100.666 63.7754 100.666 62.8655 101.226 62.3056C101.772 61.7176 102.724 61.7176 103.284 62.3056ZM77.8198 56.972C78.4918 57.644 78.4918 58.7359 77.8198 59.3798C77.1759 60.0518 76.084 60.0518 75.4121 59.3798C74.7681 58.7359 74.7681 57.644 75.4121 56.972C76.084 56.3281 77.1759 56.3281 77.8198 56.972ZM81.3615 60.2757C82.0895 61.0177 82.0895 62.2216 81.3615 62.9495C80.6616 63.6494 79.4437 63.6494 78.7158 62.9495C77.9738 62.2076 77.9738 61.0037 78.7158 60.2757C79.4437 59.5338 80.6476 59.5338 81.3615 60.2757ZM84.7912 63.6774C85.5052 64.4194 85.5052 65.6233 84.7912 66.3512C84.0493 67.0511 82.8454 67.0511 82.1175 66.3512C81.3755 65.6093 81.3755 64.4054 82.1175 63.6774C82.8594 62.9495 84.0633 62.9495 84.7912 63.6774ZM88.2069 67.0931C88.9489 67.8351 88.9489 69.0389 88.2069 69.7669C87.465 70.5088 86.2611 70.5088 85.5332 69.7669C84.8052 69.025 84.8052 67.8211 85.5332 67.0931C86.2751 66.3932 87.479 66.3932 88.2069 67.0931ZM91.5106 70.6628C92.1545 71.3068 92.1545 72.3987 91.5106 73.0706C90.8387 73.7146 89.7468 73.7146 89.1028 73.0706C88.4309 72.3987 88.4309 71.3068 89.1028 70.6628C89.7468 69.9769 90.8247 69.9769 91.5106 70.6628ZM94.8563 74.1345C95.4723 74.7504 95.4723 75.7864 94.8563 76.4303C94.2124 77.0462 93.1765 77.0462 92.5605 76.4303C91.9166 75.7864 91.9166 74.7504 92.5605 74.1345C93.1905 73.4765 94.2124 73.4765 94.8563 74.1345ZM82.9434 55.2642C83.6153 55.9361 83.6153 57.028 82.9434 57.672C82.2994 58.3439 81.2075 58.3439 80.5356 57.672C79.8917 57.028 79.8917 55.9361 80.5356 55.2642C81.2075 54.6202 82.2994 54.6202 82.9434 55.2642ZM86.3591 58.6799C87.031 59.3518 87.031 60.4437 86.3591 61.0877C85.7151 61.7596 84.6232 61.7596 83.9513 61.0877C83.3074 60.4437 83.3074 59.3518 83.9513 58.6799C84.6232 58.0359 85.7151 58.0359 86.3591 58.6799ZM89.8028 62.0956C90.4467 62.7675 90.4467 63.8594 89.8028 64.5034C89.1308 65.1753 88.0389 65.1753 87.395 64.5034C86.723 63.8594 86.723 62.7675 87.395 62.0956C88.0389 61.4516 89.1308 61.4516 89.8028 62.0956ZM93.2185 65.5393C93.8624 66.1832 93.8624 67.2751 93.2185 67.9471C92.5465 68.591 91.4546 68.591 90.8107 67.9471C90.1387 67.2751 90.1387 66.1832 90.8107 65.5113C91.4546 64.8673 92.5325 64.8673 93.2185 65.5393ZM96.5642 69.0109C97.1801 69.6269 97.1801 70.6628 96.5642 71.3068C95.9202 71.9227 94.8843 71.9227 94.2684 71.3068C93.6244 70.6628 93.6244 69.6269 94.2684 69.0109C94.8843 68.367 95.9202 68.367 96.5642 69.0109ZM67.5868 60.3877C68.2587 61.0597 68.2587 62.1516 67.5868 62.7955C66.9148 63.4675 65.8509 63.4675 65.179 62.7955C64.507 62.1516 64.507 61.0597 65.179 60.3877C65.8509 59.7438 66.9008 59.7438 67.5868 60.3877ZM71.1145 63.6774C71.8424 64.4194 71.8424 65.6233 71.1145 66.3512C70.3725 67.0511 69.1966 67.0511 68.4687 66.3512C67.7408 65.6093 67.7408 64.4054 68.4687 63.6774C69.1966 62.9495 70.3865 62.9495 71.1145 63.6774ZM74.6421 66.9811C75.4681 67.7791 75.4681 69.0949 74.6421 69.8929C73.8442 70.6908 72.5563 70.6908 71.7584 69.8929C70.9605 69.0949 70.9605 67.7791 71.7584 66.9811C72.5563 66.1832 73.8582 66.1832 74.6421 66.9811ZM78.3238 70.1588C79.2337 71.0968 79.2337 72.5946 78.3238 73.5466C77.3859 74.4845 75.846 74.4845 74.9361 73.5466C73.9982 72.6086 73.9982 71.0968 74.9361 70.1588C75.846 69.2489 77.3859 69.2489 78.3238 70.1588ZM81.5015 73.8405C82.2994 74.6385 82.2994 75.9263 81.5015 76.7243C80.6756 77.5222 79.3877 77.5222 78.5898 76.7243C77.7919 75.9263 77.7919 74.6385 78.5898 73.8405C79.3877 73.0146 80.6756 73.0146 81.5015 73.8405ZM84.7912 77.3682C85.5052 78.0961 85.5052 79.286 84.7912 80.014C84.0493 80.7559 82.8454 80.7559 82.1175 80.014C81.3755 79.286 81.3755 78.0961 82.1175 77.3682C82.8594 76.6263 84.0633 76.6263 84.7912 77.3682ZM88.0949 80.8959C88.7389 81.5398 88.7389 82.6317 88.0949 83.3037C87.423 83.9756 86.3311 83.9756 85.6451 83.3037C85.0012 82.6317 85.0012 81.5678 85.6451 80.8959C86.3311 80.224 87.423 80.224 88.0949 80.8959ZM91.4546 84.3676C92.0706 85.0115 92.0706 86.0474 91.4546 86.6634C90.8107 87.2793 89.7748 87.2793 89.1588 86.6634C88.5149 86.0194 88.5149 85.0115 89.1588 84.3676C89.7748 83.7516 90.7967 83.7516 91.4546 84.3676ZM72.7103 58.6799C73.3822 59.3518 73.3822 60.4437 72.7103 61.0877C72.0664 61.7596 70.9745 61.7596 70.3025 61.0877C69.6306 60.4437 69.6306 59.3518 70.3025 58.6799C70.9745 58.0359 72.0524 58.0359 72.7103 58.6799ZM76.238 61.9836C76.9799 62.7255 76.9799 63.9294 76.238 64.6574C75.496 65.3573 74.3202 65.3573 73.5922 64.6574C72.8503 63.9154 72.8503 62.7115 73.5922 61.9836C74.3202 61.2417 75.496 61.2417 76.238 61.9836ZM79.7937 65.2733C80.5916 66.0712 80.5916 67.3871 79.7937 68.185C78.9677 68.9829 77.6799 68.9829 76.8819 68.185C76.084 67.3871 76.084 66.0712 76.8819 65.2733C77.6799 64.4754 78.9677 64.4754 79.7937 65.2733ZM83.2094 68.689C84.0073 69.5149 84.0073 70.8028 83.2094 71.6007C82.4114 72.3986 81.0956 72.3986 80.2976 71.6007C79.4997 70.8028 79.4997 69.5149 80.2976 68.689C81.0956 67.8911 82.3834 67.8911 83.2094 68.689ZM86.4991 72.2446C87.199 72.9446 87.199 74.1625 86.4991 74.8904C85.7571 75.6324 84.5532 75.6324 83.8253 74.8904C83.0974 74.1625 83.0974 72.9446 83.8253 72.2446C84.5672 71.5167 85.7711 71.5167 86.4991 72.2446ZM89.8028 75.7724C90.4467 76.4163 90.4467 77.5082 89.8028 78.1801C89.1308 78.8241 88.0389 78.8241 87.395 78.1801C86.723 77.5082 86.723 76.4163 87.395 75.7724C88.0389 75.1004 89.1308 75.1004 89.8028 75.7724ZM93.1485 79.244C93.7644 79.86 93.7644 80.8959 93.1485 81.5398C92.5045 82.1558 91.4686 82.1558 90.8527 81.5398C90.2087 80.8959 90.2087 79.86 90.8527 79.244C91.4826 78.6001 92.5045 78.6001 93.1485 79.244ZM50.2563 57.21C50.7883 57.77 50.7883 58.6239 50.2563 59.1558C49.7244 59.6878 48.8704 59.6878 48.3385 59.1558C47.8065 58.6239 47.8065 57.77 48.3385 57.21C48.8704 56.6781 49.7244 56.6781 50.2563 57.21ZM53.728 60.5977C54.316 61.1577 54.316 62.0676 53.728 62.6275C53.1681 63.1875 52.2581 63.1875 51.6982 62.6275C51.1382 62.0676 51.1382 61.1577 51.6982 60.5977C52.2581 60.0098 53.1681 60.0098 53.728 60.5977ZM57.2277 63.9434C57.8156 64.5313 57.8156 65.4973 57.2277 66.0992C56.6118 66.7152 55.6458 66.7152 55.0439 66.0992C54.428 65.5113 54.428 64.5453 55.0439 63.9434C55.6318 63.3275 56.6118 63.3275 57.2277 63.9434ZM60.7554 67.2471C61.3993 67.8911 61.3993 68.983 60.7554 69.6549C60.0834 70.2989 58.9915 70.2989 58.3476 69.6549C57.6756 68.983 57.6756 67.8911 58.3476 67.2471C58.9915 66.5612 60.0834 66.5612 60.7554 67.2471ZM64.1711 70.6628C64.843 71.3068 64.843 72.3987 64.1711 73.0706C63.4991 73.7146 62.4072 73.7146 61.7633 73.0706C61.0913 72.3987 61.0913 71.3068 61.7633 70.6628C62.4072 69.9769 63.4991 69.9769 64.1711 70.6628ZM67.6988 73.9525C68.4407 74.6524 68.4407 75.8703 67.6988 76.5983C66.9568 77.3402 65.7809 77.3402 65.053 76.5983C64.3111 75.8563 64.3111 74.6804 65.053 73.9525C65.7949 73.2106 66.9708 73.2106 67.6988 73.9525ZM71.1145 77.3682C71.8424 78.0961 71.8424 79.286 71.1145 80.014C70.3725 80.7559 69.1966 80.7559 68.4687 80.014C67.7408 79.286 67.7408 78.0961 68.4687 77.3682C69.1966 76.6263 70.3865 76.6263 71.1145 77.3682ZM74.5301 80.7839C75.2721 81.5258 75.2721 82.7017 74.5301 83.4297C73.7882 84.1716 72.6123 84.1716 71.8844 83.4297C71.1424 82.6877 71.1424 81.5118 71.8844 80.7839C72.6123 80.042 73.7882 80.042 74.5301 80.7839ZM77.8198 84.3116C78.4918 84.9835 78.4918 86.0474 77.8198 86.7194C77.1759 87.3913 76.084 87.3913 75.4121 86.7194C74.7681 86.0474 74.7681 84.9835 75.4121 84.3116C76.084 83.6397 77.1759 83.6397 77.8198 84.3116ZM81.1795 87.7833C81.8235 88.4272 81.8235 89.4631 81.1795 90.0791C80.5636 90.695 79.5277 90.695 78.8838 90.0791C78.2678 89.4631 78.2678 88.4272 78.8838 87.7833C79.5277 87.1673 80.5636 87.1673 81.1795 87.7833ZM84.4973 91.2829C85.0852 91.8709 85.0852 92.8088 84.4973 93.3968C83.9373 93.9847 82.9714 93.9847 82.3834 93.3968C81.8235 92.8088 81.8235 91.8709 82.3834 91.2829C82.9714 90.695 83.9513 90.695 84.4973 91.2829ZM58.9355 58.8059C59.5235 59.4218 59.5235 60.3877 58.9355 60.9897C58.3196 61.6056 57.3537 61.6056 56.7517 60.9897C56.1358 60.4017 56.1358 59.4358 56.7517 58.8059C57.3397 58.2039 58.3196 58.2039 58.9355 58.8059ZM62.4632 62.0956C63.1072 62.7675 63.1072 63.8594 62.4632 64.5034C61.7913 65.1753 60.6994 65.1753 60.0554 64.5034C59.3835 63.8594 59.3835 62.7675 60.0554 62.0956C60.6994 61.4516 61.7913 61.4516 62.4632 62.0956ZM65.8789 65.5113C66.5509 66.1832 66.5509 67.2751 65.8789 67.9471C65.207 68.591 64.1151 68.591 63.4711 67.9471C62.7992 67.2751 62.7992 66.1832 63.4711 65.5113C64.1431 64.8673 65.207 64.8673 65.8789 65.5113ZM69.4066 68.801C70.1486 69.5429 70.1486 70.7468 69.4066 71.4747C68.6647 72.2027 67.4888 72.2027 66.7608 71.4747C66.0189 70.7328 66.0189 69.5289 66.7608 68.801C67.4888 68.101 68.6787 68.101 69.4066 68.801ZM72.9343 72.1047C73.7322 72.9306 73.7322 74.2185 72.9343 75.0164C72.1364 75.8143 70.8485 75.8143 70.0506 75.0164C69.2526 74.2185 69.2526 72.9306 70.0506 72.1047C70.8485 71.3068 72.1504 71.3068 72.9343 72.1047ZM76.35 75.5484C77.1759 76.3463 77.1759 77.6342 76.35 78.4321C75.5521 79.23 74.2642 79.23 73.4662 78.4321C72.6683 77.6342 72.6683 76.3463 73.4662 75.5484C74.2642 74.7224 75.5521 74.7224 76.35 75.5484ZM79.6537 79.076C80.3956 79.818 80.3956 80.9939 79.6537 81.7218C78.9537 82.4498 77.7359 82.4498 77.0079 81.7218C76.266 80.9799 76.266 79.804 77.0079 79.076C77.7359 78.3341 78.9397 78.3341 79.6537 79.076ZM82.9434 82.6038C83.6153 83.2757 83.6153 84.3396 82.9434 85.0115C82.2994 85.6835 81.2075 85.6835 80.5356 85.0115C79.8917 84.3396 79.8917 83.2757 80.5356 82.6038C81.2075 81.9318 82.2994 81.9318 82.9434 82.6038ZM86.3031 86.0754C86.947 86.7194 86.947 87.7553 86.3031 88.3712C85.6871 88.9872 84.6512 88.9872 84.0353 88.3712C83.3913 87.7553 83.3913 86.7194 84.0353 86.0754C84.6512 85.4595 85.6871 85.4595 86.3031 86.0754ZM89.6208 89.5751C90.2088 90.163 90.2088 91.101 89.6208 91.6889C89.0609 92.2769 88.0949 92.2769 87.535 91.6889C86.947 91.101 86.947 90.163 87.535 89.5751C88.0949 88.9872 89.0609 88.9872 89.6208 89.5751ZM29.5382 50.6166C29.9161 51.0226 29.9161 51.6805 29.5382 52.0865C29.1322 52.4644 28.4743 52.4644 28.0683 52.0865C27.6904 51.6805 27.6904 51.0226 28.0683 50.6166C28.4743 50.2386 29.1182 50.2386 29.5382 50.6166ZM39.9532 60.7097C40.4572 61.2136 40.4572 61.9976 39.9532 62.5015C39.4493 63.0055 38.6233 63.0055 38.1334 62.5015C37.6574 61.9976 37.6574 61.2136 38.1334 60.7097C38.6233 60.2057 39.4493 60.2057 39.9532 60.7097ZM43.425 64.0694C43.9569 64.6014 43.9569 65.4553 43.425 65.9872C42.893 66.5192 42.039 66.5192 41.5071 65.9872C40.9471 65.4553 40.9471 64.6014 41.5071 64.0694C42.039 63.5375 42.893 63.5375 43.425 64.0694ZM46.8406 67.4851C47.3726 68.017 47.3726 68.871 46.8406 69.4029C46.3087 69.9349 45.4547 69.9349 44.9228 69.4029C44.3908 68.871 44.3908 68.017 44.9228 67.4851C45.4547 66.9531 46.3087 66.9531 46.8406 67.4851ZM50.3123 70.8308C50.9003 71.3908 50.9003 72.3007 50.3123 72.8886C49.7524 73.4486 48.8424 73.4486 48.2825 72.8886C47.6945 72.3007 47.6945 71.3908 48.2825 70.8308C48.8424 70.2709 49.7524 70.2709 50.3123 70.8308ZM53.812 74.1905C54.3999 74.7784 54.3999 75.7444 53.812 76.3743C53.1961 76.9622 52.2301 76.9622 51.6282 76.3743C51.0123 75.7583 51.0123 74.7784 51.6282 74.1905C52.2301 73.5745 53.1961 73.5745 53.812 74.1905ZM57.2277 77.6062C57.8156 78.1941 57.8156 79.16 57.2277 79.79C56.6118 80.3779 55.6458 80.3779 55.0439 79.79C54.428 79.174 54.428 78.2081 55.0439 77.6062C55.6318 77.0182 56.6118 77.0182 57.2277 77.6062ZM60.7554 80.8959C61.3993 81.5398 61.3993 82.6317 60.7554 83.3037C60.0834 83.9756 58.9915 83.9756 58.3476 83.3037C57.6756 82.6317 57.6756 81.5678 58.3476 80.8959C58.9915 80.224 60.0834 80.224 60.7554 80.8959ZM64.1711 84.3116C64.843 84.9835 64.843 86.0474 64.1711 86.7194C63.4991 87.3913 62.4072 87.3913 61.7633 86.7194C61.0913 86.0474 61.0913 84.9835 61.7633 84.3116C62.4072 83.6397 63.4991 83.6397 64.1711 84.3116ZM45.1328 58.9459C45.6647 59.4778 45.6647 60.3317 45.1328 60.8637C44.6008 61.3956 43.7469 61.3956 43.2149 60.8637C42.655 60.3317 42.655 59.4778 43.2149 58.9459C43.7469 58.3859 44.6008 58.3859 45.1328 58.9459ZM48.5485 62.3616C49.0804 62.8935 49.0804 63.7474 48.5485 64.2794C48.0165 64.8113 47.1626 64.8113 46.6306 64.2794C46.0987 63.7474 46.0987 62.8935 46.6306 62.3616C47.1626 61.8296 48.0165 61.8296 48.5485 62.3616ZM52.0202 65.7073C52.6081 66.2672 52.6081 67.1771 52.0202 67.737C51.4602 68.325 50.5503 68.325 49.9903 67.737C49.4024 67.1771 49.4024 66.2672 49.9903 65.7073C50.5503 65.1193 51.4602 65.1193 52.0202 65.7073ZM55.5198 69.0669C56.1078 69.6549 56.1078 70.6208 55.5198 71.2507C54.9039 71.8387 53.938 71.8387 53.3501 71.2507C52.7341 70.6348 52.7341 69.6549 53.3501 69.0669C53.924 68.451 54.9039 68.451 55.5198 69.0669ZM59.0475 72.3707C59.6915 73.0146 59.6915 74.1065 59.0475 74.7785C58.3756 75.4224 57.2837 75.4224 56.6397 74.7785C55.9678 74.1065 55.9678 73.0146 56.6397 72.3707C57.2837 71.6847 58.3756 71.6847 59.0475 72.3707ZM62.4632 75.7724C63.1072 76.4163 63.1072 77.5082 62.4632 78.1801C61.7913 78.8241 60.6994 78.8241 60.0554 78.1801C59.3835 77.5082 59.3835 76.4163 60.0554 75.7724C60.6994 75.1004 61.7913 75.1004 62.4632 75.7724ZM65.8789 79.1881C66.5509 79.832 66.5509 80.9239 65.8789 81.5958C65.207 82.2678 64.1151 82.2678 63.4711 81.5958C62.7992 80.9239 62.7992 79.832 63.4711 79.1881C64.1431 78.5161 65.207 78.5161 65.8789 79.1881ZM69.2946 82.6038C69.9665 83.2757 69.9665 84.3396 69.2946 85.0115C68.6227 85.6835 67.5588 85.6835 66.8868 85.0115C66.2149 84.3396 66.2149 83.2757 66.8868 82.6038C67.5588 81.9318 68.6087 81.9318 69.2946 82.6038ZM72.7103 86.0194C73.3822 86.6914 73.3822 87.7553 72.7103 88.4272C72.0664 89.0992 70.9745 89.0992 70.3025 88.4272C69.6306 87.7553 69.6306 86.6914 70.3025 86.0194C70.9745 85.3475 72.0524 85.3475 72.7103 86.0194ZM39.9532 74.3585C40.4572 74.8624 40.4572 75.6884 39.9532 76.1783C39.4493 76.6543 38.6233 76.6543 38.1334 76.1783C37.6574 75.6744 37.6574 74.8484 38.1334 74.3585C38.6233 73.8685 39.4493 73.8685 39.9532 74.3585ZM43.425 77.7182C43.9569 78.2501 43.9569 79.1321 43.425 79.664C42.893 80.196 42.039 80.196 41.5071 79.664C40.9471 79.1321 40.9471 78.2501 41.5071 77.7182C42.039 77.1862 42.893 77.1862 43.425 77.7182ZM46.9526 81.0219C47.5686 81.6098 47.5686 82.6177 46.9526 83.2057C46.3647 83.7936 45.3988 83.7936 44.8108 83.2057C44.1949 82.5897 44.1949 81.6098 44.8108 81.0219C45.3988 80.4339 46.3647 80.4339 46.9526 81.0219ZM27.8863 55.7122C28.3063 56.1321 28.3063 56.8321 27.8863 57.266C27.4524 57.714 26.7384 57.714 26.3045 57.266C25.8985 56.8181 25.8985 56.1181 26.3045 55.7122C26.7384 55.2642 27.4524 55.2642 27.8863 55.7122ZM31.302 59.1279C31.708 59.5338 31.708 60.2478 31.302 60.6817C30.8681 61.1297 30.1541 61.1297 29.7202 60.6817C29.3002 60.2478 29.3002 59.5338 29.7202 59.1279C30.1541 58.6799 30.8681 58.6799 31.302 59.1279ZM34.7737 62.4736C35.2497 62.9495 35.2497 63.6774 34.7737 64.1534C34.2977 64.6294 33.5418 64.6294 33.0658 64.1534C32.6179 63.6774 32.6179 62.9495 33.0658 62.4736C33.5418 62.0116 34.2977 62.0116 34.7737 62.4736ZM38.2454 65.8332C38.7494 66.3372 38.7494 67.1351 38.2454 67.6251C37.7414 68.129 36.9155 68.129 36.4256 67.6251C35.9216 67.1211 35.9216 66.3372 36.4256 65.8332C36.9155 65.3293 37.7414 65.3293 38.2454 65.8332ZM41.6611 69.2489C42.1651 69.7529 42.1651 70.5368 41.6611 71.0408C41.1571 71.5447 40.3312 71.5447 39.8693 71.0408C39.3653 70.5368 39.3653 69.7529 39.8693 69.2489C40.3312 68.745 41.1571 68.745 41.6611 69.2489ZM45.1328 72.5946C45.6647 73.1266 45.6647 73.9805 45.1328 74.5405C44.6008 75.0724 43.7469 75.0724 43.2149 74.5405C42.655 73.9805 42.655 73.1266 43.2149 72.5946C43.7469 72.0767 44.6008 72.0767 45.1328 72.5946Z" fill="white"/>
<path d="M99.7992 45.2685C100.331 45.8005 100.331 46.6824 99.7992 47.2143C99.2673 47.7463 98.3853 47.7463 97.8534 47.2143C97.3214 46.6824 97.3214 45.8005 97.8534 45.2685C98.3993 44.7366 99.2813 44.7366 99.7992 45.2685ZM103.215 48.6702C103.747 49.2022 103.747 50.0841 103.215 50.616C102.683 51.148 101.801 51.148 101.269 50.616C100.737 50.0841 100.737 49.2022 101.269 48.6702C101.801 48.1523 102.697 48.1523 103.215 48.6702ZM111.516 23.3045C111.894 23.6824 111.894 24.3404 111.516 24.7463C111.11 25.1523 110.452 25.1523 110.074 24.7463C109.654 24.3404 109.654 23.6824 110.074 23.3045C110.452 22.8985 111.11 22.8985 111.516 23.3045ZM114.932 26.7202C115.31 27.0981 115.31 27.7841 114.932 28.162C114.526 28.568 113.868 28.568 113.49 28.162C113.084 27.7841 113.084 27.0981 113.49 26.7202C113.868 26.3142 114.512 26.3142 114.932 26.7202ZM108.156 33.4956C108.562 33.9435 108.562 34.6435 108.156 35.0494C107.723 35.4974 107.009 35.4974 106.561 35.0494C106.155 34.6435 106.155 33.9295 106.561 33.4956C107.009 33.0476 107.723 33.0476 108.156 33.4956ZM111.572 36.9113C111.992 37.3452 111.992 38.0592 111.572 38.4651C111.138 38.8991 110.424 38.8991 109.99 38.4651C109.584 38.0592 109.584 37.3452 109.99 36.9113C110.424 36.4633 111.138 36.4633 111.572 36.9113ZM114.988 40.313C115.436 40.7609 115.436 41.4609 114.988 41.9088C114.554 42.3148 113.84 42.3148 113.434 41.9088C112.986 41.4609 112.986 40.7609 113.434 40.313C113.84 39.879 114.554 39.879 114.988 40.313ZM109.808 28.428C110.186 28.806 110.186 29.4919 109.808 29.8699C109.402 30.2759 108.744 30.2759 108.338 29.8699C107.961 29.4919 107.961 28.806 108.338 28.428C108.744 28.0221 109.402 28.0221 109.808 28.428ZM113.224 31.8437C113.602 32.2497 113.602 32.9076 113.224 33.2856C112.818 33.6915 112.16 33.6915 111.782 33.2856C111.376 32.9076 111.376 32.2497 111.782 31.8437C112.16 31.4378 112.818 31.4378 113.224 31.8437ZM98.0354 36.7853C98.5113 37.2892 98.5113 38.1152 98.0354 38.6051C97.5314 39.0811 96.7055 39.0811 96.2156 38.6051C95.7116 38.1012 95.7116 37.2752 96.2156 36.7853C96.7195 36.2953 97.5454 36.2953 98.0354 36.7853ZM101.451 40.201C101.955 40.7049 101.955 41.5309 101.451 42.0208C100.947 42.5248 100.121 42.5248 99.6313 42.0208C99.1273 41.5169 99.1273 40.6909 99.6313 40.201C100.135 39.697 100.947 39.697 101.451 40.201ZM104.867 43.6167C105.371 44.1206 105.371 44.9465 104.867 45.4365C104.363 45.9404 103.537 45.9404 103.047 45.4365C102.543 44.9325 102.543 44.1066 103.047 43.6167C103.537 43.1127 104.363 43.1127 104.867 43.6167ZM103.103 35.1474C103.551 35.6234 103.551 36.3793 103.103 36.8273C102.627 37.3032 101.871 37.3032 101.395 36.8273C100.919 36.3793 100.919 35.6234 101.395 35.1474C101.871 34.6715 102.627 34.6715 103.103 35.1474ZM106.519 38.5491C106.995 39.0251 106.995 39.781 106.519 40.257C106.043 40.7049 105.287 40.7049 104.811 40.257C104.335 39.781 104.335 39.0251 104.811 38.5491C105.287 38.0871 106.043 38.0871 106.519 38.5491ZM109.934 41.9648C110.41 42.4408 110.41 43.1967 109.934 43.6726C109.458 44.1206 108.702 44.1206 108.226 43.6726C107.779 43.1967 107.779 42.4408 108.226 41.9648C108.688 41.5028 109.458 41.5028 109.934 41.9648ZM113.336 45.3805C113.812 45.8565 113.812 46.6124 113.336 47.0883C112.86 47.5643 112.104 47.5643 111.628 47.0883C111.18 46.6124 111.18 45.8565 111.628 45.3805C112.104 44.9045 112.874 44.9045 113.336 45.3805ZM91.246 43.5607C91.8059 44.0926 91.8059 44.9745 91.246 45.5065C90.714 46.0384 89.8601 46.0384 89.3282 45.5065C88.7962 44.9745 88.7962 44.0926 89.3282 43.5607C89.8601 43.0287 90.714 43.0287 91.246 43.5607ZM94.7457 46.9064C95.3056 47.4663 95.3056 48.4042 94.7457 48.9642C94.1577 49.5241 93.2478 49.5241 92.6879 48.9642C92.1279 48.4042 92.1279 47.4663 92.6879 46.9064C93.2478 46.3464 94.1577 46.3464 94.7457 46.9064ZM98.1614 50.3221C98.7213 50.882 98.7213 51.8199 98.1614 52.3799C97.5734 52.9398 96.6635 52.9398 96.1036 52.3799C95.5436 51.8199 95.5436 50.882 96.1036 50.3221C96.6635 49.7621 97.5734 49.7621 98.1614 50.3221ZM96.3976 41.8528C96.9295 42.3848 96.9295 43.2667 96.3976 43.7986C95.8376 44.3306 94.9837 44.3306 94.4517 43.7986C93.9198 43.2667 93.9198 42.3848 94.4517 41.8528C94.9837 41.3209 95.8376 41.3209 96.3976 41.8528Z" fill="white"/>
<path d="M151.032 40.5521V30.6969H147.21V40.706C147.21 42.0919 146.86 43.1418 146.216 43.8558C145.544 44.5277 144.634 44.8917 143.444 44.8917C142.269 44.8917 141.331 44.5417 140.673 43.7998C140.001 43.0998 139.679 42.0079 139.679 40.5941V30.7109H135.857V40.692C135.857 43.2818 136.529 45.1996 137.859 46.4875C139.217 47.7754 141.065 48.4334 143.388 48.4334C144.564 48.4334 145.628 48.2794 146.566 47.9574C147.504 47.6354 148.302 47.1315 148.974 46.4875C149.618 45.8436 150.15 45.0177 150.5 44.0517C150.864 43.0298 151.032 41.8819 151.032 40.5521ZM171.918 48.1534L164.443 30.585H160.915L153.44 48.1534H157.359L158.955 44.2337H166.346L167.928 48.1534H171.918ZM164.947 40.846H160.327L162.651 35.1905L164.947 40.846ZM187.876 48.1534V44.7377H178.427V41.084H186.645V37.6683H178.427V34.1126H187.75V30.6969H174.634V48.1534H187.876Z" fill="white"/>
<path d="M153.272 96.0567V78.6003H149.156L144.564 85.9916L139.973 78.6003H135.857V96.0567H139.623V84.7597L144.48 92.123H144.592L149.506 84.6757V96.0707H153.272V96.0567ZM174.452 96.0567L166.976 78.4883H163.449L155.973 96.0567H159.893L161.489 92.1371H168.838L170.462 96.0567H174.452ZM167.48 88.7493H162.833L165.157 83.1079L167.48 88.7493ZM190.928 84.6897V84.6337C190.928 83.7518 190.788 82.9259 190.48 82.1979C190.158 81.456 189.71 80.8121 189.15 80.2801C188.562 79.7482 187.89 79.3422 187.065 79.0482C186.239 78.7542 185.301 78.6003 184.265 78.6003H177.111V96.0567H180.961V90.8212H183.873C184.839 90.8212 185.763 90.7092 186.617 90.4432C187.499 90.1772 188.24 89.7993 188.884 89.2953C189.5 88.7634 190.004 88.1194 190.382 87.3495C190.76 86.6075 190.928 85.6976 190.928 84.6897ZM187.051 84.7597C187.051 85.5296 186.785 86.1456 186.253 86.6495C185.721 87.1815 184.993 87.4195 184.013 87.4195H180.989V82.0999H183.957C184.895 82.0999 185.665 82.3379 186.225 82.7719C186.785 83.2059 187.051 83.8638 187.051 84.7457V84.7597Z" fill="white"/>
<path d="M150.923 72.1049L146.653 65.8615C147.773 65.4555 148.683 64.7976 149.355 63.9156C150.027 63.0337 150.391 61.8858 150.391 60.4719V60.416C150.391 58.5961 149.803 57.1822 148.655 56.1743C147.507 55.1804 145.883 54.6485 143.825 54.6485H135.846V72.1049H139.668V66.5194H142.664L146.401 72.1049H150.923ZM146.499 60.6539C146.499 61.4239 146.233 62.0118 145.729 62.4458C145.225 62.9217 144.497 63.1177 143.546 63.1177H139.668V58.1202H143.489C144.427 58.1202 145.169 58.3301 145.701 58.7361C146.233 59.142 146.499 59.772 146.499 60.6119V60.6539ZM167.105 72.1049V68.6892H157.628V65.0355H165.873V61.6198H157.628V58.0642H166.979V54.6485H153.849V72.1049H167.105ZM183.134 66.9534V66.8974C183.134 66.1274 183.022 65.4835 182.784 64.9235C182.546 64.3916 182.196 63.8876 181.72 63.4817C181.244 63.1037 180.656 62.7537 179.956 62.4458C179.284 62.1518 178.486 61.8858 177.604 61.6478C176.862 61.4378 176.247 61.2979 175.757 61.1159C175.253 60.9759 174.875 60.8219 174.581 60.6399C174.315 60.4859 174.105 60.29 173.993 60.08C173.909 59.87 173.839 59.632 173.839 59.352V59.3241C173.839 58.8761 174.021 58.5261 174.399 58.2322C174.777 57.9382 175.337 57.7842 176.079 57.7842C176.821 57.7842 177.576 57.9382 178.318 58.2601C179.088 58.5541 179.844 58.9601 180.614 59.492L182.616 56.6083C181.706 55.9084 180.74 55.3484 179.676 54.9564C178.584 54.5785 177.408 54.3965 176.149 54.3965C175.239 54.3965 174.413 54.5085 173.671 54.7745C172.929 55.0124 172.285 55.3624 171.753 55.8384C171.221 56.3143 170.787 56.8743 170.493 57.4902C170.199 58.1341 170.045 58.8481 170.045 59.674V59.702C170.045 60.5839 170.199 61.2839 170.451 61.8858C170.717 62.4737 171.123 62.9497 171.627 63.3277C172.131 63.7337 172.719 64.0556 173.447 64.3216C174.147 64.5876 174.945 64.8255 175.827 65.0215C176.569 65.2315 177.156 65.3995 177.618 65.5535C178.066 65.7355 178.416 65.8755 178.682 66.0574C178.948 66.2394 179.13 66.4074 179.214 66.5894C179.298 66.7994 179.368 66.9953 179.368 67.2613V67.2893C179.368 67.8213 179.13 68.2273 178.696 68.5212C178.248 68.7872 177.632 68.9272 176.849 68.9272C175.855 68.9272 174.931 68.7452 174.105 68.3672C173.251 67.9893 172.425 67.4573 171.627 66.8134L169.359 69.5431C170.423 70.481 171.571 71.195 172.859 71.629C174.119 72.1049 175.449 72.3009 176.779 72.3009C177.716 72.3009 178.57 72.1889 179.368 71.9509C180.138 71.7129 180.81 71.363 181.37 70.915C181.93 70.4391 182.364 69.8791 182.7 69.2072C182.994 68.5632 183.134 67.8073 183.134 66.9534ZM199.736 72.1049V68.6892H190.287V65.0355H198.505V61.6198H190.287V58.0642H199.61V54.6485H186.48V72.1049H199.736ZM220.189 72.1049L212.713 54.5365H209.158L201.682 72.1049H205.602L207.226 68.1852H214.575L216.171 72.1049H220.189ZM213.217 64.7975H208.57L210.893 59.1421L213.217 64.7975ZM237.925 72.1049L233.683 65.8615C234.775 65.4555 235.685 64.7976 236.357 63.9156C237.057 63.0337 237.421 61.8858 237.421 60.4719V60.416C237.421 58.5961 236.833 57.1822 235.685 56.1743C234.509 55.1804 232.913 54.6485 230.828 54.6485H222.848V72.1049H226.67V66.5194H229.708L233.445 72.1049H237.925ZM233.515 60.6539C233.515 61.4239 233.277 62.0118 232.773 62.4458C232.242 62.9217 231.542 63.1177 230.59 63.1177H226.67V58.1202H230.492C231.43 58.1202 232.172 58.3301 232.704 58.7361C233.235 59.142 233.501 59.772 233.501 60.6119V60.6539H233.515ZM256.207 69.2771L253.772 66.8414C253.1 67.4573 252.414 67.9613 251.714 68.3112C251.042 68.6892 250.188 68.8712 249.18 68.8712C248.438 68.8712 247.738 68.7312 247.122 68.4232C246.506 68.1293 245.974 67.7513 245.526 67.2473C245.092 66.7434 244.728 66.1554 244.49 65.5115C244.252 64.8396 244.112 64.1256 244.112 63.3977V63.3417C244.112 62.5998 244.266 61.8998 244.49 61.2279C244.728 60.5839 245.078 60.024 245.554 59.52C246.002 59.0161 246.52 58.6101 247.136 58.3441C247.752 58.0501 248.424 57.8962 249.166 57.8962C250.048 57.8962 250.846 58.0782 251.546 58.4281C252.246 58.7781 252.96 59.2541 253.632 59.87L256.067 57.0703C255.661 56.6643 255.213 56.3003 254.766 55.9503C254.29 55.6284 253.8 55.3344 253.24 55.1244C252.68 54.8864 252.092 54.6765 251.42 54.5645C250.748 54.4105 250.006 54.3545 249.18 54.3545C247.822 54.3545 246.618 54.5925 245.498 55.0544C244.378 55.5304 243.413 56.1743 242.615 57.0003C241.817 57.8262 241.201 58.7921 240.767 59.884C240.333 60.9759 240.095 62.1238 240.095 63.3837V63.4117C240.095 64.6716 240.333 65.8614 240.767 66.9394C241.215 68.0313 241.831 68.9692 242.615 69.7951C243.413 70.593 244.378 71.237 245.47 71.671C246.562 72.1469 247.738 72.3709 249.026 72.3709C249.88 72.3709 250.65 72.3149 251.322 72.1609C251.994 72.0209 252.61 71.8109 253.212 71.5449C253.772 71.251 254.304 70.929 254.794 70.551C255.297 70.1871 255.759 69.7811 256.207 69.2771ZM274 72.1049V54.6485H270.178V61.5638H263.081V54.6485H259.259V72.1049H263.081V65.1055H270.178V72.1049H274Z" fill="white"/>
</svg>
