<svg width="299" height="124" viewBox="0 0 299 124" fill="none" xmlns="http://www.w3.org/2000/svg">
<path d="M241.508 36.0178C234.674 33.5121 229.259 28.1015 226.766 21.2729C226.16 19.5933 225.719 17.8173 225.484 16H225.278V26.7523C225.278 32.6861 230.086 37.5047 236.038 37.5047H246.812V37.3119C244.966 37.0641 243.188 36.6373 241.508 36.0178Z" fill="white"/>
<path d="M208.194 36.0178C215.013 33.5121 220.456 28.1015 222.935 21.2729C223.555 19.5933 223.983 17.8173 224.231 16H224.437V26.7523C224.437 32.6861 219.615 37.5047 213.677 37.5047H202.917V37.3119C204.749 37.0641 206.513 36.6373 208.194 36.0178Z" fill="white"/>
<path d="M241.508 39.8316C234.674 42.3235 229.259 47.7479 226.766 54.5765C226.16 56.2561 225.719 58.0183 225.484 59.8494H225.278V49.0971C225.278 43.1495 230.086 38.3447 236.038 38.3447H246.812V38.5512C244.966 38.7853 243.188 39.2258 241.508 39.8316Z" fill="white"/>
<path d="M208.194 39.8316C215.013 42.3235 220.456 47.7479 222.935 54.5765C223.555 56.2561 223.983 58.0183 224.231 59.8494H224.437V49.0971C224.437 43.1495 219.615 38.3447 213.677 38.3447H202.917V38.5512C204.749 38.7853 206.513 39.2258 208.194 39.8316Z" fill="white"/>
<path d="M241.508 84.465C234.674 81.9732 229.259 76.5488 226.766 69.7339C226.16 68.0406 225.719 66.2783 225.484 64.4473H225.278V75.2134C225.278 81.1471 230.086 85.9519 236.038 85.9519H246.812V85.7454C244.966 85.5114 243.188 85.0708 241.508 84.465Z" fill="white"/>
<path d="M208.194 84.465C215.013 81.9732 220.456 76.5488 222.935 69.7339C223.555 68.0406 223.983 66.2783 224.231 64.4473H224.437V75.2134C224.437 81.1471 219.615 85.9519 213.677 85.9519H202.917V85.7454C204.749 85.5114 206.513 85.0708 208.194 84.465Z" fill="white"/>
<path d="M241.508 88.2789C234.674 90.7845 229.259 96.1951 226.766 103.024C226.16 104.703 225.719 106.466 225.484 108.297H225.278V97.5443C225.278 91.6106 230.086 86.792 236.038 86.792H246.812V86.9985C244.966 87.2325 243.188 87.6593 241.508 88.2789Z" fill="white"/>
<path d="M208.194 88.2789C215.013 90.7845 220.456 96.1951 222.935 103.024C223.555 104.703 223.983 106.466 224.231 108.297H224.437V97.5443C224.437 91.6106 219.615 86.792 213.677 86.792H202.917V86.9985C204.749 87.2325 206.513 87.6593 208.194 88.2789Z" fill="white"/>
<path d="M251.014 78.7934C253.508 71.951 258.922 66.5542 265.742 64.0485C267.423 63.429 269.2 63.0022 271.032 62.7544V62.5479H260.259C254.321 62.5479 249.499 67.3664 249.499 73.3139V84.0663H249.719C249.939 82.2352 250.38 80.473 251.014 78.7934Z" fill="white"/>
<path d="M251.014 45.4897C253.508 52.3183 258.922 57.7427 265.742 60.2346C267.423 60.8541 269.2 61.2809 271.032 61.5149V61.7352H260.259C254.321 61.7352 249.499 56.9029 249.499 50.9691V40.2168H249.719C249.939 42.0479 250.38 43.8239 251.014 45.4897Z" fill="white"/>
<path d="M247.184 78.7934C244.676 71.951 239.262 66.5542 232.428 64.0485C230.747 63.429 228.984 63.0022 227.138 62.7544V62.5479H237.925C243.863 62.5479 248.685 67.3664 248.685 73.3139V84.0663H248.465C248.245 82.2352 247.79 80.473 247.184 78.7934Z" fill="white"/>
<path d="M247.184 45.4897C244.676 52.3183 239.262 57.7427 232.428 60.2346C230.747 60.8541 228.984 61.2809 227.138 61.5149V61.7352H237.925C243.863 61.7352 248.685 56.9029 248.685 50.9691V40.2168H248.465C248.245 42.0479 247.79 43.8239 247.184 45.4897Z" fill="white"/>
<path d="M202.531 78.7934C205.039 71.951 210.453 66.5542 217.287 64.0485C218.954 63.429 220.731 63.0022 222.55 62.7544V62.5479H211.79C205.852 62.5479 201.043 67.3664 201.043 73.3139V84.0663H201.264C201.471 82.2352 201.911 80.473 202.531 78.7934Z" fill="white"/>
<path d="M202.531 45.4897C205.039 52.3183 210.453 57.7427 217.287 60.2346C218.954 60.8541 220.731 61.2809 222.55 61.5149V61.7352H211.79C205.852 61.7352 201.043 56.9029 201.043 50.9691V40.2168H201.264C201.471 42.0479 201.911 43.8239 202.531 45.4897Z" fill="white"/>
<path d="M198.715 78.7934C196.207 71.951 190.779 66.5542 183.959 64.0485C182.292 63.429 180.515 63.0022 178.683 62.7544V62.5479H189.47C195.408 62.5479 200.23 67.3664 200.23 73.3139V84.0663H200.024C199.762 82.2352 199.321 80.473 198.715 78.7934Z" fill="white"/>
<path d="M198.715 45.4897C196.207 52.3183 190.779 57.7427 183.959 60.2346C182.292 60.8541 180.515 61.2809 178.683 61.5149V61.7352H189.47C195.408 61.7352 200.23 56.9029 200.23 50.9691V40.2168H200.024C199.762 42.0479 199.321 43.8239 198.715 45.4897Z" fill="white"/>
<path d="M30.6451 21.7547C31.0309 21.7547 31.3477 21.6171 31.5957 21.3417C31.8437 21.0664 31.9677 20.736 31.9677 20.3505C31.9677 19.9787 31.8437 19.6483 31.5957 19.373C31.3477 19.0976 31.0309 18.96 30.6451 18.96C30.2593 18.96 29.9425 19.0976 29.6807 19.373C29.4327 19.6483 29.2949 19.965 29.2949 20.3367C29.2949 20.7222 29.4189 21.0526 29.6807 21.328C29.9425 21.6171 30.2593 21.7547 30.6451 21.7547Z" fill="white"/>
<path d="M33.8004 21.7547C34.1861 21.7547 34.503 21.6171 34.751 21.3417C34.999 21.0664 35.123 20.736 35.123 20.3505C35.123 19.9787 34.999 19.6483 34.751 19.373C34.503 19.0976 34.1861 18.96 33.8004 18.96C33.4146 18.96 33.0977 19.0976 32.836 19.373C32.5742 19.6483 32.4502 19.965 32.4502 20.3367C32.4502 20.7222 32.5742 21.0526 32.836 21.328C33.084 21.6171 33.4146 21.7547 33.8004 21.7547Z" fill="white"/>
<path d="M119.647 30.6347C119.895 31.1166 120.253 31.4608 120.721 31.681C121.19 31.9013 121.824 32.0252 122.609 32.0252H126.37V26.7386C126.37 25.885 126.342 25.0727 126.287 24.2742C126.232 23.4757 126.15 22.7873 126.039 22.1953L123.546 22.5257C123.642 23.159 123.739 23.8474 123.807 24.5908C123.876 25.3343 123.918 26.1741 123.918 27.0965V30.0152H122.733C121.824 30.0152 121.369 29.5196 121.369 28.5145V23.159H118.944V26.9864C118.944 28.1015 118.834 28.9138 118.641 29.4094C118.448 29.9051 118.049 30.1529 117.484 30.1529C117.07 30.1529 116.753 30.0014 116.533 29.6848C116.313 29.3819 116.189 28.8725 116.189 28.1841V23.159H113.722V26.9864C113.722 27.3994 113.681 27.7849 113.598 28.1566C113.516 28.5283 113.392 28.845 113.226 29.1203C113.061 29.3957 112.841 29.6159 112.593 29.7811C112.317 29.9326 112.014 30.0152 111.656 30.0152H111.353H110.967H98.9669V26.7386C98.9669 25.885 98.9394 25.0727 98.8843 24.2742C98.8292 23.4757 98.7465 22.7873 98.6363 22.1953L96.1426 22.5257C96.239 23.159 96.3355 23.8474 96.4043 24.5908C96.4732 25.3343 96.5146 26.1741 96.5146 27.0965V30.0152H95.3435C94.4342 30.0152 93.9795 29.5196 93.9795 28.5145V23.159H91.5547V26.9864C91.5547 28.1015 91.4445 28.9138 91.2516 29.4094C91.0587 29.9051 90.6592 30.1529 90.0943 30.1529C89.681 30.1529 89.3641 30.0014 89.1437 29.6848C88.9233 29.3819 88.7993 28.8725 88.7993 28.1841V23.159H86.3331V26.9864C86.3331 27.3994 86.2918 27.7849 86.2091 28.1566C86.1265 28.5283 86.0025 28.845 85.8371 29.1203C85.6718 29.3957 85.4514 29.6159 85.2034 29.7811C84.914 29.9326 38.7187 30.0152 38.3604 30.0152H38.0573H37.6716H36.2801V23.159C35.7565 23.0627 35.2192 22.9938 34.6681 22.9388C34.117 22.8837 33.5384 22.8699 32.9597 22.8699C32.1055 22.8699 31.3753 23.0076 30.7554 23.2692C30.1492 23.5445 29.6394 23.9025 29.2261 24.3568C28.8265 24.8111 28.5234 25.3205 28.3168 25.9125C28.1101 26.4907 28.0137 27.1103 28.0137 27.7298C28.0137 29.0652 28.3857 30.1116 29.1434 30.8825C29.9012 31.6535 31.0722 32.0252 32.6842 32.0252H37.6578H38.0436H38.5533C39.0355 32.0252 85.3687 31.9426 85.7682 31.7636C86.1678 31.5847 86.526 31.2267 86.8153 30.676C87.1184 31.1992 87.518 31.5984 88.0002 31.8463C88.4824 32.0941 88.9921 32.218 89.5295 32.218C90.1632 32.218 90.6867 32.0803 91.1138 31.8187C91.5409 31.5434 91.9129 31.1579 92.2298 30.6485C92.4778 31.1303 92.836 31.4745 93.3044 31.6948C93.7729 31.9151 94.4066 32.039 95.1919 32.039H110.953H111.339H111.835C112.317 32.039 112.758 31.9564 113.158 31.7774C113.557 31.5984 113.915 31.2405 114.205 30.6898C114.508 31.213 114.907 31.6122 115.39 31.86C115.872 32.1078 116.381 32.2317 116.919 32.2317C117.553 32.2317 118.076 32.0941 118.503 31.8325C118.958 31.5434 119.33 31.1441 119.647 30.6347ZM33.8277 30.0152H32.9322C32.4913 30.0152 32.1331 29.9464 31.83 29.7949C31.5269 29.6435 31.2927 29.4507 31.0998 29.2029C30.9069 28.9551 30.7829 28.6798 30.7003 28.3493C30.6176 28.0327 30.5763 27.6885 30.5763 27.3305C30.5763 26.5596 30.7691 25.9538 31.1549 25.4995C31.5407 25.0589 32.0642 24.8387 32.7393 24.8387C32.8771 24.8387 33.0424 24.8524 33.2353 24.8662C33.4282 24.88 33.6348 24.9213 33.8277 24.9626V30.0152Z" fill="white"/>
<path d="M139.224 20.0888H138.219C137.42 20.0888 137.02 19.841 137.02 19.3591C137.02 19.1801 137.089 19.0287 137.227 18.9323C137.365 18.8222 137.53 18.7671 137.723 18.7671C137.888 18.7671 138.053 18.7946 138.219 18.8359C138.384 18.8772 138.522 18.9323 138.646 19.0011L139.073 17.8585C138.88 17.7758 138.66 17.6932 138.425 17.6519C138.191 17.6106 137.971 17.5693 137.778 17.5693C137.406 17.5693 137.075 17.6244 136.8 17.7208C136.524 17.8171 136.29 17.9548 136.111 18.12C135.918 18.2852 135.78 18.478 135.684 18.6845C135.587 18.891 135.546 19.1113 135.546 19.3453C135.546 19.5381 135.573 19.717 135.615 19.8685C135.656 20.0337 135.739 20.1576 135.849 20.2677C135.753 20.2402 135.656 20.2127 135.518 20.1989C135.394 20.1851 135.257 20.1576 135.119 20.1438C134.981 20.1301 134.857 20.1163 134.747 20.1163C134.637 20.1163 134.54 20.1025 134.458 20.1025V21.5343H139.224V20.0888Z" fill="white"/>
<path d="M161.268 25.6649C161.089 25.0867 160.841 24.591 160.51 24.178C160.18 23.765 159.766 23.4346 159.284 23.2143C158.802 22.994 158.223 22.8701 157.589 22.8701C156.901 22.8701 156.267 22.9665 155.702 23.173C155.137 23.3657 154.655 23.6686 154.242 24.0816C153.828 24.4947 153.525 25.0041 153.305 25.6236C153.084 26.2431 152.974 26.9866 152.974 27.8264C152.974 28.088 152.946 28.3495 152.878 28.6111C152.809 28.8727 152.712 29.1067 152.602 29.327C152.478 29.5335 152.327 29.7125 152.134 29.8364C151.955 29.9603 151.734 30.0154 151.5 30.0154H151.114H150.728H140.643V23.1592C140.12 23.0629 139.569 22.994 139.018 22.9527C138.467 22.9114 137.902 22.8701 137.323 22.8701C136.455 22.8701 135.711 23.0078 135.091 23.2831C134.471 23.5585 133.948 23.9302 133.548 24.3845C133.148 24.8389 132.845 25.362 132.666 25.9402C132.473 26.5185 132.391 27.1105 132.391 27.73C132.391 28.322 132.473 28.8865 132.625 29.4096C132.79 29.9328 133.052 30.3871 133.41 30.7726C133.782 31.1581 134.251 31.461 134.843 31.695C135.435 31.9153 136.166 32.0392 137.047 32.0392H138.191C138.163 32.8928 137.888 33.5536 137.351 34.0492C136.813 34.5311 136.014 34.7789 134.953 34.7789C134.499 34.7789 134.044 34.7514 133.589 34.6963C133.135 34.6412 132.68 34.5724 132.253 34.4623L132.391 36.6375C132.694 36.6926 133.08 36.7339 133.534 36.7752C133.989 36.8165 134.402 36.8303 134.774 36.8303C135.849 36.8303 136.744 36.6788 137.475 36.3897C138.205 36.1006 138.811 35.7289 139.266 35.2608C139.72 34.7927 140.065 34.2833 140.285 33.7188C140.506 33.1544 140.616 32.5899 140.63 32.0254H150.715H151.087H151.1C151.886 32.0254 152.506 31.8878 152.933 31.5986C153.374 31.3095 153.677 30.9103 153.856 30.3596C153.938 30.5386 154.062 30.7313 154.255 30.924C154.434 31.1305 154.696 31.3095 155.013 31.461C155.33 31.6262 155.716 31.7501 156.157 31.8602C156.611 31.9566 157.135 32.0117 157.741 32.0117H161.516V27.5786C161.53 26.8764 161.433 26.2431 161.268 25.6649ZM138.191 30.0154H137.282C136.469 30.0154 135.876 29.7813 135.504 29.3133C135.132 28.8452 134.94 28.1843 134.94 27.3445C134.94 26.5598 135.132 25.9402 135.532 25.4997C135.931 25.0591 136.455 24.8389 137.089 24.8389C137.227 24.8389 137.392 24.8526 137.585 24.8664C137.778 24.8802 137.971 24.9215 138.177 24.9765V30.0154H138.191ZM159.064 30.0154H158.085C157.135 30.0154 156.473 29.7951 156.101 29.3683C155.729 28.9415 155.523 28.2256 155.523 27.2068C155.523 26.5185 155.702 25.9402 156.046 25.4997C156.391 25.0591 156.818 24.8389 157.341 24.8389C157.837 24.8389 158.251 25.0316 158.581 25.4309C158.898 25.8301 159.064 26.4359 159.064 27.2481V30.0154Z" fill="white"/>
<path d="M31.5821 44.457C31.8301 44.1816 31.9541 43.8512 31.9541 43.4657C31.9541 43.094 31.8301 42.7636 31.5821 42.4882C31.3341 42.2129 31.0172 42.0752 30.6314 42.0752C30.2457 42.0752 29.9288 42.2129 29.667 42.4882C29.4052 42.7636 29.2812 43.094 29.2812 43.4657C29.2812 43.8512 29.4052 44.1816 29.667 44.457C29.9288 44.7323 30.2457 44.87 30.6314 44.87C31.0172 44.87 31.3341 44.7461 31.5821 44.457Z" fill="white"/>
<path d="M35.6187 47.3345C35.288 46.9214 34.8747 46.591 34.3925 46.357C33.9103 46.1229 33.3178 45.999 32.6427 45.999C31.9401 45.999 31.2926 46.1092 30.7277 46.3157C30.1628 46.5222 29.6806 46.8388 29.2811 47.2381C28.8815 47.6373 28.5784 48.1192 28.358 48.6974C28.1376 49.2757 28.0273 49.9365 28.0273 50.6662C28.0273 53.6537 29.6117 55.1543 32.7943 55.1543H36.5693V50.7212C36.5693 50.0466 36.4866 49.4133 36.3351 48.8351C36.1835 48.2569 35.9493 47.7475 35.6187 47.3345ZM34.1031 53.1443H33.125C32.1881 53.1443 31.5268 52.924 31.1548 52.4972C30.769 52.0704 30.5899 51.3408 30.5899 50.322C30.5899 49.5923 30.769 49.0141 31.1135 48.5873C31.4579 48.1605 31.885 47.954 32.4085 47.954C32.9459 47.954 33.3729 48.1605 33.676 48.5873C33.9792 49.0003 34.1307 49.5923 34.1307 50.3633V53.1443H34.1031Z" fill="white"/>
<path d="M33.7725 44.8836C34.1583 44.8836 34.4752 44.746 34.7232 44.4706C34.9712 44.1953 35.0952 43.8649 35.0952 43.4794C35.0952 43.1077 34.9712 42.7772 34.7232 42.5019C34.4752 42.2265 34.1583 42.0889 33.7725 42.0889C33.3868 42.0889 33.0699 42.2265 32.8081 42.5019C32.5464 42.7772 32.4224 43.1077 32.4224 43.4794C32.4224 43.8649 32.5464 44.1953 32.8081 44.4706C33.0699 44.746 33.3868 44.8836 33.7725 44.8836Z" fill="white"/>
<path d="M38.2363 43.8514V45.3934C38.5257 45.4209 38.815 45.4484 39.1181 45.4622C39.4212 45.476 39.6829 45.5035 39.9172 45.531V55.1544H42.3833V43.6036C41.6669 43.5761 40.9505 43.5898 40.234 43.6449C39.5176 43.7 38.8425 43.7688 38.2363 43.8514Z" fill="white"/>
<path d="M40.482 40.2166C40.482 40.0376 40.5509 39.8862 40.6887 39.7761C40.8264 39.6659 40.9918 39.6108 41.1847 39.6108C41.35 39.6108 41.5153 39.6384 41.6806 39.6797C41.846 39.721 41.9837 39.7761 42.1077 39.8449L42.5348 38.7022C42.342 38.6058 42.1215 38.537 41.8873 38.4957C41.6531 38.4544 41.4327 38.4131 41.2398 38.4131C40.8678 38.4131 40.5371 38.4544 40.2616 38.5508C39.986 38.6471 39.7518 38.7848 39.5727 38.95C39.3798 39.129 39.2421 39.308 39.1456 39.5145C39.0492 39.721 39.0078 39.9413 39.0078 40.1753C39.0078 40.3681 39.0354 40.547 39.0767 40.6985C39.1181 40.8637 39.2007 40.9876 39.3109 41.0977C39.2145 41.0702 39.1181 41.0564 38.9803 41.0289C38.8563 41.0151 38.7185 40.9876 38.5807 40.9738C38.443 40.9601 38.319 40.9463 38.2088 40.9463C38.0985 40.9463 38.0021 40.9325 37.9194 40.9325V42.3643H42.6864V40.9325H41.6806C40.8816 40.9463 40.482 40.6985 40.482 40.2166Z" fill="white"/>
<path d="M108.721 53.1443H106.462H106.076H104.643V41.208H102.177V53.1443H99.9175H99.5318H98.0989V50.7213C98.0989 50.0191 98.0163 49.3721 97.8372 48.7938C97.658 48.2156 97.4101 47.72 97.0794 47.307C96.7487 46.8939 96.3354 46.5635 95.8532 46.3432C95.371 46.123 94.7924 45.9991 94.1586 45.9991C93.4697 45.9991 92.836 46.0954 92.2711 46.3019C91.7062 46.4947 91.224 46.7976 90.8107 47.2106C90.3974 47.6236 90.0943 48.133 89.8738 48.7525C89.6534 49.3721 89.5432 50.1155 89.5432 50.9553C89.5432 51.2169 89.5156 51.4785 89.4468 51.7401C89.3779 52.0016 89.2814 52.2357 89.1712 52.456C89.0472 52.6625 88.8957 52.8415 88.7028 52.9654C88.5099 53.0893 88.3032 53.1581 88.0552 53.1581H87.6695H50.5809H49.1481V46.3019H46.6819V55.3471C46.6819 56.3521 46.489 57.0405 46.1033 57.4122C45.7175 57.7977 45.1251 57.9767 44.3122 57.9767C44.0229 57.9767 43.7473 57.9629 43.458 57.9216L43.2651 59.9317C43.582 59.973 43.9264 59.9867 44.2709 59.9867C45.2491 59.9867 46.0482 59.8491 46.6819 59.5875C47.3157 59.3259 47.8117 58.9679 48.1699 58.5412C48.5419 58.1006 48.7898 57.605 48.9276 57.0267C49.0654 56.4485 49.1343 55.8565 49.1343 55.2507V55.1681H50.5671H87.6695H87.6833C88.4686 55.1681 89.0885 55.0305 89.5156 54.7414C89.9565 54.4522 90.2596 54.053 90.4387 53.5023C90.5214 53.6813 90.6454 53.874 90.8383 54.0667C91.0174 54.2733 91.2791 54.4522 91.596 54.6037C91.9129 54.7689 92.2987 54.8928 92.7395 55.0029C93.1942 55.0993 93.7177 55.1544 94.3239 55.1544H99.5318H99.9175H106.062H106.448H111.174V41.2218H108.707V53.1443H108.721ZM95.6466 53.1443H94.6684C93.7177 53.1443 93.0564 52.9241 92.6844 52.4973C92.3124 52.0705 92.1196 51.3408 92.1196 50.322C92.1196 49.6337 92.2987 49.0554 92.6431 48.6149C92.9875 48.1743 93.4146 47.954 93.9382 47.954C94.4341 47.954 94.8475 48.1468 95.1781 48.546C95.495 48.9453 95.6603 49.551 95.6603 50.3633V53.1443H95.6466Z" fill="white"/>
<path d="M125.571 56.5723C125.185 56.5723 124.868 56.7099 124.606 56.9853C124.345 57.2606 124.221 57.5911 124.221 57.9628C124.221 58.3483 124.345 58.6787 124.606 58.954C124.868 59.2294 125.185 59.367 125.571 59.367C125.957 59.367 126.274 59.2294 126.522 58.954C126.77 58.6787 126.894 58.3483 126.894 57.9628C126.894 57.5911 126.77 57.2606 126.522 56.9853C126.274 56.7099 125.957 56.5723 125.571 56.5723Z" fill="white"/>
<path d="M122.43 56.5723C122.044 56.5723 121.727 56.7099 121.465 56.9853C121.204 57.2744 121.08 57.5911 121.08 57.9628C121.08 58.3483 121.204 58.6787 121.465 58.954C121.727 59.2294 122.044 59.367 122.43 59.367C122.816 59.367 123.132 59.2294 123.38 58.954C123.628 58.6787 123.752 58.3483 123.752 57.9628C123.752 57.5911 123.628 57.2606 123.38 56.9853C123.132 56.7099 122.816 56.5723 122.43 56.5723Z" fill="white"/>
<path d="M149.048 53.1443H146.733H146.347H134.595V50.4597C134.595 49.7713 134.526 49.1655 134.389 48.6148C134.251 48.0641 134.003 47.596 133.658 47.2106C133.314 46.8251 132.845 46.5222 132.267 46.3157C131.688 46.1092 130.944 45.999 130.062 45.999C129.484 45.999 128.919 46.0266 128.382 46.0954C127.844 46.1642 127.307 46.2468 126.783 46.3707V53.1581H124.91C123.904 53.1581 123.064 53.0755 122.388 52.8827C121.713 52.69 121.176 52.4422 120.763 52.098C120.349 51.7538 120.074 51.327 119.909 50.8314C119.743 50.3358 119.661 49.7713 119.661 49.138C119.661 48.6011 119.702 48.0917 119.771 47.6236C119.853 47.1555 119.977 46.6874 120.157 46.2331L117.553 46.7149C117.442 47.1279 117.36 47.5823 117.291 48.0779C117.222 48.5735 117.181 49.0278 117.181 49.4409C117.181 50.1981 117.291 50.9277 117.525 51.6161C117.746 52.3045 118.145 52.924 118.696 53.4472C119.261 53.9703 120.005 54.3971 120.956 54.7C121.906 55.0029 123.105 55.1681 124.552 55.1681H129.222V48.133C129.319 48.1192 129.442 48.1054 129.566 48.0917C129.69 48.0779 129.828 48.0779 129.966 48.0779C130.779 48.0779 131.344 48.2569 131.661 48.6286C131.978 49.0003 132.143 49.6198 132.143 50.5147V55.1819H146.347H146.733H151.5V46.3157H149.048V53.1443Z" fill="white"/>
<path d="M149.062 56.5723C148.676 56.5723 148.345 56.7099 148.07 56.9853C147.794 57.2606 147.656 57.5911 147.656 57.9628C147.656 58.3483 147.794 58.6787 148.07 58.954C148.345 59.2294 148.676 59.367 149.062 59.367C149.447 59.367 149.778 59.2294 150.04 58.954C150.315 58.6787 150.439 58.3483 150.439 57.9628C150.439 57.5911 150.301 57.2606 150.04 56.9853C149.778 56.7099 149.447 56.5723 149.062 56.5723Z" fill="white"/>
<path d="M160 48.3809C159.463 47.6925 158.747 47.0868 157.865 46.5774C156.983 46.068 155.895 45.7376 154.6 45.5586L154.407 47.665C155.413 47.9266 156.212 48.2708 156.832 48.7113C157.452 49.1519 157.92 49.62 158.251 50.1294C158.581 50.6388 158.802 51.1482 158.912 51.6851C159.022 52.222 159.077 52.7039 159.077 53.1444H153.429V55.1545H161.53V53.0894C161.53 52.2908 161.406 51.4786 161.172 50.6663C160.937 49.854 160.538 49.083 160 48.3809Z" fill="white"/>
<path d="M31.8301 69.3623H28V83.0333H31.5408C33.5385 83.0333 35.0953 82.5102 36.2802 81.4501C37.6992 80.1835 38.4432 78.2973 38.4432 75.9982C38.4432 71.8955 35.9082 69.3623 31.8301 69.3623ZM30.4799 71.5788H31.775C34.4616 71.5788 35.9357 73.1483 35.9357 76.012C35.9357 77.7742 35.4122 79.0821 34.3651 79.9219C33.5109 80.5965 32.6705 80.7892 30.6177 80.7892H30.4799V71.5788Z" fill="white"/>
<path d="M46.007 83.2537C47.5914 83.2537 48.9967 82.6617 49.9336 81.5878C50.8291 80.5966 51.1735 79.4126 51.1735 77.3613V69.3486H48.6661V77.3613C48.6661 79.0822 48.487 79.5503 47.9221 80.101C47.4537 80.5828 46.6684 80.9132 45.9657 80.9132C45.2631 80.9132 44.4502 80.6104 44.0093 80.1698C43.5685 79.7292 43.2929 79.1097 43.2929 77.4026V69.3486H40.813V77.3613C40.813 79.4677 41.1023 80.5002 41.9565 81.4777C42.8934 82.6066 44.3675 83.2537 46.007 83.2537Z" fill="white"/>
<path d="M61.7405 82.3036C62.7325 81.6703 63.3249 80.4863 63.3249 79.1646C63.3249 77.9944 62.8978 77.0031 62.0988 76.3698C61.9059 76.2321 61.7268 76.1082 61.5339 76.0256C61.713 75.9017 61.8645 75.7503 62.0161 75.5851C62.5672 74.9655 62.8565 74.1533 62.8565 73.2033C62.8565 70.8078 61.1619 69.376 58.3375 69.376H54.3008V83.047H58.3375C60.0184 83.0195 60.9139 82.8405 61.7405 82.3036ZM59.7842 74.6902C59.4122 74.9793 58.8886 75.1032 57.9518 75.1032L56.7531 75.117V71.5512H57.6487C58.7371 71.5512 59.2331 71.6201 59.6326 71.8128C60.0873 72.0331 60.4041 72.6113 60.4041 73.2721C60.4041 73.8366 60.1699 74.3735 59.7842 74.6902ZM58.3375 77.2785C60.4179 77.2785 60.845 77.9944 60.845 79.0544C60.845 79.7566 60.6108 80.2247 60.1286 80.4863C59.6877 80.7478 59.2882 80.8442 57.9242 80.8442H56.7394V77.2647H58.3375V77.2785Z" fill="white"/>
<path d="M69.2767 69.3623L64.124 83.0333H66.7142L67.8852 80.0733H73.038L74.0988 83.0333H76.8267L71.798 69.3623H69.2767ZM72.2251 77.8292H68.6981L70.4891 73.0657L72.2251 77.8292Z" fill="white"/>
<path d="M80.9599 69.3623H78.48V83.0333H80.9599V69.3623Z" fill="white"/>
<path d="M106.944 69.3623H104.368L101.764 78.0908L99.3252 69.3623H97.1622L94.6409 78.0771L92.037 69.3623H89.4331L93.6076 83.0196H95.6742L98.1955 74.112L100.689 83.0196H102.756L106.944 69.3623Z" fill="white"/>
<path d="M121.121 76.3145C121.121 74.2907 120.611 72.7625 119.523 71.4822C118.214 69.9815 116.368 69.1279 114.466 69.1279C110.609 69.1279 107.702 72.1981 107.702 76.2594C107.702 77.9804 108.198 79.5085 109.135 80.6925C110.416 82.3033 112.386 83.2533 114.425 83.2533C116.023 83.2533 117.58 82.675 118.792 81.615C120.294 80.3484 121.121 78.4622 121.121 76.3145ZM114.425 71.4822C115.445 71.4822 116.505 71.9365 117.277 72.6937C118.186 73.561 118.6 74.7175 118.6 76.3007C118.6 77.5123 118.159 78.7789 117.484 79.5361C116.712 80.4034 115.555 80.9266 114.384 80.9266C111.959 80.9266 110.209 78.9441 110.209 76.2044C110.209 73.4647 111.986 71.4822 114.425 71.4822Z" fill="white"/>
<path d="M134.815 83.0196H137.295V69.3623H135.022L130.489 78.4212L126.012 69.3623H123.711V83.0196H126.191V75.0345L130.489 83.6942L134.815 75.0345V83.0196Z" fill="white"/>
<path d="M148.014 80.7892H142.958V77.2648H148.014V75.0207H142.958V71.5926H148.014V69.3623H140.478V83.0196H148.014V80.7892Z" fill="white"/>
<path d="M153.208 74.1534L159.463 83.0196H161.53V69.3623H159.064V78.0771L152.864 69.3623H150.742V83.0196H153.208V74.1534Z" fill="white"/>
<path d="M28.124 106.052H35.6464V103.808H30.5902V100.297H35.6464V98.0529H30.5902V94.6248H35.6464V92.3945H28.124V106.052Z" fill="white"/>
<path d="M41.8186 98.0949C40.496 97.6268 40.2204 97.5029 39.8622 97.2413C39.5178 96.9935 39.3111 96.5805 39.3111 96.1124C39.3111 95.1211 40.0138 94.4465 41.0471 94.4465C41.7222 94.4465 42.3008 94.7081 42.5763 95.1349C42.7417 95.4102 42.8106 95.6305 42.8243 96.25L42.8381 96.6631H45.3043V96.25C45.2354 93.7719 43.5821 92.1611 41.0746 92.1611C38.5671 92.1611 36.8174 93.8408 36.8174 96.2363C36.8174 97.3514 37.217 98.2876 37.9609 98.976C38.5947 99.5405 39.132 99.8158 40.7026 100.353C42.7692 101.041 43.0034 101.482 43.0034 102.253C43.0034 103.299 42.1906 103.987 40.9782 103.987C39.8071 103.987 39.2009 103.395 39.1458 102.17L39.1182 101.757H36.7485V102.459C36.7485 103.161 36.9139 103.781 37.2445 104.345C38.0023 105.639 39.2698 106.286 41.0333 106.286C43.6648 106.286 45.4971 104.579 45.4971 102.156C45.4971 101.179 45.1527 100.27 44.519 99.5955C43.9541 98.9898 43.279 98.618 41.8186 98.0949Z" fill="white"/>
<path d="M54.9761 92.3945H45.9795V94.6248H49.2585V106.052H51.7246V94.6248H54.9761V92.3945Z" fill="white"/>
<path d="M58.7924 92.3945L53.6396 106.066H56.2298L57.4009 103.106H62.5536L63.6144 106.066H66.3424L61.3136 92.3945H58.7924ZM61.7407 100.861H58.2137L60.0048 96.098L61.7407 100.861Z" fill="white"/>
<path d="M74.5676 99.0442C74.7467 98.9203 74.8982 98.7688 75.0498 98.6036C75.6009 97.9841 75.8902 97.1718 75.8902 96.2219C75.8902 93.8263 74.1956 92.3945 71.3712 92.3945H67.3345V106.066H71.3712C73.0658 106.066 73.9614 105.873 74.788 105.35C75.78 104.716 76.3724 103.532 76.3724 102.211C76.3724 101.04 75.9453 100.049 75.1462 99.4159C74.9533 99.2507 74.7742 99.1405 74.5676 99.0442ZM69.8006 100.311H71.385C73.4654 100.311 73.8925 101.027 73.8925 102.087C73.8925 102.789 73.6583 103.257 73.1761 103.519C72.7352 103.78 72.3356 103.877 70.9717 103.877H69.7868V100.311H69.8006ZM72.8316 97.7225C72.4596 98.0116 71.9361 98.1355 70.9992 98.1355L69.8006 98.1493V94.5835H70.6961C71.7846 94.5835 72.2805 94.6524 72.6801 94.8451C73.1347 95.0654 73.4516 95.6436 73.4516 96.3045C73.4516 96.8689 73.2174 97.4059 72.8316 97.7225Z" fill="white"/>
<path d="M80.7534 92.3945H78.2734V106.052H85.2585V103.739H80.7534V92.3945Z" fill="white"/>
<path d="M89.3227 92.3945H86.8428V106.066H89.3227V92.3945Z" fill="white"/>
<path d="M96.2118 98.0941C94.8891 97.626 94.6136 97.5021 94.2554 97.2405C93.911 96.9927 93.7043 96.5797 93.7043 96.1116C93.7043 95.1203 94.4069 94.4457 95.4402 94.4457C96.1153 94.4457 96.694 94.7073 96.9695 95.1341C97.1348 95.4095 97.2037 95.6297 97.2175 96.2493L97.2313 96.6623H99.6974L99.6837 96.2217C99.6148 93.7436 97.9615 92.1328 95.454 92.1328C92.9465 92.1328 91.1968 93.8124 91.1968 96.208C91.1968 97.3231 91.5964 98.2593 92.3403 98.9477C92.9741 99.5121 93.5114 99.7875 95.082 100.324C97.1486 101.013 97.3828 101.453 97.3828 102.224C97.3828 103.271 96.57 103.959 95.3576 103.959C94.1865 103.959 93.5803 103.367 93.5252 102.142L93.4976 101.729H91.1279V102.431C91.1279 103.133 91.2933 103.752 91.6239 104.317C92.3817 105.611 93.6492 106.258 95.4127 106.258C98.0442 106.258 99.8765 104.551 99.8765 102.128C99.8765 101.15 99.5321 100.242 98.8983 99.5672C98.361 98.989 97.6722 98.6173 96.2118 98.0941Z" fill="white"/>
<path d="M109.645 98.1493H104.258V92.3945H101.778V106.052H104.258V100.393H109.645V106.052H112.111V92.3945H109.645V98.1493Z" fill="white"/>
<path d="M121.576 101.453L117.098 92.3945H114.811V106.052H117.277V98.0667L121.576 106.726L125.916 98.0667V106.052H128.382V92.3945H126.122L121.576 101.453Z" fill="white"/>
<path d="M130.917 106.052H138.453V103.808H133.396V100.297H138.453V98.0529H133.396V94.6248H138.453V92.3945H130.917V106.052Z" fill="white"/>
<path d="M148.841 101.109L142.655 92.3945H140.533V106.052H142.999V97.1856L149.24 106.052H151.321V92.3945H148.841V101.109Z" fill="white"/>
<path d="M152.547 92.3945V94.6248H155.812V106.052H158.292V94.6248H161.543V92.3945H152.547Z" fill="white"/>
</svg>
