<svg width="299" height="124" viewBox="0 0 299 124" fill="none" xmlns="http://www.w3.org/2000/svg">
<path d="M223.649 63.377V90.9181H191.352V101.06H234.5V63.377H223.649Z" fill="white"/>
<path d="M65.5 19.833V101.06H76.4534V29.9338H103.255V19.833H65.5Z" fill="white"/>
<path d="M118.482 30.7875C118.482 32.5573 119.704 33.3775 121.957 33.3775C123.925 33.3775 125.332 32.8884 125.992 32.2871C125.314 31.9864 124.194 31.7657 123.195 31.5297L123.72 29.1281C125.144 29.444 127.009 29.6648 128.619 29.6648H129.314L128.805 32.3499H128.568C128.484 32.3499 128.347 32.3347 128.212 32.3175C128.145 32.7286 128.008 33.1225 127.755 33.486C126.635 35.0978 124.331 36.0608 121.397 36.0608C117.904 36.0608 116.039 34.4489 116.039 31.7333C116.039 30.6429 116.362 29.0482 116.65 28.0225L118.768 28.2908C118.584 29.2708 118.482 30.0454 118.482 30.7875ZM122.584 38.116L123.72 36.8524L125.416 38.1636L124.059 39.5528L122.687 38.5099L121.5 39.7107L119.855 38.4624L121.161 37.0085L122.584 38.116Z" fill="white"/>
<path d="M133.131 29.667L132.623 32.3521H127.961L128.47 29.667H133.131Z" fill="white"/>
<path d="M136.944 29.667L136.435 32.3521H131.773L132.282 29.667H136.944Z" fill="white"/>
<path d="M140.764 29.667L140.256 32.3521H135.594L136.102 29.667H140.764Z" fill="white"/>
<path d="M144.577 29.667L144.068 32.3521H139.406L139.915 29.667H144.577Z" fill="white"/>
<path d="M148.389 29.667L147.881 32.3521H143.219L143.727 29.667H148.389Z" fill="white"/>
<path d="M152.206 29.667L151.697 32.3521H147.035L147.544 29.667H152.206Z" fill="white"/>
<path d="M156.022 29.667L155.513 32.3521H150.852L151.36 29.667H156.022Z" fill="white"/>
<path d="M157.63 28.9872C157.63 28.2451 157.375 26.5704 157.207 25.6075L159.665 25.2764C159.8 26.1137 159.937 27.1565 159.937 28.167C159.937 29.3983 159.732 30.6619 159.021 31.404C158.427 32.0206 157.412 32.3517 155.835 32.3517H154.664L155.173 29.6666H156.19C157.31 29.6666 157.63 29.4135 157.63 28.9872ZM159.444 34.7362L157.935 36.2681L156.104 34.8789L157.545 33.2671L159.444 34.7362Z" fill="white"/>
<path d="M168.806 29.3188C168.806 30.1238 168.586 30.7727 168.263 31.1514C167.652 31.8612 165.719 32.5406 163.719 32.5406C162.753 32.5406 161.871 32.415 161.125 32.1143V29.7146C161.787 29.7774 162.533 29.8726 163.719 29.8726C164.788 29.8726 165.873 29.7927 166.823 29.6043C166.263 27.9144 164.957 26.588 163.092 25.1817L164.804 23.3662C167.162 24.803 168.806 26.7764 168.806 29.3188Z" fill="white"/>
<path d="M177.469 23.9502C180.233 23.9502 182.488 24.9759 184.572 25.2138L184.335 27.3927C184.079 27.4251 183.842 27.4555 183.605 27.5031V28.1501C183.605 29.0826 184.063 29.6668 185.742 29.6668H186.657L186.149 32.352H184.962C182.825 32.352 181.859 31.0731 181.826 29.1778L181.81 27.8989C178.555 28.7991 176.537 30.3786 176.537 31.469C176.537 32.685 178.604 33.332 181.387 33.332C182.353 33.332 183.421 33.3168 184.574 33.2692V33.4595L183.642 35.7013C182.794 35.9068 181.489 36.0495 180.2 36.0495C176.284 36.0495 174.316 34.47 174.316 32.0056C174.316 30.1102 175.673 28.4527 177.791 27.4879C178.588 27.1244 179.368 26.8884 180.13 26.7305C179.283 26.525 178.384 26.3194 177.469 26.3194C176.451 26.3194 176.061 26.4298 175.299 26.6829L174.656 24.4412C175.264 24.249 176.112 23.9502 177.469 23.9502ZM181.352 30.978L179.877 32.4623L178.079 31.1207L179.487 29.5564L181.352 30.978Z" fill="white"/>
<path d="M190.475 29.667L189.967 32.3521H185.305L185.813 29.667H190.475Z" fill="white"/>
<path d="M189.121 32.3516L189.63 29.6665H190.122C190.954 29.6665 191.376 29.0023 192.292 27.7559C193.818 25.6873 194.768 24.9756 196.259 24.9756C198.259 24.9756 199.344 26.4752 199.344 28.3553C199.344 29.4286 199.004 30.6142 198.275 31.7351C197.885 32.3345 197.444 32.5876 196.902 32.5876C195.971 32.5876 193.985 31.6723 192.561 30.6446C191.73 31.7979 190.933 32.3497 189.679 32.3497H189.121V32.3516ZM195.75 27.3924C195.107 27.3924 194.649 27.6284 193.818 28.7188C194.988 29.4286 195.836 29.7769 197.023 30.1403C197.125 29.7921 197.176 29.4762 197.176 29.1926C197.174 28.0546 196.428 27.3924 195.75 27.3924Z" fill="white"/>
<path d="M205.55 32.352H204.398C202.449 32.352 201.38 31.1835 201.346 29.3833L201.125 19.8911L203.771 19.6855L203.668 25.5601C203.652 26.3974 203.617 27.2823 203.617 28.055C203.617 29.2386 204.261 29.6668 205.194 29.6668H206.059L205.55 32.352Z" fill="white"/>
<path d="M209.872 29.667L209.363 32.3521H204.699L205.208 29.667H209.872Z" fill="white"/>
<path d="M213.686 29.667L213.177 32.3521H208.516L209.024 29.667H213.686Z" fill="white"/>
<path d="M217.503 29.667L216.994 32.3521H212.332L212.841 29.667H217.503Z" fill="white"/>
<path d="M219.115 28.9877C219.115 28.2456 218.859 26.5709 218.692 25.608L221.149 25.2769C221.284 26.1142 221.421 27.157 221.421 28.1675C221.421 29.3988 221.217 30.6624 220.506 31.4045C219.911 32.0211 218.896 32.3522 217.319 32.3522H216.148L216.657 29.6671H217.674C218.794 29.6671 219.115 29.414 219.115 28.9877ZM221.235 22.7972L219.725 24.3292L217.895 22.94L219.335 21.3281L221.235 22.7972Z" fill="white"/>
<path d="M226.354 25.9238C226.507 26.4453 226.709 27.1551 226.997 27.9448C227.471 29.1761 227.963 29.667 229.116 29.667H230.031L229.522 32.3522H228.911C227.878 32.3522 227.114 31.9735 226.589 31.3265C226.029 33.4426 224.401 35.26 222.096 36.143L220.57 34.2171V33.964C223.706 32.7157 224.928 30.6471 224.928 29.3683C224.928 29.0524 224.605 27.7412 224.25 26.3672L226.354 25.9238Z" fill="white"/>
<path d="M231.646 28.9872C231.646 28.2451 231.391 26.5704 231.223 25.6075L233.681 25.2764C233.815 26.1137 233.952 27.1565 233.952 28.167C233.952 29.3983 233.748 30.6619 233.037 31.404C232.443 32.0206 231.427 32.3517 229.85 32.3517H228.68L229.188 29.6666H230.206C231.323 29.6666 231.646 29.4135 231.646 28.9872ZM233.46 34.7362L231.95 36.2681L230.12 34.8789L231.56 33.2671L233.46 34.7362Z" fill="white"/>
<path d="M93.5385 55.1883C92.0635 55.1883 90.9624 54.5888 90.5723 53.3728C86.4355 53.3405 84.9258 52.7886 84.9258 51.1139C84.9258 48.1129 87.3507 47.0548 90.2331 46.3602V45.1766H92.7091V50.9255C92.7091 52.1416 93.2341 52.505 94.1493 52.505H95.0809L94.5722 55.1902H93.5385V55.1883ZM90.2331 50.9712V48.5068C88.6724 48.8227 87.6387 49.2966 86.7582 50.2443C87.4017 50.6705 88.2659 50.9236 90.2331 50.9712ZM90.4538 42.7578L91.4875 41.6046L93.1994 42.931L91.8429 44.305L90.3516 43.1841L89.2832 44.2745L87.6224 43.0262L88.9277 41.5723L90.4538 42.7578Z" fill="white"/>
<path d="M98.897 52.5029L98.3884 55.1881H93.7266L94.2352 52.5029H98.897Z" fill="white"/>
<path d="M104.899 55.1884C103.408 55.1884 102.474 54.589 102.052 53.6888C101.527 54.6042 100.442 55.1884 98.9158 55.1884H97.543L98.0516 52.5033H99.0016C100.172 52.5033 101.02 51.9971 101.02 50.5298V48.8076H103.087V50.5603C103.087 52.0446 103.596 52.5033 105.292 52.5033H106.154L105.645 55.1884H104.899ZM101.984 57.4149L103.12 56.1513L104.816 57.4625L103.459 58.8517L102.086 57.8088L100.899 59.0096L99.2549 57.7613L100.56 56.3093L101.984 57.4149Z" fill="white"/>
<path d="M107.767 51.8237C107.767 51.0815 107.512 49.4068 107.344 48.4439L109.802 48.1128C109.937 48.9501 110.073 49.993 110.073 51.0035C110.073 52.2347 109.869 53.4983 109.158 54.2405C108.566 54.8571 107.548 55.1882 105.971 55.1882H104.801L105.309 52.503H106.327C107.444 52.503 107.767 52.2499 107.767 51.8237ZM109.888 45.6332L108.378 47.1651L106.547 45.7759L107.988 44.1641L109.888 45.6332Z" fill="white"/>
<path d="M112.561 59.1201L111.34 56.924L111.375 56.7508C113.799 56.277 115.477 55.6927 116.359 54.9829H116.122C112.392 54.9829 111.563 53.4834 111.563 52.1722C111.563 51.0342 112.224 49.7249 112.884 48.918C113.546 48.1435 114.106 47.7344 115.105 47.7344C116.954 47.7344 118.733 49.9304 118.733 52.4729C118.733 55.9782 116.445 58.1571 112.561 59.1201ZM116.715 52.5661C116.561 51.666 115.732 50.4176 114.561 49.7554C113.934 50.4024 113.493 51.3025 113.493 51.4776C113.493 51.7611 114.206 52.568 116.408 52.568H116.715V52.5661Z" fill="white"/>
<path d="M128.62 49.6598V49.0432H130.687V50.5599C130.687 52.0442 131.196 52.5029 132.891 52.5029H133.756L133.247 55.188H132.501C130.415 55.188 129.314 54.0976 129.026 52.598C128.518 53.0719 127.721 53.3725 126.653 53.3725C125.891 53.3725 125.331 53.2774 124.941 53.089C124.704 55.679 122.941 57.9531 120.26 58.9807L118.734 57.0548V56.8017C121.87 55.5534 123.092 53.4848 123.092 52.206C123.092 51.9224 122.753 50.7216 122.414 49.4428L124.516 49.0013C124.601 49.2544 124.702 49.5551 124.82 49.8234C125.057 50.3772 125.566 50.6912 126.804 50.6912C127.772 50.6855 128.62 50.3391 128.62 49.6598ZM129.5 46.4532L130.534 45.3L132.246 46.6264L130.889 48.0003L129.398 46.8795L128.33 47.9699L126.669 46.7215L127.974 45.2695L129.5 46.4532Z" fill="white"/>
<path d="M137.573 52.5029L137.064 55.1881H132.402L132.911 52.5029H137.573Z" fill="white"/>
<path d="M141.389 52.5029L140.881 55.1881H136.219L136.727 52.5029H141.389Z" fill="white"/>
<path d="M142.389 52.5027C143.949 52.5027 144.628 52.0441 144.628 51.9033C144.628 51.713 144.017 50.8129 141.661 48.6815C141.188 48.24 140.797 47.749 140.797 47.2752C140.797 46.6757 140.797 45.9012 141.102 45.4426C141.61 44.6681 144.797 43.532 148.783 42.6318V45.0163C146.342 45.5853 144.342 46.1372 142.967 46.7214C144.56 48.0954 145.475 49.1534 146.358 50.1639C147.919 51.9642 148.409 52.5008 149.545 52.5008H149.849L149.341 55.186H148.644C147.559 55.186 146.779 54.5865 145.931 53.5589C145.406 54.3962 144.303 55.186 142.117 55.186H140.031L140.54 52.5008H142.389V52.5027Z" fill="white"/>
<path d="M153.546 49.7858C153.511 51.3806 153.393 52.7545 153.172 53.3559C152.884 54.2408 151.985 55.1885 149.628 55.1885H148.492L149.001 52.5033H150.153C151.036 52.5033 151.254 52.1075 151.254 51.588C151.254 51.0666 151.238 50.3567 151.219 49.8981L150.948 42.7124L153.661 42.5068L153.546 49.7858Z" fill="white"/>
<path d="M156.816 44.021C157.987 46.3902 158.969 48.8699 159.715 52.1069C160.716 51.6483 161.206 51.2391 161.206 49.6748C161.206 49.0754 161.19 48.3009 161.171 47.3532L161.053 42.7251L163.782 42.5195L163.629 48.9308C163.527 53.3058 160.289 55.2012 157.084 55.2012C156.354 55.2012 155.676 55.1384 155.116 55.106L154.573 52.8624L154.608 52.6568H156.117C156.693 52.6568 157.288 52.6245 157.88 52.5617C157.016 50.2248 155.727 47.8232 154.336 45.1381L156.816 44.021Z" fill="white"/>
<path d="M168.025 42.5049L167.872 55.1865H165.652L165.312 42.7104L168.025 42.5049Z" fill="white"/>
<path d="M176.115 48.459C176.013 48.9957 175.844 49.8482 175.844 50.322C175.844 52.0595 177.437 52.6589 180.659 52.6589C184.405 52.6589 185.406 52.2327 185.406 51.5856C185.406 50.8435 185.186 49.5323 184.981 48.5998L187.439 48.2687C187.574 49.106 187.711 50.1489 187.711 51.1594C187.711 52.5657 187.506 53.3859 186.879 53.9701C185.929 54.855 183.555 55.3441 179.927 55.3441C174.977 55.3441 173.535 53.9225 173.535 51.285C173.535 50.4001 173.874 48.9481 174.146 48.126L176.115 48.459ZM182.219 57.6981L180.71 59.23L178.879 57.8408L180.319 56.2309L182.219 57.6981Z" fill="white"/>
<path d="M193.917 55.1879H192.765C190.816 55.1879 189.748 54.0194 189.713 52.2192L189.492 42.727L192.138 42.5215L192.036 48.3961C192.019 49.2334 191.984 50.1183 191.984 50.8909C191.984 52.0746 192.628 52.5028 193.562 52.5028H194.426L193.917 55.1879Z" fill="white"/>
<path d="M198.241 52.5029L197.732 55.1881H193.07L193.579 52.5029H198.241Z" fill="white"/>
<path d="M202.053 52.5029L201.545 55.1881H196.883L197.391 52.5029H202.053Z" fill="white"/>
<path d="M211.567 55.1879C209.821 55.1879 208.55 54.792 206.989 53.909C205.396 54.7464 203.886 55.1879 201.649 55.1879H200.699L201.208 52.5027H202.072C202.903 52.5027 203.835 52.4399 204.818 52.2648C203.886 51.5855 203.038 50.8909 202.444 50.2914V47.6386C203.733 47.2447 205.428 47.0068 207.089 47.0068C209.038 47.0068 210.938 47.3227 212.125 48.0173C211.853 49.6748 211.091 50.9232 209.447 52.2344C210.515 52.4247 211.379 52.5027 212.243 52.5027H213.142L212.634 55.1879H211.567ZM204.548 49.6596C205.379 50.3714 206.26 51.0184 207.21 51.5074C208.141 51.0184 208.854 50.417 209.498 49.7852C208.666 49.5321 207.786 49.4218 206.871 49.4218C206.109 49.4237 205.312 49.5017 204.548 49.6596Z" fill="white"/>
<path d="M216.843 49.7858C216.808 51.3806 216.69 52.7545 216.469 53.3559C216.181 54.2408 215.282 55.1885 212.925 55.1885H211.789L212.298 52.5033H213.45C214.332 52.5033 214.551 52.1075 214.551 51.588C214.551 51.0666 214.535 50.3567 214.516 49.8981L214.245 42.7124L216.958 42.5068L216.843 49.7858Z" fill="white"/>
<path d="M217.586 43.6903V42.4115C217.772 42.3316 218.011 42.2536 218.248 42.1755C217.823 41.7968 217.688 41.3382 217.688 40.912C217.688 39.8387 218.722 39.2373 219.672 39.2373C220.078 39.2373 220.485 39.3001 220.893 39.4276L221.13 40.6113L221.012 40.6589C220.656 40.5485 220.317 40.4857 219.96 40.4857C219.486 40.4857 218.977 40.6589 218.977 40.912C218.977 41.1498 219.521 41.7169 219.978 41.7169C220.436 41.7169 221.149 41.5266 221.555 41.4162L221.641 41.4315V42.5999C220.115 42.9786 218.419 43.58 217.674 43.7531L217.586 43.6903ZM220.91 44.0215C222.08 46.3907 223.047 48.9179 223.757 52.2177C224.775 51.7439 225.318 51.3499 225.318 50.132C225.318 49.5002 225.283 48.5373 225.267 47.9055L225.149 42.7255L227.878 42.52L227.759 48.7105C227.743 49.4374 227.725 50.1644 227.725 50.8894C227.725 52.0731 228.368 52.5013 229.302 52.5013H230.133L229.625 55.1864H228.505C227.114 55.1864 226.029 54.6174 225.555 53.3709C224.403 54.6345 222.758 55.2035 221.096 55.2035C220.401 55.2035 219.755 55.1407 219.214 55.1084L218.671 52.8647L218.705 52.6592H220.334C220.877 52.6592 221.435 52.6116 221.978 52.5641C221.114 50.21 219.809 47.7951 218.401 45.0929L220.91 44.0215Z" fill="white"/>
<path d="M233.835 49.7858C233.801 51.3806 233.682 52.7545 233.461 53.3559C233.173 54.2408 232.275 55.1885 229.917 55.1885H228.781L229.29 52.5033H230.442C231.325 52.5033 231.543 52.1075 231.543 51.588C231.543 51.0666 231.527 50.3567 231.508 49.8981L231.237 42.7124L233.95 42.5068L233.835 49.7858Z" fill="white"/>
<path d="M97.5548 73.6454C97.5548 77.1469 95.0769 79.3411 90.8604 79.3411H86.2578V67.9668H90.8604C95.0789 67.9668 97.5548 70.1591 97.5548 73.6454ZM94.6928 73.6454C94.6928 71.5844 93.5692 70.1438 90.985 70.1438H88.983V77.164H90.985C93.5672 77.164 94.6928 75.7729 94.6928 73.6454Z" fill="white"/>
<path d="M108.098 70.0947V79.3414H106.059L105.814 78.1958C105.042 79.1454 103.759 79.5697 102.441 79.5697C100.227 79.5697 98.6641 78.4413 98.6641 76.1976V70.0928H101.281V75.3298C101.281 76.6068 101.877 77.2937 103.107 77.2937C104.531 77.2937 105.479 76.2947 105.479 75.052V70.0928H108.098V70.0947Z" fill="white"/>
<path d="M120.274 74.7583C120.274 77.786 117.972 79.6033 115.408 79.6033C113.968 79.6033 112.666 79.0305 112 78.2122L111.806 79.3407H109.68V66.248H112.315V70.9447C113.018 70.2729 114.125 69.8485 115.389 69.8485C118.096 69.8485 120.274 71.8448 120.274 74.7583ZM117.551 74.7412C117.551 73.2188 116.585 72.0732 114.916 72.0732C113.281 72.0732 112.315 73.1369 112.315 74.724C112.315 76.3111 113.281 77.3749 114.916 77.3749C116.585 77.3768 117.551 76.2807 117.551 74.7412Z" fill="white"/>
<path d="M131.219 70.0941V79.3408H128.935L128.829 78.2942C128.126 79.0801 126.878 79.6034 125.491 79.6034C122.925 79.6034 120.625 77.7861 120.625 74.7584C120.625 71.8449 122.803 69.8486 125.526 69.8486C126.897 69.8486 128.143 70.3567 128.829 71.1579L128.935 70.0941H131.219ZM128.602 74.726C128.602 73.1389 127.618 72.0752 126.002 72.0752C124.333 72.0752 123.367 73.2208 123.367 74.7432C123.367 76.2808 124.314 77.3788 125.983 77.3788C127.636 77.3769 128.602 76.3131 128.602 74.726Z" fill="white"/>
<path d="M132.555 67.3274C132.555 66.5262 133.204 66.001 134.117 66.001C134.978 66.001 135.646 66.5243 135.646 67.3274C135.646 68.1304 134.978 68.6538 134.117 68.6538C133.204 68.6538 132.555 68.1304 132.555 67.3274ZM132.781 70.0943H135.417V79.341H132.781V70.0943Z" fill="white"/>
<path d="M152.724 72.1401C152.724 74.6273 150.616 76.3781 147.384 76.3781H144.836V79.3411H142.113V67.9668H147.384C150.616 67.9668 152.724 69.7004 152.724 72.1401ZM149.878 72.1401C149.878 70.9774 148.93 70.1591 147.453 70.1591H144.836V74.1858H147.453C148.93 74.1858 149.878 73.3333 149.878 72.1401Z" fill="white"/>
<path d="M159.277 69.8486L159.242 72.4843C157.749 72.3701 156.783 72.8611 156.186 73.8107V79.3427H153.551V70.096H156.186V71.6831C156.977 70.5356 158.1 69.8639 159.277 69.8486Z" fill="white"/>
<path d="M164.636 79.6015C161.508 79.6015 159.277 77.5386 159.277 74.7241C159.277 71.9248 161.508 69.8467 164.636 69.8467C167.78 69.8467 170.013 71.9248 170.013 74.7241C170.013 77.5063 167.817 79.6015 164.636 79.6015ZM167.289 74.726C167.289 73.1712 166.323 72.0751 164.673 72.0751C162.985 72.0751 162.003 73.2036 162.003 74.7431C162.003 76.2979 162.987 77.3788 164.673 77.3788C166.323 77.3769 167.289 76.2807 167.289 74.726Z" fill="white"/>
<path d="M180.606 70.0941V78.4578C180.606 81.4037 178.269 82.8119 174.965 82.8119C173.315 82.8119 171.627 82.4028 170.328 81.4208L171.558 79.4398C172.543 80.1934 173.719 80.6025 174.949 80.6025C176.863 80.6025 177.989 79.8832 177.989 78.2123V77.9022C177.356 78.6386 176.355 79.0478 175.178 79.0478C172.612 79.0478 170.469 77.2475 170.469 74.4482C170.469 71.6489 172.612 69.8486 175.159 69.8486C176.459 69.8486 177.55 70.3567 178.199 71.1579L178.638 70.0941H180.606ZM177.987 74.4311C177.987 73.0571 177.021 72.0752 175.633 72.0752C174.246 72.0752 173.209 73.0571 173.209 74.4311C173.209 75.8222 174.244 76.8041 175.65 76.8041C177.021 76.8041 177.987 75.8222 177.987 74.4311Z" fill="white"/>
<path d="M187.859 69.8486L187.824 72.4843C186.331 72.3701 185.365 72.8611 184.768 73.8107V79.3427H182.133V70.096H184.768V71.6831C185.559 70.5356 186.682 69.8639 187.859 69.8486Z" fill="white"/>
<path d="M198.454 70.0941V79.3408H196.17L196.064 78.2942C195.361 79.0801 194.113 79.6034 192.725 79.6034C190.16 79.6034 187.859 77.7861 187.859 74.7584C187.859 71.8449 190.037 69.8486 192.76 69.8486C194.131 69.8486 195.377 70.3567 196.064 71.1579L196.17 70.0941H198.454ZM195.837 74.726C195.837 73.1389 194.852 72.0752 193.236 72.0752C191.567 72.0752 190.601 73.2208 190.601 74.7432C190.601 76.2808 191.549 77.3788 193.218 77.3788C194.87 77.3769 195.837 76.3131 195.837 74.726Z" fill="white"/>
<path d="M216.71 79.3411H214.093V74.0546C214.093 72.7777 213.496 72.2372 212.283 72.2372C211.122 72.2372 210.281 72.7453 209.682 73.6607V79.3392H207.047V74.0527C207.047 72.7758 206.467 72.2353 205.255 72.2353C204.095 72.2353 203.253 72.7434 202.655 73.6587V79.3373H200.02V70.0906H202.655V71.5959C203.411 70.4008 204.763 69.8604 206.099 69.8604C207.856 69.8604 208.998 70.6786 209.456 71.9556C210.193 70.4998 211.67 69.8604 213.11 69.8604C215.429 69.8604 216.712 71.3504 216.712 73.3295V79.3411H216.71Z" fill="white"/>
<path d="M89.3179 91.1716V91.5978H92.5865V93.497H89.3179V100.845H86.6826V93.497H84.9258V91.5978H86.6826V90.9261C86.6826 88.7985 88.0003 87.4893 90.654 87.4893C91.8307 87.4893 92.8684 87.7519 93.7285 88.2428L92.8848 90.2562C92.1126 89.7824 91.4793 89.6511 90.8991 89.6511C89.7388 89.6492 89.3179 90.2562 89.3179 91.1716Z" fill="white"/>
<path d="M97.6787 101.105C94.5511 101.105 92.3203 99.0425 92.3203 96.228C92.3203 93.4287 94.5511 91.3506 97.6787 91.3506C100.823 91.3506 103.056 93.4287 103.056 96.228C103.054 99.0102 100.857 101.105 97.6787 101.105ZM100.33 96.228C100.33 94.6732 99.3641 93.5771 97.7135 93.5771C96.0261 93.5771 95.0435 94.7056 95.0435 96.2451C95.0435 97.7999 96.0281 98.8808 97.7135 98.8808C99.3641 98.8808 100.33 97.7827 100.33 96.228Z" fill="white"/>
<path d="M109.695 91.3525L109.66 93.9882C108.167 93.874 107.201 94.365 106.604 95.3146V100.847H103.969V91.5999H106.604V93.187C107.393 92.0395 108.518 91.3678 109.695 91.3525Z" fill="white"/>
<path d="M121.259 101.172C117.517 101.172 114.953 98.6852 114.953 95.1818C114.953 91.646 117.554 89.1436 121.225 89.1436C123.509 89.1436 125.46 90.1579 126.477 91.6974L124.403 93.1532C123.77 91.9904 122.647 91.3206 121.294 91.3206C119.239 91.3206 117.815 92.7764 117.815 95.1989C117.815 97.5225 119.202 98.9954 121.347 98.9954C123.069 98.9954 124.246 98.0306 124.403 96.7042H121.206V94.6585H127.127V95.9354C127.127 99.1267 124.702 101.172 121.259 101.172Z" fill="white"/>
<path d="M138.368 91.598V100.845H136.084L135.978 99.7981C135.275 100.584 134.027 101.107 132.64 101.107C130.074 101.107 127.773 99.29 127.773 96.2623C127.773 93.3488 129.951 91.3525 132.674 91.3525C134.045 91.3525 135.291 91.8606 135.978 92.6618L136.084 91.598H138.368ZM135.751 96.228C135.751 94.6409 134.766 93.5772 133.15 93.5772C131.481 93.5772 130.515 94.7228 130.515 96.2452C130.515 97.7828 131.463 98.8808 133.132 98.8808C134.785 98.8808 135.751 97.817 135.751 96.228Z" fill="white"/>
<path d="M156.624 100.845H154.007V95.5585C154.007 94.2816 153.41 93.7411 152.197 93.7411C151.037 93.7411 150.195 94.2492 149.596 95.1646V100.843H146.961V95.5566C146.961 94.2797 146.381 93.7392 145.169 93.7392C144.009 93.7392 143.167 94.2473 142.569 95.1627V100.841H139.934V91.5945H142.569V93.0998C143.325 91.9047 144.677 91.3643 146.013 91.3643C147.77 91.3643 148.912 92.1826 149.37 93.4595C150.107 92.0037 151.584 91.3643 153.024 91.3643C155.343 91.3643 156.626 92.8543 156.626 94.8334V100.845H156.624Z" fill="white"/>
<path d="M157.855 88.8313C157.855 88.0301 158.505 87.5049 159.418 87.5049C160.278 87.5049 160.946 88.0282 160.946 88.8313C160.946 89.6343 160.278 90.1577 159.418 90.1577C158.505 90.1577 157.855 89.6343 157.855 88.8313ZM158.082 91.5982H160.718V100.845H158.082V91.5982Z" fill="white"/>
<path d="M171.978 94.4452V100.843H169.361V95.4919C169.361 94.2321 168.676 93.6916 167.551 93.6916C166.515 93.6916 165.496 94.2149 164.897 95.2635V100.845H162.262V91.5983H164.897V92.9723C165.706 92.0398 166.864 91.4004 168.376 91.4004C170.572 91.4023 171.978 92.7268 171.978 94.4452Z" fill="white"/>
<path d="M183.117 91.598V99.9617C183.117 102.908 180.78 104.314 177.477 104.314C175.827 104.314 174.139 103.905 172.84 102.923L174.07 100.942C175.054 101.695 176.231 102.104 177.461 102.104C179.375 102.104 180.501 101.385 180.501 99.7143V99.4041C179.867 100.141 178.866 100.55 177.69 100.55C175.124 100.55 172.981 98.7495 172.981 95.9502C172.981 93.1508 175.124 91.3506 177.671 91.3506C178.97 91.3506 180.061 91.8587 180.711 92.6599L181.15 91.5961H183.117V91.598ZM180.501 95.9349C180.501 94.561 179.534 93.579 178.147 93.579C176.76 93.579 175.722 94.561 175.722 95.9349C175.722 97.326 176.758 98.308 178.164 98.308C179.534 98.308 180.501 97.326 180.501 95.9349Z" fill="white"/>
</svg>
