<svg width="299" height="124" viewBox="0 0 299 124" fill="none" xmlns="http://www.w3.org/2000/svg">
<path d="M216 2L170.185 96.0878L151.078 48.9693L131.971 96.0878L86.1615 2.00552L103.916 51.5932L121.988 98.5459C105.307 103.015 91.326 109.235 84 116.36C86.4365 115.432 103.085 109.511 124.75 105.716L131.405 123L139.94 103.567C147.175 102.798 154.446 102.422 161.72 102.44L170.762 123L178.462 103.004C190.188 103.805 199.698 105.357 204.175 106.826C204.175 106.826 209.235 95.9884 211.534 90.9948C202.127 90.382 192.697 90.2124 183.275 90.4866L198.246 51.5876L216 2ZM95.88 2.14362L131.52 72.7771L151.144 22.2063L170.762 72.7771L206.408 2.1381L171.026 48.8257L151.144 3.41963L131.262 48.8257L95.88 2.14362ZM151.078 78.2402L157.211 92.1769C152.863 92.6182 148.53 93.1818 144.214 93.8672L151.078 78.2402Z" fill="white"/>
</svg>
