<svg width="299" height="124" viewBox="0 0 299 124" fill="none" xmlns="http://www.w3.org/2000/svg">
<path d="M26.1641 62.4998C26.2022 51.1187 34.2215 43.1152 45.2077 43.1152C55.3853 43.1152 63.1339 49.9894 63.1339 61.2936C63.1339 62.6537 63.0194 64.0523 62.7869 65.5278H36.0329C36.765 69.9159 41.1998 72.9859 45.9017 72.9859C49.5626 72.9859 52.7273 71.2761 55.1146 67.7411L62.1311 73.0243C58.661 78.853 52.1859 81.9963 45.6692 81.9963C33.7982 81.9998 26.1641 73.3775 26.1641 62.4998ZM53.9209 58.8495C53.4213 54.6922 50.0276 51.5068 45.3256 51.5068C40.6237 51.5068 36.7269 54.6152 36.189 58.8495H53.9244H53.9209Z" fill="white"/>
<path d="M66.8306 62.4998C66.8688 51.1187 74.8881 43.1152 85.8742 43.1152C96.0519 43.1152 103.8 49.9894 103.8 61.2936C103.8 62.6537 103.686 64.0523 103.453 65.5278H76.6994C77.4316 69.9159 81.8663 72.9859 86.5682 72.9859C90.2291 72.9859 93.3938 71.2761 95.7812 67.7411L102.798 73.0243C99.3276 78.853 92.8525 81.9964 86.3357 81.9964C74.4612 81.9964 66.8271 73.374 66.8271 62.4964L66.8306 62.4998ZM94.5875 58.8495C94.0878 54.6922 90.6941 51.5068 85.9922 51.5068C81.2903 51.5068 77.3934 54.6152 76.8556 58.8495H94.591H94.5875Z" fill="white"/>
<path d="M127.196 43C134.136 43 140.997 46.6505 144.391 53.6436L136.874 58.4619C134.716 54.1507 130.937 52.168 127.353 52.168C121.415 52.168 117.289 56.7517 117.289 62.6572C117.289 68.5628 121.53 72.9511 127.196 72.9512C131.204 72.9512 134.56 71.0492 137.065 66.5039L144.196 71.5527C140.803 78.3498 133.904 81.9619 126.964 81.9619C115.86 81.9619 107.455 73.3394 107.455 62.4619H107.459C107.459 51.5459 116.21 43 127.196 43ZM193.239 43.1152C204.572 43.1152 213.016 51.5452 213.016 62.5381C213.016 73.5311 204.611 81.9609 193.239 81.9609C181.868 81.9607 173.464 73.5694 173.464 62.5381C173.464 51.5453 181.906 43.1154 193.239 43.1152ZM229.743 71.0498L237.687 44.4795H246.476L254.381 71.0498L261.706 43.8955H271.922L261.012 81.1895H248.714L242.083 58.5811L235.451 81.1895H223.153L212.244 43.8955H222.456L229.743 71.0498ZM167.869 43.1152C170.066 43.1152 171.919 43.6995 172.689 43.9688L171.919 52.8633C170.916 52.5136 169.299 52.0107 167.331 52.0107C162.976 52.0108 158.389 54.381 158.389 62.0693V81.1816H148.482V43.8945H158.038L158.229 48.9824C160.117 45.0978 163.705 43.1152 167.869 43.1152ZM193.239 52.168C187.42 52.1682 183.295 56.5978 183.295 62.5381C183.295 68.4785 187.458 72.951 193.239 72.9512C199.062 72.9512 203.185 68.5206 203.185 62.5381C203.184 56.5557 199.058 52.168 193.239 52.168Z" fill="white"/>
</svg>
