<svg width="299" height="124" viewBox="0 0 299 124" fill="none" xmlns="http://www.w3.org/2000/svg">
<g clip-path="url(#clip0_2685_794)">
<mask id="mask0_2685_794" style="mask-type:luminance" maskUnits="userSpaceOnUse" x="62" y="48" width="175" height="34">
<path d="M237 48.6543H62V81.3466H237V48.6543Z" fill="white"/>
</mask>
<g mask="url(#mask0_2685_794)">
<path d="M93.0253 57.2911L85.2674 49.584L77.5093 57.2911L69.7579 64.9982L62 72.7055L69.7579 80.4061L77.5093 72.7055L85.2674 64.9982L93.0253 72.7055L100.777 80.4061L108.535 72.7055L100.777 64.9982L93.0253 57.2911Z" fill="white"/>
<path d="M187.906 57.2911L180.148 49.584L172.39 57.2911L164.639 64.9982L156.881 72.7055L164.639 80.4061L172.39 72.7055L180.148 64.9982L187.906 72.7055L195.665 80.4061L203.416 72.7055L195.665 64.9982L187.906 57.2911Z" fill="white"/>
<path d="M127.225 70.4492V48.6543H116.256V81.3466H149.164V70.4492H127.225Z" fill="white"/>
<path d="M226.032 48.6543H215.07H204.1V59.5517H215.07V70.4492V81.3466H226.032V70.4492V59.5517H237.001V48.6543H226.032Z" fill="white"/>
<path d="M85.2699 80.4097L93.0278 72.709H77.512L85.2699 80.4097Z" fill="white"/>
<path d="M180.145 80.4097L187.903 72.709H172.387L180.145 80.4097Z" fill="white"/>
</g>
</g>
<defs>
<clipPath id="clip0_2685_794">
<rect width="175" height="34" fill="white" transform="translate(62 48)"/>
</clipPath>
</defs>
</svg>
